<svg width="314" height="169" fill="none" xmlns="http://www.w3.org/2000/svg"><path d="M16 133h282v4H16v-4ZM4 117H0V16h4v101Z" fill="#000"/><path d="M298.636 2 313 16.177v99.219l-14.364 14.166h-61.088v14.178l7.182 7.094V165H233.5L212 143.74l-3-7.24v-6.938L16.5 132 4 115.396V16.177L18.375 2h280.261Z" fill="#BBA5EF"/><path d="M306 12h4v105h-4V12Z" fill="#fff"/><path d="M8 117H4V16h4v101Z" fill="#663EC6"/><path d="M302 8h4v4h-4V8Z" fill="#fff"/><path d="M16 8h-4V4h4v4Zm-4 4H8V8h4v4Z" fill="#663EC6"/><path d="M12 16H8v-4h4v4Z" fill="#fff"/><path d="M12 16H8v-4h4v4Zm4-4h-4V8h4v4Z" fill="#fff"/><path d="M16 12h-4V8h4v4Z" fill="#fff"/><path d="M8 16H4v-4h4v4Z" fill="#663EC6"/><path d="M16 4h286.599v4H16V4Z" fill="#fff"/><path d="M302.61 4H16.01V0h286.6v4ZM8 121H4v-4h4v4Zm4 4H8v-4h4v4Zm4 4h-4v-4h4v4Z" fill="#663EC6"/><path d="M16 133h-4v-4h4v4Zm-4-4H8v-4h4v4Zm-4-4H4v-4h4v4Zm-4-4H0v-4h4v4Z" fill="#000"/><path d="M298 133H16v-4h282v4Zm12-121h4v105h-4V12Zm-8-8h4v4h-4V4Zm4 4h4v4h-4V8Zm0 109h4v4h-4v-4Zm-4 4h4v4h-4v-4Zm-4 4h4v4h-4v-4Z" fill="#663EC6"/><path d="M298 129h4v4h-4v-4Z" fill="#000"/><path d="M298 129h4v4h-4v-4Zm4-4h4v4h-4v-4Z" fill="#000"/><path d="M302 125h4v4h-4v-4Zm4-4h4v4h-4v-4Z" fill="#000"/><path d="M306 121h4v4h-4v-4Zm4-4h4v4h-4v-4Z" fill="#000"/><path d="M310 117h4v4h-4v-4Z" fill="#000"/><path d="M237 133h4v4h-4v-4Zm-28 0h4v4h-4v-4Z" fill="#663EC6"/><path d="M205 137h4v4h-4v-4Zm4 4h4v4h-4v-4Zm4 4h4v4h-4v-4Zm4 4h4v4h-4v-4Zm4 4h4v4h-4v-4Zm4 4h4v4h-4v-4Zm4 4h4v4h-4v-4Zm4 4h4v4h-4v-4Zm4 0h4v4h-4v-4Zm4 0h4v4h-4v-4Zm4 0h4v4h-4v-4Zm0-4h4v-4h-4v4Zm0 4h4v-4h-4v4Zm0-8h4v-4h-4v4Zm0-4h4v-4h-4v4Zm-4-4h4v-4h-4v4Zm0-4h4v-4h-4v4Zm0-4h4v-4h-4v4Z" fill="#000"/><path d="M209 137h4v4h-4v-4Zm4 4h4v4h-4v-4Zm4 4h4v4h-4v-4Zm4 4h4v4h-4v-4Zm4 4h4v4h-4v-4Zm4 4h4v4h-4v-4Zm4 4h4v4h-4v-4Zm4 0h4v4h-4v-4Zm4 0h4v4h-4v-4Zm0-4h4v4h-4v-4Zm0-4h4v4h-4v-4Zm0-4h4v4h-4v-4Zm-4-4h4v4h-4v-4Zm0-4h4v4h-4v-4Zm0-4h4v4h-4v-4Z" fill="#663EC6"/><path d="M213 119h24v21h-24v-21Z" fill="#BBA5EF"/></svg>