<svg width="40" height="40" viewBox="0 0 40 40" fill="none" xmlns="http://www.w3.org/2000/svg">
<path d="M8.3335 8.33334H11.6668V11.6667H8.3335V8.33334ZM15.0002 15H11.6668V11.6667H15.0002V15ZM18.3335 18.3333H15.0002V15H18.3335V18.3333ZM21.6668 18.3333H18.3335V21.6667H15.0002V25H11.6668V28.3333H8.3335V31.6667H11.6668V28.3333H15.0002V25H18.3335V21.6667H21.6668V25H25.0002V28.3333H28.3335V31.6667H31.6668V28.3333H28.3335V25H25.0002V21.6667H21.6668V18.3333ZM25.0002 15V18.3333H21.6668V15H25.0002ZM28.3335 11.6667V15H25.0002V11.6667H28.3335ZM28.3335 11.6667V8.33334H31.6668V11.6667H28.3335Z" fill="#FFFF00"/>
</svg>
