<svg width="33" height="28" viewBox="0 0 33 28" fill="none" xmlns="http://www.w3.org/2000/svg">
<g clip-path="url(#clip0_1403_6988)">
<path d="M14.1428 23.338H9.42388V18.6667H14.1428V23.338Z" fill="white"/>
<path d="M9.42383 18.6667H4.7142V14.0046H9.42383V18.6667Z" fill="white"/>
<path d="M4.71436 9.33345V14.0047H-0.00458145V9.33345V4.67139H4.71436V9.33345Z" fill="white"/>
<path d="M28.2811 4.67139H33V9.33345V14.0047H28.2811V9.33345V4.67139Z" fill="white"/>
<path d="M28.281 14.0046V18.6667H23.5714V14.0046H28.281Z" fill="white"/>
<path d="M23.5715 18.6667V23.338H18.8526V18.6667H23.5715Z" fill="white"/>
<path d="M18.8525 28H14.1429V23.3379H18.8525V28Z" fill="white"/>
<path d="M4.71431 4.67127V0H9.42394H14.1429V4.67127H9.42394H4.71431Z" fill="white"/>
<path d="M18.8525 4.67127V0H23.5714H28.2811V4.67127H23.5714H18.8525Z" fill="white"/>
<path d="M14.1429 9.33345V4.67139H18.8525V9.33345H14.1429Z" fill="white"/>
</g>
<defs>
<clipPath id="clip0_1403_6988">
<rect width="33" height="28" fill="white" transform="matrix(-1 0 0 1 33 0)"/>
</clipPath>
</defs>
</svg>
