<svg width="84" height="72" viewBox="0 0 84 72" fill="none" xmlns="http://www.w3.org/2000/svg">
<path d="M41.5344 13.849L52.6124 2.771H69.2262L80.3042 13.849V30.4628L41.5344 69.2326L2.77086 30.4628V13.849L13.8426 2.771H30.4627L41.5344 13.849Z" fill="#FE75F0"/>
<path d="M49.8413 66.4553H44.3054V60.9194H49.8413V66.4553Z" fill="black"/>
<path d="M44.3054 71.9974H38.7695V66.4615H44.3054V71.9974Z" fill="black"/>
<path d="M60.9192 55.3835H55.3833V49.8477H60.9192V55.3835Z" fill="black"/>
<path d="M55.3835 60.9257H49.8477V55.3898H55.3835V60.9257Z" fill="black"/>
<path d="M71.9973 44.3057H66.4614V38.7698H71.9973V44.3057Z" fill="black"/>
<path d="M66.4551 49.8478H60.9192V44.3119H66.4551V49.8478Z" fill="black"/>
<path d="M83.0752 33.2278H77.5393V11.0719H83.0752V33.2278Z" fill="black"/>
<path d="M77.5332 38.7698H71.9973V33.2339H77.5332V38.7698Z" fill="black"/>
<path d="M77.5393 5.54212V11.078H72.0034V5.54212H77.5393Z" fill="black"/>
<path d="M71.9973 9.53674e-07V5.53589L49.8414 5.53589V9.53674e-07L71.9973 9.53674e-07Z" fill="black"/>
<path d="M49.8413 11.078H44.3054V5.54212L49.8413 5.54212V11.078Z" fill="black"/>
<path d="M44.3054 16.6139H38.7695V11.078H44.3054V16.6139Z" fill="black"/>
<path d="M33.2336 60.9257H38.7695V66.4615H33.2336V60.9257Z" fill="black"/>
<path d="M22.156 49.8477H27.6919V55.3835H22.156V49.8477Z" fill="black"/>
<path d="M27.6914 55.3835H33.2273V60.9194H27.6914V55.3835Z" fill="black"/>
<path d="M11.0776 38.7698H16.6135V44.3057H11.0776V38.7698Z" fill="black"/>
<path d="M16.6199 44.3057H22.1558V49.8416H16.6199V44.3057Z" fill="black"/>
<path d="M4.29153e-06 11.078H5.53589V33.2339H4.29153e-06V11.078Z" fill="black"/>
<path d="M5.54175 33.2277H11.0776V38.7635H5.54175V33.2277Z" fill="black"/>
<path d="M11.0776 5.54212V11.078H5.54175V5.54212H11.0776Z" fill="black"/>
<path d="M33.2273 -9.53674e-07V5.53589L11.0714 5.53589V-9.53674e-07L33.2273 -9.53674e-07Z" fill="black"/>
<path d="M33.2336 5.53589H38.7695V11.0718H33.2336V5.53589Z" fill="black"/>
<path d="M71.9973 22.1559H66.4614V16.62H71.9973V22.1559Z" fill="white"/>
<path d="M60.9255 11.078H66.4614V16.6139H60.9255V11.078Z" fill="white"/>
</svg>
