<svg width="38" height="34" viewBox="0 0 38 34" fill="none" xmlns="http://www.w3.org/2000/svg">
<path d="M14.149 0.312012H7.48234V3.64535H4.14901V6.97868H0.815674V16.9787H4.14901V20.312H7.48234V23.6453H10.8157V26.9787H14.149V30.312H17.4823V33.6453H20.8157V30.312H24.149V26.9787H27.4823V23.6453H30.8157V20.312H34.149V16.9787H37.4823V6.97868H34.149V3.64535H30.8157V0.312012H24.149V3.64535H20.8157V6.97868H17.4823V3.64535H14.149V0.312012ZM14.149 3.64535V6.97868H17.4823V10.312H20.8157V6.97868H24.149V3.64535H30.8157V6.97868H34.149V16.9787H30.8157V20.312H27.4823V23.6453H24.149V26.9787H20.8157V30.312H17.4823V26.9787H14.149V23.6453H10.8157V20.312H7.48234V16.9787H4.14901V6.97868H7.48234V3.64535H14.149Z" fill="#FE3344"/>
</svg>
