<svg width="15" height="12" viewBox="0 0 15 12" fill="none" xmlns="http://www.w3.org/2000/svg">
<path d="M8.45978 2.8198H11.2792V0H8.45978V2.8198Z" fill="white"/>
<path d="M2.8194 2.8198H5.6401V0H2.8194V2.8198Z" fill="white"/>
<path d="M0 5.63962H2.8194V2.81982H0V5.63962Z" fill="white"/>
<path d="M5.64001 5.63962H8.45981V2.81982H5.64001V5.63962Z" fill="white"/>
<path d="M2.8194 5.63962H5.6401V2.81982H2.8194V5.63962Z" fill="white"/>
<path d="M11.2792 5.63962H14.099V2.81982H11.2792V5.63962Z" fill="white"/>
<path d="M8.45978 5.63962H11.2792V2.81982H8.45978V5.63962Z" fill="white"/>
<path d="M5.64001 8.45899H8.45981V5.63959H5.64001V8.45899Z" fill="white"/>
<path d="M2.8194 8.45899H5.6401V5.63959H2.8194V8.45899Z" fill="white"/>
<path d="M8.45978 8.45899H11.2792V5.63959H8.45978V8.45899Z" fill="white"/>
<path d="M5.64001 11.2798H8.45981V8.45911H5.64001V11.2798Z" fill="white"/>
</svg>
