<svg width="21" height="21" viewBox="0 0 21 21" fill="none" xmlns="http://www.w3.org/2000/svg">
<path d="M12.6363 0.0419922H4.45443V2.11293H2.40898V4.18387H0.363525V12.4676H2.40898V14.5385H4.45443V16.6095H12.6363V14.5385H14.6817V16.6095H16.7272V18.6804H18.7726V20.7514H20.8181V18.6804H18.7726V16.6095H16.7272V14.5385H14.6817V12.4676H16.7272V4.18387H14.6817V2.11293H12.6363V0.0419922ZM12.6363 2.11293V4.18387H14.6817V12.4676H12.6363V14.5385H4.45443V12.4676H2.40898V4.18387H4.45443V2.11293H12.6363ZM7.52262 4.18387H9.56807V7.29027H12.6363V9.36121H9.56807V12.4676H7.52262V9.36121H4.45443V7.29027H7.52262V4.18387Z" fill="#FFFF00"/>
</svg>
