<svg width="589" height="76" viewBox="0 0 589 76" fill="none" xmlns="http://www.w3.org/2000/svg">
<path d="M53.9187 0H64.7066V75.4806H53.9187V21.5619H48.5317V32.3498H43.1377V43.1308H37.7438V53.9187H26.9628V43.1308H21.5689V32.3498H16.1749V21.5619H10.7879V75.4806H0V0H10.7879V10.781H21.5689V21.5619H26.9628V32.3498H37.7438V21.5619H43.1377V10.781H53.9187V0Z" fill="#43FE01"/>
<path d="M137.494 64.6997H140.173V75.4806H129.406V64.6997H126.713V53.9187H88.9689V64.6997H86.2754V75.4806H75.4875V64.6997H78.188V53.9187H80.8815V43.1308H83.575V32.3498H86.2754V21.5619H88.9689V10.781H91.6624V0H124.012V10.781H126.713V21.5619H129.406V32.3498H132.1V43.1308H134.8V53.9187H137.494V64.6997ZM121.319 32.3498H118.597V21.5619H115.897V10.781H99.7499V21.5619H97.0564V32.3498H94.3629V43.1308H121.319V32.3498Z" fill="#43FE01"/>
<path d="M202.2 10.781H180.624V75.5085H169.837V10.781H148.261V0H202.179L202.2 10.781Z" fill="#43FE01"/>
<path d="M256.112 10.781H229.156V21.5619H221.069V53.9187H229.156V64.6997H256.112V75.4806H223.762V64.6997H218.375V53.9187H210.288V21.5619H218.375V10.781H223.762V0H256.112V10.781ZM266.9 21.5619H256.112V10.781H266.9V21.5619ZM266.9 53.9187V64.6997H256.112V53.9187H266.9Z" fill="#43FE01"/>
<path d="M331.572 0V75.4806H320.819V43.1308H288.469V75.4806H277.681V0H288.469V32.3498H320.819V0H331.572Z" fill="#43FE01"/>
<path d="M420.562 21.5619H425.956V32.3498H423.262V43.1308H420.562V53.9187H409.781V43.1308H412.474V32.3498H415.175V21.5619H409.781V10.781H382.825V21.5619H380.124V32.3498H377.431V43.1308H374.723V53.9187H372.023V64.6997H398.986V53.9187H409.767V64.6997H401.693V75.4806H358.542V64.6997H361.235V53.9187H363.929V43.1308H366.629V32.3498H369.322V21.5619H372.016V10.781H374.723V0H417.875V10.781H420.569L420.562 21.5619Z" fill="#43FE01"/>
<path d="M487.962 75.4806H477.181V53.9048H439.451V64.6997H434.057V75.4806H423.262V64.6997H428.656V53.9187H434.043V43.1308H439.451V32.3498H444.845V21.5619H450.232V10.781H455.626V0H487.962V75.4806ZM461.006 10.7531V21.5341H455.612V32.322H450.218V43.1029H477.181V10.781L461.006 10.7531Z" fill="#43FE01"/>
<path d="M536.493 32.3498V43.1308H541.88V53.9187H539.187V64.6997H536.493V75.4806H525.706V64.6997H528.406V53.9187H531.1V43.1308H525.706V32.3498H523.012V21.5619H520.319V10.781H517.618V0H528.406V10.781H531.1V21.5619H533.793V32.3498H536.493ZM566.122 0H576.91V10.781H568.843V21.5619H560.756V32.3498H552.668V43.1308H541.88V32.3498H549.968V21.5619H558.055V10.781H566.122V0Z" fill="#43FE01"/>
<path d="M65.0546 0H75.8425V75.4806H65.0546V21.5619H59.6676V32.3498H54.2736V43.1308H48.8797V53.9187H38.0987V43.1308H32.7047V32.3498H27.3108V21.5619H21.9238V75.4806H11.1359V0H21.9238V10.781H32.7047V21.5619H38.0987V32.3498H48.8797V21.5619H54.2736V10.781H65.0546V0Z" fill="#FE75F0"/>
<path d="M148.63 64.6997H151.309V75.4806H140.542V64.6997H137.849V53.9187H100.105V64.6997H97.4114V75.4806H86.6235V64.6997H89.324V53.9187H92.0175V43.1308H94.711V32.3498H97.4114V21.5619H100.105V10.781H102.798V0H135.148V10.781H137.849V21.5619H140.542V32.3498H143.236V43.1308H145.936V53.9187H148.63V64.6997ZM132.455 32.3498H129.733V21.5619H127.033V10.781H110.886V21.5619H108.192V32.3498H105.499V43.1308H132.455V32.3498Z" fill="#FE75F0"/>
<path d="M213.336 10.781H191.76V75.5085H180.973V10.781H159.397V0H213.315L213.336 10.781Z" fill="#FE75F0"/>
<path d="M267.248 10.781H240.292V21.5619H232.205V53.9187H240.292V64.6997H267.248V75.4806H234.898V64.6997H229.511V53.9187H221.424V21.5619H229.511V10.781H234.898V0H267.248V10.781ZM278.036 21.5619H267.248V10.781H278.036V21.5619ZM278.036 53.9187V64.6997H267.248V53.9187H278.036Z" fill="#FE75F0"/>
<path d="M342.708 0V75.4806H331.955V43.1308H299.605V75.4806H288.817V0H299.605V32.3498H331.955V0H342.708Z" fill="#FE75F0"/>
<path d="M431.698 21.5619H437.092V32.3498H434.398V43.1308H431.698V53.9187H420.917V43.1308H423.61V32.3498H426.311V21.5619H420.917V10.781H393.961V21.5619H391.26V32.3498H388.567V43.1308H385.859V53.9187H383.159V64.6997H410.122V53.9187H420.903V64.6997H412.829V75.4806H369.678V64.6997H372.371V53.9187H375.065V43.1308H377.765V32.3498H380.458V21.5619H383.152V10.781H385.859V0H429.011V10.781H431.705L431.698 21.5619Z" fill="#FE75F0"/>
<path d="M499.098 75.4806H488.317V53.9048H450.587V64.6997H445.193V75.4806H434.398V64.6997H439.792V53.9187H445.179V43.1308H450.587V32.3498H455.981V21.5619H461.368V10.781H466.762V0H499.098V75.4806ZM472.142 10.7531V21.5341H466.748V32.322H461.354V43.1029H488.317V10.781L472.142 10.7531Z" fill="#FE75F0"/>
<path d="M547.629 32.3498V43.1308H553.016V53.9187H550.323V64.6997H547.629V75.4806H536.842V64.6997H539.542V53.9187H542.236V43.1308H536.842V32.3498H534.148V21.5619H531.455V10.781H528.754V0H539.542V10.781H542.236V21.5619H544.929V32.3498H547.629ZM577.258 0H588.046V10.781H579.979V21.5619H571.892V32.3498H563.804V43.1308H553.016V32.3498H561.104V21.5619H569.191V10.781H577.258V0Z" fill="#FE75F0"/>
<path d="M59.4866 0H70.2745V75.4806H59.4866V21.5619H54.0996V32.3498H48.7056V43.1308H43.3117V53.9187H32.5307V43.1308H27.1368V32.3498H21.7428V21.5619H16.3558V75.4806H5.5679V0H16.3558V10.781H27.1368V21.5619H32.5307V32.3498H43.3117V21.5619H48.7056V10.781H59.4866V0Z" fill="white"/>
<path d="M143.062 64.6997H145.741V75.4806H134.974V64.6997H132.281V53.9187H94.537V64.6997H91.8435V75.4806H81.0555V64.6997H83.756V53.9187H86.4495V43.1308H89.143V32.3498H91.8435V21.5619H94.537V10.781H97.2305V0H129.58V10.781H132.281V21.5619H134.974V32.3498H137.668V43.1308H140.368V53.9187H143.062V64.6997ZM126.887 32.3498H124.165V21.5619H121.465V10.781H105.318V21.5619H102.624V32.3498H99.9309V43.1308H126.887V32.3498Z" fill="white"/>
<path d="M207.768 10.781H186.192V75.5085H175.405V10.781H153.829V0H207.747L207.768 10.781Z" fill="white"/>
<path d="M261.68 10.781H234.724V21.5619H226.637V53.9187H234.724V64.6997H261.68V75.4806H229.33V64.6997H223.943V53.9187H215.856V21.5619H223.943V10.781H229.33V0H261.68V10.781ZM272.468 21.5619H261.68V10.781H272.468V21.5619ZM272.468 53.9187V64.6997H261.68V53.9187H272.468Z" fill="white"/>
<path d="M337.14 0V75.4806H326.387V43.1308H294.037V75.4806H283.249V0H294.037V32.3498H326.387V0H337.14Z" fill="white"/>
<path d="M426.13 21.5619H431.524V32.3498H428.83V43.1308H426.13V53.9187H415.349V43.1308H418.042V32.3498H420.743V21.5619H415.349V10.781H388.393V21.5619H385.692V32.3498H382.999V43.1308H380.292V53.9187H377.591V64.6997H404.554V53.9187H415.335V64.6997H407.261V75.4806H364.11V64.6997H366.803V53.9187H369.497V43.1308H372.197V32.3498H374.891V21.5619H377.584V10.781H380.292V0H423.443V10.781H426.137L426.13 21.5619Z" fill="white"/>
<path d="M493.53 75.4806H482.749V53.9048H445.019V64.6997H439.625V75.4806H428.83V64.6997H434.224V53.9187H439.611V43.1308H445.019V32.3498H450.413V21.5619H455.8V10.781H461.194V0H493.53V75.4806ZM466.574 10.7531V21.5341H461.18V32.322H455.786V43.1029H482.749V10.781L466.574 10.7531Z" fill="white"/>
<path d="M542.061 32.3498V43.1308H547.448V53.9187H544.755V64.6997H542.061V75.4806H531.274V64.6997H533.974V53.9187H536.668V43.1308H531.274V32.3498H528.58V21.5619H525.887V10.781H523.186V0H533.974V10.781H536.668V21.5619H539.361V32.3498H542.061ZM571.69 0H582.478V10.781H574.411V21.5619H566.324V32.3498H558.236V43.1308H547.448V32.3498H555.536V21.5619H563.623V10.781H571.69V0Z" fill="white"/>
</svg>
