<svg width="36" height="34" viewBox="0 0 36 34" fill="none" xmlns="http://www.w3.org/2000/svg">
<path d="M33.5991 16.7984H35.9999V14.3999H33.5991V16.7984Z" fill="black"/>
<path d="M33.5991 14.3998H35.9999V11.999H33.5991V14.3998Z" fill="black"/>
<path d="M33.5991 11.9994H35.9999V9.59863H33.5991V11.9994Z" fill="black"/>
<path d="M33.5991 9.59865H35.9999V7.2002H33.5991V9.59865Z" fill="black"/>
<path d="M31.1985 19.1992H33.5993V16.7983H31.1985V19.1992Z" fill="black"/>
<path d="M31.1985 16.7984H33.5993V14.3999H31.1985V16.7984Z" fill="#FE3344"/>
<path d="M31.1985 14.3998H33.5993V11.999H31.1985V14.3998Z" fill="#FE3344"/>
<path d="M31.1985 11.9994H33.5993V9.59863H31.1985V11.9994Z" fill="#FE3344"/>
<path d="M31.1985 9.59865H33.5993V7.2002H31.1985V9.59865Z" fill="#FE3344"/>
<path d="M31.1985 7.20009H33.5993V4.79932H31.1985V7.20009Z" fill="black"/>
<path d="M28.8 21.6001H31.1984V19.1992H28.8V21.6001Z" fill="black"/>
<path d="M28.8 19.1992H31.1984V16.7983H28.8V19.1992Z" fill="#FE3344"/>
<path d="M28.8 16.7984H31.1984V14.3999H28.8V16.7984Z" fill="#FE3344"/>
<path d="M28.8 14.3998H31.1984V11.999H28.8V14.3998Z" fill="#FE3344"/>
<path d="M28.8 11.9994H31.1984V9.59863H28.8V11.9994Z" fill="#FE3344"/>
<path d="M28.8 9.59865H31.1984V7.2002H28.8V9.59865Z" fill="#FE3344"/>
<path d="M28.8 7.20009H31.1984V4.79932H28.8V7.20009Z" fill="#FE3344"/>
<path d="M28.8 4.79917H31.1984V2.40088H28.8V4.79917Z" fill="black"/>
<path d="M26.3994 23.9984H28.8002V21.6001H26.3994V23.9984Z" fill="black"/>
<path d="M26.3994 21.6001H28.8002V19.1992H26.3994V21.6001Z" fill="#FE3344"/>
<path d="M26.3994 19.1992H28.8002V16.7983H26.3994V19.1992Z" fill="#FE3344"/>
<path d="M26.3994 16.7984H28.8002V14.3999H26.3994V16.7984Z" fill="#FE3344"/>
<path d="M26.3994 14.3998H28.8002V11.999H26.3994V14.3998Z" fill="#FE3344"/>
<path d="M26.3994 11.9994H28.8002V9.59863H26.3994V11.9994Z" fill="#FE3344"/>
<path d="M26.3994 9.59865H28.8002V7.2002H26.3994V9.59865Z" fill="#FE3344"/>
<path d="M26.3994 7.20009H28.8002V4.79932H26.3994V7.20009Z" fill="#FE3344"/>
<path d="M26.3994 4.79917H28.8002V2.40088H26.3994V4.79917Z" fill="#FE3344"/>
<path d="M26.3993 2.40077H28.8001V0H26.3993V2.40077Z" fill="black"/>
<path d="M23.9985 26.3994H26.3992V23.9985H23.9985V26.3994Z" fill="black"/>
<path d="M23.9985 23.9984H26.3992V21.6001H23.9985V23.9984Z" fill="#FE3344"/>
<path d="M23.9985 21.6001H26.3992V19.1992H23.9985V21.6001Z" fill="#FE3344"/>
<path d="M23.9985 19.1992H26.3992V16.7983H23.9985V19.1992Z" fill="#FE3344"/>
<path d="M23.9985 16.7984H26.3992V14.3999H23.9985V16.7984Z" fill="#FE3344"/>
<path d="M23.9985 14.3998H26.3992V11.999H23.9985V14.3998Z" fill="#FE3344"/>
<path d="M23.9985 11.9994H26.3992V9.59863H23.9985V11.9994Z" fill="#FE3344"/>
<path d="M23.9985 9.59865H26.3992V7.2002H23.9985V9.59865Z" fill="#FE3344"/>
<path d="M23.9985 7.20009H26.3992V4.79932H23.9985V7.20009Z" fill="#FE3344"/>
<path d="M23.9985 4.79917H26.3992V2.40088H23.9985V4.79917Z" fill="#FE3344"/>
<path d="M23.9985 2.40077H26.3992V0H23.9985V2.40077Z" fill="black"/>
<path d="M21.6001 28.7997H23.9985V26.3989H21.6001V28.7997Z" fill="black"/>
<path d="M21.6001 26.3994H23.9985V23.9985H21.6001V26.3994Z" fill="#FE3344"/>
<path d="M21.6001 23.9984H23.9985V21.6001H21.6001V23.9984Z" fill="#FE3344"/>
<path d="M21.6001 21.6001H23.9985V19.1992H21.6001V21.6001Z" fill="#FE3344"/>
<path d="M21.6001 19.1992H23.9985V16.7983H21.6001V19.1992Z" fill="#FE3344"/>
<path d="M21.6001 16.7984H23.9985V14.3999H21.6001V16.7984Z" fill="#FE3344"/>
<path d="M21.6001 14.3998H23.9985V11.999H21.6001V14.3998Z" fill="#FE3344"/>
<path d="M21.6001 11.9994H23.9985V9.59863H21.6001V11.9994Z" fill="#FE3344"/>
<path d="M21.6001 9.59865H23.9985V7.2002H21.6001V9.59865Z" fill="#FE3344"/>
<path d="M21.6001 7.20009H23.9985V4.79932H21.6001V7.20009Z" fill="#FE3344"/>
<path d="M21.6001 4.79917H23.9985V2.40088H21.6001V4.79917Z" fill="#FE3344"/>
<path d="M21.6001 2.40077H23.9985V0H21.6001V2.40077Z" fill="black"/>
<path d="M19.199 31.1983H21.5997V28.7998H19.199V31.1983Z" fill="black"/>
<path d="M19.199 28.7997H21.5997V26.3989H19.199V28.7997Z" fill="#FE3344"/>
<path d="M19.199 26.3994H21.5997V23.9985H19.199V26.3994Z" fill="#FE3344"/>
<path d="M19.199 23.9984H21.5997V21.6001H19.199V23.9984Z" fill="#FE3344"/>
<path d="M19.199 21.6001H21.5997V19.1992H19.199V21.6001Z" fill="#FE3344"/>
<path d="M19.199 19.1992H21.5997V16.7983H19.199V19.1992Z" fill="#FE3344"/>
<path d="M19.199 16.7984H21.5997V14.3999H19.199V16.7984Z" fill="#FE3344"/>
<path d="M19.199 14.3998H21.5997V11.999H19.199V14.3998Z" fill="#FE3344"/>
<path d="M19.199 11.9994H21.5997V9.59863H19.199V11.9994Z" fill="#FE3344"/>
<path d="M19.199 9.59865H21.5997V7.2002H19.199V9.59865Z" fill="#FE3344"/>
<path d="M19.199 7.20009H21.5997V4.79932H19.199V7.20009Z" fill="#FE3344"/>
<path d="M19.199 4.79917H21.5997V2.40088H19.199V4.79917Z" fill="black"/>
<path d="M16.7983 33.599H19.1991V31.1982H16.7983V33.599Z" fill="black"/>
<path d="M16.7983 31.1983H19.1991V28.7998H16.7983V31.1983Z" fill="#FE3344"/>
<path d="M16.7983 28.7997H19.1991V26.3989H16.7983V28.7997Z" fill="#FE3344"/>
<path d="M16.7983 26.3994H19.1991V23.9985H16.7983V26.3994Z" fill="#FE3344"/>
<path d="M16.7983 23.9984H19.1991V21.6001H16.7983V23.9984Z" fill="#FE3344"/>
<path d="M16.7983 21.6001H19.1991V19.1992H16.7983V21.6001Z" fill="#FE3344"/>
<path d="M16.7983 19.1992H19.1991V16.7983H16.7983V19.1992Z" fill="#FE3344"/>
<path d="M16.7983 16.7984H19.1991V14.3999H16.7983V16.7984Z" fill="#FE3344"/>
<path d="M16.7983 14.3998H19.1991V11.999H16.7983V14.3998Z" fill="#FE3344"/>
<path d="M16.7983 11.9994H19.1991V9.59863H16.7983V11.9994Z" fill="#FE3344"/>
<path d="M16.7983 9.59865H19.1991V7.2002H16.7983V9.59865Z" fill="#FE3344"/>
<path d="M16.7983 7.20009H19.1991V4.79932H16.7983V7.20009Z" fill="black"/>
<path d="M14.4001 31.1983H16.7986V28.7998H14.4001V31.1983Z" fill="black"/>
<path d="M14.4001 28.7997H16.7986V26.3989H14.4001V28.7997Z" fill="#FE3344"/>
<path d="M14.4001 26.3994H16.7986V23.9985H14.4001V26.3994Z" fill="#FE3344"/>
<path d="M14.4001 23.9984H16.7986V21.6001H14.4001V23.9984Z" fill="#FE3344"/>
<path d="M14.4001 21.6001H16.7986V19.1992H14.4001V21.6001Z" fill="#FE3344"/>
<path d="M14.4001 19.1992H16.7986V16.7983H14.4001V19.1992Z" fill="#FE3344"/>
<path d="M14.4001 16.7984H16.7986V14.3999H14.4001V16.7984Z" fill="#FE3344"/>
<path d="M14.4001 14.3998H16.7986V11.999H14.4001V14.3998Z" fill="#FE3344"/>
<path d="M14.4001 11.9994H16.7986V9.59863H14.4001V11.9994Z" fill="#FE3344"/>
<path d="M14.4001 9.59865H16.7986V7.2002H14.4001V9.59865Z" fill="#FE3344"/>
<path d="M14.4001 7.20009H16.7986V4.79932H14.4001V7.20009Z" fill="#FE3344"/>
<path d="M14.4001 4.79917H16.7986V2.40088H14.4001V4.79917Z" fill="black"/>
<path d="M11.9993 28.7997H14.4002V26.3989H11.9993V28.7997Z" fill="black"/>
<path d="M11.9993 26.3994H14.4002V23.9985H11.9993V26.3994Z" fill="#FE3344"/>
<path d="M11.9993 23.9984H14.4002V21.6001H11.9993V23.9984Z" fill="#FEFEFE"/>
<path d="M11.9993 21.6001H14.4002V19.1992H11.9993V21.6001Z" fill="#FE3344"/>
<path d="M11.9993 19.1992H14.4002V16.7983H11.9993V19.1992Z" fill="#FE3344"/>
<path d="M11.9993 16.7984H14.4002V14.3999H11.9993V16.7984Z" fill="#FE3344"/>
<path d="M11.9993 14.3998H14.4002V11.999H11.9993V14.3998Z" fill="#FE3344"/>
<path d="M11.9993 11.9994H14.4002V9.59863H11.9993V11.9994Z" fill="#FE3344"/>
<path d="M11.9993 9.59865H14.4002V7.2002H11.9993V9.59865Z" fill="#FE3344"/>
<path d="M11.9993 7.20009H14.4002V4.79932H11.9993V7.20009Z" fill="#FE3344"/>
<path d="M11.9993 4.79917H14.4002V2.40088H11.9993V4.79917Z" fill="#FE3344"/>
<path d="M11.9993 2.40077H14.4002V0H11.9993V2.40077Z" fill="black"/>
<path d="M9.59839 26.3994H11.9992V23.9985H9.59839V26.3994Z" fill="black"/>
<path d="M9.59839 23.9984H11.9992V21.6001H9.59839V23.9984Z" fill="#FE3344"/>
<path d="M9.59839 21.6001H11.9992V19.1992H9.59839V21.6001Z" fill="#FEFEFE"/>
<path d="M9.59839 19.1992H11.9992V16.7983H9.59839V19.1992Z" fill="#FEFEFE"/>
<path d="M9.59839 16.7984H11.9992V14.3999H9.59839V16.7984Z" fill="#FE3344"/>
<path d="M9.59839 14.3998H11.9992V11.999H9.59839V14.3998Z" fill="#FE3344"/>
<path d="M9.59839 11.9994H11.9992V9.59863H9.59839V11.9994Z" fill="#FE3344"/>
<path d="M9.59839 9.59865H11.9992V7.2002H9.59839V9.59865Z" fill="#FE3344"/>
<path d="M9.59839 7.20009H11.9992V4.79932H9.59839V7.20009Z" fill="#FE3344"/>
<path d="M9.59839 4.79917H11.9992V2.40088H9.59839V4.79917Z" fill="#FEFEFE"/>
<path d="M9.59839 2.40077H11.9992V0H9.59839V2.40077Z" fill="black"/>
<path d="M7.19995 23.9984H9.59839V21.6001H7.19995V23.9984Z" fill="black"/>
<path d="M7.19995 21.6001H9.59839V19.1992H7.19995V21.6001Z" fill="#FE3344"/>
<path d="M7.19995 19.1992H9.59839V16.7983H7.19995V19.1992Z" fill="#FEFEFE"/>
<path d="M7.19995 16.7984H9.59839V14.3999H7.19995V16.7984Z" fill="#FEFEFE"/>
<path d="M7.19995 14.3998H9.59839V11.999H7.19995V14.3998Z" fill="#FEFEFE"/>
<path d="M7.19995 11.9994H9.59839V9.59863H7.19995V11.9994Z" fill="#FEFEFE"/>
<path d="M7.19995 9.59865H9.59839V7.2002H7.19995V9.59865Z" fill="#FEFEFE"/>
<path d="M7.19995 7.20009H9.59839V4.79932H7.19995V7.20009Z" fill="#FE3344"/>
<path d="M7.19995 4.79917H9.59839V2.40088H7.19995V4.79917Z" fill="#FE3344"/>
<path d="M7.20007 2.40077H9.59852V0H7.20007V2.40077Z" fill="black"/>
<path d="M4.79932 21.6001H7.20022V19.1992H4.79932V21.6001Z" fill="black"/>
<path d="M4.79932 19.1992H7.20022V16.7983H4.79932V19.1992Z" fill="#FE3344"/>
<path d="M4.79932 16.7984H7.20022V14.3999H4.79932V16.7984Z" fill="#FEFEFE"/>
<path d="M4.79932 14.3998H7.20022V11.999H4.79932V14.3998Z" fill="#FEFEFE"/>
<path d="M4.79932 11.9994H7.20022V9.59863H4.79932V11.9994Z" fill="#FEFEFE"/>
<path d="M4.79932 9.59865H7.20022V7.2002H4.79932V9.59865Z" fill="#FEFEFE"/>
<path d="M4.79932 7.20009H7.20022V4.79932H4.79932V7.20009Z" fill="#FE3344"/>
<path d="M4.79932 4.79917H7.20022V2.40088H4.79932V4.79917Z" fill="black"/>
<path d="M2.39819 19.1992H4.79909V16.7983H2.39819V19.1992Z" fill="black"/>
<path d="M2.39819 16.7984H4.79909V14.3999H2.39819V16.7984Z" fill="#FE3344"/>
<path d="M2.39819 14.3998H4.79909V11.999H2.39819V14.3998Z" fill="#FE3344"/>
<path d="M2.39819 11.9994H4.79909V9.59863H2.39819V11.9994Z" fill="#FE3344"/>
<path d="M2.39819 9.59865H4.79909V7.2002H2.39819V9.59865Z" fill="#FE3344"/>
<path d="M2.39819 7.20009H4.79909V4.79932H2.39819V7.20009Z" fill="black"/>
<path d="M0 16.7984H2.39831V14.3999H0V16.7984Z" fill="black"/>
<path d="M0 14.3998H2.39831V11.999H0V14.3998Z" fill="black"/>
<path d="M0 11.9994H2.39831V9.59863H0V11.9994Z" fill="black"/>
<path d="M0 9.59865H2.39831V7.2002H0V9.59865Z" fill="black"/>
</svg>
