<svg width="505" height="260" fill="none" xmlns="http://www.w3.org/2000/svg"><mask id="a" style="mask-type:alpha" maskUnits="userSpaceOnUse" x="0" y="0" width="616" height="736"><path transform="matrix(-1 0 0 1 616 0)" fill="#C4C4C4" d="M0 0h616v736H0z"/></mask><g mask="url(#a)"><path d="M1123 238H68m1055-59H126m997-60H126m997-59H184m939-59H243m239-50v643M423-49v645M365 1.588 361 594M307 1l-3 593M245 1v652M186 59v594m-61-536v536M67 237v122" stroke="#BBA5EF" stroke-width="4" stroke-miterlimit="10"/><path d="m112.38 83.466 14.771-14.771h22.152l14.77 14.77v22.153l-51.693 51.693-51.685-51.693V83.466l14.762-14.771h22.16l14.763 14.77Z" fill="#43FE01"/><path d="M123.456 153.608h-7.381v-7.381h7.381v7.381Zm-7.381 7.389h-7.382v-7.381h7.382v7.381Zm22.152-22.152h-7.382v-7.381h7.382v7.381Zm-7.381 7.39h-7.382v-7.381h7.382v7.381Zm22.152-22.16h-7.382v-7.381h7.382v7.381Zm-7.39 7.389h-7.381v-7.381h7.381v7.381Zm22.16-22.16h-7.381V79.763h7.381v29.541Zm-7.389 7.39h-7.381v-7.382h7.381v7.382Zm.008-44.304v7.38h-7.381v-7.38h7.381ZM152.998 65v7.381h-29.542V65h29.542Zm-29.542 14.77h-7.381v-7.38h7.381v7.38Zm-7.381 7.382h-7.382v-7.381h7.382v7.381Zm-14.763 59.083h7.381v7.381h-7.381v-7.381Zm-14.77-14.771h7.381v7.381h-7.381v-7.381Zm7.381 7.381h7.381v7.382h-7.381v-7.382ZM71.77 116.693h7.382v7.382h-7.381v-7.382Zm7.39 7.382h7.382v7.381H79.16v-7.381ZM57 79.77h7.382v29.542H57V79.771Zm7.39 29.534h7.38v7.381h-7.38v-7.381Zm7.38-36.914v7.38h-7.38v-7.38h7.38ZM101.304 65v7.381H71.762V65h29.542Zm.008 7.381h7.381v7.382h-7.381V72.38Z" fill="#000"/><path d="M152.998 94.541h-7.382v-7.38h7.382v7.38ZM138.235 79.77h7.381v7.382h-7.381v-7.381Z" fill="#fff"/><g clip-path="url(#b)" fill="#fff"><path d="M258 261v7.007h-7.007v-14H258V261Zm34.993-6.993H300v14h-7.007v-14Zm-34.993 0V247h14v7.007h-14Zm20.993 0V247h14v7.007h-14ZM272 261v-6.993h6.993V261H272Z"/></g><g clip-path="url(#c)" fill="#fff"><path d="M212 104.007h-7.007V97H212v7.007ZM204.993 97H198v-6.993h6.993V97ZM198 83v7.007h-7.007v-14H198V83Zm34.993-6.993H240v14h-7.007v-14Zm0 14V97H226v-6.993h6.993ZM226 97v7.007h-7.007V97H226Zm-7.007 14H212v-6.993h6.993V111ZM198 76.007V69h14v7.007h-14Zm20.993 0V69h14v7.007h-14ZM212 83v-6.993h6.993V83H212Z"/></g><path d="m443.973 74.335 4.67 4.663h4.663l4.67 4.663h4.663l9.332 9.332v4.663l4.663 4.67v4.663l4.663 4.67v18.658l-4.663 4.663v4.67l-4.663 4.663v4.663l-9.332 9.333h-4.663l-4.67 4.662h-4.663l-4.67 4.67h-23.321l-4.67-4.67h-4.663l-4.663-4.662h-4.67l-9.325-9.333v-4.663l-4.67-4.663v-4.67l-4.663-4.663v-18.658l4.663-4.67v-4.663l4.67-4.67v-4.663l9.325-9.332h4.67l4.663-4.663h4.663l4.67-4.663h23.321Z" fill="#FE3344"/><path d="M469.636 90.658h-4.662v-4.662h4.662v4.662Zm-4.663-4.662h-9.332v-4.663h9.332v4.663Zm18.659 46.649h-4.663v-23.328h4.663v23.328Zm-37.324-55.982h-27.991V72h27.991v4.663Zm0 0h9.333v4.663h-9.333v-4.663Zm27.998 32.661v-9.333h4.663v9.333h-4.663Zm-.007-9.326h-4.663v-9.332h4.663v9.332ZM381 109.324h4.663v23.328H381v-23.328Zm37.317 55.982h27.991v4.663h-27.991v-4.663Zm-11.661-23.328h4.663v4.663h-4.663v-4.663Zm4.663 4.67h9.333v4.663h-9.333v-4.663Zm-9.333-23.328v9.332h-4.663v-9.332h4.663Zm.008 9.332h4.662v9.333h-4.662v-9.333Zm51.319 18.659h-9.333v-4.663h9.333v4.663Zm4.656-4.663h-4.663v-4.663h4.663v4.663Zm-37.317 4.663h23.328v4.663h-23.328v-4.663Zm46.649-27.991v9.332h-4.662v-9.332h4.662Zm-4.669 18.658h-4.663v-9.333h4.663v9.333Zm-67.637-55.982h4.663v4.662h-4.663v-4.662Zm4.656-4.663h9.333v4.663h-9.333v-4.663Zm18.666 0h-9.333V76.67h9.333v4.663Zm-32.654 27.991v-9.333h4.662v9.333h-4.662Zm4.663-18.666h4.662v9.333h-4.662v-9.333Zm79.31 65.316h-4.662v-4.663h4.662v4.663Zm-4.663 4.67h-9.332v-4.663h9.332v4.663Zm-18.665 0h9.333v4.662h-9.333v-4.662Zm32.661-27.999v9.333h-4.663v-9.333h4.663Z" fill="#000"/><path d="M474.299 151.311h-4.663v-9.333h4.663v9.333Zm-79.311 4.663v-4.663h4.663v4.663h-4.663Zm-4.662-4.663v-9.333h4.663v9.333h-4.663Zm0-18.659v9.333h-4.663v-9.333h4.663Zm27.991 32.654h-9.333v-4.662h9.333v4.662Zm-18.659-4.67v-4.662h9.333v4.662h-9.333Zm41.736-60.645v13.996h-4.663V99.991h4.663Zm13.988 0h-13.996v-4.663h13.996v4.663Z" fill="#000"/><path d="M441.386 99.991h13.996v13.996h-13.996V99.991Z" fill="#fff"/><path d="M460.052 99.991v13.996h-4.662V99.991h4.662Zm-4.67 18.666h-13.996v-4.663h13.996v4.663Zm-46.65-18.666v13.996h-4.662V99.991h4.662Zm13.989 0h-13.996v-4.663h13.996v4.663Z" fill="#000"/><path d="M408.732 99.991h13.996v13.996h-13.996V99.991Z" fill="#fff"/><path d="M427.391 99.991v13.996h-4.663V99.991h4.663Zm-4.67 18.666h-13.996v-4.663h13.996v4.663Zm29.248-9.211h-10.583v-9.455h10.583v9.455Zm-32.661 0h-10.583v-9.455h10.583v9.455Z" fill="#000"/></g><defs><clipPath id="b"><path fill="#fff" transform="matrix(-1 0 0 1 300 247)" d="M0 0h49v42H0z"/></clipPath><clipPath id="c"><path fill="#fff" transform="matrix(-1 0 0 1 240 69)" d="M0 0h49v42H0z"/></clipPath></defs></svg>