<svg width="116" height="99" fill="none" xmlns="http://www.w3.org/2000/svg"><path d="M49.384 39.507h4.939V34.57h-4.939v4.938Z" fill="#000"/><path d="M49.384 44.446h4.939v-4.939h-4.939v4.939Z" fill="#FE3344"/><path d="M54.323 44.446h4.938v-4.939h-4.938v4.939Z" fill="#000"/><path d="M49.384 49.384h4.939v-4.938h-4.939v4.938Zm4.939 0h4.938v-4.938h-4.938v4.938Z" fill="#FE3344"/><path d="M59.261 49.384H64.2v-4.938h-4.94v4.938Z" fill="#000"/><path d="M49.384 54.322h4.939v-4.938h-4.939v4.938Z" fill="#FE3344"/><path d="M54.323 54.322h4.938v-4.938h-4.938v4.938Zm-4.939 4.939h4.939v-4.938h-4.939v4.938Z" fill="#000"/><path d="M24.692 69.138h4.939V64.2h-4.939v4.938Z" fill="#FE3344"/><path d="M19.754 69.138h4.938V64.2h-4.938v4.938Z" fill="#000"/><path d="M29.63 69.138h4.94V64.2h-4.94v4.938Zm4.94 0h4.937V64.2H34.57v4.938Z" fill="#FE3344"/><path d="M39.507 69.138h4.939V64.2h-4.939v4.938Zm-14.815-64.2h4.939V0h-4.939v4.938Z" fill="#000"/><path d="M29.63 4.938h4.94V0h-4.94v4.938Zm4.94 0h4.937V0H34.57v4.938Zm4.937 0h4.939V0h-4.939v4.938Z" fill="#000"/><path d="M24.692 9.877h4.939V4.938h-4.939v4.939Z" fill="#FE3344"/><path d="M19.754 9.877h4.938V4.938h-4.938v4.939Zm-4.938 0h4.938V4.938h-4.939v4.939Z" fill="#000"/><path d="M29.63 9.877h4.94V4.938h-4.94v4.939Zm4.94 0h4.937V4.938H34.57v4.939Zm4.937 0h4.939V4.938h-4.939v4.939Z" fill="#FE3344"/><path d="M44.446 9.877h4.938V4.938h-4.938v4.939Z" fill="#000"/><path d="M24.692 14.815h4.939V9.876h-4.939v4.939Zm-4.938 0h4.938V9.876h-4.938v4.939Zm-4.938 0h4.938V9.876h-4.939v4.939Z" fill="#FE3344"/><path d="M9.877 14.815h4.938V9.876H9.878v4.939Z" fill="#000"/><path d="M29.63 14.815h4.94V9.876h-4.94v4.939Zm4.94 0h4.937V9.876H34.57v4.939Zm4.937 0h4.939V9.876h-4.939v4.939Zm4.939 0h4.938V9.876h-4.938v4.939Z" fill="#FE3344"/><path d="M49.384 14.815h4.939V9.876h-4.939v4.939Z" fill="#000"/><path d="M24.692 19.754h4.939v-4.94h-4.939v4.94Z" fill="#fff"/><path d="M19.754 19.754h4.938v-4.94h-4.938v4.94Zm-4.938 0h4.938v-4.94h-4.939v4.94Zm-4.939 0h4.938v-4.94H9.878v4.94Z" fill="#FE3344"/><path d="M4.939 19.754h4.938v-4.94H4.939v4.94Z" fill="#000"/><path d="M29.63 19.754h4.94v-4.94h-4.94v4.94Z" fill="#fff"/><path d="M34.57 19.754h4.937v-4.94H34.57v4.94Zm4.937 0h4.939v-4.94h-4.939v4.94Zm4.939 0h4.938v-4.94h-4.938v4.94Z" fill="#FE3344"/><path d="M49.384 19.754h4.939v-4.94h-4.939v4.94Z" fill="#000"/><path d="M24.692 24.692h4.939v-4.939h-4.939v4.939Z" fill="#FE3344"/><path d="M19.754 24.692h4.938v-4.939h-4.938v4.939Z" fill="#fff"/><path d="M14.815 24.692h4.939v-4.939h-4.939v4.939Z" fill="#FE3344"/><path d="M9.877 24.692h4.938v-4.939H9.877v4.939Z" fill="#FE3344"/><path d="M4.939 24.692h4.938v-4.939H4.939v4.939Z" fill="#000"/><path d="M29.63 24.692h4.94v-4.939h-4.94v4.939Zm4.94 0h4.937v-4.939H34.57v4.939Zm4.937 0h4.939v-4.939h-4.939v4.939Z" fill="#FE3344"/><path d="M44.446 24.692h4.938v-4.939h-4.938v4.939Z" fill="#000"/><path d="M24.692 29.63h4.939v-4.939h-4.939v4.939Zm-4.938 0h4.938v-4.939h-4.938v4.939Z" fill="#FE3344"/><path d="M14.815 29.63h4.939v-4.939h-4.939v4.939Z" fill="#fff"/><path d="M9.877 29.63h4.938v-4.939H9.877v4.939Zm-4.938 0h4.938v-4.939H4.939v4.939Z" fill="#FE3344"/><path d="M0 29.63h4.94v-4.939H0v4.939Z" fill="#000"/><path d="M29.63 29.63h4.94v-4.939h-4.94v4.939Zm4.94 0h4.937v-4.939H34.57v4.939Z" fill="#FE3344"/><path d="M39.507 29.63h4.939v-4.939h-4.939v4.939Z" fill="#000"/><path d="M24.692 34.568h4.939V29.63h-4.939v4.938Zm-4.938 0h4.938V29.63h-4.938v4.938Z" fill="#FE3344"/><path d="M14.815 34.568h4.939V29.63h-4.939v4.938Z" fill="#fff"/><path d="M9.877 34.568h4.938V29.63H9.877v4.938Zm-4.938 0h4.938V29.63H4.939v4.938Z" fill="#FE3344"/><path d="M0 34.568h4.94V29.63H0v4.938Z" fill="#000"/><path d="M29.63 34.568h4.94V29.63h-4.94v4.938Zm4.94 0h4.937V29.63H34.57v4.938Zm4.937 0h4.939V29.63h-4.939v4.938Z" fill="#FE3344"/><path d="M44.446 34.568h4.938V29.63h-4.938v4.938Z" fill="#000"/><path d="M24.692 39.507h4.939v-4.939h-4.939v4.939Zm-4.938 0h4.938v-4.939h-4.938v4.939Zm-4.939 0h4.939v-4.939h-4.939v4.939Zm-4.938 0h4.938v-4.939H9.877v4.939Zm-4.938 0h4.938v-4.939H4.939v4.939Z" fill="#FE3344"/><path d="M0 39.507h4.94v-4.939H0v4.939Z" fill="#000"/><path d="M29.63 39.507h4.94v-4.939h-4.94v4.939Zm4.94 0h4.937v-4.939H34.57v4.939Zm4.937 0h4.939v-4.939h-4.939v4.939Zm4.939 0h4.938v-4.939h-4.938v4.939Zm-19.754 4.938h4.939v-4.938h-4.939v4.938Zm-4.938 0h4.938v-4.938h-4.938v4.938Zm-4.939 0h4.939v-4.938h-4.939v4.938Z" fill="#FE3344"/><path d="M9.877 44.445h4.938v-4.938H9.877v4.938Zm-4.938 0h4.938v-4.938H4.939v4.938Z" fill="#FE3344"/><path d="M0 44.445h4.94v-4.938H0v4.938Z" fill="#000"/><path d="M29.63 44.445h4.94v-4.938h-4.94v4.938Zm4.94 0h4.937v-4.938H34.57v4.938Zm4.937 0h4.939v-4.938h-4.939v4.938Zm4.939 0h4.938v-4.938h-4.938v4.938Zm-19.754 4.939h4.939v-4.939h-4.939v4.939Zm-4.938 0h4.938v-4.939h-4.938v4.939Zm-4.939 0h4.939v-4.939h-4.939v4.939Z" fill="#FE3344"/><path d="M9.877 49.384h4.938v-4.939H9.877v4.939Z" fill="#FE3344"/><path d="M4.939 49.384h4.938v-4.939H4.939v4.939Z" fill="#000"/><path d="M29.63 49.384h4.94v-4.939h-4.94v4.939Zm4.94 0h4.937v-4.939H34.57v4.939Zm4.937 0h4.939v-4.939h-4.939v4.939Zm4.939 0h4.938v-4.939h-4.938v4.939Z" fill="#FE3344"/><path d="M24.692 54.322h4.939v-4.939h-4.939v4.939Zm-4.938 0h4.938v-4.939h-4.938v4.939Zm-4.939 0h4.939v-4.939h-4.939v4.939Zm-4.938 0h4.938v-4.939H9.877v4.939Z" fill="#FE3344"/><path d="M4.939 54.322h4.938v-4.939H4.939v4.939Z" fill="#000"/><path d="M29.63 54.322h4.94v-4.939h-4.94v4.939Zm4.94 0h4.937v-4.939H34.57v4.939Zm4.937 0h4.939v-4.939h-4.939v4.939Zm4.939 0h4.938v-4.939h-4.938v4.939Z" fill="#FE3344"/><path d="M24.692 59.26h4.939v-4.938h-4.939v4.938Zm-4.938 0h4.938v-4.938h-4.938v4.938Zm-4.939 0h4.939v-4.938h-4.939v4.938Z" fill="#FE3344"/><path d="M9.877 59.26h4.938v-4.938H9.877v4.938Z" fill="#000"/><path d="M29.63 59.26h4.94v-4.938h-4.94v4.938Zm4.94 0h4.937v-4.938H34.57v4.938Zm4.937 0h4.939v-4.938h-4.939v4.938Zm4.939 0h4.938v-4.938h-4.938v4.938Zm-19.754 4.939h4.939V59.26h-4.939v4.94Zm-4.938 0h4.938V59.26h-4.938v4.94Z" fill="#FE3344"/><path d="M14.815 64.199h4.939V59.26h-4.939v4.94Z" fill="#000"/><path d="M29.63 64.199h4.94V59.26h-4.94v4.94Zm4.94 0h4.937V59.26H34.57v4.94Zm4.937 0h4.939V59.26h-4.939v4.94Z" fill="#FE3344"/><path d="M44.446 64.199h4.938V59.26h-4.938v4.94Zm-19.754 9.877h4.939v-4.938h-4.939v4.938Z" fill="#000"/><path d="M29.63 74.076h4.94v-4.938h-4.94v4.938Z" fill="#FE3344"/><path d="M34.57 74.076h4.937v-4.938H34.57v4.938Zm-4.94 4.938h4.94v-4.938h-4.94v4.939Z" fill="#000"/><path d="M34.57 79.014h4.937v-4.938H34.57v4.939Z" fill="#FE3344"/><path d="M39.507 79.014h4.939v-4.938h-4.939v4.939Zm-4.937 4.939h4.937v-4.938H34.57v4.938Z" fill="#000"/><path d="M39.507 83.953h4.939v-4.938h-4.939v4.938Z" fill="#FE3344"/><path d="M44.446 83.953h4.938v-4.938h-4.938v4.938Zm-4.939 4.938h4.939v-4.938h-4.939v4.938Z" fill="#000"/><path d="M44.446 88.891h4.938v-4.938h-4.938v4.938Z" fill="#FE3344"/><path d="M49.384 88.891h4.939v-4.938h-4.939v4.938Zm-4.938 4.939h4.938v-4.94h-4.938v4.939Z" fill="#000"/><path d="M49.384 93.83h4.939v-4.94h-4.939v4.939Zm0 4.938h4.939V93.83h-4.939v4.938Zm21.781-93.83h4.939V0h-4.939v4.938Zm4.939 0h4.938V0h-4.938v4.938Zm4.938 0h4.939V0h-4.939v4.938Z" fill="#000"/><path d="M85.98 4.938h4.939V0H85.98v4.938ZM66.227 9.877h4.938V4.938h-4.938v4.939Z" fill="#000"/><path d="M71.165 9.877h4.939V4.938h-4.939v4.939Z" fill="#FE3344"/><path d="M76.104 9.877h4.938V4.938h-4.938v4.939Zm4.938 0h4.939V4.938h-4.939v4.939Z" fill="#FE3344"/><path d="M85.98 9.877h4.939V4.938H85.98v4.939Z" fill="#FE3344"/><path d="M90.918 9.877h4.94V4.938h-4.94v4.939Z" fill="#000"/><path d="M95.857 9.877h4.938V4.938h-4.938v4.939Zm-34.569 4.938h4.939V9.876h-4.939v4.939Z" fill="#000"/><path d="M66.227 14.815h4.938V9.876h-4.938v4.939Zm4.938 0h4.939V9.876h-4.939v4.939Z" fill="#FE3344"/><path d="M76.104 14.815h4.938V9.876h-4.938v4.939Zm4.938 0h4.939V9.876h-4.939v4.939Z" fill="#FE3344"/><path d="M85.98 14.815h4.939V9.876H85.98v4.939Z" fill="#FE3344"/><path d="M90.918 14.815h4.94V9.876h-4.94v4.939Z" fill="#FE3344"/><path d="M95.857 14.815h4.938V9.876h-4.938v4.939Z" fill="#FE3344"/><path d="M100.796 14.815h4.939V9.876h-4.939v4.939Zm-39.508 4.939h4.939v-4.94h-4.939v4.94Z" fill="#000"/><path d="M66.227 19.754h4.938v-4.94h-4.938v4.94Zm4.938 0h4.939v-4.94h-4.939v4.94Z" fill="#FE3344"/><path d="M76.104 19.754h4.938v-4.94h-4.938v4.94Zm4.938 0h4.939v-4.94h-4.939v4.94Z" fill="#FE3344"/><path d="M85.98 19.754h4.939v-4.94H85.98v4.94Z" fill="#FE3344"/><path d="M90.918 19.754h4.94v-4.94h-4.94v4.94Z" fill="#FE3344"/><path d="M95.857 19.754h4.938v-4.94h-4.938v4.94Zm4.939 0h4.939v-4.94h-4.939v4.94Z" fill="#FE3344"/><path d="M105.735 19.754h4.938v-4.94h-4.938v4.94ZM56.35 24.692h4.938v-4.939H56.35v4.939Z" fill="#000"/><path d="M61.288 24.692h4.939v-4.939h-4.939v4.939Zm4.939 0h4.938v-4.939h-4.938v4.939Zm4.938 0h4.939v-4.939h-4.939v4.939Z" fill="#FE3344"/><path d="M76.104 24.692h4.938v-4.939h-4.938v4.939Zm4.938 0h4.939v-4.939h-4.939v4.939Z" fill="#FE3344"/><path d="M85.98 24.692h4.939v-4.939H85.98v4.939Z" fill="#FE3344"/><path d="M90.918 24.692h4.94v-4.939h-4.94v4.939Z" fill="#FE3344"/><path d="M95.857 24.692h4.938v-4.939h-4.938v4.939Zm4.939 0h4.939v-4.939h-4.939v4.939Z" fill="#FE3344"/><path d="M105.735 24.692h4.938v-4.939h-4.938v4.939ZM51.411 29.63h4.939v-4.938h-4.94v4.939Z" fill="#000"/><path d="M56.35 29.63h4.938v-4.938H56.35v4.939Z" fill="#FE3344"/><path d="M61.288 29.63h4.939v-4.938h-4.939v4.939Zm4.939 0h4.938v-4.938h-4.938v4.939Zm4.938 0h4.939v-4.938h-4.939v4.939Z" fill="#FE3344"/><path d="M76.104 29.63h4.938v-4.938h-4.938v4.939Zm4.938 0h4.939v-4.938h-4.939v4.939Z" fill="#FE3344"/><path d="M85.98 29.63h4.939v-4.938H85.98v4.939Z" fill="#FE3344"/><path d="M90.918 29.63h4.94v-4.938h-4.94v4.939Z" fill="#FE3344"/><path d="M95.857 29.63h4.938v-4.938h-4.938v4.939Zm4.939 0h4.939v-4.938h-4.939v4.939Zm4.939 0h4.938v-4.938h-4.938v4.939Z" fill="#FE3344"/><path d="M110.673 29.63h4.938v-4.938h-4.938v4.939ZM56.35 34.569h4.938V29.63H56.35v4.939Z" fill="#000"/><path d="M61.288 34.569h4.939V29.63h-4.939v4.939Zm4.939 0h4.938V29.63h-4.938v4.939Zm4.938 0h4.939V29.63h-4.939v4.939Z" fill="#FE3344"/><path d="M76.104 34.569h4.938V29.63h-4.938v4.939Zm4.938 0h4.939V29.63h-4.939v4.939Z" fill="#FE3344"/><path d="M85.98 34.569h4.939V29.63H85.98v4.939Z" fill="#FE3344"/><path d="M90.918 34.569h4.94V29.63h-4.94v4.939Z" fill="#FE3344"/><path d="M95.857 34.569h4.938V29.63h-4.938v4.939Zm4.939 0h4.939V29.63h-4.939v4.939Zm4.939 0h4.938V29.63h-4.938v4.939Z" fill="#FE3344"/><path d="M110.673 34.569h4.938V29.63h-4.938v4.939Zm-49.385 4.938h4.939V34.57h-4.939v4.938Z" fill="#000"/><path d="M66.227 39.507h4.938V34.57h-4.938v4.938Zm4.938 0h4.939V34.57h-4.939v4.938Z" fill="#FE3344"/><path d="M76.104 39.507h4.938V34.57h-4.938v4.938Zm4.938 0h4.939V34.57h-4.939v4.938Z" fill="#FE3344"/><path d="M85.98 39.507h4.939V34.57H85.98v4.938Z" fill="#FE3344"/><path d="M90.918 39.507h4.94V34.57h-4.94v4.938Z" fill="#FE3344"/><path d="M95.857 39.507h4.938V34.57h-4.938v4.938Zm4.939 0h4.939V34.57h-4.939v4.938Zm4.939 0h4.938V34.57h-4.938v4.938Z" fill="#FE3344"/><path d="M110.673 39.507h4.938V34.57h-4.938v4.938Zm-44.446 4.939h4.938v-4.939h-4.938v4.939Z" fill="#000"/><path d="M71.165 44.446h4.939v-4.939h-4.939v4.939Z" fill="#FE3344"/><path d="M76.104 44.446h4.938v-4.939h-4.938v4.939Zm4.938 0h4.939v-4.939h-4.939v4.939Z" fill="#FE3344"/><path d="M85.98 44.446h4.939v-4.939H85.98v4.939Z" fill="#FE3344"/><path d="M90.918 44.446h4.94v-4.939h-4.94v4.939Z" fill="#FE3344"/><path d="M95.857 44.446h4.938v-4.939h-4.938v4.939Zm4.939 0h4.939v-4.939h-4.939v4.939Zm4.939 0h4.938v-4.939h-4.938v4.939Z" fill="#FE3344"/><path d="M110.673 44.446h4.938v-4.939h-4.938v4.939Zm-39.508 4.938h4.939v-4.938h-4.939v4.938Z" fill="#000"/><path d="M76.104 49.384h4.938v-4.938h-4.938v4.938Zm4.938 0h4.939v-4.938h-4.939v4.938Z" fill="#FE3344"/><path d="M85.98 49.384h4.939v-4.938H85.98v4.938Z" fill="#FE3344"/><path d="M90.918 49.384h4.94v-4.938h-4.94v4.938Z" fill="#FE3344"/><path d="M95.857 49.384h4.938v-4.938h-4.938v4.938Zm4.939 0h4.939v-4.938h-4.939v4.938Z" fill="#FE3344"/><path d="M105.735 49.384h4.938v-4.938h-4.938v4.938Zm-39.508 4.938h4.938v-4.938h-4.938v4.938Z" fill="#000"/><path d="M71.165 54.322h4.939v-4.938h-4.939v4.938Z" fill="#FE3344"/><path d="M76.104 54.322h4.938v-4.938h-4.938v4.938Zm4.938 0h4.939v-4.938h-4.939v4.938Z" fill="#FE3344"/><path d="M85.98 54.322h4.939v-4.938H85.98v4.938Z" fill="#FE3344"/><path d="M90.918 54.322h4.94v-4.938h-4.94v4.938Z" fill="#FE3344"/><path d="M95.857 54.322h4.938v-4.938h-4.938v4.938Zm4.939 0h4.939v-4.938h-4.939v4.938Z" fill="#FE3344"/><path d="M105.735 54.322h4.938v-4.938h-4.938v4.938Zm-44.447 4.939h4.939v-4.938h-4.939v4.938Z" fill="#000"/><path d="M66.227 59.261h4.938v-4.938h-4.938v4.938Zm4.938 0h4.939v-4.938h-4.939v4.938Z" fill="#FE3344"/><path d="M76.104 59.261h4.938v-4.938h-4.938v4.938Zm4.938 0h4.939v-4.938h-4.939v4.938Z" fill="#FE3344"/><path d="M85.98 59.261h4.939v-4.938H85.98v4.938Z" fill="#FE3344"/><path d="M90.918 59.261h4.94v-4.938h-4.94v4.938Z" fill="#FE3344"/><path d="M95.857 59.261h4.938v-4.938h-4.938v4.938Z" fill="#FE3344"/><path d="M100.796 59.261h4.939v-4.938h-4.939v4.938ZM56.35 64.2h4.938v-4.94H56.35v4.94Z" fill="#000"/><path d="M61.288 64.2h4.939v-4.94h-4.939v4.94Zm4.939 0h4.938v-4.94h-4.938v4.94Zm4.938 0h4.939v-4.94h-4.939v4.94Z" fill="#FE3344"/><path d="M76.104 64.2h4.938v-4.94h-4.938v4.94Zm4.938 0h4.939v-4.94h-4.939v4.94Z" fill="#FE3344"/><path d="M85.98 64.2h4.939v-4.94H85.98v4.94Z" fill="#FE3344"/><path d="M90.918 64.2h4.94v-4.94h-4.94v4.94Z" fill="#FE3344"/><path d="M95.857 64.2h4.938v-4.94h-4.938v4.94Zm-44.446 4.938h4.939V64.2h-4.94v4.938Z" fill="#000"/><path d="M56.35 69.138h4.938V64.2H56.35v4.938Z" fill="#FE3344"/><path d="M61.288 69.138h4.939V64.2h-4.939v4.938Zm4.939 0h4.938V64.2h-4.938v4.938Zm4.938 0h4.939V64.2h-4.939v4.938Z" fill="#FE3344"/><path d="M76.104 69.138h4.938V64.2h-4.938v4.938Zm4.938 0h4.939V64.2h-4.939v4.938Z" fill="#FE3344"/><path d="M85.98 69.138h4.939V64.2H85.98v4.938Z" fill="#FE3344"/><path d="M90.918 69.138h4.94V64.2h-4.94v4.938Zm-44.445 4.938h4.938v-4.938h-4.938v4.938Z" fill="#000"/><path d="M51.411 74.076h4.939v-4.938h-4.94v4.938Zm4.939 0h4.938v-4.938H56.35v4.938Z" fill="#FE3344"/><path d="M61.288 74.076h4.939v-4.938h-4.939v4.938Zm4.939 0h4.938v-4.938h-4.938v4.938Zm4.938 0h4.939v-4.938h-4.939v4.938Z" fill="#FE3344"/><path d="M76.104 74.076h4.938v-4.938h-4.938v4.938Zm4.938 0h4.939v-4.938h-4.939v4.938Z" fill="#FE3344"/><path d="M85.98 74.076h4.939v-4.938H85.98v4.938Zm-34.569 4.938h4.939v-4.938h-4.94v4.939Z" fill="#000"/><path d="M56.35 79.014h4.938v-4.938H56.35v4.939Z" fill="#FE3344"/><path d="M61.288 79.014h4.939v-4.938h-4.939v4.939Zm4.939 0h4.938v-4.938h-4.938v4.939Zm4.938 0h4.939v-4.938h-4.939v4.939Z" fill="#FE3344"/><path d="M76.104 79.014h4.938v-4.938h-4.938v4.939Z" fill="#FE3344"/><path d="M81.042 79.014h4.939v-4.938h-4.939v4.939ZM56.35 83.953h4.938v-4.938H56.35v4.938Z" fill="#000"/><path d="M61.288 83.953h4.939v-4.938h-4.939v4.938Zm4.939 0h4.938v-4.938h-4.938v4.938Zm4.938 0h4.939v-4.938h-4.939v4.938Z" fill="#FE3344"/><path d="M76.104 83.953h4.938v-4.938h-4.938v4.938Zm-14.816 4.938h4.939v-4.938h-4.939v4.938Z" fill="#000"/><path d="M66.227 88.891h4.938v-4.938h-4.938v4.938Z" fill="#FE3344"/><path d="M71.165 88.891h4.939v-4.938h-4.939v4.938Zm-9.877 4.939h4.939v-4.94h-4.939v4.939Zm4.939 0h4.938v-4.94h-4.938v4.939Zm-4.939 4.938h4.939V93.83h-4.939v4.938Z" fill="#000"/></svg>