<svg width="508" height="752" fill="none" xmlns="http://www.w3.org/2000/svg"><mask id="a" style="mask-type:alpha" maskUnits="userSpaceOnUse" x="0" y="0" width="626" height="752"><path transform="matrix(-1 0 0 1 626 0)" fill="#C4C4C4" d="M0 0h626v752H0z"/></mask><g mask="url(#a)" stroke="#BBA5EF" stroke-width="4" stroke-miterlimit="10"><path d="M358 610.291h996.84M71 729h237M11 669h477M11.226 610.291h356.015M1364 551.242l-1354 .001m1354-60.001-1234 .001m1234-59.001H130m1234-59H130m1234-60H130m1234-59H130m1234-59H189.5M1364 135H189m1175-58.758H250M1364 17H484m2 0v652M425.998 54.887 427 668.622M366 17v652M308 16v714M249 17v712m-60-596v596m-59-477v478M71 551v179M11 549v122M368 18H247"/></g></svg>