<svg width="103" height="98" fill="none" xmlns="http://www.w3.org/2000/svg"><path d="m40.027 2.335-4.67 4.663h-4.663l-4.67 4.663h-4.663l-9.332 9.332v4.663l-4.663 4.67v4.663l-4.663 4.67v18.658l4.663 4.663v4.67l4.663 4.663v4.663l9.332 9.333h4.663l4.67 4.662h4.663l4.67 4.67h23.321l4.67-4.67h4.663l4.663-4.662h4.67l9.325-9.333v-4.663l4.67-4.663v-4.67l4.663-4.663V39.66l-4.663-4.67v-4.663l-4.67-4.67v-4.663l-9.325-9.332h-4.67L72.68 6.998h-4.663l-4.67-4.663h-23.32Z" fill="#FE75F0"/><path d="M14.364 18.658h4.662v-4.663h-4.662v4.663Zm4.662-4.662h9.333V9.333h-9.333v4.663ZM.368 60.645h4.663V37.317H.368v23.328ZM37.692 4.663h27.991V0H37.692v4.663Zm0 0h-9.333v4.663h9.333V4.663Z" fill="#000"/><path d="M9.694 37.324v-9.333H5.03v9.333h4.663Zm.006-9.326h4.664v-9.332H9.7v9.332Zm93.3 9.326h-4.663v23.329H103V37.324ZM65.683 93.307H37.692v4.662h27.991v-4.662Zm11.661-23.329H72.68v4.663h4.663v-4.663Zm-4.663 4.67h-9.333v4.663h9.333v-4.663Zm9.333-23.328v9.332h4.663V51.32h-4.663Zm-.007 9.332h-4.663v9.333h4.663v-9.333ZM30.687 79.31h9.333v-4.662h-9.333v4.663Zm-4.656-4.662h4.663v-4.663h-4.663v4.663Zm37.317 4.662H40.02v4.663h23.328v-4.662Zm-46.65-27.99v9.332h4.663V51.32h-4.663Zm4.671 18.658h4.662v-9.333H21.37v9.333Zm67.635-55.982h-4.662v4.662h4.662v-4.662Zm-4.655-4.663h-9.333v4.663h9.333V9.333Zm-18.666 0h9.333V4.67h-9.333v4.663Zm32.654 27.991v-9.333h-4.663v9.333h4.663Zm-4.663-18.666h-4.663v9.333h4.663v-9.333Zm-79.31 65.316h4.662V79.31h-4.662v4.663Zm4.662 4.67h9.333V83.98h-9.333v4.663Zm18.666 0h-9.333v4.662h9.333v-4.662ZM5.03 60.645v9.333h4.664v-9.333H5.03ZM9.7 79.31h4.664v-9.332H9.7v9.333Zm79.311 4.663v-4.662H84.35v4.662h4.662Zm4.663-4.663v-9.332h-4.662v9.333h4.662Zm0-18.657v9.332h4.663v-9.332h-4.663ZM65.683 93.307h9.333v-4.663h-9.333v4.663Zm18.659-4.671v-4.662h-9.333v4.662h9.333ZM42.606 27.991v13.996h4.663V27.99h-4.663Z" fill="#000"/><path d="M28.618 27.991h13.995v-4.663H28.618v4.663Z" fill="#000"/><path d="M42.613 27.991H28.618v13.996h13.995V27.99Z" fill="#fff"/><path d="M23.948 27.991v13.996h4.663V27.99h-4.663Zm4.67 18.666h13.995v-4.663H28.618v4.663Zm46.649-18.666v13.996h4.663V27.99h-4.663Z" fill="#000"/><path d="M61.28 27.991h13.995v-4.663H61.279v4.663Z" fill="#000"/><path d="M75.267 27.991H61.273v13.996h13.995V27.99Z" fill="#fff"/><path d="M56.61 27.991v13.996h4.662V27.99h-4.663Zm4.67 18.666h13.995v-4.663H61.279v4.663Zm-29.25-9.211h10.583v-9.455H32.031v9.455Zm32.662 0h10.583v-9.455H64.692v9.455Z" fill="#000"/></svg>