<svg width="511" height="591" fill="none" xmlns="http://www.w3.org/2000/svg"><mask id="a" style="mask-type:alpha" maskUnits="userSpaceOnUse" x="-115" y="-161" width="626" height="752"><path fill="#C4C4C4" d="M-115-161h626v752h-626z"/></mask><g mask="url(#a)"><path d="M153 449.291h-996.84M440 568H203m297-60H23m476.774-58.709H143.759M-853 390.242l1354 .001m-1354-60.001 1234 .001m-1234-59.001H381m-1234-59H381m-1234-60H381m-1234-59H381m-1234-59H321.5M25-144v652m60.002-614.113L84 507.622M145-144v652m58-653v714m59-713v712m60-596v596m59-477v478m59-179v179m60-181v122" stroke="#BBA5EF" stroke-width="4" stroke-miterlimit="10"/><path d="m204.004 490.388-12.535-12.309H172.67l-12.535 12.309v18.461l43.869 43.079 43.861-43.079v-18.461l-12.528-12.309h-18.806l-12.527 12.309Z" fill="#FF0"/><path d="M194.604 548.842h6.264v-6.151h-6.264v6.151Zm6.264 6.158h6.264v-6.151h-6.264V555Zm-18.799-18.46h6.264v-6.152h-6.264v6.152Zm6.264 6.158h6.264v-6.152h-6.264v6.152Zm-18.798-18.468h6.264v-6.151h-6.264v6.151Z" fill="#000"/><path d="M175.806 530.388h6.264v-6.151h-6.264v6.151ZM157 511.921h6.264v-24.619H157v24.619Zm6.271 6.158h6.264v-6.151h-6.264v6.151Zm-.007-36.921v6.151h6.264v-6.151h-6.264Zm6.271-6.158v6.151h25.069V475h-25.069Zm25.069 12.309h6.264v-6.151h-6.264v6.151Zm6.264 6.151h6.264v-6.151h-6.264v6.151Zm12.528 49.238h-6.264v6.151h6.264v-6.151Zm12.535-12.31h-6.264v6.152h6.264v-6.152Zm-6.264 6.152h-6.264v6.151h6.264v-6.151Zm18.798-18.461h-6.264v6.151h6.264v-6.151Zm-6.271 6.151h-6.264v6.151h6.264v-6.151ZM251 487.309h-6.264v24.619H251v-24.619Zm-6.271 24.612h-6.264v6.151h6.264v-6.151Zm-6.264-30.763v6.151h6.264v-6.151h-6.264ZM213.403 475v6.151h25.069V475h-25.069Zm-.007 6.151h-6.264v6.151h6.264v-6.151Z" fill="#000"/><path d="M169.535 499.619h6.264v-6.152h-6.264v6.152Zm12.527-12.31h-6.263v6.152h6.263v-6.152Z" fill="#fff"/><g clip-path="url(#b)" fill="#fff"><path d="M296 18.007h7.007V11H296v7.007ZM303.007 11H310V4.007h-6.993V11ZM310-3v7.007h7.007v-14H310V-3Zm-34.993-6.993H268v14h7.007v-14Zm0 14V11H282V4.007h-6.993ZM282 11v7.007h7.007V11H282Zm7.007 14H296v-6.993h-6.993V25Z"/></g><g clip-path="url(#c)" fill="#fff"><path d="M118 376.007h7.007V369H118v7.007Zm7.007-7.007H132v-6.993h-6.993V369ZM132 355v7.007h7.007v-14H132V355Zm-34.993-6.993H90v14h7.007v-14Zm0 14V369H104v-6.993h-6.993ZM104 369v7.007h7.007V369H104Zm7.007 14H118v-6.993h-6.993V383ZM132 348.007V341h-14v7.007h14Zm-20.993 0V341h-14v7.007h14ZM118 355v-6.993h-6.993V355H118Z"/></g><g clip-path="url(#d)" fill="#fff"><path d="M355 493.007h7.007V486H355v7.007Zm7.007-7.007H369v-6.993h-6.993V486ZM369 472v7.007h7.007v-14H369V472Zm-34.993-6.993H327v14h7.007v-14Zm0 14V486H341v-6.993h-6.993ZM341 486v7.007h7.007V486H341Zm7.007 14H355v-6.993h-6.993V500ZM369 465.007V458h-14v7.007h14Zm-20.993 0V458h-14v7.007h14ZM355 472v-6.993h-6.993V472H355Z"/></g><g clip-path="url(#e)" fill="#fff"><path d="M177 138.007h7.007V131H177v7.007Zm7.007-7.007H191v-6.993h-6.993V131ZM191 117v7.007h7.007v-14H191V117Zm-34.993-6.993H149v14h7.007v-14Zm0 14V131H163v-6.993h-6.993ZM163 131v7.007h7.007V131H163Zm7.007 14H177v-6.993h-6.993V145ZM191 110.007V103h-14v7.007h14Zm-20.993 0V103h-14v7.007h14ZM177 117v-6.993h-6.993V117H177Z"/></g><g clip-path="url(#f)" fill="#fff"><path d="M473 435.007h7.007V428H473v7.007Zm7.007-7.007H487v-6.993h-6.993V428ZM487 414v7.007h7.007v-14H487V414Zm-34.993-6.993H445v14h7.007v-14Zm0 14V428H459v-6.993h-6.993ZM459 428v7.007h7.007V428H459Zm7.007 14H473v-6.993h-6.993V442ZM487 407.007V400h-14v7.007h14Zm-20.993 0V400h-14v7.007h14ZM473 414v-6.993h-6.993V414H473Z"/></g><path d="m-32.341 285.335-4.67 4.663h-4.663l-4.67 4.663h-4.663l-9.332 9.332v4.663l-4.663 4.67v4.663l-4.663 4.67v18.658l4.663 4.663v4.67l4.663 4.663v4.663l9.332 9.333h4.663l4.67 4.662h4.663l4.67 4.67H-9.02l4.67-4.67H.313l4.663-4.662h4.67l9.325-9.333v-4.663l4.67-4.663v-4.67l4.663-4.663v-18.658l-4.663-4.67v-4.663l-4.67-4.67v-4.663l-9.325-9.332h-4.67l-4.663-4.663H-4.35l-4.67-4.663h-23.32Z" fill="#FF0"/><path d="M30.632 320.324h-4.663v23.328h4.663v-23.328ZM4.976 352.978H.313v4.663h4.663v-4.663Zm-4.663 4.67H-9.02v4.663H.313v-4.663Zm9.333-23.328v9.332h4.663v-9.332H9.646Zm-.007 9.332H4.976v9.333h4.663v-9.333Zm6.997-46.656h-4.662v4.662h4.662v-4.662Zm-4.656-4.663H2.649v4.663h9.333v-4.663Zm-18.665 0h9.333v-4.663h-9.333v4.663Zm32.655 27.991v-9.333h-4.664v9.333h4.663Zm-4.664-18.666h-4.662v9.333h4.662v-9.333Zm-4.662 65.316v-4.663H11.98v4.663h4.663Zm4.662-4.663v-9.333h-4.662v9.333h4.662Zm0-18.659v9.333h4.663v-9.333h-4.663Zm-27.991 32.654h9.333v-4.662h-9.333v4.662Zm18.658-4.67v-4.662H2.641v4.662h9.332ZM2.9 310.991v13.996h4.662v-13.996H2.9Zm-13.989 0H2.907v-4.663H-11.09v4.663Z" fill="#000"/><path d="M2.9 310.991h-13.996v13.996H2.899v-13.996Z" fill="#fff"/><path d="M-11.089 329.657H2.907v-4.663H-11.09v4.663Zm3.413-9.211H2.907v-9.455H-7.676v9.455Z" fill="#000"/><path d="m248.659 224.335-4.67 4.663h-4.663l-4.67 4.663h-4.663l-9.332 9.332v4.663l-4.663 4.67v4.663l-4.663 4.67v18.658l4.663 4.663v4.67l4.663 4.663v4.663l9.332 9.333h4.663l4.67 4.662h4.663l4.67 4.67h23.321l4.67-4.67h4.663l4.663-4.662h4.67l9.325-9.333v-4.663l4.67-4.663v-4.67l4.663-4.663v-18.658l-4.663-4.67v-4.663l-4.67-4.67v-4.663l-9.325-9.332h-4.67l-4.663-4.663h-4.663l-4.67-4.663h-23.321Z" fill="#43FE01"/><path d="M222.996 240.658h4.662v-4.662h-4.662v4.662Z" fill="#000"/><path d="M227.658 235.996h9.333v-4.663h-9.333v4.663ZM209 282.645h4.663v-23.328H209v23.328Zm37.324-55.982h27.991V222h-27.991v4.663Zm0 0h-9.333v4.663h9.333v-4.663Z" fill="#000"/><path d="M218.326 259.324v-9.333h-4.663v9.333h4.663Zm.007-9.326h4.663v-9.332h-4.663v9.332Zm93.299 9.326h-4.663v23.328h4.663v-23.328Zm-37.317 55.982h-27.991v4.663h27.991v-4.663Zm11.661-23.328h-4.663v4.663h4.663v-4.663Zm-4.663 4.67h-9.333v4.663h9.333v-4.663Zm9.333-23.328v9.332h4.663v-9.332h-4.663Zm-.007 9.332h-4.663v9.333h4.663v-9.333Zm-51.32 18.659h9.333v-4.663h-9.333v4.663Z" fill="#000"/><path d="M234.663 296.648h4.663v-4.663h-4.663v4.663Zm37.317 4.663h-23.328v4.663h23.328v-4.663Zm-46.649-27.991v9.332h4.662v-9.332h-4.662Zm4.67 18.658h4.662v-9.333h-4.662v9.333Zm67.635-55.982h-4.662v4.662h4.662v-4.662Zm-4.655-4.663h-9.333v4.663h9.333v-4.663Zm-18.666 0h9.333v-4.663h-9.333v4.663Zm32.654 27.991v-9.333h-4.663v9.333h4.663Zm-4.663-18.666h-4.662v9.333h4.662v-9.333Zm-79.31 65.316h4.662v-4.663h-4.662v4.663Zm4.662 4.67h9.333v-4.663h-9.333v4.663Zm18.666 0h-9.333v4.662h9.333v-4.662Zm-32.661-27.999v9.333h4.663v-9.333h-4.663Zm4.67 18.666h4.663v-9.333h-4.663v9.333Zm79.311 4.663v-4.663h-4.663v4.663h4.663Zm4.662-4.663v-9.333h-4.662v9.333h4.662Zm0-18.659v9.333h4.663v-9.333h-4.663Zm-27.991 32.654h9.333v-4.662h-9.333v4.662Zm18.659-4.67v-4.662h-9.333v4.662h9.333Zm-41.736-60.645v13.996h4.663v-13.996h-4.663Zm-13.988 0h13.995v-4.663H237.25v4.663Z" fill="#000"/><path d="M251.245 249.991H237.25v13.996h13.995v-13.996Z" fill="#fff"/><path d="M232.58 249.991v13.996h4.663v-13.996h-4.663Zm4.67 18.666h13.995v-4.663H237.25v4.663Zm46.649-18.666v13.996h4.663v-13.996h-4.663Zm-13.988 0h13.996v-4.663h-13.996v4.663Z" fill="#000"/><path d="M283.899 249.991h-13.995v13.996h13.995v-13.996Z" fill="#fff"/><path d="M265.241 249.991v13.996h4.663v-13.996h-4.663Zm4.67 18.666h13.996v-4.663h-13.996v4.663Zm-29.248-9.211h10.582v-9.455h-10.582v9.455Zm32.661 0h10.583v-9.455h-10.583v9.455Z" fill="#000"/></g><defs><clipPath id="b"><path fill="#fff" transform="translate(268 -17)" d="M0 0h49v42H0z"/></clipPath><clipPath id="c"><path fill="#fff" transform="translate(90 341)" d="M0 0h49v42H0z"/></clipPath><clipPath id="d"><path fill="#fff" transform="translate(327 458)" d="M0 0h49v42H0z"/></clipPath><clipPath id="e"><path fill="#fff" transform="translate(149 103)" d="M0 0h49v42H0z"/></clipPath><clipPath id="f"><path fill="#fff" transform="translate(445 400)" d="M0 0h49v42H0z"/></clipPath></defs></svg>