<svg width="101" height="98" fill="none" xmlns="http://www.w3.org/2000/svg"><path d="m37.659 2.335-4.67 4.663h-4.663l-4.67 4.663h-4.663l-9.332 9.332v4.663l-4.663 4.67v4.663l-4.663 4.67v18.658l4.663 4.663v4.67l4.663 4.663v4.663l9.332 9.333h4.663l4.67 4.662h4.663l4.67 4.67H60.98l4.67-4.67h4.663l4.663-4.662h4.67l9.325-9.333v-4.663l4.67-4.663v-4.67l4.663-4.663V39.66l-4.663-4.67v-4.663l-4.67-4.67v-4.663l-9.325-9.332h-4.67l-4.663-4.663H65.65l-4.67-4.663H37.66Z" fill="#FF0"/><path d="M11.996 18.658h4.662v-4.663h-4.662v4.663Zm4.662-4.662h9.333V9.333h-9.333v4.663ZM-2 60.645h4.663V37.317H-2v23.328ZM35.324 4.663h27.991V0H35.324v4.663Zm0 0h-9.333v4.662h9.333V4.663Z" fill="#000"/><path d="M7.325 37.324v-9.333H2.663v9.333h4.662Zm.008-9.326h4.662v-9.332H7.333v9.332Zm93.299 9.326h-4.663v23.329h4.663V37.324ZM63.315 93.307H35.324v4.662h27.991v-4.662Zm11.661-23.329h-4.663v4.663h4.663v-4.663Zm-4.663 4.67H60.98v4.663h9.333v-4.663Zm9.333-23.328v9.332h4.663V51.32h-4.663Zm-.007 9.332h-4.663v9.333h4.663v-9.333Zm-51.32 18.659h9.333v-4.663h-9.333v4.663Zm-4.656-4.663h4.663v-4.663h-4.663v4.663Zm37.317 4.663H37.652v4.663H60.98V79.31ZM14.33 51.32v9.332h4.663V51.32h-4.662ZM19 69.978h4.663v-9.333H19v9.333Zm67.636-55.982h-4.662v4.662h4.662v-4.662ZM81.98 9.333h-9.332v4.663h9.333V9.333Zm-18.665 0h9.333V4.67h-9.333v4.663ZM95.97 37.324v-9.333h-4.664v9.333h4.663Zm-4.664-18.666h-4.662v9.333h4.662v-9.333Zm-79.31 65.316h4.662V79.31h-4.662v4.663Zm4.662 4.67h9.333V83.98h-9.333v4.663Zm18.666 0h-9.333v4.662h9.333v-4.662ZM2.663 60.645v9.333h4.663v-9.333H2.663Zm4.67 18.666h4.662v-9.333H7.333v9.333Zm79.311 4.663V79.31H81.98v4.663h4.663Z" fill="#000"/><path d="M91.306 79.31v-9.332h-4.662v9.333h4.662Zm0-18.657v9.332h4.663v-9.332h-4.663ZM63.315 93.307h9.333v-4.663h-9.333v4.663Zm18.659-4.671v-4.662H72.64v4.662h9.333ZM40.238 27.991v13.996h4.663V27.99h-4.663Z" fill="#000"/><path d="M26.25 27.991h13.995v-4.663H26.25v4.663Z" fill="#000"/><path d="M40.245 27.991H26.25v13.996h13.995V27.99Z" fill="#fff"/><path d="M21.58 27.991v13.996h4.663V27.99H21.58Zm4.67 18.666h13.995v-4.663H26.25v4.663ZM72.9 27.991v13.996h4.662V27.99H72.9Z" fill="#000"/><path d="M58.911 27.991h13.996v-4.663H58.91v4.663Z" fill="#000"/><path d="M72.9 27.991H58.903v13.996h13.995V27.99Z" fill="#fff"/><path d="M54.241 27.991v13.996h4.663V27.99H54.24Zm4.67 18.666h13.996v-4.663H58.91v4.663Zm-29.249-9.211h10.583v-9.455H29.662v9.455Zm32.662 0h10.583v-9.455H62.324v9.455Z" fill="#000"/></svg>