<svg width="626" height="752" fill="none" xmlns="http://www.w3.org/2000/svg"><mask id="a" style="mask-type:alpha" maskUnits="userSpaceOnUse" x="0" y="0" width="626" height="752"><path fill="#C4C4C4" d="M0 0h626v752H0z"/></mask><g mask="url(#a)"><path d="M268 610.291h-996.84M555 729H318m297-60H138m476.774-58.709H258.759M-738 551.242H616m-1354-60H496m-1234-59H496m-1234-59H496m-1234-60H496m-1234-59H496m-1234-59H436.5M-738 135H437M-738 76.242H376M-738 17h880m-122 .588L24 610M78 17l3 593m59-593v652m60.002-614.113L199 668.622M260 17v652m58-653v714m59-713v712m60-596v596m59-477v478m59-179v179m60-181v122M258 18h121" stroke="#BBA5EF" stroke-width="4" stroke-miterlimit="10"/><g clip-path="url(#b)" fill="#fff"><path d="M-3 596.007h7.007V589H-3v7.007ZM4.007 589H11v-6.993H4.007V589ZM11 575v7.007h7.007v-14H11V575Zm0-6.993V561H-3v7.007h14Z"/></g></g><defs><clipPath id="b"><path fill="#fff" transform="translate(-31 561)" d="M0 0h49v42H0z"/></clipPath></defs></svg>