<svg width="103" height="98" fill="none" xmlns="http://www.w3.org/2000/svg"><path d="m39.659 2.335-4.67 4.663h-4.663l-4.67 4.663h-4.663l-9.332 9.332v4.663l-4.663 4.67v4.663l-4.663 4.67v18.658l4.663 4.663v4.67l4.663 4.663v4.663l9.332 9.333h4.663l4.67 4.662h4.663l4.67 4.67H62.98l4.67-4.67h4.663l4.663-4.662h4.67l9.325-9.333v-4.663l4.67-4.663v-4.67l4.663-4.663V39.66l-4.663-4.67v-4.663l-4.67-4.67v-4.663l-9.325-9.332h-4.67l-4.663-4.663H67.65l-4.67-4.663H39.66Z" fill="#FE3344"/><path d="M13.996 18.658h4.662v-4.662h-4.662v4.662Zm4.662-4.662h9.333V9.333h-9.333v4.663ZM0 60.645h4.663V37.317H0v23.328ZM37.324 4.663h27.991V0H37.324v4.663Zm0 0h-9.333v4.663h9.333V4.663ZM9.326 37.324v-9.333H4.663v9.333h4.663Zm.007-9.326h4.663v-9.332H9.333v9.332Zm93.299 9.326h-4.663v23.328h4.663V37.324ZM65.315 93.306H37.324v4.663h27.991v-4.663Zm11.661-23.328h-4.663v4.663h4.663v-4.663Zm-4.663 4.67H62.98v4.663h9.333v-4.663Zm9.333-23.328v9.332h4.663V51.32h-4.663Zm-.007 9.332h-4.663v9.333h4.663v-9.333ZM30.319 79.31h9.333v-4.662h-9.333v4.663Zm-4.656-4.662h4.663v-4.663h-4.663v4.663ZM62.98 79.31H39.652v4.664H62.98V79.31ZM16.33 51.32v9.332h4.663V51.32h-4.662ZM21 69.978h4.663v-9.333h-4.662v9.333Zm67.636-55.982h-4.662v4.662h4.662v-4.662ZM83.98 9.333h-9.332v4.663h9.333V9.333Zm-18.665 0h9.333V4.67h-9.333v4.663ZM97.97 37.324v-9.333h-4.664v9.333h4.663Zm-4.664-18.666h-4.662v9.333h4.662v-9.333Zm-79.31 65.316h4.662V79.31h-4.662v4.663Zm4.662 4.67h9.333V83.98h-9.333v4.663Zm18.666 0h-9.333v4.662h9.333v-4.662ZM4.663 60.645v9.333h4.663v-9.333H4.663Zm4.67 18.665h4.663v-9.332H9.333v9.333Zm79.311 4.664V79.31H83.98v4.663h4.663Z" fill="#000"/><path d="M93.306 79.31v-9.332h-4.662v9.333h4.662Zm0-18.658v9.333h4.663v-9.333h-4.663ZM65.315 93.306h9.333v-4.662h-9.333v4.662Zm18.659-4.67v-4.662H74.64v4.662h9.333ZM42.238 27.991v13.996h4.663V27.99h-4.663Z" fill="#000"/><path d="M28.25 27.991h13.995v-4.663H28.25v4.663Z" fill="#000"/><path d="M42.245 27.991H28.25v13.996h13.995V27.99Z" fill="#fff"/><path d="M23.58 27.991v13.996h4.663V27.99H23.58Zm4.67 18.666h13.995v-4.663H28.25v4.663ZM74.9 27.991v13.996h4.662V27.99H74.9Z" fill="#000"/><path d="M60.911 27.991h13.996v-4.663H60.91v4.663Z" fill="#000"/><path d="M74.9 27.991H60.903v13.996h13.995V27.99Z" fill="#fff"/><path d="M56.241 27.991v13.996h4.663V27.99H56.24Zm4.67 18.666h13.996v-4.663H60.91v4.663Zm-29.248-9.211h10.582v-9.455H31.663v9.455Zm32.661 0h10.583v-9.455H64.324v9.455Z" fill="#000"/></svg>