<svg width="103" height="98" fill="none" xmlns="http://www.w3.org/2000/svg"><path d="m63.341 2.335 4.67 4.663h4.663l4.67 4.663h4.663l9.332 9.332v4.663l4.663 4.67v4.663l4.663 4.67v18.658l-4.663 4.663v4.67l-4.663 4.663v4.663l-9.332 9.333h-4.663l-4.67 4.662H68.01l-4.67 4.67H40.02l-4.67-4.67h-4.663l-4.663-4.662h-4.67l-9.325-9.333v-4.663l-4.67-4.663v-4.67l-4.663-4.663V39.66l4.663-4.67v-4.663l4.67-4.67v-4.663l9.325-9.332h4.67l4.663-4.663h4.663l4.67-4.663h23.32Z" fill="#43FE01"/><path d="M89.004 18.658h-4.662v-4.663h4.662v4.663Zm-4.662-4.662h-9.333V9.333h9.333v4.663ZM103 60.645h-4.663V37.317H103v23.328ZM65.676 4.663H37.685V0h27.991v4.663Zm0 0h9.333v4.663h-9.333V4.663Zm27.998 32.661v-9.333h4.663v9.333h-4.663Zm-.007-9.326h-4.663v-9.333h4.663v9.333ZM.368 37.324h4.663v23.329H.368V37.324Zm37.317 55.983h27.991v4.662H37.685v-4.662ZM26.024 69.978h4.663v4.663h-4.663v-4.663Zm4.663 4.67h9.333v4.663h-9.333v-4.663ZM21.354 51.32v9.332h-4.663V51.32h4.663Zm.007 9.332h4.663v9.333h-4.663v-9.333Zm51.32 18.658h-9.333v-4.662h9.333v4.663Zm4.656-4.662h-4.663v-4.663h4.663v4.663ZM40.02 79.31h23.328v4.663H40.02v-4.662Zm46.65-27.99v9.332h-4.663V51.32h4.662ZM82 69.978h-4.663v-9.333h4.662v9.333ZM14.364 13.996h4.662v4.662h-4.662v-4.662Zm4.656-4.663h9.332v4.663h-9.333V9.333Zm18.665 0h-9.333V4.67h9.333v4.663ZM5.03 37.324v-9.333h4.664v9.333H5.03Zm4.664-18.666h4.662v9.333H9.694v-9.333Zm79.31 65.316h-4.662V79.31h4.662v4.663Zm-4.662 4.67h-9.333V83.98h9.333v4.663Zm-18.666 0h9.333v4.662h-9.333v-4.662Zm32.661-27.999v9.333h-4.663v-9.333h4.663Zm-4.67 18.665h-4.663v-9.332h4.663v9.333Zm-79.311 4.663v-4.662h4.663v4.662h-4.663Z" fill="#000"/><path d="M9.694 79.31v-9.332h4.662v9.333H9.694Zm0-18.657v9.332H5.03v-9.332h4.663Zm27.991 32.654h-9.333v-4.663h9.333v4.663Zm-18.659-4.671v-4.662h9.333v4.662h-9.333Zm41.736-60.645v13.996h-4.663V27.99h4.663Z" fill="#000"/><path d="M74.75 27.991H60.755v-4.663H74.75v4.663Z" fill="#000"/><path d="M60.755 27.991H74.75v13.996H60.755V27.99Z" fill="#fff"/><path d="M79.42 27.991v13.996h-4.663V27.99h4.663Zm-4.67 18.666H60.755v-4.663H74.75v4.663ZM28.1 27.991v13.996h-4.662V27.99H28.1Z" fill="#000"/><path d="M42.089 27.991H28.093v-4.663H42.09v4.663Z" fill="#000"/><path d="M28.1 27.991h13.996v13.996H28.101V27.99Z" fill="#fff"/><path d="M46.759 27.991v13.996h-4.663V27.99h4.663Zm-4.67 18.666H28.093v-4.663H42.09v4.663Zm29.249-9.211H60.755v-9.455h10.583v9.455Zm-32.662 0H28.093v-9.455h10.583v9.455Z" fill="#000"/></svg>