<svg width="103" height="98" fill="none" xmlns="http://www.w3.org/2000/svg"><path d="m62.973 2.335 4.67 4.663h4.663l4.67 4.663h4.662l9.333 9.332v4.663l4.663 4.67v4.663l4.663 4.67v18.658l-4.663 4.663v4.67l-4.663 4.663v4.663l-9.333 9.333h-4.662l-4.67 4.662h-4.663l-4.67 4.67H39.652l-4.67-4.67h-4.663l-4.663-4.662h-4.67l-9.325-9.333v-4.663L6.99 67.65v-4.67l-4.663-4.663V39.66l4.663-4.67v-4.663l4.67-4.67v-4.663l9.325-9.332h4.67l4.663-4.663h4.663l4.67-4.663h23.32Z" fill="#FE3344"/><path d="M88.636 18.658h-4.662v-4.663h4.662v4.663Z" fill="#000"/><path d="M83.974 13.996H74.64V9.333h9.332v4.663Zm18.658 46.649h-4.663V37.317h4.663v23.328ZM65.308 4.663H37.317V0h27.991v4.663Zm0 0h9.333v4.662h-9.333V4.663Zm27.998 32.661v-9.333h4.663v9.333h-4.663Zm-.006-9.326h-4.664v-9.332H93.3v9.332ZM0 37.324h4.663v23.329H0V37.324Zm37.317 55.983h27.991v4.662H37.317v-4.662ZM25.656 69.978h4.663v4.663h-4.663v-4.663Zm4.664 4.67h9.332v4.663h-9.333v-4.663ZM20.986 51.32v9.332h-4.663V51.32h4.663Zm.008 9.332h4.662v9.333h-4.662v-9.333Zm51.319 18.659H62.98v-4.663h9.333v4.663Zm4.656-4.663h-4.663v-4.663h4.663v4.663Zm-37.317 4.663H62.98v4.663H39.652V79.31ZM86.301 51.32v9.332h-4.663V51.32h4.663Zm-4.669 18.658h-4.663v-9.333h4.663v9.333ZM13.995 13.996h4.663v4.662h-4.663v-4.662Zm4.656-4.663h9.333v4.663H18.65V9.333Zm18.666 0h-9.333V4.67h9.333v4.663ZM4.663 37.324v-9.333h4.662v9.333H4.663Zm4.663-18.666h4.662v9.333H9.326v-9.333Zm79.31 65.316h-4.662V79.31h4.662v4.663Zm-4.662 4.67H74.64V83.98h9.332v4.663Zm-18.666 0h9.333v4.662h-9.333v-4.662ZM97.97 60.645v9.333h-4.663v-9.333h4.662ZM93.3 79.311h-4.664v-9.333H93.3v9.333Zm-79.312 4.663V79.31h4.663v4.663h-4.663ZM9.326 79.31v-9.332h4.662v9.333H9.326Zm0-18.657v9.332H4.663v-9.332h4.663Zm27.991 32.654h-9.333v-4.663h9.333v4.663Zm-18.659-4.671v-4.662h9.333v4.662h-9.333Zm41.736-60.645v13.996H55.73V27.99h4.663Z" fill="#000"/><path d="M74.382 27.991H60.386v-4.663h13.996v4.663Z" fill="#000"/><path d="M60.386 27.991h13.996v13.996H60.386V27.99Z" fill="#fff"/><path d="M79.052 27.991v13.996H74.39V27.99h4.663Zm-4.67 18.666H60.386v-4.663h13.996v4.663ZM27.733 27.991v13.996H23.07V27.99h4.663Z" fill="#000"/><path d="M41.72 27.991H27.726v-4.663h13.996v4.663Z" fill="#000"/><path d="M27.733 27.991h13.995v13.996H27.733V27.99Z" fill="#fff"/><path d="M46.39 27.991v13.996h-4.662V27.99h4.663Zm-4.67 18.666H27.726v-4.663h13.996v4.663Zm29.25-9.211H60.385v-9.455H70.97v9.455Zm-32.662 0H27.725v-9.455h10.583v9.455Z" fill="#000"/></svg>