<svg width="505" height="601" fill="none" xmlns="http://www.w3.org/2000/svg"><mask id="a" style="mask-type:alpha" maskUnits="userSpaceOnUse" x="0" y="-135" width="616" height="736"><path transform="matrix(-1 0 0 1 616 -135)" fill="#C4C4C4" d="M0 0h616v736H0z"/></mask><g mask="url(#a)"><path d="M117 459.291h996.84M66 518h181M66.904 459.291h59.337M1123 400.242H67M1123 340H68m1055-59H125.5m997.5-59H68m1055-60H68m1055-59H68m1055-59H126m356-228v643m-59-643v645m-58-594.412L361 459m-54-593-3 593m-59-593v652M186-76v594M125-18v536M67 102v122m0 114v182" stroke="#BBA5EF" stroke-width="4" stroke-miterlimit="10"/><path d="m112.38-51.534 14.771-14.771h22.152l14.77 14.77v22.153L112.38 22.31 60.695-29.382v-22.152l14.762-14.771h22.16l14.763 14.77Z" fill="#43FE01"/><path d="M123.456 18.608h-7.381v-7.381h7.381v7.38Zm-7.381 7.39h-7.382v-7.382h7.382v7.382Zm22.152-22.153h-7.382v-7.38h7.382v7.38Zm-7.381 7.39h-7.382V3.854h7.382v7.38Zm-29.534 0h7.381v7.381h-7.381v-7.381ZM86.542-3.536h7.381v7.381h-7.381v-7.38Zm7.381 7.381h7.381v7.382h-7.381V3.845Z" fill="#000"/><g clip-path="url(#b)"><path d="m66.997 437.388 12.534-12.309H98.33l12.535 12.309v18.461l-43.868 43.079-43.861-43.079v-18.461l12.527-12.309H54.47l12.528 12.309Z" fill="#FF0"/><path d="M76.396 495.842h-6.264v-6.151h6.264v6.151ZM70.132 502h-6.264v-6.151h6.264V502Zm18.798-18.46h-6.264v-6.152h6.264v6.152Zm-6.263 6.158h-6.264v-6.152h6.264v6.152Zm18.798-18.468h-6.264v-6.151h6.264v6.151Zm-6.27 6.158H88.93v-6.151h6.264v6.151ZM114 458.921h-6.264v-24.619H114v24.619Zm-6.271 6.158h-6.264v-6.151h6.264v6.151Zm.007-36.921v6.151h-6.264v-6.151h6.264ZM101.465 422v6.151h-25.07V422h25.07Zm-25.069 12.309h-6.264v-6.151h6.264v6.151Zm-6.264 6.152h-6.264v-6.152h6.264v6.152Zm-12.528 49.237h6.264v6.151h-6.264v-6.151Zm-12.534-12.31h6.264v6.152H45.07v-6.152Zm6.263 6.152h6.264v6.151h-6.264v-6.151Zm-18.798-18.461h6.264v6.151h-6.264v-6.151Zm6.271 6.151h6.263v6.151h-6.264v-6.151ZM20 434.309h6.264v24.619H20v-24.619Zm6.27 24.612h6.265v6.151H26.27v-6.151Zm6.265-30.763v6.151H26.27v-6.151h6.264ZM57.597 422v6.151h-25.07V422h25.07Zm.007 6.151h6.264v6.151h-6.264v-6.151Z" fill="#000"/><path d="M101.465 446.619h-6.264v-6.152h6.264v6.152Zm-12.528-12.31h6.264v6.152h-6.264v-6.152Z" fill="#fff"/></g><g clip-path="url(#c)" fill="#fff"><path d="M448 443.007h-7.007V436H448v7.007ZM440.993 436H434v-6.993h6.993V436ZM434 422v7.007h-7.007v-14H434V422Zm34.993-6.993H476v14h-7.007v-14Zm0 14V436H462v-6.993h6.993ZM462 436v7.007h-7.007V436H462Zm-7.007 14H448v-6.993h6.993V450ZM434 415.007V408h14v7.007h-14Zm20.993 0V408h14v7.007h-14ZM448 422v-6.993h6.993V422H448Z"/></g><g clip-path="url(#d)" fill="#fff"><path d="M211 327.007h-7.007V320H211v7.007ZM203.993 320H197v-6.993h6.993V320ZM197 306v7.007h-7.007v-14H197V306Zm34.993-6.993H239v14h-7.007v-14Zm0 14V320H225v-6.993h6.993ZM225 320v7.007h-7.007V320H225Zm-7.007 14H211v-6.993h6.993V334ZM197 299.007V292h14v7.007h-14Zm20.993 0V292h14v7.007h-14ZM211 306v-6.993h6.993V306H211Z"/></g><g clip-path="url(#e)" fill="#fff"><path d="M212 503.007h-7.007V496H212v7.007ZM204.993 496H198v-6.993h6.993V496ZM198 482v7.007h-7.007v-14H198V482Zm34.993-6.993H240v14h-7.007v-14Zm0 14V496H226v-6.993h6.993ZM226 496v7.007h-7.007V496H226Zm-7.007 14H212v-6.993h6.993V510ZM198 475.007V468h14v7.007h-14Zm20.993 0V468h14v7.007h-14ZM212 482v-6.993h6.993V482H212Z"/></g><g clip-path="url(#f)" fill="#fff"><path d="M272 147.007h-7.007V140H272v7.007ZM264.993 140H258v-6.993h6.993V140ZM258 126v7.007h-7.007v-14H258V126Zm34.993-6.993H300v14h-7.007v-14Zm0 14V140H286v-6.993h6.993ZM286 140v7.007h-7.007V140H286Zm-7.007 14H272v-6.993h6.993V154ZM258 119.007V112h14v7.007h-14Zm20.993 0V112h14v7.007h-14ZM272 126v-6.993h6.993V126H272Z"/></g><g clip-path="url(#g)" fill="#fff"><path d="M507 207.007h-7.007V200H507v7.007ZM499.993 200H493v-6.993h6.993V200ZM493 186v7.007h-7.007v-14H493V186Zm0-6.993V172h14v7.007h-14Z"/></g><path d="m443.973-60.665 4.67 4.663h4.663l4.67 4.663h4.663l9.332 9.332v4.663l4.663 4.67v4.663l4.663 4.67v18.658L476.634-.02v4.67l-4.663 4.663v4.663l-9.332 9.333h-4.663l-4.67 4.662h-4.663l-4.67 4.67h-23.321l-4.67-4.67h-4.663l-4.663-4.662h-4.67l-9.325-9.333V9.313l-4.67-4.663V-.02l-4.663-4.663V-23.34l4.663-4.67v-4.663l4.67-4.67v-4.663l9.325-9.332h4.67l4.663-4.663h4.663l4.67-4.663h23.321Z" fill="#FE3344"/><path d="M418.317 30.306h27.991v4.663h-27.991v-4.663ZM406.656 6.978h4.663v4.663h-4.663V6.978Zm4.663 4.67h9.333v4.663h-9.333v-4.663Zm-9.325-13.996h4.662v9.333h-4.662v-9.333Zm51.319 18.658h-9.333v-4.662h9.333v4.663Zm4.656-4.662h-4.663V6.985h4.663v4.663Z" fill="#000"/><path d="M420.652 16.31h23.328v4.664h-23.328V16.31Zm41.98-9.332h-4.663v-9.333h4.663v9.333Zm7.004 13.996h-4.662V16.31h4.662v4.663Zm-4.663 4.67h-9.332V20.98h9.332v4.663Zm-18.665 0h9.333v4.662h-9.333v-4.662Zm32.661-27.999v9.333h-4.663v-9.333h4.663Z" fill="#000"/><path d="M474.299 16.31h-4.663V6.979h4.663v9.333Zm-79.311 4.664V16.31h4.663v4.663h-4.663Z" fill="#000"/><path d="M390.326 16.31V6.979h4.663v9.333h-4.663Zm0-18.658v9.333h-4.663v-9.333h4.663Zm27.991 32.654h-9.333v-4.662h9.333v4.662Zm-18.659-4.67v-4.662h9.333v4.662h-9.333Z" fill="#000"/><path d="m193.973 176.335 4.67 4.663h4.663l4.67 4.663h4.663l9.332 9.332v4.663l4.663 4.67v4.663l4.663 4.67v18.658l-4.663 4.663v4.67l-4.663 4.663v4.663l-9.332 9.333h-4.663l-4.67 4.663h-4.663l-4.67 4.669h-23.321l-4.67-4.669h-4.663l-4.663-4.663h-4.67l-9.325-9.333v-4.663l-4.67-4.663v-4.67l-4.663-4.663v-18.658l4.663-4.67v-4.663l4.67-4.67v-4.663l9.325-9.332h4.67l4.663-4.663h4.663l4.67-4.663h23.321Z" fill="#FE75F0"/><path d="M219.636 192.658h-4.662v-4.662h4.662v4.662Zm-4.663-4.662h-9.332v-4.663h9.332v4.663Zm18.659 46.649h-4.663v-23.328h4.663v23.328Zm-37.324-55.982h-27.991V174h27.991v4.663Zm0 0h9.333v4.663h-9.333v-4.663Z" fill="#000"/><path d="M224.306 211.324v-9.333h4.663v9.333h-4.663Zm-.007-9.326h-4.663v-9.332h4.663v9.332ZM131 211.324h4.663v23.328H131v-23.328Zm37.316 55.982h27.992v4.663h-27.992v-4.663Zm-11.66-23.328h4.663v4.663h-4.663v-4.663Zm4.663 4.67h9.333v4.663h-9.333v-4.663Zm-9.333-23.328v9.332h-4.663v-9.332h4.663Zm.007 9.332h4.663v9.333h-4.663v-9.333Zm51.32 18.659h-9.333v-4.663h9.333v4.663Zm4.656-4.663h-4.663v-4.663h4.663v4.663Zm-37.317 4.663h23.328v4.663h-23.328v-4.663Zm46.649-27.991v9.332h-4.662v-9.332h4.662Zm-4.67 18.658h-4.663v-9.333h4.663v9.333Zm-67.636-55.982h4.663v4.662h-4.663v-4.662Zm4.656-4.663h9.333v4.663h-9.333v-4.663Zm18.666 0h-9.333v-4.663h9.333v4.663Zm-32.654 27.991v-9.333h4.662v9.333h-4.662Zm4.663-18.666h4.662v9.333h-4.662v-9.333Zm79.31 65.316h-4.662v-4.663h4.662v4.663Zm-4.663 4.67h-9.332v-4.663h9.332v4.663Zm-18.665 0h9.333v4.662h-9.333v-4.662Zm32.661-27.999v9.333h-4.663v-9.333h4.663Zm-4.67 18.666h-4.663v-9.333h4.663v9.333Zm-79.311 4.663v-4.663h4.663v4.663h-4.663Zm-4.663-4.663v-9.333h4.663v9.333h-4.663Z" fill="#000"/><path d="M140.325 234.652v9.333h-4.663v-9.333h4.663Zm27.992 32.654h-9.333v-4.662h9.333v4.662Zm-18.659-4.67v-4.662h9.333v4.662h-9.333Zm41.736-60.645v13.996h-4.663v-13.996h4.663Zm13.988 0h-13.996v-4.663h13.996v4.663Z" fill="#000"/><path d="M191.386 201.991h13.996v13.996h-13.996v-13.996Z" fill="#fff"/><path d="M210.052 201.991v13.996h-4.663v-13.996h4.663Zm-4.67 18.666h-13.996v-4.663h13.996v4.663Zm-46.65-18.666v13.996h-4.662v-13.996h4.662Zm13.989 0h-13.996v-4.663h13.996v4.663Z" fill="#000"/><path d="M158.732 201.991h13.996v13.996h-13.996v-13.996Z" fill="#fff"/><path d="M177.391 201.991v13.996h-4.663v-13.996h4.663Zm-4.67 18.666h-13.996v-4.663h13.996v4.663Zm29.248-9.211h-10.583v-9.455h10.583v9.455Zm-32.661 0h-10.583v-9.455h10.583v9.455Z" fill="#000"/></g><defs><clipPath id="b"><path fill="#fff" transform="matrix(-1 0 0 1 114 422)" d="M0 0h94v80H0z"/></clipPath><clipPath id="c"><path fill="#fff" transform="matrix(-1 0 0 1 476 408)" d="M0 0h49v42H0z"/></clipPath><clipPath id="d"><path fill="#fff" transform="matrix(-1 0 0 1 239 292)" d="M0 0h49v42H0z"/></clipPath><clipPath id="e"><path fill="#fff" transform="matrix(-1 0 0 1 240 468)" d="M0 0h49v42H0z"/></clipPath><clipPath id="f"><path fill="#fff" transform="matrix(-1 0 0 1 300 112)" d="M0 0h49v42H0z"/></clipPath><clipPath id="g"><path fill="#fff" transform="matrix(-1 0 0 1 535 172)" d="M0 0h49v42H0z"/></clipPath></defs></svg>