<svg width="624" height="744" fill="none" xmlns="http://www.w3.org/2000/svg"><mask id="a" style="mask-type:alpha" maskUnits="userSpaceOnUse" x="4" y="0" width="616" height="736"><path transform="matrix(-1 0 0 1 620 0)" fill="#C4C4C4" d="M0 0h616v736H0z"/></mask><g mask="url(#a)" stroke="#BBA5EF" stroke-width="4" stroke-miterlimit="10"><path d="M121 594.291h996.84M70 653h181M70.904 594.291h59.337M1127 535.242H71M1127 475H72m1055-59H129.5m997.5-59H72m1055-60H72m1055-59H72m1055-59H130m997-60H130m997-59H188m939-59H247m357.929-50v1405.24M545.592-49v1405.24M486-49v643M427-49v645M369 1.588 365 594M311 1l-3 593M249 1v652M190 59v594m-61-536v536M71 237v122m0 114v182"/></g></svg>