<svg width="58" height="55" fill="none" xmlns="http://www.w3.org/2000/svg"><path d="m35.353 1.31 2.622 2.619h2.617l2.622 2.617h2.618l5.24 5.24v2.617l2.617 2.622v2.618l2.618 2.622v10.474l-2.618 2.618v2.622l-2.618 2.618v2.617l-5.24 5.24h-2.617l-2.622 2.617h-2.617l-2.622 2.622H22.26l-2.621-2.621H17.02l-2.618-2.618H11.78l-5.235-5.24v-2.617l-2.622-2.618v-2.622L1.307 32.74V22.264l2.617-2.622v-2.618l2.622-2.621v-2.618l5.235-5.24h2.622l2.618-2.617h2.618L22.26 1.31h13.093Z" fill="#FF0"/><path d="M49.76 10.475h-2.617V7.857h2.617v2.618Zm-2.617-2.618h-5.24V5.24h5.24v2.618Zm10.475 26.189H55V20.95h2.618v13.096ZM36.664 2.618H20.95V0h15.714v2.618Zm0 0h5.24v2.617h-5.24V2.618Zm15.718 18.336v-5.24H55v5.24h-2.618Zm-.004-5.236h-2.617v-5.24h2.617v5.24ZM0 20.954h2.618V34.05H0V20.954Zm20.95 31.428h15.714V55H20.95v-2.618Zm-6.547-13.096h2.618v2.617h-2.618v-2.617Zm2.618 2.621h5.24v2.618h-5.24v-2.617ZM11.782 28.81v5.24H9.164v-5.24h2.618Zm.004 5.24h2.617v5.24h-2.617v-5.24Zm28.811 10.475h-5.24v-2.618h5.24v2.618Zm2.613-2.618h-2.617V39.29h2.617v2.617Zm-20.95 2.618h13.097v2.618H22.261v-2.618ZM48.45 28.81v5.24h-2.618v-5.24h2.618Zm-2.622 10.476H43.21v-5.24h2.618v5.24ZM7.857 7.857h2.618v2.618H7.857V7.857Zm2.614-2.617h5.24v2.617h-5.24V5.24Zm10.479 0h-5.24V2.621h5.24v2.617ZM2.618 20.954v-5.24h2.617v5.24H2.618Zm2.617-10.479h2.618v5.24H5.235v-5.24ZM49.76 47.143h-2.617v-2.618h2.617v2.618Zm-2.617 2.622h-5.24v-2.618h5.24v2.618Zm-10.479 0h5.24v2.617h-5.24v-2.617ZM55 34.046v5.24h-2.618v-5.24H55Zm-2.622 10.479h-2.617v-5.24h2.617v5.24ZM7.853 47.143v-2.618h2.618v2.618H7.853Zm-2.618-2.618v-5.24h2.618v5.24H5.235Zm0-10.475v5.24H2.618v-5.24h2.617ZM20.95 52.382h-5.24v-2.617h5.24v2.617ZM10.475 49.76v-2.617h5.24v2.617h-5.24Zm23.43-34.046v7.857h-2.617v-7.857h2.617Z" fill="#000"/><path d="M41.758 15.714h-7.857v-2.617h7.857v2.617Z" fill="#000"/><path d="M33.901 15.714h7.857v7.857h-7.857v-7.857Z" fill="#fff"/><path d="M44.38 15.714v7.857h-2.618v-7.857h2.618Zm-2.622 10.479h-7.857v-2.617h7.857v2.617ZM15.57 15.714v7.857h-2.618v-7.857h2.617Z" fill="#000"/><path d="M23.422 15.714h-7.857v-2.617h7.857v2.617Z" fill="#000"/><path d="M15.57 15.714h7.856v7.857H15.57v-7.857Z" fill="#fff"/><path d="M26.044 15.714v7.857h-2.618v-7.857h2.618Zm-2.622 10.479h-7.857v-2.617h7.857v2.617Zm16.42-5.171h-5.94v-5.308h5.94v5.308Zm-18.336 0h-5.941v-5.308h5.941v5.308Z" fill="#000"/></svg>