<svg width="2533" height="1406" viewBox="0 0 2533 1406" fill="none" xmlns="http://www.w3.org/2000/svg">
<path d="M50.0012 0V1405.4" stroke="#BBA5EF" stroke-width="4" stroke-miterlimit="10"/>
<path d="M109.325 0V1405.4" stroke="#BBA5EF" stroke-width="4" stroke-miterlimit="10"/>
<path d="M168.655 0V1405.4" stroke="#BBA5EF" stroke-width="4" stroke-miterlimit="10"/>
<path d="M227.986 0V1405.4" stroke="#BBA5EF" stroke-width="4" stroke-miterlimit="10"/>
<path d="M287 0L287 1234" stroke="#BBA5EF" stroke-width="4" stroke-miterlimit="10"/>
<path d="M347 0L347 1234" stroke="#BBA5EF" stroke-width="4" stroke-miterlimit="10"/>
<path d="M406 0L406 1234" stroke="#BBA5EF" stroke-width="4" stroke-miterlimit="10"/>
<path d="M465 0L465 1235" stroke="#BBA5EF" stroke-width="4" stroke-miterlimit="10"/>
<path d="M525 0L525 1353" stroke="#BBA5EF" stroke-width="4" stroke-miterlimit="10"/>
<path d="M584 0L584 1353" stroke="#BBA5EF" stroke-width="4" stroke-miterlimit="10"/>
<path d="M643.291 1004V878.092V818.755V759.419V700.082V640.745V581.408V522.071V462.741V403.404V344.067V284.73V225.394V166.057V106.72V47.3896V9.15991" stroke="#BBA5EF" stroke-width="4" stroke-miterlimit="10"/>
<path d="M703.025 1004L703 940.414L702.974 876.822L702.948 813.229L702.922 749.636L702.896 686.044L702.87 622.451L702.845 558.859L702.819 495.273L702.793 431.68L702.767 368.088L702.741 304.495L702.715 240.902L702.689 177.31L702.664 113.717L702.638 50.1315L702.621 9.15991" stroke="#BBA5EF" stroke-width="4" stroke-miterlimit="10"/>
<path d="M761.951 1006V878.092V818.755V759.419V700.082V640.745V581.408V522.071V462.741V403.404V344.067V284.73V225.394V166.057V106.72V47.3896V9.15991" stroke="#BBA5EF" stroke-width="4" stroke-miterlimit="10"/>
<path d="M643.291 1293.44V1234.11V1174.77V1115.43V1056.1V996.759" stroke="#BBA5EF" stroke-width="4" stroke-miterlimit="10"/>
<path d="M703 1353L703 1306.16L703 1254.64L703 1203.11L703 1151.59L703 1100.06L703 1048.53L703 997" stroke="#BBA5EF" stroke-width="4" stroke-miterlimit="10"/>
<path d="M761.951 1352.77V1293.44V1234.11V1174.77V1115.43V1056.1V996.759" stroke="#BBA5EF" stroke-width="4" stroke-miterlimit="10"/>
<path d="M821 0L821 1354" stroke="#BBA5EF" stroke-width="4" stroke-miterlimit="10"/>
<path d="M881 0L881 1234" stroke="#BBA5EF" stroke-width="4" stroke-miterlimit="10"/>
<path d="M940 0V1234" stroke="#BBA5EF" stroke-width="4" stroke-miterlimit="10"/>
<path d="M999 0V1234" stroke="#BBA5EF" stroke-width="4" stroke-miterlimit="10"/>
<path d="M1059 0V1234" stroke="#BBA5EF" stroke-width="4" stroke-miterlimit="10"/>
<path d="M1118 0V1234" stroke="#BBA5EF" stroke-width="4" stroke-miterlimit="10"/>
<path d="M1177 0V1293" stroke="#BBA5EF" stroke-width="4" stroke-miterlimit="10"/>
<path d="M1237 0V1354" stroke="#BBA5EF" stroke-width="4" stroke-miterlimit="10"/>
<path d="M1296 0V1354" stroke="#BBA5EF" stroke-width="4" stroke-miterlimit="10"/>
<path d="M1355 0V1354" stroke="#BBA5EF" stroke-width="4" stroke-miterlimit="10"/>
<path d="M1405.24 47.3896H0" stroke="#BBA5EF" stroke-width="4" stroke-miterlimit="10"/>
<path d="M1405.24 106.72H0" stroke="#BBA5EF" stroke-width="4" stroke-miterlimit="10"/>
<path d="M1405.24 166.057H0" stroke="#BBA5EF" stroke-width="4" stroke-miterlimit="10"/>
<path d="M1405.24 225.394H0" stroke="#BBA5EF" stroke-width="4" stroke-miterlimit="10"/>
<path d="M1405.24 284.73H0" stroke="#BBA5EF" stroke-width="4" stroke-miterlimit="10"/>
<path d="M1405.24 344.067H0" stroke="#BBA5EF" stroke-width="4" stroke-miterlimit="10"/>
<path d="M1405.24 403.404H0" stroke="#BBA5EF" stroke-width="4" stroke-miterlimit="10"/>
<path d="M1405.24 462.741H0" stroke="#BBA5EF" stroke-width="4" stroke-miterlimit="10"/>
<path d="M1405.24 522.071H0" stroke="#BBA5EF" stroke-width="4" stroke-miterlimit="10"/>
<path d="M1405.24 581.408H0" stroke="#BBA5EF" stroke-width="4" stroke-miterlimit="10"/>
<path d="M1405.24 640.745H0" stroke="#BBA5EF" stroke-width="4" stroke-miterlimit="10"/>
<path d="M1405.24 700.082H0" stroke="#BBA5EF" stroke-width="4" stroke-miterlimit="10"/>
<path d="M1405.24 759.418H0" stroke="#BBA5EF" stroke-width="4" stroke-miterlimit="10"/>
<path d="M1405.24 818.755H0" stroke="#BBA5EF" stroke-width="4" stroke-miterlimit="10"/>
<path d="M1405.24 878.092H0" stroke="#BBA5EF" stroke-width="4" stroke-miterlimit="10"/>
<path d="M1405.24 937.422H0" stroke="#BBA5EF" stroke-width="4" stroke-miterlimit="10"/>
<path d="M1405.24 996.759H0" stroke="#BBA5EF" stroke-width="4" stroke-miterlimit="10"/>
<path d="M1405.24 1056.1H0" stroke="#BBA5EF" stroke-width="4" stroke-miterlimit="10"/>
<path d="M1405.24 1115.43H0" stroke="#BBA5EF" stroke-width="4" stroke-miterlimit="10"/>
<path d="M1405.24 1174.77H0" stroke="#BBA5EF" stroke-width="4" stroke-miterlimit="10"/>
<path d="M1405.24 1234.11H0" stroke="#BBA5EF" stroke-width="4" stroke-miterlimit="10"/>
<path d="M821 1293H584.193H524" stroke="#BBA5EF" stroke-width="4" stroke-miterlimit="10"/>
<path d="M584.5 1352.77H525" stroke="#BBA5EF" stroke-width="4" stroke-miterlimit="10"/>
<path d="M822 1353H702" stroke="#BBA5EF" stroke-width="4" stroke-miterlimit="10"/>
<path d="M1414 0V1352" stroke="#BBA5EF" stroke-width="4" stroke-miterlimit="10"/>
<path d="M1474 0V1352" stroke="#BBA5EF" stroke-width="4" stroke-miterlimit="10"/>
<path d="M1533 0V1352" stroke="#BBA5EF" stroke-width="4" stroke-miterlimit="10"/>
<path d="M1592 0V1352" stroke="#BBA5EF" stroke-width="4" stroke-miterlimit="10"/>
<path d="M1652 0V1352" stroke="#BBA5EF" stroke-width="4" stroke-miterlimit="10"/>
<path d="M1711 0V1352" stroke="#BBA5EF" stroke-width="4" stroke-miterlimit="10"/>
<path d="M1770.29 1005.5V907.757V878.092V818.755V759.419V700.082V640.745V581.408V522.071V462.741V403.404V344.067V284.73V225.394V166.057V106.72V47.3896V9.15991" stroke="#BBA5EF" stroke-width="4" stroke-miterlimit="10"/>
<path d="M1829.62 937.423V1003V878.092V818.755V759.419V700.082V640.745V581.408V522.071V462.741V403.404V344.067V284.73V225.394V166.057V106.72V47.3896V9.15991" stroke="#BBA5EF" stroke-width="4" stroke-miterlimit="10"/>
<path d="M1888.95 937.423V1012.5V878.092V818.755V759.419V700.082V640.745V581.408V522.071V462.741V403.404V344.067V284.73V225.394V166.057V106.72V47.3896V9.15991" stroke="#BBA5EF" stroke-width="4" stroke-miterlimit="10"/>
<path d="M1770 1353V1301.17V1244.14V1187.11V1130.09V1073.06V1016.03V959" stroke="#BBA5EF" stroke-width="4" stroke-miterlimit="10"/>
<path d="M1830 1353V1301.17V1244.14V1187.11V1130.09V1073.06V1016.03V959" stroke="#BBA5EF" stroke-width="4" stroke-miterlimit="10"/>
<path d="M1889 1353V1301.17V1244.14V1187.11V1130.09V1073.06V1016.03V959" stroke="#BBA5EF" stroke-width="4" stroke-miterlimit="10"/>
<path d="M1948 0V1235" stroke="#BBA5EF" stroke-width="4" stroke-miterlimit="10"/>
<path d="M2008 0V1234" stroke="#BBA5EF" stroke-width="4" stroke-miterlimit="10"/>
<path d="M2067 0V1234" stroke="#BBA5EF" stroke-width="4" stroke-miterlimit="10"/>
<path d="M2126 0V1234" stroke="#BBA5EF" stroke-width="4" stroke-miterlimit="10"/>
<path d="M2185.6 0V1405.4" stroke="#BBA5EF" stroke-width="4" stroke-miterlimit="10"/>
<path d="M2244.93 0V1405.4" stroke="#BBA5EF" stroke-width="4" stroke-miterlimit="10"/>
<path d="M2304.26 0V1405.4" stroke="#BBA5EF" stroke-width="4" stroke-miterlimit="10"/>
<path d="M2363.59 0V1405.4" stroke="#BBA5EF" stroke-width="4" stroke-miterlimit="10"/>
<path d="M2422.92 0V1405.4" stroke="#BBA5EF" stroke-width="4" stroke-miterlimit="10"/>
<path d="M2482.24 0V1405.4" stroke="#BBA5EF" stroke-width="4" stroke-miterlimit="10"/>
<path d="M2532.24 47.3896H1127" stroke="#BBA5EF" stroke-width="4" stroke-miterlimit="10"/>
<path d="M2532.24 106.72H1127" stroke="#BBA5EF" stroke-width="4" stroke-miterlimit="10"/>
<path d="M2532.24 166.057H1127" stroke="#BBA5EF" stroke-width="4" stroke-miterlimit="10"/>
<path d="M2532.24 225.394H1127" stroke="#BBA5EF" stroke-width="4" stroke-miterlimit="10"/>
<path d="M2532.24 284.73H1127" stroke="#BBA5EF" stroke-width="4" stroke-miterlimit="10"/>
<path d="M2532.24 344.067H1127" stroke="#BBA5EF" stroke-width="4" stroke-miterlimit="10"/>
<path d="M2532.24 403.404H1127" stroke="#BBA5EF" stroke-width="4" stroke-miterlimit="10"/>
<path d="M2532.24 462.741H1127" stroke="#BBA5EF" stroke-width="4" stroke-miterlimit="10"/>
<path d="M2532.24 522.071H1127" stroke="#BBA5EF" stroke-width="4" stroke-miterlimit="10"/>
<path d="M2532.24 581.408H1127" stroke="#BBA5EF" stroke-width="4" stroke-miterlimit="10"/>
<path d="M2532.24 640.745H1127" stroke="#BBA5EF" stroke-width="4" stroke-miterlimit="10"/>
<path d="M2532.24 700.082H1127" stroke="#BBA5EF" stroke-width="4" stroke-miterlimit="10"/>
<path d="M2532.24 759.418H1127" stroke="#BBA5EF" stroke-width="4" stroke-miterlimit="10"/>
<path d="M2532.24 818.755H1127" stroke="#BBA5EF" stroke-width="4" stroke-miterlimit="10"/>
<path d="M2532.24 878.092H1127" stroke="#BBA5EF" stroke-width="4" stroke-miterlimit="10"/>
<path d="M2532.24 937.422H1127" stroke="#BBA5EF" stroke-width="4" stroke-miterlimit="10"/>
<path d="M2532.24 996.759H1127" stroke="#BBA5EF" stroke-width="4" stroke-miterlimit="10"/>
<path d="M2532.24 1056.1H1127" stroke="#BBA5EF" stroke-width="4" stroke-miterlimit="10"/>
<path d="M2532.24 1115.43H1127" stroke="#BBA5EF" stroke-width="4" stroke-miterlimit="10"/>
<path d="M2532.24 1174.77H1127" stroke="#BBA5EF" stroke-width="4" stroke-miterlimit="10"/>
<path d="M2532.24 1234.11H1127" stroke="#BBA5EF" stroke-width="4" stroke-miterlimit="10"/>
<path d="M1889 1293L1176 1293" stroke="#BBA5EF" stroke-width="4" stroke-miterlimit="10"/>
<path d="M1890 1353L1237 1353" stroke="#BBA5EF" stroke-width="4" stroke-miterlimit="10"/>
<rect x="883" y="939" width="648" height="234" fill="#8353E3"/>
</svg>
