<svg width="1321" height="738" viewBox="0 0 1321 738" fill="none" xmlns="http://www.w3.org/2000/svg">
<mask id="mask0_1701_4" style="mask-type:alpha" maskUnits="userSpaceOnUse" x="0" y="0" width="1321" height="738">
<rect width="1321" height="738" fill="#C4C4C4"/>
</mask>
<g mask="url(#mask0_1701_4)">
<path d="M29.5625 -198.188L29.5625 650.188" stroke="#BBA5EF" stroke-width="3" stroke-miterlimit="10"/>
<path d="M70.8125 -198.188L70.8125 650.188" stroke="#BBA5EF" stroke-width="3" stroke-miterlimit="10"/>
<path d="M111.375 -198.188L111.375 650.188" stroke="#BBA5EF" stroke-width="3" stroke-miterlimit="10"/>
<path d="M151.938 -198.188L151.937 650.875" stroke="#BBA5EF" stroke-width="3" stroke-miterlimit="10"/>
<path d="M193.188 -198.188L193.187 732" stroke="#BBA5EF" stroke-width="3" stroke-miterlimit="10"/>
<path d="M233.75 -198.188L233.75 732" stroke="#BBA5EF" stroke-width="3" stroke-miterlimit="10"/>
<path d="M274.513 492.062V405.501V364.707V323.913V283.119V242.325V201.53V160.736V119.947V79.1527V38.3587V-2.43542V-43.2295V-84.0236V-124.818V-165.607V-191.89" stroke="#BBA5EF" stroke-width="3" stroke-miterlimit="10"/>
<path d="M315.58 492.062L315.562 448.347L315.545 404.627L315.527 360.907L315.509 317.187L315.491 273.468L315.474 229.748L315.456 186.028L315.438 142.313L315.42 98.5926L315.403 54.8727L315.385 11.1528L315.367 -32.5672L315.349 -76.2871L315.331 -120.007L315.314 -163.722L315.302 -191.89" stroke="#BBA5EF" stroke-width="3" stroke-miterlimit="10"/>
<path d="M356.092 493.437V405.501V364.707V323.913V283.119V242.325V201.53V160.736V119.947V79.1527V38.3587V-2.43542V-43.2295V-84.0236V-124.818V-165.607V-191.89" stroke="#BBA5EF" stroke-width="3" stroke-miterlimit="10"/>
<path d="M274.513 691.055V650.261V609.467V568.672V527.878V487.084" stroke="#BBA5EF" stroke-width="3" stroke-miterlimit="10"/>
<path d="M315.562 732L315.562 699.801L315.562 664.379L315.562 628.953L315.562 593.527L315.562 558.101L315.562 522.676L315.562 487.25" stroke="#BBA5EF" stroke-width="3" stroke-miterlimit="10"/>
<path d="M356.092 731.844V691.055V650.261V609.467V568.672V527.878V487.084" stroke="#BBA5EF" stroke-width="3" stroke-miterlimit="10"/>
<path d="M396.687 -198.188L396.687 732.688" stroke="#BBA5EF" stroke-width="3" stroke-miterlimit="10"/>
<path d="M437.937 -198.188L437.937 650.188" stroke="#BBA5EF" stroke-width="3" stroke-miterlimit="10"/>
<path d="M478.5 -198.188V650.188" stroke="#BBA5EF" stroke-width="3" stroke-miterlimit="10"/>
<path d="M519.062 -198.188V650.188" stroke="#BBA5EF" stroke-width="3" stroke-miterlimit="10"/>
<path d="M560.312 -198.188V650.188" stroke="#BBA5EF" stroke-width="3" stroke-miterlimit="10"/>
<path d="M600.875 -198.188V650.188" stroke="#BBA5EF" stroke-width="3" stroke-miterlimit="10"/>
<path d="M641.438 -198.188V690.75" stroke="#BBA5EF" stroke-width="3" stroke-miterlimit="10"/>
<path d="M682.688 -198.188V732.687" stroke="#BBA5EF" stroke-width="3" stroke-miterlimit="10"/>
<path d="M723.25 -198.188V732.687" stroke="#BBA5EF" stroke-width="3" stroke-miterlimit="10"/>
<path d="M763.812 -198.188V732.687" stroke="#BBA5EF" stroke-width="3" stroke-miterlimit="10"/>
<path d="M798.354 38.3586H-167.75" stroke="#BBA5EF" stroke-width="3" stroke-miterlimit="10"/>
<path d="M798.354 79.1527H-167.75" stroke="#BBA5EF" stroke-width="3" stroke-miterlimit="10"/>
<path d="M798.354 119.947H-167.75" stroke="#BBA5EF" stroke-width="3" stroke-miterlimit="10"/>
<path d="M798.354 160.736H-167.75" stroke="#BBA5EF" stroke-width="3" stroke-miterlimit="10"/>
<path d="M798.354 201.53H-167.75" stroke="#BBA5EF" stroke-width="3" stroke-miterlimit="10"/>
<path d="M798.354 242.325H-167.75" stroke="#BBA5EF" stroke-width="3" stroke-miterlimit="10"/>
<path d="M798.354 283.119H-167.75" stroke="#BBA5EF" stroke-width="3" stroke-miterlimit="10"/>
<path d="M798.354 323.913H-167.75" stroke="#BBA5EF" stroke-width="3" stroke-miterlimit="10"/>
<path d="M798.354 364.707H-167.75" stroke="#BBA5EF" stroke-width="3" stroke-miterlimit="10"/>
<path d="M798.354 405.501H-167.75" stroke="#BBA5EF" stroke-width="3" stroke-miterlimit="10"/>
<path d="M798.354 446.29H-167.75" stroke="#BBA5EF" stroke-width="3" stroke-miterlimit="10"/>
<path d="M798.354 487.084H-167.75" stroke="#BBA5EF" stroke-width="3" stroke-miterlimit="10"/>
<path d="M798.354 527.879H-167.75" stroke="#BBA5EF" stroke-width="3" stroke-miterlimit="10"/>
<path d="M798.354 568.673H-167.75" stroke="#BBA5EF" stroke-width="3" stroke-miterlimit="10"/>
<path d="M798.354 609.467H-167.75" stroke="#BBA5EF" stroke-width="3" stroke-miterlimit="10"/>
<path d="M798.354 650.261H-167.75" stroke="#BBA5EF" stroke-width="3" stroke-miterlimit="10"/>
<path d="M396.688 690.75H233.883H192.5" stroke="#BBA5EF" stroke-width="3" stroke-miterlimit="10"/>
<path d="M234.094 731.844H193.188" stroke="#BBA5EF" stroke-width="3" stroke-miterlimit="10"/>
<path d="M397.375 732H314.875" stroke="#BBA5EF" stroke-width="3" stroke-miterlimit="10"/>
<path d="M804.375 -198.188V731.312" stroke="#BBA5EF" stroke-width="2" stroke-miterlimit="10"/>
<path d="M845.625 -198.188V731.312" stroke="#BBA5EF" stroke-width="2" stroke-miterlimit="10"/>
<path d="M886.187 -198.188V731.312" stroke="#BBA5EF" stroke-width="2" stroke-miterlimit="10"/>
<path d="M926.75 -198.188V731.312" stroke="#BBA5EF" stroke-width="2" stroke-miterlimit="10"/>
<path d="M968 -198.188V731.312" stroke="#BBA5EF" stroke-width="2" stroke-miterlimit="10"/>
<path d="M1008.56 -198.188V731.312" stroke="#BBA5EF" stroke-width="2" stroke-miterlimit="10"/>
<path d="M1049.32 493.094V425.896V405.501V364.707V323.913V283.119V242.324V201.53V160.736V119.947V79.1527V38.3586V-2.43544V-43.2295V-84.0236V-124.818V-165.607V-191.89" stroke="#BBA5EF" stroke-width="2" stroke-miterlimit="10"/>
<path d="M1090.11 446.29V491.375V405.501V364.707V323.913V283.119V242.324V201.53V160.736V119.947V79.1527V38.3586V-2.43544V-43.2295V-84.0236V-124.818V-165.607V-191.89" stroke="#BBA5EF" stroke-width="2" stroke-miterlimit="10"/>
<path d="M1130.9 446.29V497.906V405.501V364.707V323.913V283.119V242.324V201.53V160.736V119.947V79.1527V38.3586V-2.43544V-43.2295V-84.0236V-124.818V-165.607V-191.89" stroke="#BBA5EF" stroke-width="2" stroke-miterlimit="10"/>
<path d="M1049.12 732V696.364V657.161V617.954V578.747V539.539V500.332V461.125" stroke="#BBA5EF" stroke-width="2" stroke-miterlimit="10"/>
<path d="M1090.37 732V696.364V657.161V617.954V578.747V539.539V500.332V461.125" stroke="#BBA5EF" stroke-width="2" stroke-miterlimit="10"/>
<path d="M1130.94 732V696.364V657.161V617.954V578.747V539.539V500.332V461.125" stroke="#BBA5EF" stroke-width="2" stroke-miterlimit="10"/>
<path d="M1171.5 -198.188V650.875" stroke="#BBA5EF" stroke-width="2" stroke-miterlimit="10"/>
<path d="M1212.75 -198.188V650.188" stroke="#BBA5EF" stroke-width="2" stroke-miterlimit="10"/>
<path d="M1253.31 -198.188V650.188" stroke="#BBA5EF" stroke-width="2" stroke-miterlimit="10"/>
<path d="M1293.88 -198.188V650.188" stroke="#BBA5EF" stroke-width="2" stroke-miterlimit="10"/>
<path d="M1573.17 38.3586H607.062" stroke="#BBA5EF" stroke-width="2" stroke-miterlimit="10"/>
<path d="M1573.17 79.1528H607.062" stroke="#BBA5EF" stroke-width="2" stroke-miterlimit="10"/>
<path d="M1573.17 119.947H607.062" stroke="#BBA5EF" stroke-width="2" stroke-miterlimit="10"/>
<path d="M1573.17 160.737H607.062" stroke="#BBA5EF" stroke-width="2" stroke-miterlimit="10"/>
<path d="M1573.17 201.531H607.062" stroke="#BBA5EF" stroke-width="2" stroke-miterlimit="10"/>
<path d="M1573.17 242.325H607.062" stroke="#BBA5EF" stroke-width="2" stroke-miterlimit="10"/>
<path d="M1573.17 283.119H607.062" stroke="#BBA5EF" stroke-width="2" stroke-miterlimit="10"/>
<path d="M1573.17 323.913H607.062" stroke="#BBA5EF" stroke-width="2" stroke-miterlimit="10"/>
<path d="M1573.17 364.707H607.062" stroke="#BBA5EF" stroke-width="2" stroke-miterlimit="10"/>
<path d="M1573.17 405.501H607.062" stroke="#BBA5EF" stroke-width="2" stroke-miterlimit="10"/>
<path d="M1573.17 446.29H607.062" stroke="#BBA5EF" stroke-width="2" stroke-miterlimit="10"/>
<path d="M1573.17 487.084H607.062" stroke="#BBA5EF" stroke-width="2" stroke-miterlimit="10"/>
<path d="M1573.17 527.879H607.062" stroke="#BBA5EF" stroke-width="2" stroke-miterlimit="10"/>
<path d="M1573.17 568.673H607.062" stroke="#BBA5EF" stroke-width="2" stroke-miterlimit="10"/>
<path d="M1573.17 609.467H607.062" stroke="#BBA5EF" stroke-width="2" stroke-miterlimit="10"/>
<path d="M1573.17 650.261H607.062" stroke="#BBA5EF" stroke-width="2" stroke-miterlimit="10"/>
<path d="M1130.94 690.75L640.75 690.75" stroke="#BBA5EF" stroke-width="2" stroke-miterlimit="10"/>
<path d="M1131.62 732L682.688 732" stroke="#BBA5EF" stroke-width="2" stroke-miterlimit="10"/>
</g>
<rect x="520" y="325" width="243" height="284" fill="#8353E3"/>
</svg>
