<svg width="298" height="106" viewBox="0 0 298 106" fill="none" xmlns="http://www.w3.org/2000/svg">
<path d="M296.364 105.404C296.517 105.511 296.716 105.523 296.881 105.437C297.046 105.351 297.15 105.18 297.15 104.994V1C297.15 0.813774 297.046 0.642979 296.881 0.556783C296.716 0.470588 296.517 0.483275 296.364 0.589709L293.766 2.39929C293.632 2.49271 293.552 2.64579 293.552 2.80924L293.483 103.137C293.483 103.3 293.563 103.454 293.697 103.547L296.364 105.404Z" fill="black" stroke="black" stroke-linejoin="round"/>
<path d="M294.397 102.039C294.304 101.946 294.177 101.893 294.044 101.893L4.00501 101.494C3.87212 101.494 3.74463 101.547 3.65069 101.641L0.646362 104.647C0.503413 104.79 0.460679 105.005 0.538083 105.191C0.615488 105.378 0.797791 105.5 1 105.5H296.65C296.852 105.5 297.034 105.378 297.112 105.191C297.189 105.005 297.146 104.79 297.003 104.647L294.397 102.039Z" fill="black" stroke="black" stroke-linejoin="round"/>
<path d="M1.28576 0.589709C1.13295 0.483275 0.933648 0.470588 0.768572 0.556783C0.603495 0.642979 0.5 0.813774 0.5 1V104.994C0.5 105.18 0.603495 105.351 0.768572 105.437C0.933648 105.523 1.13295 105.511 1.28576 105.404L3.88391 103.595C4.01803 103.501 4.09803 103.348 4.09814 103.185L4.16651 2.85754C4.16663 2.69385 4.0866 2.54046 3.95228 2.44691L1.28576 0.589709Z" fill="black" stroke="black" stroke-linejoin="round"/>
<path d="M3.25234 3.96069C3.34594 4.05434 3.47288 4.10704 3.60529 4.10722L293.645 4.50576C293.778 4.50595 293.905 4.45322 293.999 4.35923L297.003 1.35347C297.146 1.21045 297.189 0.995411 297.112 0.808603C297.034 0.621795 296.852 0.5 296.65 0.5H1C0.797791 0.5 0.615488 0.621795 0.538083 0.808603C0.460679 0.995411 0.503413 1.21045 0.646362 1.35347L3.25234 3.96069Z" fill="black" stroke="black" stroke-linejoin="round"/>
<path d="M295.316 2.33325H2.33301V103.661H295.316V2.33325Z" fill="white"/>
<path d="M294.111 3.53784H3.53662V21.3102H294.111V3.53784Z" fill="#8353E3"/>
<path d="M290.939 6.71326H279.518V18.1398H290.939V6.71326Z" fill="#BBA5EF"/>
<path d="M290.939 6.71326V18.1372H279.518L290.939 6.71326Z" fill="#663EC6"/>
<path d="M289.669 7.98352H280.788V16.8697H289.669V7.98352Z" fill="white"/>
<path d="M288.935 8.71875H288.038L285.229 11.5291L282.422 8.71875H281.523V9.61611L284.332 12.4265L281.523 15.2368V16.1316H282.422L285.229 13.3238L288.038 16.1316H288.935V15.2368L286.126 12.4265L288.935 9.61611V8.71875Z" fill="black"/>
<path d="M276.349 6.71326H264.928V18.1398H276.349V6.71326Z" fill="#BBA5EF"/>
<path d="M276.347 6.71326V18.1372H264.926L276.347 6.71326Z" fill="#663EC6"/>
<path d="M275.077 7.98352H266.195V16.8697H275.077V7.98352Z" fill="white"/>
<path d="M274.003 14.864H267.272V16.1342H274.003V14.864Z" fill="black"/>
<path d="M54.6571 47.3307H58.9906V77.6511H54.6571V55.9921H52.4931V60.3256H50.3264V64.6562H48.1597V68.9897H43.829V64.6562H41.6622V60.3256H39.4955V55.9921H37.3315V77.6511H32.998V47.3307H37.3315V51.6614H41.6622V55.9921H43.829V60.3256H48.1597V55.9921H50.3264V51.6614H54.6571V47.3307Z" fill="#43FE01"/>
<path d="M88.229 73.3204H89.3054V77.6511H84.9803V73.3204H83.8984V68.9897H68.7367V73.3204H67.6548V77.6511H63.3213V73.3204H64.4061V68.9897H65.488V64.6562H66.57V60.3255H67.6548V55.992H68.7367V51.6613H69.8187V47.3307H82.8136V51.6613H83.8984V55.992H84.9803V60.3255H86.0623V64.6562H87.1471V68.9897H88.229V73.3204ZM81.7316 60.3255H80.6385V55.992H79.5537V51.6613H73.0674V55.992H71.9855V60.3255H70.9035V64.6562H81.7316V60.3255Z" fill="#43FE01"/>
<path d="M114.222 51.6613H105.555V77.6623H101.221V51.6613H92.5541V47.3307H114.213L114.222 51.6613Z" fill="#43FE01"/>
<path d="M135.878 51.6613H125.05V55.992H121.801V68.9897H125.05V73.3204H135.878V77.6511H122.883V73.3204H120.719V68.9897H117.47V55.992H120.719V51.6613H122.883V47.3307H135.878V51.6613ZM140.211 55.992H135.878V51.6613H140.211V55.992ZM140.211 68.9897V73.3204H135.878V68.9897H140.211Z" fill="#43FE01"/>
<path d="M166.19 47.3307V77.6511H161.87V64.6562H148.875V77.6511H144.542V47.3307H148.875V60.3255H161.87V47.3307H166.19Z" fill="#43FE01"/>
<path d="M201.937 55.9921H204.104V60.3256H203.022V64.6562H201.937V68.9897H197.606V64.6562H198.688V60.3256H199.773V55.9921H197.606V51.6614H186.778V55.9921H185.693V60.3256H184.611V64.6562H183.524V68.9897H182.439V73.3204H193.27V68.9897H197.601V73.3204H194.358V77.6511H177.024V73.3204H178.106V68.9897H179.188V64.6562H180.272V60.3256H181.354V55.9921H182.436V51.6614H183.524V47.3307H200.858V51.6614H201.94L201.937 55.9921Z" fill="#43FE01"/>
<path d="M229.011 77.6511H224.681V68.9841H209.525V73.3204H207.358V77.6511H203.022V73.3204H205.188V68.9897H207.352V64.6562H209.525V60.3255H211.691V55.992H213.855V51.6613H216.022V47.3307H229.011V77.6511ZM218.183 51.6502V55.9809H216.017V60.3143H213.85V64.645H224.681V51.6613L218.183 51.6502Z" fill="#43FE01"/>
<path d="M248.507 60.3255V64.6562H250.67V68.9897H249.588V73.3204H248.507V77.6511H244.173V73.3204H245.258V68.9897H246.34V64.6562H244.173V60.3255H243.091V55.992H242.009V51.6613H240.924V47.3307H245.258V51.6613H246.34V55.992H247.422V60.3255H248.507ZM260.408 47.3307H264.742V51.6613H261.501V55.992H258.253V60.3255H255.004V64.6562H250.67V60.3255H253.919V55.992H257.168V51.6613H260.408V47.3307Z" fill="#43FE01"/>
<path d="M59.1302 47.3307H63.4637V77.6511H59.1302V55.9921H56.9663V60.3256H54.7995V64.6562H52.6328V68.9897H48.3021V64.6562H46.1354V60.3256H43.9686V55.9921H41.8047V77.6511H37.4712V47.3307H41.8047V51.6614H46.1354V55.9921H48.3021V60.3256H52.6328V55.9921H54.7995V51.6614H59.1302V47.3307Z" fill="#FE75F0"/>
<path d="M92.7022 73.3204H93.7786V77.6511H89.4535V73.3204H88.3715V68.9897H73.2099V73.3204H72.1279V77.6511H67.7944V73.3204H68.8792V68.9897H69.9612V64.6562H71.0431V60.3256H72.1279V55.9921H73.2099V51.6614H74.2919V47.3307H87.2867V51.6614H88.3715V55.9921H89.4535V60.3256H90.5354V64.6562H91.6202V68.9897H92.7022V73.3204ZM86.2048 60.3256H85.1116V55.9921H84.0268V51.6614H77.5406V55.9921H76.4586V60.3256H75.3766V64.6562H86.2048V60.3256Z" fill="#FE75F0"/>
<path d="M118.695 51.6614H110.028V77.6623H105.694V51.6614H97.0272V47.3307H118.686L118.695 51.6614Z" fill="#FE75F0"/>
<path d="M140.351 51.6614H129.523V55.9921H126.274V68.9897H129.523V73.3204H140.351V77.6511H127.356V73.3204H125.192V68.9897H121.943V55.9921H125.192V51.6614H127.356V47.3307H140.351V51.6614ZM144.684 55.9921H140.351V51.6614H144.684V55.9921ZM144.684 68.9897V73.3204H140.351V68.9897H144.684Z" fill="#FE75F0"/>
<path d="M170.663 47.3307V77.6511H166.343V64.6562H153.349V77.6511H149.015V47.3307H153.349V60.3256H166.343V47.3307H170.663Z" fill="#FE75F0"/>
<path d="M206.41 55.9921H208.577V60.3256H207.495V64.6562H206.41V68.9897H202.079V64.6562H203.161V60.3256H204.246V55.9921H202.079V51.6614H191.251V55.9921H190.166V60.3256H189.084V64.6562H187.997V68.9897H186.912V73.3204H197.743V68.9897H202.074V73.3204H198.831V77.6511H181.497V73.3204H182.579V68.9897H183.661V64.6562H184.745V60.3256H185.827V55.9921H186.909V51.6614H187.997V47.3307H205.331V51.6614H206.413L206.41 55.9921Z" fill="#FE75F0"/>
<path d="M233.485 77.6511H229.154V68.9841H213.998V73.3204H211.831V77.6511H207.495V73.3204H209.662V68.9897H211.826V64.6562H213.998V60.3256H216.165V55.9921H218.329V51.6614H220.495V47.3307H233.485V77.6511ZM222.656 51.6502V55.9809H220.49V60.3144H218.323V64.6451H229.154V51.6614L222.656 51.6502Z" fill="#FE75F0"/>
<path d="M252.98 60.3256V64.6562H255.143V68.9897H254.062V73.3204H252.98V77.6511H248.646V73.3204H249.731V68.9897H250.813V64.6562H248.646V60.3256H247.564V55.9921H246.482V51.6614H245.397V47.3307H249.731V51.6614H250.813V55.9921H251.895V60.3256H252.98ZM264.881 47.3307H269.215V51.6614H265.974V55.9921H262.726V60.3256H259.477V64.6562H255.143V60.3256H258.392V55.9921H261.641V51.6614H264.881V47.3307Z" fill="#FE75F0"/>
<path d="M56.8938 47.3307H61.2273V77.6511H56.8938V55.992H54.7298V60.3255H52.5631V64.6562H50.3963V68.9897H46.0657V64.6562H43.8989V60.3255H41.7322V55.992H39.5682V77.6511H35.2347V47.3307H39.5682V51.6613H43.8989V55.992H46.0657V60.3255H50.3963V55.992H52.5631V51.6613H56.8938V47.3307Z" fill="black"/>
<path d="M90.4657 73.3204H91.5421V77.6511H87.217V73.3204H86.1351V68.9897H70.9734V73.3204H69.8915V77.6511H65.558V73.3204H66.6428V68.9897H67.7247V64.6562H68.8067V60.3255H69.8915V55.992H70.9734V51.6613H72.0554V47.3307H85.0503V51.6613H86.1351V55.992H87.217V60.3255H88.299V64.6562H89.3838V68.9897H90.4657V73.3204ZM83.9683 60.3255H82.8752V55.992H81.7904V51.6613H75.3041V55.992H74.2222V60.3255H73.1402V64.6562H83.9683V60.3255Z" fill="black"/>
<path d="M116.458 51.6613H107.791V77.6623H103.458V51.6613H94.7909V47.3307H116.45L116.458 51.6613Z" fill="black"/>
<path d="M138.114 51.6613H127.286V55.992H124.038V68.9897H127.286V73.3204H138.114V77.6511H125.12V73.3204H122.956V68.9897H119.707V55.992H122.956V51.6613H125.12V47.3307H138.114V51.6613ZM142.448 55.992H138.114V51.6613H142.448V55.992ZM142.448 68.9897V73.3204H138.114V68.9897H142.448Z" fill="black"/>
<path d="M168.427 47.3307V77.6511H164.107V64.6562H151.112V77.6511H146.779V47.3307H151.112V60.3255H164.107V47.3307H168.427Z" fill="black"/>
<path d="M204.174 55.992H206.34V60.3255H205.258V64.6562H204.174V68.9897H199.843V64.6562H200.925V60.3255H202.01V55.992H199.843V51.6613H189.015V55.992H187.93V60.3255H186.848V64.6562H185.76V68.9897H184.676V73.3204H195.507V68.9897H199.837V73.3204H196.594V77.6511H179.26V73.3204H180.342V68.9897H181.424V64.6562H182.509V60.3255H183.591V55.992H184.673V51.6613H185.76V47.3307H203.094V51.6613H204.176L204.174 55.992Z" fill="black"/>
<path d="M231.248 77.6511H226.918V68.9841H211.762V73.3204H209.595V77.6511H205.259V73.3204H207.425V68.9897H209.589V64.6562H211.762V60.3255H213.928V55.992H216.092V51.6613H218.259V47.3307H231.248V77.6511ZM220.42 51.6502V55.9809H218.253V60.3143H216.087V64.645H226.918V51.6613L220.42 51.6502Z" fill="black"/>
<path d="M250.743 60.3255V64.6562H252.907V68.9897H251.825V73.3204H250.743V77.6511H246.41V73.3204H247.494V68.9897H248.576V64.6562H246.41V60.3255H245.328V55.992H244.246V51.6613H243.161V47.3307H247.494V51.6613H248.576V55.992H249.658V60.3255H250.743ZM262.645 47.3307H266.978V51.6613H263.738V55.992H260.489V60.3255H257.241V64.6562H252.907V60.3255H256.156V55.992H259.405V51.6613H262.645V47.3307Z" fill="black"/>
</svg>
