<svg width="76" height="56" fill="none" xmlns="http://www.w3.org/2000/svg"><path d="M64.08 49.754v2.544c-.063.042-.124.117-.189.12-.363.011-.727.005-1.09.005H14.569c-.528-.89-.529-1.78 0-2.67.028-.091.005-.176-.085-.2-.11-.03-.228-.04-.343-.04-1.799-.003-3.598-.002-5.397-.002-.528-.89-.528-1.78 0-2.67.028-.09.004-.167-.083-.2a.616.616 0 0 0-.22-.04c-.87-.004-1.74-.002-2.61-.002a8.712 8.712 0 0 1 0-5.583c.028-.09.004-.166-.082-.2a.616.616 0 0 0-.22-.04c-.87-.004-1.74-.002-2.61-.002-.415-.466-.389-1.045-.39-1.607-.008-8.637-.008-17.274 0-25.91.001-.563-.025-1.141.39-1.607.656-.599 1.573-.162 2.343-.6.394-1.042.126-2.17.201-3.268.046-.668-.118-1.373.369-1.957.67-.592 1.578-.16 2.296-.513.52-.644 0-1.564.616-2.157.04 0 .094.017.119-.003.092-.075.175-.161.257-.24h5.328c.04-.063.115-.127.116-.191.008-.766.004-1.532.006-2.298 0-.115.016-.23.023-.327.049-.044.078-.092.107-.093C15.627 0 16.555 0 17.482 0h46.536c.115.381.044.703.059 1.019.013.282-.004.566.005.849.01.319-.037.64.024.95.036.035.064.088.093.088 1.86.005 3.719.004 5.577.004.044.064.123.126.123.189.009.768.004 1.536.007 2.304 0 .116.016.231.023.328.05.043.08.09.11.09.889.004 1.777.004 2.652.004.09.057.126.122.126.204 0 1.739 0 3.477.002 5.215 0 .114.02.229.028.323.058.04.09.08.121.08.887.003 1.774.003 2.666.003.196.31.068.64.09.949.025.362.006.727.006 1.091v26.984c-.093.059-.125.097-.157.097-.886.003-1.772.003-2.617.003-.123.07-.141.138-.141.226.003 1.779 0 3.557.005 5.336 0 .092-.003.163-.075.213-.033.017-.068.047-.1.048-.688.002-1.376 0-2.063.003-.197.001-.396.01-.59.04-.092.013-.116.108-.087.201.528.89.528 1.78 0 2.67h-5.637c-.106 0-.161.073-.188.243Z" fill="#FE3344"/><path d="M69.905 52.423h-5.473c-.063-.082-.106-.113-.106-.143-.004-.842-.003-1.684-.003-2.526 1.804 0 3.609 0 5.413.002.033 0 .066.032.099.049.024.031.067.061.067.092.004.842.003 1.684.003 2.526Zm0-2.913v-2.669h2.784c.043.061.122.123.123.185.008.766.006 1.534.003 2.3 0 .035-.025.07-.038.104-.03.027-.058.077-.088.077-.928.005-1.856.004-2.784.004Zm-5.875 3.228c.017.034.047.068.048.101.003.728.003 1.456 0 2.184 0 .076-.022.151-.033.225-.03.03-.058.084-.087.084-16.416.004-32.832.004-49.248 0-.03 0-.061-.044-.092-.069-.016-.033-.046-.067-.047-.1-.003-.728-.003-1.456 0-2.184 0-.076.022-.152.033-.226.03-.03.059-.083.087-.083 16.416-.004 32.832-.004 49.248 0 .03 0 .062.044.092.068ZM2.92 11.65v29.124H.13c-.04-.064-.112-.125-.117-.192-.016-.2-.006-.403-.006-.606 0-9.176 0-18.352.002-27.529 0-.238-.034-.478.03-.701.036-.038.063-.093.091-.093.93-.004 1.86-.003 2.79-.003Zm2.912-5.825c0 1.886 0 3.772-.002 5.657 0 .033-.033.066-.05.099-.03.023-.061.066-.092.066-.923.003-1.845.003-2.768.003 0-1.886 0-3.772.002-5.658 0-.032.032-.065.05-.098.03-.023.061-.066.092-.066.922-.004 1.845-.003 2.768-.003Zm0 35.191V46.6H3.046c-.042-.063-.12-.125-.121-.187-.007-1.736-.006-3.473-.004-5.209 0-.035.025-.07.038-.105.029-.027.058-.078.087-.078.929-.004 1.857-.004 2.786-.004Zm8.738 8.738v2.67H8.873c-.043-.062-.123-.123-.124-.184-.009-.803-.006-1.605-.006-2.369.071-.064.1-.114.13-.114 1.898-.004 3.797-.003 5.695-.003ZM8.744 3.155c0 .839.001 1.677-.002 2.516 0 .031-.039.063-.06.095-.031.02-.063.057-.095.057-.918.003-1.837.002-2.755.002V3.044c.06-.044.12-.125.182-.126.846-.008 1.693-.005 2.54-.005.11 0 .165.072.19.242Zm0 43.686v2.67H5.96c-.042-.061-.122-.123-.122-.185-.009-.766-.006-1.533-.004-2.3 0-.035.025-.07.039-.104.029-.027.058-.077.087-.077.929-.004 1.856-.004 2.784-.004Z" fill="#000"/><path d="M52.43 26.454v2.548c-.063.04-.127.116-.191.117-.768.008-1.537.004-2.305.006-.115 0-.23.018-.325.026-.042.053-.088.083-.088.113-.004.888-.003 1.776-.003 2.643-.061.099-.127.13-.21.13-1.78 0-3.559 0-5.338-.003-.09 0-.162.002-.217.064-.02.032-.057.064-.057.096-.003.887-.003 1.773-.003 2.615-.072.126-.14.142-.228.142-1.779-.003-3.558 0-5.338-.005-.09 0-.16.003-.227.1-.08.29-.015.611-.029.928-.012.282.005.566-.004.848-.011.319.04.64-.023.929-.046.05-.073.107-.1.107-2.79.003-5.58.003-8.37.003-.215-.378-.112-.791-.112-1.188a3333.58 3333.58 0 0 1-.002-12.125c0-.398-.074-.806.11-1.267.87-.511 1.771-.466 2.604-.074.654.752.254 1.684.7 2.381.527.323 1.106.229 1.663.23 5.375.008 10.75-.004 16.125.013.706.002 1.49-.142 1.968.623Z" fill="#fff"/><path d="M52.43 26.454c-.04 0-.094.017-.118-.003-.093-.075-.175-.161-.257-.24-6.623 0-13.239 0-19.854-.002-.033 0-.064-.038-.096-.058-.02-.032-.059-.063-.059-.095-.003-.885-.002-1.77-.002-2.636-.048-.047-.075-.098-.105-.1-.66-.047-1.935-.023-2.508.043-.02.033-.055.066-.055.098-.002 4.8-.002 9.6-.002 14.4-.093.029-.17.003-.205-.087a.67.67 0 0 1-.037-.226l.001-22.68c0-.075.025-.15.039-.225.03-.028.059-.077.088-.077 2.83-.004 5.659-.004 8.488-.004.04.066.114.13.116.195.007.809.003 1.617.007 2.426 0 .074.031.147.048.22.031.025.062.068.093.068 1.858.004 3.715.003 5.552.003.1.062.13.128.13.211-.002.809.001 1.617-.003 2.426-.001.09.002.162.065.217.032.02.064.056.096.056 1.856.003 3.713.003 5.57.003.195.317.068.644.09.955.024.321-.01.647.01.97.02.312-.077.636.054.944.328.092.649.027.966.04.282.013.566-.004.849.005.318.011.64-.04.937.025.044.041.099.069.099.096.004 1.011.003 2.021.003 3.032Z" fill="#fff"/></svg>