<svg width="314" height="169" viewBox="0 0 314 169" fill="none" xmlns="http://www.w3.org/2000/svg">
<path d="M16 133H298V137H16V133Z" fill="black"/>
<path d="M4 117H0L0 16H4L4 117Z" fill="black"/>
<path d="M298.636 2L313 16.1772V115.396L298.636 129.562H237.548V143.74L244.73 150.834V165H233.5L212 143.74L209 136.5V129.562L16.5 132L4 115.396V16.1772L18.3754 2H298.636Z" fill="#BBA5EF"/>
<path d="M306 12H310V117H306V12Z" fill="white"/>
<path d="M8 117H4L4 16H8L8 117Z" fill="#663EC6"/>
<path d="M302 8H306V12H302V8Z" fill="white"/>
<path d="M16 8H12V4H16V8Z" fill="#663EC6"/>
<path d="M12 12H8V8H12V12Z" fill="#663EC6"/>
<path d="M12 16H8V12H12V16Z" fill="white"/>
<path d="M12 16H8V12H12V16Z" fill="white"/>
<path d="M16 12H12V8H16V12Z" fill="white"/>
<path d="M16 12H12V8H16V12Z" fill="white"/>
<path d="M8 16H4L4 12H8V16Z" fill="#663EC6"/>
<path d="M16 4H302.599V8H16V4Z" fill="white"/>
<path d="M302.61 4L16.0109 4V2.38419e-07L302.61 2.38419e-07V4Z" fill="#663EC6"/>
<path d="M7.99998 121H4L4 117H7.99998V121Z" fill="#663EC6"/>
<path d="M12 125H8V121H12V125Z" fill="#663EC6"/>
<path d="M16 129H12V125H16V129Z" fill="#663EC6"/>
<path d="M16 133H12V129H16V133Z" fill="black"/>
<path d="M12 129H8V125H12V129Z" fill="black"/>
<path d="M7.99998 125H4L4 121H7.99998V125Z" fill="black"/>
<path d="M3.99998 121H0L0 117H3.99998L3.99998 121Z" fill="black"/>
<path d="M298 133L16 133V129L298 129V133Z" fill="#663EC6"/>
<path d="M310 12H314V117H310V12Z" fill="#663EC6"/>
<path d="M302 4H306V8H302V4Z" fill="#663EC6"/>
<path d="M306 8H310V12H306V8Z" fill="#663EC6"/>
<path d="M306 117H310V121H306V117Z" fill="#663EC6"/>
<path d="M302 121H306V125H302V121Z" fill="#663EC6"/>
<path d="M298 125H302V129H298V125Z" fill="#663EC6"/>
<path d="M298 129H302V133H298V129Z" fill="black"/>
<path d="M298 129H302V133H298V129Z" fill="black"/>
<path d="M302 125H306V129H302V125Z" fill="black"/>
<path d="M302 125H306V129H302V125Z" fill="black"/>
<path d="M306 121H310V125H306V121Z" fill="black"/>
<path d="M306 121H310V125H306V121Z" fill="black"/>
<path d="M310 117H314V121H310V117Z" fill="black"/>
<path d="M310 117H314V121H310V117Z" fill="black"/>
<path d="M237 133H241V137H237V133Z" fill="#663EC6"/>
<path d="M209 133H213V137H209V133Z" fill="#663EC6"/>
<path d="M205 137H209V141H205V137Z" fill="black"/>
<path d="M209 141H213V145H209V141Z" fill="black"/>
<path d="M213 145H217V149H213V145Z" fill="black"/>
<path d="M217 149H221V153H217V149Z" fill="black"/>
<path d="M221 153H225V157H221V153Z" fill="black"/>
<path d="M225 157H229V161H225V157Z" fill="black"/>
<path d="M229 161H233V165H229V161Z" fill="black"/>
<path d="M233 165H237V169H233V165Z" fill="black"/>
<path d="M237 165H241V169H237V165Z" fill="black"/>
<path d="M241 165H245V169H241V165Z" fill="black"/>
<path d="M245 165H249V169H245V165Z" fill="black"/>
<path d="M245 161H249V157H245V161Z" fill="black"/>
<path d="M245 165H249V161H245V165Z" fill="black"/>
<path d="M245 157H249V153H245V157Z" fill="black"/>
<path d="M245 153H249V149H245V153Z" fill="black"/>
<path d="M241 149H245V145H241V149Z" fill="black"/>
<path d="M241 145H245V141H241V145Z" fill="black"/>
<path d="M241 141H245V137H241V141Z" fill="black"/>
<path d="M209 137H213V141H209V137Z" fill="#663EC6"/>
<path d="M213 141H217V145H213V141Z" fill="#663EC6"/>
<path d="M217 145H221V149H217V145Z" fill="#663EC6"/>
<path d="M221 149H225V153H221V149Z" fill="#663EC6"/>
<path d="M225 153H229V157H225V153Z" fill="#663EC6"/>
<path d="M229 157H233V161H229V157Z" fill="#663EC6"/>
<path d="M233 161H237V165H233V161Z" fill="#663EC6"/>
<path d="M237 161H241V165H237V161Z" fill="#663EC6"/>
<path d="M241 161H245V165H241V161Z" fill="#663EC6"/>
<path d="M241 157H245V161H241V157Z" fill="#663EC6"/>
<path d="M241 153H245V157H241V153Z" fill="#663EC6"/>
<path d="M241 149H245V153H241V149Z" fill="#663EC6"/>
<path d="M237 145H241V149H237V145Z" fill="#663EC6"/>
<path d="M237 141H241V145H237V141Z" fill="#663EC6"/>
<path d="M237 137H241V141H237V137Z" fill="#663EC6"/>
<path d="M213 119H237V140H213V119Z" fill="#BBA5EF"/>
</svg>
