<svg width="76" height="56" viewBox="0 0 76 56" fill="none" xmlns="http://www.w3.org/2000/svg">
<path d="M64.0799 49.7536C64.0799 50.6019 64.0799 51.4501 64.0799 52.2982C64.017 52.3401 63.9556 52.4154 63.8912 52.4179C63.5278 52.4293 63.1644 52.4232 62.8009 52.4232C46.7232 52.4232 30.6463 52.4232 14.5693 52.4232C14.0407 51.533 14.0405 50.6438 14.5693 49.7536C14.597 49.6619 14.5737 49.5769 14.4841 49.5527C14.3744 49.5224 14.2558 49.5127 14.1411 49.5127C12.342 49.5102 10.5434 49.5108 8.74433 49.5108C8.21585 48.6206 8.21566 47.7314 8.74433 46.8412C8.77158 46.7509 8.74775 46.6744 8.66123 46.6403C8.593 46.6136 8.51506 46.6003 8.4415 46.6003C7.57151 46.5972 6.70171 46.5986 5.83191 46.5986C5.21977 44.7378 5.21958 42.8774 5.83191 41.0164C5.85916 40.926 5.83515 40.8496 5.74882 40.8155C5.68059 40.7888 5.60264 40.7755 5.52908 40.7755C4.65909 40.7724 3.7893 40.7738 2.91969 40.7738C2.50366 40.3078 2.53016 39.7294 2.52958 39.167C2.52139 30.5298 2.52139 21.8934 2.52958 13.2564C2.53016 12.6938 2.50366 12.1156 2.91969 11.6497C3.5749 11.0514 4.49196 11.4883 5.26227 11.0497C5.65639 10.0078 5.38786 8.88038 5.46314 7.78151C5.50888 7.1143 5.34518 6.40859 5.83191 5.82485C6.50122 5.23273 7.40952 5.66458 8.12819 5.3122C8.64846 4.66786 8.12857 3.74794 8.74433 3.15505C8.78454 3.15505 8.83847 3.1722 8.86267 3.152C8.9551 3.07748 9.03762 2.99077 9.11976 2.91244C10.9009 2.91244 12.6742 2.91244 14.4479 2.91244C14.4885 2.84879 14.5632 2.78495 14.5638 2.72072C14.572 1.95498 14.5682 1.18924 14.5703 0.423498C14.5707 0.308199 14.5857 0.192517 14.5926 0.095894C14.6416 0.0522517 14.6709 0.00384504 14.7004 0.00308273C15.6274 -0.000538245 16.5546 3.28374e-05 17.4816 3.28374e-05C32.9974 3.28374e-05 48.5126 3.28374e-05 64.0182 3.28374e-05C64.1327 0.380998 64.0624 0.702694 64.0769 1.01867C64.0902 1.30073 64.0732 1.58488 64.0818 1.86769C64.0915 2.18691 64.0452 2.50708 64.106 2.81715C64.1418 2.85298 64.1704 2.90634 64.199 2.90634C66.0587 2.91073 67.9176 2.91016 69.7763 2.91016C69.8199 2.97438 69.8986 3.03632 69.8994 3.09864C69.9078 3.86686 69.9034 4.63508 69.9061 5.40311C69.9061 5.51917 69.9223 5.63428 69.9291 5.73128C69.9792 5.77378 70.0092 5.8218 70.0395 5.8218C70.9277 5.82543 71.816 5.82485 72.691 5.82485C72.7807 5.88241 72.8173 5.94739 72.8173 6.02934C72.8173 7.7676 72.8164 9.50605 72.8185 11.2443C72.8185 11.3585 72.8385 11.4726 72.8474 11.5672C72.9052 11.6066 72.9368 11.6466 72.9683 11.6474C73.8554 11.6502 74.7418 11.6497 75.6344 11.6497C75.8298 11.9609 75.7017 12.2891 75.7234 12.5986C75.749 12.961 75.7297 13.326 75.7297 13.6902C75.7297 14.0136 75.7297 14.337 75.7297 14.6604C75.7297 14.9838 75.7297 15.3072 75.7297 15.6305C75.7297 15.9539 75.7297 16.2773 75.7297 16.6007C75.7297 16.9649 75.7297 17.3287 75.7297 17.6923C75.7297 18.0157 75.7297 18.3391 75.7297 18.6626C75.7297 18.9865 75.7297 19.3099 75.7297 19.6334C75.7297 19.9568 75.7297 20.28 75.7297 20.6034C75.7297 20.9676 75.7297 21.3308 75.7297 21.695C75.7297 22.0184 75.7297 22.3418 75.7297 22.6653C75.7297 22.9887 75.7297 23.3121 75.7297 23.6353C75.7297 23.9995 75.7297 24.3633 75.7297 24.7275C75.7297 25.0509 75.7297 25.3743 75.7297 25.6977C75.7297 26.0211 75.7297 26.3445 75.7297 26.668C75.7297 26.9914 75.7297 27.3148 75.7297 27.6382C75.7297 28.0022 75.7297 28.3664 75.7297 28.7296C75.7297 29.053 75.7297 29.377 75.7297 29.7004C75.7297 30.024 75.7297 30.3473 75.7297 30.6707C75.7297 31.0347 75.7297 31.3983 75.7297 31.7621C75.7297 32.0857 75.7297 32.4091 75.7297 32.7325C75.7297 33.0557 75.7297 33.3792 75.7297 33.7026C75.7297 34.0262 75.7297 34.3502 75.7297 34.6734C75.7297 35.0368 75.7297 35.401 75.7297 35.765C75.7297 36.0882 75.7297 36.4118 75.7297 36.7352C75.7297 37.0586 75.7297 37.3819 75.7297 37.7053C75.7297 38.0289 75.7297 38.3523 75.7297 38.6755C75.7297 39.0395 75.7297 39.4037 75.7297 39.7677C75.7297 40.0839 75.7297 40.3999 75.7297 40.6743C75.6373 40.733 75.6051 40.7713 75.5731 40.7713C74.6873 40.7743 73.8007 40.7738 72.9563 40.7738C72.8329 40.8449 72.8147 40.9121 72.8147 41C72.8179 42.7785 72.8158 44.5575 72.8202 46.3364C72.8202 46.4275 72.8173 46.4985 72.7449 46.5492C72.7116 46.5658 72.6774 46.5961 72.6441 46.5967C71.9569 46.5992 71.2693 46.5961 70.5824 46.6003C70.3846 46.6014 70.1858 46.61 69.9916 46.6398C69.9005 46.6531 69.8763 46.7484 69.9049 46.8412C70.4332 47.7314 70.4332 48.6206 69.9049 49.5108C68.0256 49.5108 66.1471 49.5108 64.268 49.5108C64.1619 49.5108 64.1066 49.5844 64.0799 49.7536Z" fill="#FE3344"/>
<path d="M69.9049 52.4231C68.067 52.4231 66.2296 52.4231 64.4319 52.4231C64.3688 52.3406 64.3256 52.3105 64.3256 52.28C64.3221 51.4379 64.3227 50.5955 64.3227 49.7535C66.1271 49.7535 67.9317 49.7535 69.7361 49.756C69.7694 49.756 69.8022 49.7882 69.835 49.805C69.8586 49.8361 69.9017 49.8664 69.9017 49.8968C69.9055 50.739 69.9049 51.5812 69.9049 52.4231Z" fill="black"/>
<path d="M69.905 49.5108C69.905 48.6206 69.905 47.7314 69.905 46.8412C70.8327 46.8412 71.7608 46.8412 72.6893 46.8412C72.7318 46.9024 72.8111 46.9637 72.8117 47.0262C72.8202 47.7925 72.8179 48.5596 72.8153 49.3259C72.8153 49.361 72.7899 49.3955 72.7766 49.43C72.7474 49.4569 72.7185 49.5074 72.6893 49.5074C71.7608 49.5116 70.8327 49.5108 69.905 49.5108Z" fill="black"/>
<path d="M64.0308 52.7383C64.0474 52.7716 64.0775 52.8055 64.0781 52.8391C64.0807 53.5671 64.0813 54.2945 64.0781 55.0227C64.0781 55.0986 64.0563 55.1742 64.0447 55.2484C64.015 55.2781 63.9866 55.332 63.958 55.332C47.5424 55.3357 31.126 55.3357 14.7098 55.3328C14.6795 55.3328 14.6489 55.2876 14.6185 55.2634C14.602 55.2301 14.5715 55.1961 14.5713 55.1628C14.5684 54.4348 14.568 53.7072 14.5707 52.9792C14.5711 52.9031 14.5932 52.8273 14.6044 52.7533C14.6342 52.7238 14.6626 52.6697 14.6908 52.6697C31.1068 52.666 47.5231 52.666 63.9391 52.6691C63.9696 52.6691 64.0005 52.7139 64.0308 52.7383Z" fill="black"/>
<path d="M2.91974 11.6497C2.91974 21.3577 2.91974 31.0657 2.91974 40.7738C1.98972 40.7738 1.06008 40.7738 0.130256 40.7738C0.0890913 40.7099 0.0180028 40.6488 0.0128572 40.5824C-0.00257955 40.3818 0.00732975 40.1792 0.00732975 39.9764C0.00732975 30.8001 0.00695008 21.6236 0.00885586 12.4471C0.00904644 12.2092 -0.0250651 11.9689 0.0393502 11.7455C0.0749882 11.7084 0.102432 11.6533 0.130256 11.6533C1.06008 11.6491 1.98972 11.6497 2.91974 11.6497Z" fill="black"/>
<path d="M5.83198 5.82486C5.83198 7.71063 5.83236 9.59659 5.82969 11.4822C5.82969 11.5149 5.79711 11.5479 5.77977 11.5807C5.74909 11.6036 5.71859 11.6466 5.6879 11.6466C4.76513 11.6503 3.84254 11.6497 2.91976 11.6497C2.91976 9.76392 2.91938 7.87815 2.92167 5.99219C2.92186 5.9596 2.95445 5.92682 2.97199 5.89404C3.00248 5.87098 3.03297 5.82791 3.06365 5.82791C3.98643 5.82429 4.9092 5.82486 5.83198 5.82486Z" fill="black"/>
<path d="M5.83191 41.0164C5.83191 42.8774 5.83191 44.7378 5.83191 46.5986C4.90322 46.5986 3.97454 46.5986 3.04585 46.5986C3.00374 46.5359 2.92522 46.4742 2.92483 46.4117C2.91816 44.6759 2.91931 42.9393 2.92121 41.2034C2.92121 41.1681 2.9458 41.1334 2.95895 41.0984C2.98792 41.0709 3.01689 41.02 3.04605 41.02C3.97454 41.0156 4.90322 41.0164 5.83191 41.0164Z" fill="black"/>
<path d="M14.5693 49.7536C14.5693 50.6438 14.5693 51.533 14.5693 52.4232C12.6708 52.4232 10.7724 52.4232 8.8739 52.4232C8.83083 52.362 8.75059 52.3014 8.74983 52.2395C8.74144 51.4373 8.74431 50.6352 8.74431 49.8712C8.8152 49.8069 8.84473 49.7572 8.87408 49.7566C10.7724 49.753 12.6708 49.7536 14.5693 49.7536Z" fill="black"/>
<path d="M8.74432 3.15516C8.74432 3.9937 8.74508 4.83243 8.74165 5.67097C8.74165 5.70223 8.70316 5.73387 8.68257 5.7655C8.65094 5.78551 8.61912 5.82268 8.58748 5.82268C7.66909 5.82554 6.75049 5.82496 5.83191 5.82496C5.83191 4.8978 5.83191 3.97064 5.83191 3.04367C5.89251 3.00003 5.95274 2.91865 6.01392 2.91789C6.86027 2.91027 7.70681 2.91255 8.55317 2.91255C8.66313 2.91312 8.71879 2.98535 8.74432 3.15516Z" fill="black"/>
<path d="M8.7444 46.8412C8.7444 47.7314 8.7444 48.6206 8.7444 49.5108C7.81648 49.5108 6.88855 49.5108 5.96006 49.5108C5.91756 49.4497 5.83828 49.3885 5.83751 49.326C5.82913 48.5597 5.83161 47.7926 5.83371 47.0263C5.8339 46.991 5.85905 46.9565 5.87258 46.9218C5.90174 46.8953 5.9309 46.8448 5.96044 46.8448C6.88855 46.8406 7.81648 46.8412 8.7444 46.8412Z" fill="black"/>
<path d="M52.4304 26.4543C52.4304 27.3037 52.4304 28.1527 52.4304 29.0021C52.3669 29.0427 52.3031 29.1178 52.2388 29.1186C51.4706 29.127 50.7024 29.123 49.9342 29.1252C49.8189 29.1258 49.7038 29.143 49.6085 29.1508C49.5666 29.2038 49.5212 29.2339 49.5212 29.2642C49.5174 30.1519 49.518 31.0402 49.518 31.9073C49.4568 32.006 49.3912 32.0371 49.3081 32.0371C47.5285 32.0365 45.7495 32.0371 43.9704 32.034C43.8807 32.0335 43.8084 32.0365 43.7534 32.0979C43.7332 32.1299 43.6958 32.1619 43.6958 32.1943C43.6926 33.0807 43.6933 33.9665 43.6933 34.8087C43.6211 34.935 43.5536 34.9512 43.465 34.9512C41.686 34.9483 39.9071 34.9501 38.1275 34.9459C38.0364 34.9453 37.9663 34.9489 37.8999 35.0459C37.8199 35.336 37.8849 35.6571 37.871 35.9737C37.8588 36.2563 37.8763 36.5397 37.8666 36.8223C37.8555 37.1409 37.9072 37.4621 37.8435 37.7508C37.798 37.8017 37.7709 37.8577 37.7441 37.8577C34.9542 37.8613 32.1637 37.8613 29.3739 37.8613C29.1591 37.4826 29.2624 37.0695 29.2618 36.6733C29.2532 32.6317 29.2538 28.5901 29.2599 24.5485C29.2603 24.15 29.1865 23.7416 29.3697 23.281C30.2391 22.7697 31.1415 22.815 31.9739 23.2069C32.628 23.9587 32.2276 24.8908 32.6747 25.5885C33.2014 25.9108 33.78 25.8166 34.3365 25.8174C39.7118 25.8258 45.087 25.8136 50.4621 25.8307C51.168 25.833 51.9522 25.6893 52.4304 26.4543Z" fill="white"/>
<path d="M52.4303 26.4543C52.3897 26.4543 52.3363 26.4712 52.3121 26.4512C52.2193 26.3765 52.1366 26.2898 52.0548 26.2116C45.4315 26.2116 38.8162 26.2117 32.2006 26.2092C32.1684 26.2092 32.137 26.1714 32.1048 26.1514C32.0842 26.1192 32.0461 26.0878 32.0461 26.0558C32.0428 25.1709 32.0436 24.2857 32.0436 23.4204C31.9956 23.3726 31.9691 23.3217 31.9386 23.3193C31.2786 23.2726 30.0039 23.2973 29.4308 23.3635C29.4119 23.3957 29.3763 23.4285 29.3763 23.4607C29.3738 28.2606 29.3738 33.0612 29.3738 37.8613C29.281 37.8899 29.2032 37.8641 29.1693 37.7744C29.1434 37.7043 29.1325 37.6234 29.1325 37.5476C29.1312 29.9879 29.1312 22.4279 29.1331 14.8677C29.1331 14.7934 29.1584 14.7179 29.1718 14.6426C29.2015 14.6154 29.2307 14.5658 29.2598 14.5658C32.0897 14.562 34.9189 14.562 37.7482 14.562C37.7888 14.6281 37.8623 14.6924 37.8635 14.7568C37.8709 15.5656 37.8671 16.3738 37.8709 17.1826C37.8709 17.2566 37.9023 17.3302 37.9187 17.4033C37.9502 17.4277 37.9807 17.4714 38.0116 17.4714C39.8695 17.475 41.7272 17.4744 43.5638 17.4744C43.6635 17.5358 43.6944 17.6019 43.6938 17.685C43.6925 18.4936 43.695 19.3024 43.6908 20.1107C43.69 20.2006 43.6932 20.2727 43.7556 20.3281C43.7878 20.3474 43.82 20.3844 43.852 20.3844C45.708 20.3868 47.565 20.3868 49.4228 20.3868C49.617 20.7041 49.49 21.0312 49.5125 21.342C49.5362 21.6633 49.5028 21.9892 49.5223 22.3115C49.5411 22.6244 49.4447 22.9478 49.5756 23.2562C49.9038 23.3484 50.2249 23.2827 50.542 23.2968C50.8243 23.309 51.1082 23.2918 51.3909 23.301C51.7089 23.312 52.0301 23.2609 52.3277 23.3257C52.3716 23.3671 52.4267 23.3945 52.4267 23.4224C52.4309 24.4332 52.4303 25.4434 52.4303 26.4543Z" fill="white"/>
</svg>
