<svg width="88" height="88" fill="none" xmlns="http://www.w3.org/2000/svg"><path d="M84.74 48.889H88v-3.26h-3.26v3.26Z" fill="#000"/><path d="M84.74 45.63H88v-3.26h-3.26v3.26Z" fill="#000"/><path d="M84.74 42.37H88v-3.259h-3.26v3.26Z" fill="#000"/><path d="M84.74 39.112H88v-3.26h-3.26v3.26Zm0-3.26H88v-3.26h-3.26v3.26Z" fill="#000"/><path d="M84.74 32.593H88v-3.259h-3.26v3.259Zm0-3.259H88v-3.26h-3.26v3.26Z" fill="#000"/><path d="M84.74 26.075H88v-3.26h-3.26v3.26Z" fill="#000"/><path d="M84.74 22.815H88v-3.259h-3.26v3.26Z" fill="#000"/><path d="M84.74 19.556H88v-3.259h-3.26v3.26Z" fill="#000"/><path d="M84.74 16.297H88v-3.259h-3.26v3.26Zm0-3.259H88v-3.26h-3.26v3.26Z" fill="#000"/><path d="M84.74 9.78H88V6.52h-3.26v3.26Zm0-3.261H88v-3.26h-3.26v3.26Z" fill="#000"/><path d="M84.74 3.26H88V0h-3.26v3.26Zm-3.259 45.629h3.26v-3.26h-3.26v3.26Z" fill="#000"/><path d="M81.481 45.63h3.26v-3.26h-3.26v3.26Z" fill="#26A9F3"/><path d="M81.481 42.37h3.26v-3.259h-3.26v3.26Z" fill="#26A9F3"/><path d="M81.481 39.112h3.26v-3.26h-3.26v3.26Zm0-3.26h3.26v-3.26h-3.26v3.26Z" fill="#26A9F3"/><path d="M81.481 32.593h3.26v-3.259h-3.26v3.259Zm0-3.259h3.26v-3.26h-3.26v3.26Z" fill="#26A9F3"/><path d="M81.481 26.075h3.26v-3.26h-3.26v3.26Z" fill="#26A9F3"/><path d="M81.481 22.815h3.26v-3.259h-3.26v3.26Z" fill="#26A9F3"/><path d="M81.481 19.556h3.26v-3.259h-3.26v3.26Z" fill="#26A9F3"/><path d="M81.481 16.297h3.26v-3.259h-3.26v3.26Zm0-3.259h3.26v-3.26h-3.26v3.26Z" fill="#26A9F3"/><path d="M81.481 9.78h3.26V6.52h-3.26v3.26Zm0-3.261h3.26v-3.26h-3.26v3.26Z" fill="#26A9F3"/><path d="M81.481 3.26h3.26V0h-3.26v3.26Z" fill="#26A9F3"/><path d="M78.22 48.889h3.26v-3.26h-3.26v3.26Z" fill="#000"/><path d="M78.22 45.63h3.26v-3.26h-3.26v3.26Z" fill="#26A9F3"/><path d="M78.22 42.37h3.26v-3.259h-3.26v3.26Z" fill="#fff"/><path d="M78.22 39.112h3.26v-3.26h-3.26v3.26Zm0-3.26h3.26v-3.26h-3.26v3.26Z" fill="#26A9F3"/><path d="M78.22 32.593h3.26v-3.259h-3.26v3.259Zm0-3.259h3.26v-3.26h-3.26v3.26Z" fill="#26A9F3"/><path d="M78.22 26.075h3.26v-3.26h-3.26v3.26Z" fill="#26A9F3"/><path d="M78.22 22.815h3.26v-3.259h-3.26v3.26Z" fill="#26A9F3"/><path d="M78.22 19.556h3.26v-3.259h-3.26v3.26Z" fill="#26A9F3"/><path d="M78.22 16.297h3.26v-3.259h-3.26v3.26Zm0-3.259h3.26v-3.26h-3.26v3.26Z" fill="#26A9F3"/><path d="M78.22 9.78h3.26V6.52h-3.26v3.26Zm0-3.261h3.26v-3.26h-3.26v3.26Z" fill="#26A9F3"/><path d="M78.22 3.26h3.26V0h-3.26v3.26Z" fill="#26A9F3"/><path d="M74.962 48.889h3.259v-3.26h-3.26v3.26Z" fill="#000"/><path d="M74.962 45.63h3.259v-3.26h-3.26v3.26Z" fill="#26A9F3"/><path d="M74.962 42.37h3.259v-3.259h-3.26v3.26Z" fill="#fff"/><path d="M74.962 39.112h3.259v-3.26h-3.26v3.26Z" fill="#fff"/><path d="M74.962 35.852h3.259v-3.26h-3.26v3.26Z" fill="#26A9F3"/><path d="M74.962 32.593h3.259v-3.259h-3.26v3.259Zm0-3.259h3.259v-3.26h-3.26v3.26Z" fill="#26A9F3"/><path d="M74.962 26.075h3.259v-3.26h-3.26v3.26Z" fill="#26A9F3"/><path d="M74.962 22.815h3.259v-3.259h-3.26v3.26Z" fill="#26A9F3"/><path d="M74.962 19.556h3.259v-3.259h-3.26v3.26Z" fill="#26A9F3"/><path d="M74.962 16.297h3.259v-3.259h-3.26v3.26Zm0-3.259h3.259v-3.26h-3.26v3.26Z" fill="#26A9F3"/><path d="M74.962 9.78h3.259V6.52h-3.26v3.26Z" fill="#26A9F3"/><path d="M74.962 6.519h3.259v-3.26h-3.26v3.26Z" fill="#fff"/><path d="M74.962 3.26h3.259V0h-3.26v3.26Z" fill="#26A9F3"/><path d="M71.704 48.889h3.259v-3.26h-3.26v3.26Z" fill="#000"/><path d="M71.704 45.63h3.259v-3.26h-3.26v3.26Z" fill="#26A9F3"/><path d="M71.704 42.37h3.259v-3.259h-3.26v3.26Z" fill="#26A9F3"/><path d="M71.704 39.112h3.259v-3.26h-3.26v3.26Zm0-3.26h3.259v-3.26h-3.26v3.26Z" fill="#26A9F3"/><path d="M71.704 32.593h3.259v-3.259h-3.26v3.259Zm0-3.259h3.259v-3.26h-3.26v3.26Z" fill="#26A9F3"/><path d="M71.704 26.075h3.259v-3.26h-3.26v3.26Z" fill="#26A9F3"/><path d="M71.704 22.815h3.259v-3.259h-3.26v3.26Z" fill="#26A9F3"/><path d="M71.704 19.556h3.259v-3.259h-3.26v3.26Z" fill="#26A9F3"/><path d="M71.704 16.297h3.259v-3.259h-3.26v3.26Zm0-3.259h3.259v-3.26h-3.26v3.26Z" fill="#26A9F3"/><path d="M71.704 9.78h3.259V6.52h-3.26v3.26Z" fill="#26A9F3"/><path d="M71.704 6.519h3.259v-3.26h-3.26v3.26Z" fill="#fff"/><path d="M71.704 3.26h3.259V0h-3.26v3.26Z" fill="#26A9F3"/><path d="M68.444 29.334h3.26v-3.26h-3.26v3.26Z" fill="#000"/><path d="M68.444 26.075h3.26v-3.26h-3.26v3.26Z" fill="#000"/><path d="M68.444 22.815h3.26v-3.259h-3.26v3.26Z" fill="#26A9F3"/><path d="M68.444 19.556h3.26v-3.259h-3.26v3.26Z" fill="#26A9F3"/><path d="M68.444 16.297h3.26v-3.259h-3.26v3.26Zm0-3.259h3.26v-3.26h-3.26v3.26Z" fill="#26A9F3"/><path d="M68.444 9.78h3.26V6.52h-3.26v3.26Z" fill="#26A9F3"/><path d="M68.444 6.519h3.26v-3.26h-3.26v3.26Z" fill="#fff"/><path d="M68.444 3.26h3.26V0h-3.26v3.26Z" fill="#26A9F3"/><path d="M65.185 32.593h3.26v-3.259h-3.26v3.259Zm0-3.259h3.26v-3.26h-3.26v3.26Z" fill="#000"/><path d="M65.185 26.075h3.26v-3.26h-3.26v3.26Z" fill="#26A9F3"/><path d="M65.185 22.815h3.26v-3.259h-3.26v3.26Z" fill="#26A9F3"/><path d="M65.185 19.556h3.26v-3.259h-3.26v3.26Z" fill="#26A9F3"/><path d="M65.185 16.297h3.26v-3.259h-3.26v3.26Zm0-3.259h3.26v-3.26h-3.26v3.26Z" fill="#26A9F3"/><path d="M65.185 9.78h3.26V6.52h-3.26v3.26Z" fill="#26A9F3"/><path d="M65.185 6.519h3.26v-3.26h-3.26v3.26Z" fill="#fff"/><path d="M65.185 3.26h3.26V0h-3.26v3.26Z" fill="#26A9F3"/><path d="M61.925 71.704h3.26v-3.26h-3.26v3.26Z" fill="#000"/><path d="M61.925 68.445h3.26v-3.26h-3.26v3.26Z" fill="#000"/><path d="M61.925 65.186h3.26v-3.26h-3.26v3.26Z" fill="#000"/><path d="M61.925 61.926h3.26v-3.259h-3.26v3.26Z" fill="#000"/><path d="M61.925 58.667h3.26v-3.259h-3.26v3.26Zm0-3.259h3.26v-3.26h-3.26v3.26Z" fill="#000"/><path d="M61.925 52.149h3.26v-3.26h-3.26v3.26Zm0-3.26h3.26v-3.26h-3.26v3.26Z" fill="#000"/><path d="M61.925 45.63h3.26v-3.26h-3.26v3.26Zm0-9.778h3.26v-3.26h-3.26v3.26Z" fill="#000"/><path d="M61.925 32.593h3.26v-3.259h-3.26v3.259Z" fill="#000"/><path d="M61.925 29.334h3.26v-3.26h-3.26v3.26Z" fill="#26A9F3"/><path d="M61.925 26.075h3.26v-3.26h-3.26v3.26Z" fill="#26A9F3"/><path d="M61.925 22.815h3.26v-3.259h-3.26v3.26Z" fill="#26A9F3"/><path d="M61.925 19.556h3.26v-3.259h-3.26v3.26Z" fill="#26A9F3"/><path d="M61.925 16.297h3.26v-3.259h-3.26v3.26Zm0-3.259h3.26v-3.26h-3.26v3.26Z" fill="#26A9F3"/><path d="M61.925 9.78h3.26V6.52h-3.26v3.26Z" fill="#26A9F3"/><path d="M61.925 6.519h3.26v-3.26h-3.26v3.26Z" fill="#fff"/><path d="M61.925 3.26h3.26V0h-3.26v3.26Z" fill="#26A9F3"/><path d="M58.666 74.964h3.26v-3.26h-3.26v3.26Zm0-3.26h3.26v-3.26h-3.26v3.26Z" fill="#000"/><path d="M58.666 68.445h3.26v-3.26h-3.26v3.26Z" fill="#000"/><path d="M58.666 65.186h3.26v-3.26h-3.26v3.26Z" fill="#000"/><path d="M58.666 61.926h3.26v-3.259h-3.26v3.26Z" fill="#000"/><path d="M58.666 58.667h3.26v-3.259h-3.26v3.26Zm0-3.259h3.26v-3.26h-3.26v3.26Z" fill="#26A9F3"/><path d="M58.666 52.149h3.26v-3.26h-3.26v3.26Zm0-3.26h3.26v-3.26h-3.26v3.26Z" fill="#26A9F3"/><path d="M58.666 45.63h3.26v-3.26h-3.26v3.26Z" fill="#26A9F3"/><path d="M58.666 42.37h3.26v-3.259h-3.26v3.26Z" fill="#000"/><path d="M58.666 39.112h3.26v-3.26h-3.26v3.26Zm0-3.26h3.26v-3.26h-3.26v3.26Z" fill="#000"/><path d="M58.666 32.593h3.26v-3.259h-3.26v3.259Zm0-3.259h3.26v-3.26h-3.26v3.26Z" fill="#26A9F3"/><path d="M58.666 26.075h3.26v-3.26h-3.26v3.26Z" fill="#26A9F3"/><path d="M58.666 22.815h3.26v-3.259h-3.26v3.26Z" fill="#26A9F3"/><path d="M58.666 19.556h3.26v-3.259h-3.26v3.26Z" fill="#26A9F3"/><path d="M58.666 16.297h3.26v-3.259h-3.26v3.26Zm0-3.259h3.26v-3.26h-3.26v3.26Z" fill="#26A9F3"/><path d="M58.666 9.78h3.26V6.52h-3.26v3.26Z" fill="#26A9F3"/><path d="M58.666 6.519h3.26v-3.26h-3.26v3.26Z" fill="#fff"/><path d="M58.666 3.26h3.26V0h-3.26v3.26Z" fill="#26A9F3"/><path d="M55.407 78.223h3.259v-3.26h-3.26v3.26Z" fill="#000"/><path d="M55.407 74.964h3.259v-3.26h-3.26v3.26Zm0-3.26h3.259v-3.26h-3.26v3.26Z" fill="#000"/><path d="M55.407 68.445h3.259v-3.26h-3.26v3.26Z" fill="#26A9F3"/><path d="M55.407 65.186h3.259v-3.26h-3.26v3.26Z" fill="#fff"/><path d="M55.407 61.926h3.259v-3.259h-3.26v3.26Z" fill="#26A9F3"/><path d="M55.407 58.667h3.259v-3.259h-3.26v3.26Zm0-3.259h3.259v-3.26h-3.26v3.26Z" fill="#26A9F3"/><path d="M55.407 52.149h3.259v-3.26h-3.26v3.26Zm0-3.26h3.259v-3.26h-3.26v3.26Z" fill="#26A9F3"/><path d="M55.407 45.63h3.259v-3.26h-3.26v3.26Z" fill="#26A9F3"/><path d="M55.407 42.37h3.259v-3.259h-3.26v3.26Z" fill="#26A9F3"/><path d="M55.407 39.112h3.259v-3.26h-3.26v3.26Zm0-3.26h3.259v-3.26h-3.26v3.26Z" fill="#26A9F3"/><path d="M55.407 32.593h3.259v-3.259h-3.26v3.259Zm0-3.259h3.259v-3.26h-3.26v3.26Z" fill="#26A9F3"/><path d="M55.407 26.075h3.259v-3.26h-3.26v3.26Z" fill="#26A9F3"/><path d="M55.407 22.815h3.259v-3.259h-3.26v3.26Zm0-6.518h3.259v-3.259h-3.26v3.26Zm0-3.259h3.259v-3.26h-3.26v3.26Z" fill="#26A9F3"/><path d="M55.407 9.78h3.259V6.52h-3.26v3.26Z" fill="#26A9F3"/><path d="M55.407 6.519h3.259v-3.26h-3.26v3.26Z" fill="#fff"/><path d="M55.407 3.26h3.259V0h-3.26v3.26Z" fill="#26A9F3"/><path d="M52.148 81.481h3.259v-3.259h-3.26v3.26Z" fill="#000"/><path d="M52.148 78.223h3.259v-3.26h-3.26v3.26Z" fill="#000"/><path d="M52.148 74.964h3.259v-3.26h-3.26v3.26Z" fill="#000"/><path d="M52.148 71.704h3.259v-3.26h-3.26v3.26Z" fill="#26A9F3"/><path d="M52.148 68.445h3.259v-3.26h-3.26v3.26Z" fill="#fff"/><path d="M52.148 65.186h3.259v-3.26h-3.26v3.26Z" fill="#26A9F3"/><path d="M52.148 61.926h3.259v-3.259h-3.26v3.26Z" fill="#26A9F3"/><path d="M52.148 58.667h3.259v-3.259h-3.26v3.26Zm0-3.259h3.259v-3.26h-3.26v3.26Z" fill="#26A9F3"/><path d="M52.148 52.149h3.259v-3.26h-3.26v3.26Zm0-3.26h3.259v-3.26h-3.26v3.26Z" fill="#26A9F3"/><path d="M52.148 45.63h3.259v-3.26h-3.26v3.26Z" fill="#26A9F3"/><path d="M52.148 42.37h3.259v-3.259h-3.26v3.26Z" fill="#26A9F3"/><path d="M52.148 39.112h3.259v-3.26h-3.26v3.26Zm0-3.26h3.259v-3.26h-3.26v3.26Z" fill="#26A9F3"/><path d="M52.148 32.593h3.259v-3.259h-3.26v3.259Zm0-3.259h3.259v-3.26h-3.26v3.26Z" fill="#26A9F3"/><path d="M52.148 26.075h3.259v-3.26h-3.26v3.26Zm0-9.778h3.259v-3.259h-3.26v3.26Zm0-3.259h3.259v-3.26h-3.26v3.26Z" fill="#26A9F3"/><path d="M52.148 9.78h3.259V6.52h-3.26v3.26Z" fill="#26A9F3"/><path d="M52.148 6.519h3.259v-3.26h-3.26v3.26Z" fill="#fff"/><path d="M52.148 3.26h3.259V0h-3.26v3.26Z" fill="#26A9F3"/><path d="M48.889 84.74h3.259v-3.259h-3.26v3.26Z" fill="#000"/><path d="M48.889 81.481h3.259v-3.259h-3.26v3.26Z" fill="#000"/><path d="M48.889 78.223h3.259v-3.26h-3.26v3.26Z" fill="#000"/><path d="M48.889 74.964h3.259v-3.26h-3.26v3.26Z" fill="#26A9F3"/><path d="M48.889 71.704h3.259v-3.26h-3.26v3.26Z" fill="#fff"/><path d="M48.889 68.445h3.259v-3.26h-3.26v3.26Z" fill="#26A9F3"/><path d="M48.889 65.186h3.259v-3.26h-3.26v3.26Z" fill="#26A9F3"/><path d="M48.889 61.926h3.259v-3.259h-3.26v3.26Zm0-9.777h3.259v-3.26h-3.26v3.26Zm0-3.26h3.259v-3.26h-3.26v3.26Z" fill="#26A9F3"/><path d="M48.889 45.63h3.259v-3.26h-3.26v3.26Z" fill="#26A9F3"/><path d="M48.889 42.37h3.259v-3.259h-3.26v3.26Z" fill="#26A9F3"/><path d="M48.889 39.112h3.259v-3.26h-3.26v3.26Zm0-3.26h3.259v-3.26h-3.26v3.26Z" fill="#26A9F3"/><path d="M48.889 32.593h3.259v-3.259h-3.26v3.259Z" fill="#26A9F3"/><path d="M48.889 29.334h3.259v-3.26h-3.26v3.26Z" fill="#000"/><path d="M48.889 16.297h3.259v-3.259h-3.26v3.26Zm0-3.259h3.259v-3.26h-3.26v3.26Z" fill="#26A9F3"/><path d="M48.889 9.78h3.259V6.52h-3.26v3.26Z" fill="#26A9F3"/><path d="M48.889 6.519h3.259v-3.26h-3.26v3.26Z" fill="#fff"/><path d="M48.889 3.26h3.259V0h-3.26v3.26Z" fill="#26A9F3"/><path d="M45.628 88h3.26v-3.26h-3.26V88Z" fill="#000"/><path d="M45.628 84.74h3.26v-3.259h-3.26v3.26Z" fill="#000"/><path d="M45.628 81.481h3.26v-3.259h-3.26v3.26Z" fill="#000"/><path d="M45.628 78.223h3.26v-3.26h-3.26v3.26Z" fill="#000"/><path d="M45.628 74.964h3.26v-3.26h-3.26v3.26Z" fill="#fff"/><path d="M45.628 71.704h3.26v-3.26h-3.26v3.26Z" fill="#26A9F3"/><path d="M45.628 68.445h3.26v-3.26h-3.26v3.26Zm0-22.815h3.26v-3.26h-3.26v3.26Z" fill="#26A9F3"/><path d="M45.628 42.37h3.26v-3.259h-3.26v3.26Z" fill="#26A9F3"/><path d="M45.628 39.112h3.26v-3.26h-3.26v3.26Zm0-3.26h3.26v-3.26h-3.26v3.26Z" fill="#26A9F3"/><path d="M45.628 32.593h3.26v-3.259h-3.26v3.259Z" fill="#26A9F3"/><path d="M45.628 29.334h3.26v-3.26h-3.26v3.26Z" fill="#000"/><path d="M45.628 16.297h3.26v-3.259h-3.26v3.26Zm0-3.259h3.26v-3.26h-3.26v3.26Z" fill="#26A9F3"/><path d="M45.628 9.78h3.26V6.52h-3.26v3.26Zm0-3.261h3.26v-3.26h-3.26v3.26Z" fill="#26A9F3"/><path d="M45.628 3.26h3.26V0h-3.26v3.26Z" fill="#26A9F3"/><path d="M42.371 88h3.26v-3.26h-3.26V88Z" fill="#000"/><path d="M42.371 84.74h3.26v-3.259h-3.26v3.26Z" fill="#000"/><path d="M42.371 81.481h3.26v-3.259h-3.26v3.26Z" fill="#000"/><path d="M42.371 78.223h3.26v-3.26h-3.26v3.26Z" fill="#fff"/><path d="M42.371 74.964h3.26v-3.26h-3.26v3.26Zm0-3.26h3.26v-3.26h-3.26v3.26Zm0-29.334h3.26v-3.259h-3.26v3.26Z" fill="#26A9F3"/><path d="M42.371 39.112h3.26v-3.26h-3.26v3.26Zm0-3.26h3.26v-3.26h-3.26v3.26Z" fill="#26A9F3"/><path d="M42.371 32.593h3.26v-3.259h-3.26v3.259Z" fill="#26A9F3"/><path d="M42.371 29.334h3.26v-3.26h-3.26v3.26Z" fill="#000"/><path d="M42.371 26.075h3.26v-3.26h-3.26v3.26Z" fill="#000"/><path d="M42.371 16.297h3.26v-3.259h-3.26v3.26Zm0-3.259h3.26v-3.26h-3.26v3.26Z" fill="#26A9F3"/><path d="M42.371 9.78h3.26V6.52h-3.26v3.26Zm0-3.261h3.26v-3.26h-3.26v3.26Z" fill="#26A9F3"/><path d="M42.371 3.26h3.26V0h-3.26v3.26Z" fill="#26A9F3"/><path d="M39.111 88h3.26v-3.26h-3.26V88Z" fill="#000"/><path d="M39.111 84.74h3.26v-3.259h-3.26v3.26Z" fill="#000"/><path d="M39.111 81.481h3.26v-3.259h-3.26v3.26Z" fill="#000"/><path d="M39.111 78.223h3.26v-3.26h-3.26v3.26Z" fill="#26A9F3"/><path d="M39.111 74.964h3.26v-3.26h-3.26v3.26Z" fill="#26A9F3"/><path d="M39.111 39.112h3.26v-3.26h-3.26v3.26Z" fill="#000"/><path d="M39.111 35.852h3.26v-3.26h-3.26v3.26Z" fill="#26A9F3"/><path d="M39.111 32.593h3.26v-3.259h-3.26v3.259Z" fill="#26A9F3"/><path d="M39.111 29.334h3.26v-3.26h-3.26v3.26Z" fill="#000"/><path d="M39.111 26.075h3.26v-3.26h-3.26v3.26Z" fill="#000"/><path d="M39.111 13.038h3.26v-3.26h-3.26v3.26Z" fill="#26A9F3"/><path d="M39.111 9.78h3.26V6.52h-3.26v3.26Zm0-3.261h3.26v-3.26h-3.26v3.26Z" fill="#26A9F3"/><path d="M35.85 88h3.26v-3.26h-3.26V88Z" fill="#000"/><path d="M35.85 84.74h3.26v-3.259h-3.26v3.26Z" fill="#000"/><path d="M35.85 81.481h3.26v-3.259h-3.26v3.26Z" fill="#000"/><path d="M35.85 78.223h3.26v-3.26h-3.26v3.26Z" fill="#26A9F3"/><path d="M35.85 74.964h3.26v-3.26h-3.26v3.26Z" fill="#26A9F3"/><path d="M35.85 39.112h3.26v-3.26h-3.26v3.26Z" fill="#000"/><path d="M35.85 35.852h3.26v-3.26h-3.26v3.26Z" fill="#26A9F3"/><path d="M35.85 32.593h3.26v-3.259h-3.26v3.259Zm0-3.259h3.26v-3.26h-3.26v3.26Z" fill="#26A9F3"/><path d="M35.85 26.075h3.26v-3.26h-3.26v3.26ZM32.592 88h3.259v-3.26h-3.26V88Z" fill="#000"/><path d="M32.592 84.74h3.259v-3.259h-3.26v3.26Z" fill="#000"/><path d="M32.592 81.481h3.259v-3.259h-3.26v3.26Z" fill="#000"/><path d="M32.592 78.223h3.259v-3.26h-3.26v3.26Z" fill="#26A9F3"/><path d="M32.592 74.964h3.259v-3.26h-3.26v3.26Z" fill="#26A9F3"/><path d="M32.592 39.112h3.259v-3.26h-3.26v3.26Z" fill="#000"/><path d="M32.592 35.852h3.259v-3.26h-3.26v3.26Z" fill="#26A9F3"/><path d="M32.592 32.593h3.259v-3.259h-3.26v3.259Zm0-3.259h3.259v-3.26h-3.26v3.26Z" fill="#26A9F3"/><path d="M32.592 26.075h3.259v-3.26h-3.26v3.26ZM29.332 88h3.26v-3.26h-3.26V88Z" fill="#000"/><path d="M29.332 84.74h3.26v-3.259h-3.26v3.26Z" fill="#000"/><path d="M29.332 81.481h3.26v-3.259h-3.26v3.26Z" fill="#000"/><path d="M29.332 78.223h3.26v-3.26h-3.26v3.26Z" fill="#26A9F3"/><path d="M29.332 74.964h3.26v-3.26h-3.26v3.26Z" fill="#26A9F3"/><path d="M29.332 39.112h3.26v-3.26h-3.26v3.26Z" fill="#000"/><path d="M29.332 35.852h3.26v-3.26h-3.26v3.26Z" fill="#26A9F3"/><path d="M29.332 32.593h3.26v-3.259h-3.26v3.259Z" fill="#26A9F3"/><path d="M29.332 29.334h3.26v-3.26h-3.26v3.26Z" fill="#fff"/><path d="M29.332 26.075h3.26v-3.26h-3.26v3.26Z" fill="#26A9F3"/><path d="M26.073 88h3.26v-3.26h-3.26V88Z" fill="#000"/><path d="M26.073 84.74h3.26v-3.259h-3.26v3.26Z" fill="#000"/><path d="M26.073 81.481h3.26v-3.259h-3.26v3.26Z" fill="#000"/><path d="M26.073 78.223h3.26v-3.26h-3.26v3.26Z" fill="#26A9F3"/><path d="M26.073 74.964h3.26v-3.26h-3.26v3.26Z" fill="#26A9F3"/><path d="M26.073 39.112h3.26v-3.26h-3.26v3.26Z" fill="#000"/><path d="M26.073 35.852h3.26v-3.26h-3.26v3.26Z" fill="#26A9F3"/><path d="M26.073 32.593h3.26v-3.259h-3.26v3.259Z" fill="#26A9F3"/><path d="M26.073 29.334h3.26v-3.26h-3.26v3.26Z" fill="#fff"/><path d="M26.073 26.075h3.26v-3.26h-3.26v3.26Z" fill="#26A9F3"/><path d="M22.814 88h3.26v-3.26h-3.26V88Z" fill="#000"/><path d="M22.814 84.74h3.26v-3.259h-3.26v3.26Z" fill="#000"/><path d="M22.814 81.481h3.26v-3.259h-3.26v3.26Z" fill="#000"/><path d="M22.814 78.223h3.26v-3.26h-3.26v3.26Z" fill="#26A9F3"/><path d="M22.814 74.964h3.26v-3.26h-3.26v3.26Zm0-3.26h3.26v-3.26h-3.26v3.26Z" fill="#26A9F3"/><path d="M22.814 42.37h3.26v-3.259h-3.26v3.26Z" fill="#000"/><path d="M22.814 39.112h3.26v-3.26h-3.26v3.26Z" fill="#000"/><path d="M22.814 35.852h3.26v-3.26h-3.26v3.26Z" fill="#26A9F3"/><path d="M22.814 32.593h3.26v-3.259h-3.26v3.259Z" fill="#fff"/><path d="M22.814 29.334h3.26v-3.26h-3.26v3.26Z" fill="#26A9F3"/><path d="M22.814 26.075h3.26v-3.26h-3.26v3.26Z" fill="#26A9F3"/><path d="M19.555 88h3.26v-3.26h-3.26V88Z" fill="#000"/><path d="M19.555 84.74h3.26v-3.259h-3.26v3.26Z" fill="#000"/><path d="M19.555 81.481h3.26v-3.259h-3.26v3.26Z" fill="#000"/><path d="M19.555 78.223h3.26v-3.26h-3.26v3.26Z" fill="#26A9F3"/><path d="M19.555 74.964h3.26v-3.26h-3.26v3.26Zm0-3.26h3.26v-3.26h-3.26v3.26Z" fill="#26A9F3"/><path d="M19.555 68.445h3.26v-3.26h-3.26v3.26Z" fill="#26A9F3"/><path d="M19.555 45.63h3.26v-3.26h-3.26v3.26Z" fill="#000"/><path d="M19.555 42.37h3.26v-3.259h-3.26v3.26Z" fill="#000"/><path d="M19.555 39.112h3.26v-3.26h-3.26v3.26Zm0-3.26h3.26v-3.26h-3.26v3.26Z" fill="#26A9F3"/><path d="M19.555 32.593h3.26v-3.259h-3.26v3.259Z" fill="#fff"/><path d="M19.555 29.334h3.26v-3.26h-3.26v3.26Z" fill="#26A9F3"/><path d="M16.296 84.74h3.26v-3.259h-3.26v3.26Z" fill="#000"/><path d="M16.296 81.481h3.26v-3.259h-3.26v3.26Z" fill="#000"/><path d="M16.296 78.223h3.26v-3.26h-3.26v3.26Z" fill="#26A9F3"/><path d="M16.296 74.964h3.26v-3.26h-3.26v3.26Zm0-3.26h3.26v-3.26h-3.26v3.26Z" fill="#26A9F3"/><path d="M16.296 68.445h3.26v-3.26h-3.26v3.26Z" fill="#26A9F3"/><path d="M16.296 65.186h3.26v-3.26h-3.26v3.26Z" fill="#000"/><path d="M16.296 61.926h3.26v-3.259h-3.26v3.26Zm0-9.777h3.26v-3.26h-3.26v3.26Zm0-3.26h3.26v-3.26h-3.26v3.26Z" fill="#000"/><path d="M16.296 45.63h3.26v-3.26h-3.26v3.26Z" fill="#000"/><path d="M16.296 42.37h3.26v-3.259h-3.26v3.26Z" fill="#26A9F3"/><path d="M16.296 39.112h3.26v-3.26h-3.26v3.26Z" fill="#26A9F3"/><path d="M16.296 35.852h3.26v-3.26h-3.26v3.26Z" fill="#fff"/><path d="M16.296 32.593h3.26v-3.259h-3.26v3.259Zm0-3.259h3.26v-3.26h-3.26v3.26Z" fill="#26A9F3"/><path d="M13.037 81.481h3.259v-3.259h-3.26v3.26Z" fill="#000"/><path d="M13.037 78.223h3.259v-3.26h-3.26v3.26Z" fill="#000"/><path d="M13.037 74.964h3.259v-3.26h-3.26v3.26Zm0-3.26h3.259v-3.26h-3.26v3.26Z" fill="#26A9F3"/><path d="M13.037 68.445h3.259v-3.26h-3.26v3.26Z" fill="#26A9F3"/><path d="M13.037 65.186h3.259v-3.26h-3.26v3.26Z" fill="#26A9F3"/><path d="M13.037 61.926h3.259v-3.259h-3.26v3.26Z" fill="#000"/><path d="M13.037 58.667h3.259v-3.259h-3.26v3.26Zm0-3.259h3.259v-3.26h-3.26v3.26Z" fill="#000"/><path d="M13.037 52.149h3.259v-3.26h-3.26v3.26Zm0-3.26h3.259v-3.26h-3.26v3.26Z" fill="#000"/><path d="M13.037 45.63h3.259v-3.26h-3.26v3.26Z" fill="#26A9F3"/><path d="M13.037 42.37h3.259v-3.259h-3.26v3.26Z" fill="#26A9F3"/><path d="M13.037 39.112h3.259v-3.26h-3.26v3.26Z" fill="#fff"/><path d="M13.037 35.852h3.259v-3.26h-3.26v3.26Z" fill="#26A9F3"/><path d="M13.037 32.593h3.259v-3.259h-3.26v3.259Z" fill="#26A9F3"/><path d="M9.777 78.223h3.26v-3.26h-3.26v3.26Z" fill="#000"/><path d="M9.777 74.964h3.26v-3.26h-3.26v3.26Z" fill="#000"/><path d="M9.777 71.704h3.26v-3.26h-3.26v3.26Z" fill="#26A9F3"/><path d="M9.777 68.445h3.26v-3.26h-3.26v3.26Z" fill="#26A9F3"/><path d="M9.777 65.186h3.26v-3.26h-3.26v3.26Z" fill="#26A9F3"/><path d="M9.777 61.926h3.26v-3.259h-3.26v3.26Z" fill="#26A9F3"/><path d="M9.777 58.667h3.26v-3.259h-3.26v3.26Zm0-3.259h3.26v-3.26h-3.26v3.26Z" fill="#26A9F3"/><path d="M9.777 52.149h3.26v-3.26h-3.26v3.26Zm0-3.26h3.26v-3.26h-3.26v3.26Z" fill="#26A9F3"/><path d="M9.777 45.63h3.26v-3.26h-3.26v3.26Z" fill="#26A9F3"/><path d="M9.777 42.37h3.26v-3.259h-3.26v3.26Z" fill="#fff"/><path d="M9.777 39.112h3.26v-3.26h-3.26v3.26Zm0-3.26h3.26v-3.26h-3.26v3.26Z" fill="#26A9F3"/><path d="M6.518 74.964h3.26v-3.26h-3.26v3.26Zm0-3.26h3.26v-3.26h-3.26v3.26Z" fill="#000"/><path d="M6.518 68.445h3.26v-3.26h-3.26v3.26Z" fill="#26A9F3"/><path d="M6.518 65.186h3.26v-3.26h-3.26v3.26Z" fill="#26A9F3"/><path d="M6.518 61.926h3.26v-3.259h-3.26v3.26Z" fill="#26A9F3"/><path d="M6.518 58.667h3.26v-3.259h-3.26v3.26Zm0-3.259h3.26v-3.26h-3.26v3.26Z" fill="#26A9F3"/><path d="M6.518 52.149h3.26v-3.26h-3.26v3.26Zm0-3.26h3.26v-3.26h-3.26v3.26Z" fill="#26A9F3"/><path d="M6.518 45.63h3.26v-3.26h-3.26v3.26Z" fill="#fff"/><path d="M6.518 42.37h3.26v-3.259h-3.26v3.26Z" fill="#26A9F3"/><path d="M6.518 39.112h3.26v-3.26h-3.26v3.26Z" fill="#26A9F3"/><path d="M3.26 71.704h3.258v-3.26H3.26v3.26Z" fill="#000"/><path d="M3.26 68.445h3.258v-3.26H3.26v3.26Z" fill="#000"/><path d="M3.26 65.186h3.258v-3.26H3.26v3.26Z" fill="#26A9F3"/><path d="M3.26 61.926h3.258v-3.259H3.26v3.26Z" fill="#26A9F3"/><path d="M3.26 58.667h3.258v-3.259H3.26v3.26Zm0-3.259h3.258v-3.26H3.26v3.26Z" fill="#26A9F3"/><path d="M3.26 52.149h3.258v-3.26H3.26v3.26Zm0-3.26h3.258v-3.26H3.26v3.26Z" fill="#26A9F3"/><path d="M3.26 45.63h3.258v-3.26H3.26v3.26Z" fill="#26A9F3"/><path d="M3.26 42.37h3.258v-3.259H3.26v3.26ZM0 61.926h3.26v-3.259H0v3.26Z" fill="#26A9F3"/><path d="M0 58.667h3.26v-3.259H0v3.26Zm0-3.259h3.26v-3.26H0v3.26Z" fill="#26A9F3"/><path d="M0 52.149h3.26v-3.26H0v3.26Z" fill="#26A9F3"/></svg>