<svg width="116" height="120" fill="none" xmlns="http://www.w3.org/2000/svg"><path d="m38.863 80.175-2.448 2.142 2.142 2.448 2.448-2.142-2.142-2.448Z" fill="#000"/><path d="m41.005 82.622-2.448 2.142 2.142 2.448 2.448-2.142-2.142-2.448Z" fill="#000"/><path d="M43.147 85.07 40.7 87.214l2.143 2.448 2.447-2.142-2.142-2.448Z" fill="#000"/><path d="m45.29 87.519-2.448 2.142 2.142 2.448 2.447-2.142-2.141-2.448Z" fill="#000"/><path d="m47.431 89.967-2.448 2.142 2.143 2.448 2.447-2.142-2.142-2.448Zm2.143 2.448-2.448 2.142 2.142 2.448 2.447-2.142-2.141-2.448Z" fill="#000"/><path d="m51.715 94.863-2.448 2.142 2.142 2.448 2.449-2.142-2.143-2.448Z" fill="#000"/><path d="m53.857 97.311-2.448 2.142 2.142 2.448L56 99.759l-2.142-2.448Z" fill="#000"/><path d="m56 99.759-2.45 2.141 2.142 2.448 2.449-2.142-2.143-2.448Zm2.142 2.449-2.448 2.142 2.142 2.448 2.448-2.142-2.142-2.448ZM17.748 51.104 15.3 53.246l2.142 2.448 2.449-2.142-2.142-2.448Z" fill="#000"/><path d="m19.89 53.552-2.447 2.142 2.141 2.448L22.033 56l-2.142-2.448Z" fill="#000"/><path d="m22.033 56-2.449 2.142 2.143 2.448 2.448-2.142L22.033 56Zm17.136 19.584-2.448 2.142 2.142 2.448 2.448-2.142-2.142-2.448Zm2.142 2.448-2.448 2.143 2.142 2.448 2.448-2.142-2.142-2.448Z" fill="#000"/><path d="m43.453 80.48-2.448 2.143 2.142 2.448 2.448-2.142-2.142-2.448Z" fill="#000"/><path d="m45.595 82.929-2.448 2.142 2.142 2.448 2.448-2.142-2.142-2.448Zm2.143 2.448-2.449 2.142 2.142 2.448 2.449-2.142-2.142-2.448Z" fill="#000"/><path d="m49.88 87.825-2.449 2.142 2.142 2.448 2.449-2.142-2.143-2.448Z" fill="#000"/><path d="m52.022 90.273-2.449 2.142 2.142 2.448 2.448-2.142-2.141-2.448Z" fill="#000"/><path d="m54.163 92.72-2.448 2.143 2.142 2.448 2.449-2.142-2.143-2.448Zm2.143 2.45-2.449 2.141L56 99.76l2.449-2.142-2.142-2.448Z" fill="#000"/><path d="M58.447 97.617 56 99.758l2.142 2.448 2.449-2.142-2.143-2.448Zm2.143 2.449-2.448 2.142 2.142 2.448 2.448-2.142-2.142-2.448Z" fill="#000"/><path d="m62.732 102.514-2.448 2.142 2.142 2.448 2.448-2.142-2.142-2.448Zm-44.677-56-2.448 2.142 2.142 2.448 2.448-2.142-2.142-2.448Z" fill="#000"/><path d="m20.197 48.962-2.448 2.141 2.142 2.449 2.448-2.142-2.142-2.448Zm2.142 2.448-2.448 2.142L22.033 56l2.448-2.142-2.142-2.448Z" fill="#000"/><path d="M24.48 53.858 22.034 56l2.142 2.448 2.448-2.142-2.142-2.448Z" fill="#000"/><path d="m26.623 56.306-2.448 2.142 2.142 2.448 2.448-2.142-2.142-2.448Z" fill="#FE75F0"/><path d="m39.475 70.994-2.448 2.142 2.142 2.448 2.448-2.142-2.142-2.448Z" fill="#000"/><path d="m41.617 73.442-2.448 2.142 2.142 2.448 2.448-2.142-2.142-2.448Zm2.143 2.448-2.449 2.142 2.142 2.448 2.448-2.142-2.142-2.448Z" fill="#000"/><path d="m45.901 78.339-2.448 2.142 2.142 2.448 2.448-2.142-2.142-2.448Z" fill="#fff"/><path d="m48.043 80.787-2.448 2.142 2.142 2.448 2.448-2.142-2.142-2.448Zm2.143 2.448-2.448 2.142 2.142 2.448 2.447-2.142-2.141-2.448Z" fill="#FE75F0"/><path d="m52.327 85.683-2.448 2.142 2.143 2.448 2.447-2.142-2.142-2.448Zm2.143 2.448-2.448 2.142 2.142 2.448 2.448-2.142-2.142-2.448Z" fill="#FE75F0"/><path d="m56.611 90.579-2.448 2.142 2.143 2.448 2.448-2.142-2.143-2.448Zm2.143 2.448-2.448 2.142 2.142 2.448 2.448-2.142-2.142-2.448Z" fill="#FE75F0"/><path d="m60.895 95.474-2.448 2.142 2.143 2.449 2.447-2.142-2.142-2.449Z" fill="#FE75F0"/><path d="m63.038 97.924-2.448 2.142 2.142 2.448 2.448-2.142-2.142-2.448Zm2.142 2.448-2.448 2.142 2.142 2.448 2.449-2.142-2.143-2.448Z" fill="#000"/><path d="m67.322 102.819-2.448 2.142 2.142 2.448 2.448-2.142-2.142-2.448ZM20.503 44.372l-2.448 2.142 2.142 2.448 2.448-2.142-2.142-2.448Z" fill="#000"/><path d="m22.645 46.82-2.448 2.142 2.142 2.448 2.448-2.142-2.142-2.449Z" fill="#000"/><path d="m24.787 49.268-2.448 2.142 2.142 2.448 2.448-2.142-2.142-2.448Zm2.142 2.448-2.448 2.142 2.142 2.448 2.448-2.142-2.142-2.448Z" fill="#FE75F0"/><path d="m29.07 54.164-2.448 2.142 2.143 2.448 2.448-2.142-2.142-2.448Z" fill="#FE75F0"/><path d="m39.781 66.404-2.448 2.142 2.142 2.449 2.448-2.142-2.142-2.449Z" fill="#000"/><path d="m41.923 68.852-2.448 2.142 2.142 2.448 2.448-2.142-2.142-2.448Z" fill="#000"/><path d="m44.065 71.3-2.448 2.142 2.142 2.449 2.448-2.142-2.142-2.449Z" fill="#000"/><path d="M46.207 73.748 43.76 75.89l2.142 2.448 2.448-2.142-2.142-2.448Z" fill="#fff"/><path d="m48.35 76.197-2.45 2.142 2.142 2.448 2.448-2.143-2.142-2.447Zm2.142 2.448-2.449 2.142 2.142 2.448 2.449-2.142-2.142-2.448Zm2.142 2.448-2.449 2.142 2.142 2.448 2.449-2.142-2.142-2.448Zm2.142 2.448-2.449 2.142 2.142 2.448 2.449-2.142-2.142-2.448Zm2.142 2.448-2.449 2.142 2.142 2.448 2.449-2.142-2.142-2.448Zm2.142 2.448-2.45 2.143 2.143 2.448 2.448-2.142-2.142-2.448Z" fill="#FE75F0"/><path d="m61.202 90.885-2.449 2.142 2.142 2.448 2.449-2.142-2.142-2.448Z" fill="#FE75F0"/><path d="m63.343 93.333-2.448 2.142 2.142 2.448 2.449-2.142-2.143-2.448Zm2.143 2.449-2.448 2.142 2.142 2.448 2.448-2.142-2.142-2.448Zm2.143 2.448-2.449 2.142 2.143 2.448 2.448-2.142-2.142-2.448Z" fill="#FE75F0"/><path d="m69.77 100.678-2.448 2.142 2.141 2.448 2.449-2.143-2.142-2.447Zm2.142 2.448-2.448 2.142 2.142 2.448 2.448-2.142-2.142-2.448ZM22.95 42.23l-2.447 2.142 2.142 2.448 2.448-2.142-2.142-2.448Z" fill="#000"/><path d="m25.093 44.677-2.448 2.142 2.142 2.449 2.448-2.142-2.142-2.449Zm2.142 2.449-2.448 2.142 2.142 2.448 2.448-2.142-2.142-2.448Zm2.142 2.448-2.448 2.142 2.142 2.448 2.448-2.142-2.142-2.448Z" fill="#FE75F0"/><path d="m31.519 52.022-2.448 2.142 2.142 2.448 2.448-2.142-2.142-2.448Z" fill="#FE75F0"/><path d="m40.087 61.814-2.448 2.142 2.142 2.448 2.448-2.142-2.142-2.448Z" fill="#000"/><path d="m42.23 64.262-2.449 2.142 2.142 2.449 2.448-2.143-2.142-2.448Zm2.141 2.448-2.448 2.143 2.142 2.448 2.448-2.142-2.142-2.448Z" fill="#000"/><path d="M46.513 69.158 44.065 71.3l2.142 2.449 2.448-2.143-2.142-2.448Z" fill="#fff"/><path d="m48.655 71.607-2.448 2.142 2.142 2.448 2.448-2.142-2.142-2.448Zm2.142 2.448-2.448 2.142 2.142 2.447 2.448-2.142-2.142-2.447Zm2.143 2.448-2.449 2.142 2.142 2.448 2.449-2.142-2.142-2.448Zm2.142 2.448-2.449 2.142 2.142 2.448 2.449-2.142-2.142-2.448Zm6.426 7.344-2.449 2.142 2.143 2.448 2.448-2.142-2.142-2.448Z" fill="#FE75F0"/><path d="m63.65 88.743-2.45 2.142 2.142 2.448 2.449-2.142-2.142-2.448Z" fill="#FE75F0"/><path d="m65.791 91.19-2.448 2.143 2.142 2.448 2.449-2.142-2.143-2.448Zm2.143 2.45-2.448 2.142 2.142 2.448 2.448-2.142-2.142-2.448Zm2.143 2.448-2.448 2.142 2.142 2.448 2.448-2.142-2.142-2.448Z" fill="#FE75F0"/><path d="m72.218 98.535-2.448 2.142 2.142 2.448 2.448-2.142-2.142-2.448Z" fill="#FE75F0"/><path d="m74.36 100.984-2.448 2.142 2.142 2.448 2.448-2.142-2.142-2.448Z" fill="#000"/><path d="m76.502 103.431-2.448 2.142 2.142 2.448 2.448-2.142-2.142-2.448ZM25.399 40.088 22.95 42.23l2.142 2.448 2.448-2.142-2.142-2.448Z" fill="#000"/><path d="m27.54 42.536-2.447 2.142 2.142 2.448 2.448-2.142-2.142-2.448Zm2.143 2.448-2.448 2.142 2.142 2.448 2.448-2.142-2.142-2.448Zm2.142 2.448-2.448 2.142 2.142 2.448 2.448-2.142-2.142-2.448Z" fill="#FE75F0"/><path d="m33.967 49.88-2.448 2.142 2.142 2.448 2.448-2.142-2.142-2.449Z" fill="#FE75F0"/><path d="m42.535 59.672-2.448 2.142 2.142 2.448 2.448-2.142-2.142-2.448Zm2.142 2.448-2.448 2.142 2.142 2.448 2.448-2.142-2.142-2.448Z" fill="#000"/><path d="m46.82 64.568-2.45 2.142 2.142 2.448 2.448-2.142-2.142-2.448Z" fill="#fff"/><path d="m48.961 67.016-2.448 2.142 2.142 2.448 2.448-2.142-2.142-2.448Zm2.142 2.449-2.448 2.142 2.142 2.448 2.448-2.142-2.142-2.448Z" fill="#FE75F0"/><path d="m53.245 71.912-2.448 2.142 2.142 2.448 2.448-2.142-2.142-2.448ZM68.24 89.049l-2.45 2.141 2.143 2.448 2.448-2.142-2.143-2.448Zm2.142 2.449-2.448 2.142 2.142 2.448 2.448-2.142-2.142-2.448Zm2.143 2.448-2.448 2.142 2.142 2.449 2.448-2.143-2.142-2.448Z" fill="#FE75F0"/><path d="m74.666 96.393-2.448 2.142 2.142 2.448 2.448-2.142-2.142-2.448Zm2.142 2.448-2.448 2.142 2.142 2.449 2.448-2.142-2.142-2.449Z" fill="#FE75F0"/><path d="m78.95 101.29-2.448 2.142 2.142 2.448 2.448-2.142-2.142-2.448ZM27.847 37.946l-2.448 2.142 2.142 2.448 2.448-2.142-2.142-2.448Z" fill="#000"/><path d="m29.989 40.394-2.448 2.142 2.142 2.448 2.448-2.142-2.142-2.448Z" fill="#FE75F0"/><path d="m32.13 42.842-2.447 2.142 2.142 2.448 2.448-2.142-2.142-2.448Zm2.143 2.448-2.448 2.142 2.142 2.448 2.448-2.142-2.142-2.448Z" fill="#FE75F0"/><path d="m36.415 47.737-2.448 2.142 2.142 2.449 2.448-2.143-2.142-2.448Z" fill="#FE75F0"/><path d="m44.983 57.53-2.448 2.143 2.142 2.448 2.448-2.143-2.142-2.447Z" fill="#000"/><path d="m47.125 59.978-2.448 2.142 2.142 2.448 2.448-2.142-2.142-2.448Zm2.142 2.448L46.82 64.57l2.142 2.448 2.448-2.142-2.142-2.449Z" fill="#FE75F0"/><path d="m51.41 64.874-2.449 2.142 2.142 2.448 2.448-2.142-2.142-2.448Zm2.141 2.449-2.448 2.142 2.142 2.448 2.448-2.142-2.142-2.448ZM72.83 89.356l-2.448 2.142 2.142 2.448 2.448-2.142-2.141-2.448Zm2.143 2.448-2.448 2.142 2.142 2.448 2.448-2.142-2.142-2.448Z" fill="#FE75F0"/><path d="m77.114 94.251-2.448 2.142 2.142 2.448 2.448-2.142-2.142-2.448Zm2.142 2.449-2.448 2.141 2.142 2.449 2.448-2.143-2.142-2.448Z" fill="#FE75F0"/><path d="m81.398 99.148-2.448 2.142 2.142 2.448 2.448-2.142-2.142-2.448Zm2.142 2.448-2.448 2.142 2.142 2.448 2.448-2.142-2.142-2.448Z" fill="#FE75F0"/><path d="m19.584 23.563-2.448 2.142 2.142 2.448 2.449-2.142-2.143-2.448Z" fill="#000"/><path d="m21.726 26.01-2.448 2.143 2.142 2.448 2.448-2.142-2.142-2.448Zm2.143 2.45-2.449 2.142 2.142 2.448 2.449-2.143-2.142-2.448Z" fill="#000"/><path d="m26.01 30.907-2.447 2.143 2.142 2.448 2.448-2.142-2.142-2.449Z" fill="#000"/><path d="m28.153 33.356-2.449 2.142 2.142 2.448 2.449-2.142-2.142-2.448Z" fill="#000"/><path d="m30.295 35.803-2.448 2.143 2.142 2.448 2.448-2.142-2.142-2.449Z" fill="#000"/><path d="m32.437 38.252-2.449 2.142 2.142 2.448 2.45-2.142-2.142-2.448Z" fill="#FE75F0"/><path d="m34.579 40.7-2.448 2.142 2.142 2.448 2.448-2.142-2.142-2.449Z" fill="#FE75F0"/><path d="m36.72 43.148-2.447 2.142 2.142 2.448 2.448-2.142-2.142-2.448Z" fill="#FE75F0"/><path d="m38.863 45.596-2.449 2.142 2.143 2.448 2.448-2.142-2.142-2.448Z" fill="#000"/><path d="m41.005 48.044-2.448 2.142 2.142 2.448 2.448-2.142-2.142-2.448Z" fill="#000"/><path d="m43.147 50.492-2.448 2.142 2.142 2.448 2.448-2.142-2.142-2.448Zm2.142 2.448-2.448 2.142 2.142 2.448 2.448-2.142-2.142-2.448Zm2.142 2.449-2.448 2.142 2.142 2.448 2.448-2.143-2.142-2.447Z" fill="#000"/><path d="m49.573 57.836-2.448 2.142 2.142 2.448 2.448-2.142-2.142-2.448Zm2.142 2.448-2.448 2.143 2.142 2.448 2.448-2.143-2.142-2.448Z" fill="#FE75F0"/><path d="m53.857 62.732-2.448 2.142 2.142 2.448 2.448-2.142-2.142-2.448Zm23.563 26.93-2.448 2.142 2.143 2.449 2.448-2.143-2.142-2.448Z" fill="#FE75F0"/><path d="m79.562 92.11-2.448 2.141 2.141 2.448 2.449-2.142-2.142-2.448Z" fill="#FE75F0"/><path d="M81.704 94.557 79.256 96.7l2.142 2.449 2.448-2.143-2.142-2.448Z" fill="#FE75F0"/><path d="m83.846 97.005-2.448 2.143 2.142 2.448 2.448-2.142-2.142-2.448Zm2.142 2.449-2.448 2.142 2.142 2.448 2.448-2.142-2.142-2.448Z" fill="#FE75F0"/><path d="m22.033 21.42-2.448 2.142 2.142 2.448 2.448-2.142-2.142-2.448Z" fill="#000"/><path d="m24.175 23.868-2.448 2.142 2.142 2.448 2.448-2.142-2.142-2.448Z" fill="#000"/><path d="m26.317 26.317-2.448 2.142 2.142 2.448 2.448-2.142-2.142-2.448Zm2.143 2.448-2.448 2.142 2.141 2.448 2.449-2.142-2.142-2.448Z" fill="#FE75F0"/><path d="m30.602 31.212-2.449 2.143 2.143 2.448 2.448-2.142-2.142-2.449Z" fill="#FE75F0"/><path d="m32.744 33.66-2.448 2.143 2.142 2.448 2.448-2.142-2.142-2.448Z" fill="#FE75F0"/><path d="m34.886 36.108-2.449 2.143 2.143 2.448 2.448-2.142-2.142-2.449Zm2.142 2.449-2.448 2.142 2.142 2.448 2.448-2.142-2.142-2.448Zm2.142 2.448-2.448 2.142 2.142 2.448 2.448-2.142-2.142-2.448Z" fill="#FE75F0"/><path d="m41.312 43.453-2.448 2.142 2.142 2.449 2.448-2.143-2.142-2.448Z" fill="#FE75F0"/><path d="m43.454 45.901-2.448 2.142 2.142 2.448 2.448-2.142-2.142-2.448Z" fill="#FE75F0"/><path d="m45.596 48.349-2.448 2.142 2.142 2.448 2.448-2.142-2.142-2.448Z" fill="#FE75F0"/><path d="m47.738 50.797-2.449 2.142 2.143 2.449 2.448-2.142-2.142-2.449Zm2.142 2.449-2.448 2.142 2.142 2.448 2.448-2.142-2.142-2.448Z" fill="#FE75F0"/><path d="m52.022 55.694-2.448 2.142 2.142 2.448 2.448-2.142-2.142-2.449Z" fill="#FE75F0"/><path d="m54.164 58.142-2.448 2.142 2.142 2.448 2.448-2.142-2.142-2.448Z" fill="#FE75F0"/><path d="m56.306 60.59-2.448 2.142L56 65.18l2.448-2.142-2.142-2.448Z" fill="#FE75F0"/><path d="m79.87 87.52-2.449 2.142 2.142 2.448 2.449-2.142-2.142-2.448Z" fill="#000"/><path d="m82.01 89.967-2.448 2.142 2.142 2.448 2.449-2.142-2.142-2.448Zm2.143 2.448-2.448 2.142 2.142 2.448 2.448-2.142-2.142-2.448Zm2.142 2.448-2.448 2.142 2.142 2.448 2.448-2.142-2.142-2.448Z" fill="#FE75F0"/><path d="m88.437 97.31-2.448 2.143 2.142 2.448 2.448-2.142-2.142-2.448Z" fill="#FE75F0"/><path d="m24.481 19.278-2.448 2.142 2.142 2.448 2.448-2.142-2.142-2.448Z" fill="#000"/><path d="m26.623 21.726-2.448 2.142 2.142 2.448 2.448-2.142-2.142-2.448Zm2.142 2.449-2.448 2.142 2.142 2.448 2.448-2.142-2.142-2.448Zm2.143 2.448-2.449 2.142 2.142 2.448 2.449-2.142-2.142-2.448Z" fill="#FE75F0"/><path d="m33.05 29.07-2.45 2.144 2.142 2.448 2.449-2.142-2.142-2.448Z" fill="#FE75F0"/><path d="m35.192 31.519-2.449 2.142 2.142 2.448 2.449-2.142-2.142-2.448Z" fill="#FE75F0"/><path d="m37.334 33.967-2.449 2.142 2.143 2.448 2.448-2.142-2.142-2.448Z" fill="#FE75F0"/><path d="m39.476 36.415-2.448 2.142 2.142 2.448 2.448-2.142-2.142-2.448Zm2.142 2.448-2.448 2.142 2.142 2.448 2.448-2.142-2.142-2.448Z" fill="#FE75F0"/><path d="m43.76 41.31-2.448 2.143 2.142 2.448 2.448-2.142-2.142-2.448Z" fill="#FE75F0"/><path d="m45.902 43.76-2.448 2.14 2.142 2.448 2.448-2.142-2.142-2.448Zm2.142 2.447-2.448 2.142 2.142 2.448 2.448-2.142-2.142-2.448Zm2.142 2.448-2.448 2.142 2.142 2.449 2.448-2.143-2.142-2.448Z" fill="#FE75F0"/><path d="m52.328 51.103-2.448 2.142 2.142 2.448 2.448-2.142-2.142-2.448Z" fill="#FE75F0"/><path d="m54.47 53.551-2.448 2.142 2.142 2.449 2.448-2.143-2.142-2.448ZM56.612 56l-2.448 2.142 2.142 2.448 2.448-2.142L56.612 56Z" fill="#FE75F0"/><path d="m58.754 58.447-2.448 2.142 2.142 2.449 2.448-2.142-2.142-2.449Z" fill="#FE75F0"/><path d="M82.317 85.378 79.87 87.52l2.142 2.448 2.449-2.142-2.142-2.448Z" fill="#000"/><path d="m84.459 87.825-2.449 2.142 2.142 2.448 2.449-2.143-2.142-2.448Zm2.141 2.448-2.447 2.142 2.142 2.448 2.448-2.142-2.142-2.448Z" fill="#FE75F0"/><path d="m88.743 92.72-2.448 2.143 2.142 2.448 2.448-2.142-2.142-2.448Zm2.142 2.45-2.448 2.141 2.142 2.448 2.448-2.142-2.142-2.448Z" fill="#FE75F0"/><path d="m26.93 17.137-2.449 2.142 2.142 2.447 2.448-2.142-2.142-2.447Z" fill="#000"/><path d="m29.071 19.584-2.448 2.142 2.142 2.448 2.448-2.142-2.142-2.448Z" fill="#FE75F0"/><path d="m31.213 22.032-2.448 2.142 2.142 2.448 2.448-2.142-2.142-2.448Zm2.143 2.448-2.448 2.143 2.142 2.448 2.448-2.142-2.142-2.448Z" fill="#fff"/><path d="M35.498 26.929 33.05 29.07l2.142 2.448 2.448-2.142-2.142-2.448Z" fill="#fff"/><path d="m37.64 29.377-2.448 2.142 2.142 2.448 2.448-2.142-2.142-2.448Z" fill="#FE75F0"/><path d="m39.782 31.825-2.448 2.142 2.142 2.448 2.448-2.142-2.142-2.448Zm2.142 2.448-2.448 2.142 2.142 2.448 2.448-2.142-2.142-2.448Z" fill="#FE75F0"/><path d="m44.066 36.721-2.448 2.142 2.142 2.448 2.448-2.142-2.142-2.448Z" fill="#FE75F0"/><path d="M46.208 39.169 43.76 41.31l2.142 2.448 2.448-2.142-2.142-2.448Zm2.142 2.448-2.448 2.142 2.142 2.448 2.448-2.142-2.142-2.448Z" fill="#FE75F0"/><path d="m50.492 44.065-2.448 2.142 2.142 2.448 2.448-2.142-2.142-2.448Zm2.142 2.448-2.448 2.142 2.142 2.448 2.448-2.142-2.142-2.448Zm2.142 2.449-2.448 2.142 2.142 2.448 2.448-2.142-2.142-2.448Z" fill="#FE75F0"/><path d="m56.918 51.41-2.448 2.14L56.612 56l2.448-2.142-2.142-2.448Zm2.142 2.448L56.612 56l2.142 2.448 2.448-2.142-2.142-2.448Z" fill="#FE75F0"/><path d="m61.202 56.306-2.448 2.142 2.142 2.448 2.448-2.142-2.142-2.448Z" fill="#FE75F0"/><path d="m84.766 83.236-2.448 2.141 2.142 2.449 2.448-2.142-2.142-2.448Z" fill="#000"/><path d="m86.907 85.682-2.448 2.142 2.142 2.448 2.448-2.142-2.142-2.448Zm2.142 2.449L86.6 90.273l2.142 2.448 2.448-2.142-2.142-2.448Zm2.141 2.448-2.447 2.142 2.142 2.448 2.448-2.142-2.142-2.448Zm2.143 2.448-2.448 2.142 2.142 2.448 2.448-2.142-2.142-2.448ZM29.378 14.994l-2.449 2.143 2.142 2.447 2.448-2.142-2.141-2.448Z" fill="#FE75F0"/><path d="m31.52 17.442-2.449 2.142 2.142 2.448 2.448-2.142-2.142-2.448Zm2.141 2.448-2.448 2.142 2.142 2.448 2.448-2.142-2.142-2.448Zm2.143 2.449-2.448 2.142 2.142 2.448 2.448-2.142-2.142-2.448Z" fill="#FE75F0"/><path d="m37.946 24.787-2.448 2.142 2.142 2.448 2.448-2.142-2.142-2.448Z" fill="#FE75F0"/><path d="m40.088 27.235-2.448 2.142 2.142 2.448 2.448-2.142-2.142-2.448Z" fill="#000"/><path d="m42.23 29.683-2.448 2.142 2.142 2.448 2.448-2.142-2.142-2.448Zm2.142 2.448-2.448 2.142 2.142 2.448 2.448-2.142-2.142-2.448Zm2.142 2.448-2.448 2.142 2.142 2.448 2.448-2.142-2.142-2.448Z" fill="#FE75F0"/><path d="m48.656 37.027-2.448 2.142 2.142 2.448 2.448-2.142-2.142-2.448Z" fill="#FE75F0"/><path d="m50.798 39.475-2.448 2.142 2.142 2.448 2.448-2.142-2.142-2.448Z" fill="#FE75F0"/><path d="m52.94 41.923-2.448 2.142 2.142 2.448 2.448-2.142-2.142-2.448Z" fill="#FE75F0"/><path d="m55.082 44.37-2.448 2.143 2.142 2.448 2.448-2.142-2.142-2.448Z" fill="#000"/><path d="m57.224 46.82-2.448 2.142 2.142 2.448 2.448-2.142-2.142-2.448Z" fill="#FE75F0"/><path d="m59.366 49.267-2.448 2.142 2.142 2.448 2.448-2.142-2.142-2.448Zm2.142 2.449-2.448 2.142 2.142 2.448 2.448-2.142-2.142-2.448Z" fill="#FE75F0"/><path d="m63.65 54.164-2.448 2.142 2.142 2.448 2.448-2.142-2.142-2.448Z" fill="#FE75F0"/><path d="m87.214 81.093-2.449 2.142 2.142 2.449 2.449-2.142-2.142-2.449Z" fill="#000"/><path d="m89.355 83.54-2.448 2.142 2.142 2.448 2.448-2.142-2.142-2.448Z" fill="#FE75F0"/><path d="m91.497 85.989-2.448 2.142 2.142 2.448 2.448-2.142-2.142-2.448Z" fill="#fff"/><path d="m93.639 88.437-2.448 2.142 2.142 2.448 2.448-2.142-2.142-2.448Zm2.142 2.448-2.448 2.142 2.142 2.448 2.448-2.142-2.142-2.448Z" fill="#FE75F0"/><path d="m42.536 25.093-2.448 2.142 2.142 2.448 2.448-2.142-2.142-2.448Z" fill="#000"/><path d="m44.678 27.54-2.448 2.143 2.142 2.448 2.448-2.142-2.142-2.448Z" fill="#FE75F0"/><path d="m46.82 29.989-2.448 2.142 2.142 2.448 2.448-2.142-2.142-2.448Zm2.142 2.448-2.448 2.142 2.142 2.448 2.448-2.142-2.142-2.448Z" fill="#FE75F0"/><path d="m51.104 34.885-2.448 2.142 2.142 2.448 2.448-2.142-2.142-2.448Z" fill="#FE75F0"/><path d="m57.53 42.23-2.448 2.141 2.142 2.449 2.448-2.142-2.142-2.449Z" fill="#000"/><path d="m59.672 44.678-2.448 2.142 2.142 2.447 2.448-2.142-2.142-2.447Zm2.142 2.448-2.448 2.142 2.142 2.448 2.448-2.142-2.142-2.448Zm2.142 2.448-2.448 2.142 2.142 2.447 2.448-2.141-2.142-2.448Z" fill="#FE75F0"/><path d="m66.098 52.022-2.448 2.142 2.142 2.448 2.448-2.142-2.142-2.448Z" fill="#000"/><path d="m68.24 54.47-2.448 2.142 2.142 2.447 2.448-2.142-2.142-2.448Zm19.28 22.033-2.449 2.142 2.142 2.448 2.448-2.142-2.142-2.448Zm2.142 2.448-2.448 2.142 2.142 2.448 2.448-2.142-2.142-2.448Z" fill="#000"/><path d="m91.803 81.398-2.448 2.142 2.142 2.448 2.448-2.142-2.142-2.448Zm2.142 2.449-2.448 2.142 2.142 2.448 2.448-2.142-2.142-2.448Z" fill="#FE75F0"/><path d="m96.087 86.294-2.448 2.142 2.142 2.449 2.448-2.142-2.142-2.448Z" fill="#FE75F0"/><path d="m98.23 88.743-2.449 2.142 2.142 2.448 2.448-2.142-2.142-2.448Z" fill="#FE75F0"/><path d="m44.984 22.951-2.448 2.142 2.142 2.448 2.448-2.142-2.142-2.448Z" fill="#000"/><path d="m47.126 25.399-2.448 2.142 2.142 2.448 2.448-2.142-2.142-2.448Z" fill="#FE75F0"/><path d="m49.268 27.847-2.448 2.142 2.142 2.448 2.448-2.142-2.142-2.448Z" fill="#FE75F0"/><path d="m51.41 30.295-2.448 2.142 2.142 2.448 2.448-2.142-2.142-2.448Zm2.142 2.448-2.448 2.142 2.142 2.448 2.448-2.142-2.142-2.448Zm8.568 9.792-2.448 2.143 2.142 2.448 2.448-2.143-2.142-2.448Zm2.142 2.448-2.448 2.143 2.142 2.448 2.448-2.142-2.142-2.449Zm2.142 2.449-2.448 2.142 2.142 2.448 2.448-2.142-2.142-2.448Z" fill="#FE75F0"/><path d="m68.546 49.88-2.448 2.142 2.142 2.448 2.448-2.142-2.142-2.449Z" fill="#FE75F0"/><path d="M70.688 52.327 68.24 54.47l2.142 2.448 2.448-2.142-2.142-2.448Zm2.142 2.449-2.448 2.142 2.142 2.448 2.448-2.142-2.142-2.448Zm14.994 17.136-2.448 2.142 2.142 2.448 2.449-2.142-2.143-2.448Zm2.143 2.449-2.448 2.142 2.142 2.448 2.448-2.142-2.142-2.448Z" fill="#000"/><path d="m92.11 76.81-2.448 2.141 2.142 2.448 2.448-2.142-2.142-2.448Z" fill="#FE75F0"/><path d="m94.25 79.257-2.447 2.142 2.142 2.448 2.448-2.142-2.142-2.448Z" fill="#fff"/><path d="m96.393 81.705-2.448 2.142 2.142 2.448 2.448-2.142-2.142-2.448Zm2.142 2.448-2.448 2.142 2.142 2.448 2.448-2.142-2.142-2.448Z" fill="#FE75F0"/><path d="m47.432 20.809-2.448 2.142 2.142 2.448 2.448-2.142-2.142-2.448Z" fill="#000"/><path d="m49.574 23.257-2.448 2.142 2.142 2.448 2.448-2.142-2.142-2.448Z" fill="#FE75F0"/><path d="m51.716 25.705-2.448 2.142 2.142 2.448 2.448-2.142-2.142-2.448Z" fill="#FE75F0"/><path d="m53.858 28.153-2.448 2.142 2.142 2.448L56 30.6l-2.142-2.448Z" fill="#fff"/><path d="m56 30.6-2.448 2.143 2.142 2.448 2.448-2.142L56 30.6Zm8.568 9.794-2.448 2.142 2.142 2.448 2.448-2.142-2.142-2.448Z" fill="#FE75F0"/><path d="m66.71 42.841-2.448 2.142 2.142 2.449 2.448-2.142-2.142-2.449Zm2.142 2.449-2.448 2.142 2.142 2.448 2.448-2.142-2.142-2.448Z" fill="#FE75F0"/><path d="m70.994 47.737-2.448 2.142 2.142 2.449 2.448-2.143-2.142-2.448Zm2.142 2.449-2.448 2.142 2.142 2.448 2.448-2.142-2.142-2.448Z" fill="#FE75F0"/><path d="m75.278 52.634-2.448 2.142 2.142 2.448 2.448-2.142-2.142-2.448Z" fill="#000"/><path d="m77.42 55.082-2.448 2.142 2.143 2.448 2.448-2.142-2.142-2.448Z" fill="#000"/><path d="m79.563 57.53-2.448 2.142 2.142 2.448 2.448-2.142-2.142-2.448Zm6.426 7.344-2.448 2.142 2.142 2.448 2.448-2.142-2.142-2.448Z" fill="#000"/><path d="m88.13 67.322-2.447 2.142 2.142 2.448 2.448-2.142-2.142-2.448Z" fill="#000"/><path d="m90.272 69.77-2.448 2.142 2.143 2.448 2.448-2.142-2.143-2.448Z" fill="#000"/><path d="m92.415 72.219-2.448 2.142 2.142 2.448 2.449-2.142-2.143-2.448Z" fill="#FE75F0"/><path d="m94.558 74.668-2.449 2.142 2.143 2.448 2.448-2.142-2.142-2.448Z" fill="#fff"/><path d="m96.699 77.115-2.448 2.142 2.142 2.448 2.448-2.142-2.142-2.448Zm2.142 2.448-2.448 2.142 2.142 2.448 2.448-2.142-2.142-2.448Z" fill="#FE75F0"/><path d="m100.983 82.01-2.448 2.143 2.142 2.448 2.448-2.142-2.142-2.448Z" fill="#FE75F0"/><path d="m49.88 18.667-2.448 2.142 2.142 2.448 2.448-2.142-2.142-2.448Z" fill="#000"/><path d="m52.022 21.115-2.448 2.142 2.142 2.448 2.448-2.142-2.142-2.448Z" fill="#FE75F0"/><path d="m54.164 23.563-2.448 2.142 2.142 2.448 2.448-2.142-2.142-2.448Z" fill="#fff"/><path d="m56.306 26.011-2.448 2.142L56 30.601l2.448-2.142-2.142-2.448Z" fill="#FE75F0"/><path d="M58.448 28.459 56 30.6l2.142 2.448 2.448-2.142-2.142-2.448ZM69.158 40.7l-2.448 2.14 2.142 2.448 2.448-2.142-2.142-2.448Zm2.142 2.448-2.448 2.142 2.142 2.448 2.448-2.142-2.142-2.448Z" fill="#FE75F0"/><path d="m73.442 45.595-2.448 2.142 2.142 2.448 2.448-2.142-2.142-2.448Zm2.142 2.449-2.448 2.142 2.142 2.448 2.448-2.142-2.142-2.448Zm2.143 2.448-2.449 2.142 2.142 2.448 2.448-2.142-2.141-2.448Zm2.142 2.448-2.448 2.142 2.142 2.448 2.448-2.142-2.142-2.448Z" fill="#FE75F0"/><path d="m82.01 55.388-2.447 2.142 2.142 2.448 2.448-2.142-2.142-2.448Zm2.143 2.448-2.448 2.142 2.142 2.448 2.448-2.142-2.142-2.448Z" fill="#000"/><path d="m86.295 60.284-2.448 2.142 2.142 2.448 2.448-2.142-2.142-2.448Zm2.142 2.448-2.448 2.142 2.142 2.448 2.448-2.142-2.142-2.448Zm2.142 2.448-2.448 2.142 2.142 2.448 2.448-2.142-2.142-2.448Z" fill="#000"/><path d="m92.72 67.628-2.448 2.142 2.143 2.448 2.448-2.142-2.143-2.448Z" fill="#FE75F0"/><path d="m94.864 70.077-2.448 2.142 2.142 2.448 2.447-2.142-2.141-2.448Z" fill="#fff"/><path d="m97.006 72.525-2.448 2.142 2.142 2.449 2.448-2.142-2.142-2.449Z" fill="#FE75F0"/><path d="m99.147 74.972-2.448 2.142 2.142 2.448 2.448-2.142-2.142-2.448Zm2.142 2.448-2.448 2.142 2.142 2.449 2.448-2.142-2.142-2.448Z" fill="#FE75F0"/><path d="m52.328 16.525-2.448 2.142 2.142 2.448 2.448-2.142-2.142-2.448Z" fill="#000"/><path d="m54.47 18.973-2.448 2.142 2.142 2.448 2.448-2.142-2.142-2.448Z" fill="#000"/><path d="m56.612 21.421-2.448 2.142 2.142 2.448 2.448-2.142-2.142-2.448Z" fill="#FE75F0"/><path d="m58.754 23.869-2.448 2.142 2.142 2.448 2.448-2.142-2.142-2.448Z" fill="#FE75F0"/><path d="m60.896 26.317-2.448 2.142 2.142 2.448 2.448-2.142-2.142-2.448Zm10.71 12.24L69.158 40.7l2.142 2.449 2.448-2.143-2.142-2.448Z" fill="#FE75F0"/><path d="M73.748 41.006 71.3 43.148l2.142 2.448 2.448-2.142-2.142-2.448Zm2.142 2.448-2.448 2.142 2.142 2.448 2.448-2.142-2.142-2.448Zm2.142 2.448-2.448 2.142 2.142 2.448 2.448-2.142-2.142-2.448Zm2.142 2.448-2.448 2.142 2.142 2.448 2.448-2.142-2.142-2.448Zm2.143 2.448-2.448 2.142 2.142 2.448 2.448-2.142-2.142-2.448Zm2.142 2.448-2.448 2.142 2.142 2.448 2.448-2.142-2.142-2.448Z" fill="#FE75F0"/><path d="m86.6 55.694-2.447 2.142 2.142 2.448 2.448-2.142-2.142-2.448Zm2.143 2.448-2.448 2.142 2.142 2.448 2.448-2.142-2.142-2.448Zm2.142 2.448-2.448 2.142 2.142 2.449 2.448-2.142-2.142-2.449Z" fill="#FE75F0"/><path d="m93.027 63.038-2.448 2.142 2.142 2.448 2.448-2.142-2.142-2.448Z" fill="#FE75F0"/><path d="m95.168 65.486-2.448 2.142 2.143 2.449 2.448-2.142-2.143-2.449Z" fill="#fff"/><path d="m97.311 67.935-2.448 2.142 2.142 2.448 2.449-2.142-2.142-2.448Z" fill="#FE75F0"/><path d="m99.454 70.383-2.448 2.142 2.142 2.449 2.448-2.142-2.142-2.449Z" fill="#FE75F0"/><path d="m101.595 72.83-2.448 2.142 2.142 2.448 2.448-2.142-2.142-2.448Z" fill="#FE75F0"/><path d="m56.918 16.83-2.448 2.143 2.142 2.448 2.448-2.142-2.142-2.448Z" fill="#000"/><path d="m59.06 19.28-2.448 2.141 2.142 2.448 2.448-2.142-2.142-2.448Z" fill="#FE75F0"/><path d="m61.202 21.727-2.448 2.142 2.142 2.448 2.448-2.142-2.142-2.448Zm17.136 19.585-2.448 2.142 2.142 2.448 2.448-2.142-2.142-2.448Zm2.142 2.448-2.448 2.142 2.142 2.447 2.448-2.141-2.142-2.448Zm2.143 2.448-2.449 2.142 2.142 2.448 2.448-2.142-2.141-2.448Zm2.142 2.448-2.448 2.142 2.142 2.448 2.448-2.142-2.142-2.448Zm2.142 2.448-2.448 2.142 2.142 2.448 2.448-2.142-2.142-2.448Z" fill="#FE75F0"/><path d="M89.049 53.552 86.6 55.694l2.142 2.448L91.19 56l-2.142-2.448ZM91.19 56l-2.447 2.142 2.142 2.448 2.448-2.142L91.19 56Zm2.143 2.448-2.448 2.142 2.142 2.448 2.448-2.142-2.142-2.448Z" fill="#FE75F0"/><path d="m95.475 60.896-2.448 2.142 2.142 2.448 2.448-2.142-2.142-2.448Z" fill="#fff"/><path d="m97.617 63.344-2.449 2.142 2.143 2.448 2.448-2.141-2.142-2.449Zm2.143 2.449-2.448 2.142 2.142 2.448 2.448-2.142-2.142-2.448Zm2.142 2.448-2.448 2.142 2.142 2.448 2.448-2.142-2.142-2.448ZM82.929 41.617 80.48 43.76l2.142 2.448 2.448-2.143-2.141-2.447Zm2.141 2.449-2.448 2.142 2.142 2.448 2.449-2.142-2.142-2.448Zm2.143 2.448-2.448 2.142 2.142 2.448 2.448-2.142-2.142-2.448Zm2.142 2.448-2.448 2.142 2.142 2.448 2.448-2.142-2.142-2.448Zm2.142 2.448-2.448 2.142 2.142 2.449 2.448-2.143-2.142-2.448Z" fill="#FE75F0"/><path d="M93.639 53.858 91.19 56l2.142 2.448 2.448-2.142-2.142-2.448Zm2.141 2.448-2.447 2.142 2.142 2.448 2.448-2.142-2.142-2.448Zm2.143 2.448-2.448 2.142 2.142 2.448 2.448-2.142-2.142-2.448Z" fill="#FE75F0"/><path d="m100.064 61.202-2.448 2.142 2.143 2.448 2.448-2.142-2.143-2.448Zm2.144 2.449-2.448 2.142 2.141 2.448 2.449-2.142-2.142-2.448Z" fill="#FE75F0"/></svg>