<svg width="1050" height="648" viewBox="0 0 1050 648" fill="none" xmlns="http://www.w3.org/2000/svg">
<rect x="17" width="1021" height="4" fill="black"/>
<rect x="17" y="4" width="1021" height="4" fill="#BBA5EF"/>
<rect x="5" y="8" width="4" height="4" fill="black"/>
<rect x="0.383301" y="12" width="4.6166" height="620" fill="black"/>
<rect x="5" y="12" width="4.6166" height="620" fill="#BBA5EF"/>
<rect width="4" height="620" transform="matrix(-1 0 0 1 1050 12)" fill="black"/>
<rect width="4" height="615" transform="matrix(-1 0 0 1 1046 17)" fill="#663EC6"/>
<rect x="9" y="4" width="4" height="4" fill="black"/>
<rect x="13" width="4" height="4" fill="black"/>
<rect x="13" y="4" width="4" height="4" fill="#BBA5EF"/>
<rect x="9" y="8" width="4" height="4" fill="#BBA5EF"/>
<rect x="5" y="12" width="4" height="4" fill="#BBA5EF"/>
<rect width="4" height="4" transform="matrix(-1 0 0 1 1046 8)" fill="black"/>
<rect width="4" height="4" transform="matrix(-1 0 0 1 1042 4)" fill="black"/>
<rect width="4" height="4" transform="matrix(-1 0 0 1 1038 4)" fill="#663EC6"/>
<rect width="4" height="4" transform="matrix(-1 0 0 1 1042 8)" fill="#663EC6"/>
<rect width="4" height="4" transform="matrix(-1 0 0 1 1046 12)" fill="#663EC6"/>
<rect x="1034" y="636" width="4" height="4" fill="#663EC6"/>
<rect x="1038" y="632" width="4" height="4" fill="#663EC6"/>
<rect x="1042" y="632" width="4" height="4" fill="black"/>
<rect x="1038" y="636" width="4" height="4" fill="black"/>
<rect x="1034" y="640" width="4" height="4" fill="black"/>
<rect width="4" height="4" transform="matrix(-1 0 0 1 17 636)" fill="#BBA5EF"/>
<rect width="4" height="4" transform="matrix(-1 0 0 1 13 632)" fill="#BBA5EF"/>
<rect width="4" height="4" transform="matrix(-1 0 0 1 9 632)" fill="black"/>
<rect width="4" height="4" transform="matrix(-1 0 0 1 13 636)" fill="black"/>
<rect width="4" height="4" transform="matrix(-1 0 0 1 17 640)" fill="black"/>
<rect x="17" y="644" width="1021" height="4" fill="black"/>
<rect x="17" y="640" width="1021" height="4" fill="#663EC6"/>
</svg>
