<svg width="328" height="1171" viewBox="0 0 328 1171" fill="none" xmlns="http://www.w3.org/2000/svg">
<rect x="328" y="9" width="1153" height="2.99998" transform="rotate(90 328 9)" fill="black"/>
<rect x="325" y="9" width="1153" height="2.99998" transform="rotate(90 325 9)" fill="#663EC6"/>
<rect x="320" width="3" height="311" transform="rotate(90 320 0)" fill="black"/>
<rect x="320" y="3" width="3" height="311" transform="rotate(90 320 3)" fill="#BBA5EF"/>
<rect width="2.99999" height="310" transform="matrix(4.37114e-08 -1 -1 -4.37114e-08 319 1171)" fill="black"/>
<rect width="3" height="310" transform="matrix(4.37114e-08 -1 -1 -4.37114e-08 319 1168)" fill="#663EC6"/>
<rect width="3" height="3" transform="matrix(4.37114e-08 -1 -1 -4.37114e-08 322 1168)" fill="black"/>
<rect width="3" height="3" transform="matrix(4.37114e-08 -1 -1 -4.37114e-08 325 1165)" fill="black"/>
<rect width="3" height="3" transform="matrix(4.37114e-08 -1 -1 -4.37114e-08 322 1165)" fill="#663EC6"/>
<rect width="3" height="3" transform="matrix(4.37114e-08 -1 -1 -4.37114e-08 319 1168)" fill="#663EC6"/>
<rect x="6" y="1168" width="3" height="3" transform="rotate(-90 6 1168)" fill="black"/>
<rect x="3" y="1165" width="3" height="3" transform="rotate(-90 3 1165)" fill="black"/>
<rect x="6" y="1165" width="3" height="3" transform="rotate(-90 6 1165)" fill="#BBA5EF"/>
<rect x="9" y="1168" width="3" height="3" transform="rotate(-90 9 1168)" fill="#BBA5EF"/>
<rect x="323" y="2.99994" width="3" height="3" transform="rotate(90 323 2.99994)" fill="black"/>
<rect x="326" y="5.99994" width="3" height="3" transform="rotate(90 326 5.99994)" fill="black"/>
<rect x="323" y="6" width="3" height="3" transform="rotate(90 323 6)" fill="#663EC6"/>
<rect x="320" y="3" width="3" height="3" transform="rotate(90 320 3)" fill="#663EC6"/>
<rect width="3" height="3" transform="matrix(-4.37114e-08 1 1 4.37114e-08 6 2.99994)" fill="black"/>
<rect width="3" height="3" transform="matrix(-4.37114e-08 1 1 4.37114e-08 3 5.99994)" fill="black"/>
<rect width="3" height="3" transform="matrix(-4.37114e-08 1 1 4.37114e-08 6 6)" fill="#BBA5EF"/>
<rect width="3" height="3" transform="matrix(-4.37114e-08 1 1 4.37114e-08 9 3)" fill="#BBA5EF"/>
<rect x="3" y="9.05658" width="1152.94" height="3" transform="rotate(90 3 9.05658)" fill="black"/>
<rect x="6.06689" y="9.05658" width="1152.94" height="3" transform="rotate(90 6.06689 9.05658)" fill="#BBA5EF"/>
</svg>
