<svg width="30" height="37" viewBox="0 0 30 37" fill="none" xmlns="http://www.w3.org/2000/svg">
<path d="M17.0834 0.499954L12.9167 0.499954L12.9167 28.3333L8.75004 28.3333L8.75004 32.5L12.9167 32.5L12.9167 36.6666L17.0834 36.6666L17.0834 32.5L21.25 32.5L21.25 28.3333L17.0834 28.3333L17.0834 0.499954ZM25.4167 24.1666L25.4167 28.3333L21.25 28.3333L21.25 24.1666L25.4167 24.1666ZM25.4167 24.1666L25.4167 20L29.5834 20L29.5834 24.1666L25.4167 24.1666ZM4.58337 24.1666L4.58337 28.3333L8.75004 28.3333L8.75004 24.1666L4.58337 24.1666ZM4.58337 24.1666L4.58337 20L0.416706 20L0.416706 24.1666L4.58337 24.1666Z" fill="#43FE01"/>
</svg>
