<svg width="223" height="57" viewBox="0 0 223 57" fill="none" xmlns="http://www.w3.org/2000/svg">
<rect x="8" y="6" width="208" height="46" rx="9" fill="#C4C4C4"/>
<rect x="211" y="45" width="4" height="4" fill="black"/>
<rect x="12" width="199" height="4" fill="black"/>
<rect x="12" y="4" width="199" height="4" fill="white"/>
<rect x="12" y="53" width="199" height="4" fill="black"/>
<rect x="12" y="49" width="199" height="4" fill="#737373"/>
<rect x="219" y="12" width="4" height="33" fill="black"/>
<rect x="215" y="8" width="4" height="4" fill="black"/>
<rect x="211" y="4" width="4" height="4" fill="black"/>
<rect x="211" y="8" width="4" height="4" fill="white"/>
<rect x="211" y="49" width="4" height="4" fill="black"/>
<rect x="215" y="45" width="4" height="4" fill="black"/>
<rect x="211" y="45" width="4" height="4" fill="#737373"/>
<rect x="215" y="12" width="4" height="33" fill="#737373"/>
<rect width="4" height="33" transform="matrix(-1 0 0 1 4 12)" fill="black"/>
<rect width="4" height="4" transform="matrix(-1 0 0 1 8 8)" fill="black"/>
<rect width="4" height="4" transform="matrix(-1 0 0 1 12 4)" fill="black"/>
<rect width="4" height="4" transform="matrix(-1 0 0 1 12 8)" fill="white"/>
<rect width="4" height="29" transform="matrix(-1 0 0 1 8 12)" fill="white"/>
<rect width="4" height="4" transform="matrix(-1 0 0 1 12 49)" fill="black"/>
<rect width="4" height="4" transform="matrix(-1 0 0 1 8 45)" fill="black"/>
<rect width="4" height="4" transform="matrix(-1 0 0 1 12 45)" fill="#737373"/>
<rect width="4" height="4" transform="matrix(-1 0 0 1 8 41)" fill="white"/>
</svg>
