<svg width="84" height="72" fill="none" xmlns="http://www.w3.org/2000/svg"><path d="M41.534 13.849 52.612 2.771h16.614l11.078 11.078v16.614l-38.77 38.77-38.763-38.77V13.849L13.843 2.771h16.62l11.071 11.078Z" fill="#FE75F0"/><path d="M49.841 66.455h-5.536V60.92h5.536v5.536Zm-5.536 5.542H38.77v-5.535h5.535v5.535ZM60.92 55.383h-5.537v-5.535h5.536v5.535Zm-5.537 5.543h-5.535V55.39h5.535v5.536Zm16.614-16.62h-5.536V38.77h5.536v5.536Zm-5.542 5.542H60.92v-5.536h5.536v5.536Zm16.62-16.62H77.54V11.072h5.536v22.156Zm-5.542 5.542h-5.536v-5.536h5.536v5.536Zm.007-33.228v5.536h-5.537V5.542h5.536ZM71.997 0v5.536H49.841V0h22.156ZM49.841 11.078h-5.536V5.542h5.536v5.536Zm-5.536 5.536H38.77v-5.536h5.535v5.536ZM33.234 60.926h5.535v5.535h-5.535v-5.535ZM22.156 49.848h5.536v5.535h-5.536v-5.535Zm5.535 5.535h5.536v5.536h-5.536v-5.535ZM11.078 38.77h5.535v5.536h-5.535V38.77Zm5.542 5.536h5.536v5.536H16.62v-5.536ZM0 11.078h5.536v22.156H0V11.078Zm5.542 22.15h5.536v5.535H5.542v-5.535Zm5.536-27.686v5.536H5.542V5.542h5.536ZM33.227 0v5.536H11.071V0h22.156Zm.007 5.536h5.535v5.536h-5.535V5.536Z" fill="#000"/><path d="M71.997 22.156h-5.536V16.62h5.536v5.536ZM60.925 11.078h5.536v5.536h-5.535v-5.536Z" fill="#fff"/></svg>