<svg width="33" height="28" fill="none" xmlns="http://www.w3.org/2000/svg"><g clip-path="url(#a)" fill="#fff"><path d="M14.143 23.338h-4.72v-4.671h4.72v4.671Zm-4.719-4.671h-4.71v-4.662h4.71v4.662Zm-4.71-9.334v4.672H-.005V4.67h4.72v4.662Zm23.567-4.662H33v9.334h-4.719V4.67Zm0 9.334v4.662h-4.71v-4.662h4.71Zm-4.709 4.662v4.671h-4.72v-4.671h4.72ZM18.852 28h-4.71v-4.662h4.71V28Z"/><path d="M4.714 4.671V0h9.429v4.671H4.714Zm14.138 0V0h9.43v4.671h-9.43Zm-4.709 4.662V4.671h4.71v4.662h-4.71Z"/></g><defs><clipPath id="a"><path fill="#fff" transform="matrix(-1 0 0 1 33 0)" d="M0 0h33v28H0z"/></clipPath></defs></svg>