<svg width="38" height="34" fill="none" xmlns="http://www.w3.org/2000/svg"><path d="M14.149.312H7.482v3.333H4.15V6.98H.816v10h3.333v3.333h3.333v3.333h3.334v3.334h3.333v3.333h3.333v3.333h3.334v-3.333h3.333V26.98h3.333v-3.334h3.334v-3.333h3.333V16.98h3.333v-10H34.15V3.645h-3.333V.312H24.15v3.333h-3.333V6.98h-3.334V3.645H14.15V.312Zm0 3.333V6.98h3.333v3.333h3.334V6.979h3.333V3.645h6.667V6.98h3.333v10h-3.333v3.333h-3.334v3.333H24.15v3.334h-3.333v3.333h-3.334V26.98H14.15v-3.334h-3.333v-3.333H7.482V16.98H4.15v-10h3.333V3.645h6.667Z" fill="#FE3344"/></svg>