<svg width="589" height="76" fill="none" xmlns="http://www.w3.org/2000/svg"><path d="M53.919 0h10.788v75.48H53.919V21.563h-5.387V32.35h-5.394v10.78h-5.394v10.79H26.963V43.13h-5.394V32.35h-5.394V21.562h-5.387V75.48H0V0h10.788v10.781h10.78v10.78h5.395V32.35h10.78V21.562h5.395V10.78h10.78V0Zm83.575 64.7h2.679v10.78h-10.767V64.7h-2.693V53.919H88.969v10.78h-2.694v10.782H75.487V64.7h2.701V53.919h2.694V43.13h2.693V32.35h2.7V21.562h2.694V10.78h2.693V0h32.35v10.781h2.701v10.78h2.693V32.35h2.694v10.78h2.7v10.79h2.694V64.7Zm-16.175-32.35h-2.722V21.562h-2.7V10.78H99.75v10.78h-2.694v10.79h-2.693v10.78h26.956V32.35ZM202.2 10.781h-21.576v64.727h-10.787V10.781h-21.576V0h53.918l.021 10.781Zm53.912 0h-26.956v10.78h-8.087V53.92h8.087V64.7h26.956v10.782h-32.35V64.7h-5.387V53.919h-8.087V21.562h8.087V10.78h5.387V0h32.35v10.781Zm10.788 10.78h-10.788v-10.78H266.9v10.78Zm0 32.358v10.78h-10.788V53.92H266.9ZM331.572 0v75.48h-10.753V43.13h-32.35v32.35h-10.788V0h10.788v32.35h32.35V0h10.753Zm88.99 21.562h5.394V32.35h-2.694v10.78h-2.7v10.79h-10.781V43.13h2.693V32.35h2.701V21.562h-5.394V10.78h-26.956v10.78h-2.701v10.79h-2.693v10.78h-2.708v10.79h-2.7V64.7h26.963V53.92h10.781V64.7h-8.074v10.782h-43.151V64.7h2.693V53.919h2.694V43.13h2.7V32.35h2.693V21.562h2.694V10.78h2.707V0h43.152v10.781h2.694l-.007 10.78Zm67.4 53.918h-10.781V53.906h-37.73V64.7h-5.394v10.78h-10.795V64.7h5.394V53.919h5.387V43.13h5.408V32.35h5.394V21.562h5.387V10.78h5.394V0h32.336v75.48Zm-26.956-64.727v10.781h-5.394v10.788h-5.394v10.78h26.963v-32.32l-16.175-.028Zm75.487 21.597v10.78h5.387v10.79h-2.693V64.7h-2.694v10.782h-10.787V64.7h2.7V53.919h2.694V43.13h-5.394V32.35h-2.694V21.562h-2.693V10.78h-2.701V0h10.788v10.781h2.694v10.78h2.693V32.35h2.7ZM566.122 0h10.788v10.781h-8.067v10.78h-8.087V32.35h-8.088v10.78H541.88V32.35h8.088V21.562h8.087V10.78h8.067V0Z" fill="#43FE01"/><path d="M65.055 0h10.787v75.48H65.055V21.563h-5.387V32.35h-5.394v10.78H48.88v10.79H38.099V43.13h-5.394V32.35H27.31V21.562h-5.387V75.48H11.136V0h10.788v10.781h10.78v10.78H38.1V32.35h10.78V21.562h5.395V10.78h10.78V0Zm83.575 64.7h2.679v10.78h-10.767V64.7h-2.693V53.919h-37.744v10.78h-2.694v10.782H86.624V64.7h2.7V53.919h2.694V43.13h2.693V32.35h2.7V21.562h2.694V10.78h2.693V0h32.35v10.781h2.701v10.78h2.693V32.35h2.694v10.78h2.7v10.79h2.694V64.7Zm-16.175-32.35h-2.722V21.562h-2.7V10.78h-16.147v10.78h-2.694v10.79h-2.693v10.78h26.956V32.35Zm80.881-21.569H191.76v64.727h-10.787V10.781h-21.576V0h53.918l.021 10.781Zm53.912 0h-26.956v10.78h-8.087V53.92h8.087V64.7h26.956v10.782h-32.35V64.7h-5.387V53.919h-8.087V21.562h8.087V10.78h5.387V0h32.35v10.781Zm10.788 10.78h-10.788v-10.78h10.788v10.78Zm0 32.358v10.78h-10.788V53.92h10.788ZM342.708 0v75.48h-10.753V43.13h-32.35v32.35h-10.788V0h10.788v32.35h32.35V0h10.753Zm88.99 21.562h5.394V32.35h-2.694v10.78h-2.7v10.79h-10.781V43.13h2.693V32.35h2.701V21.562h-5.394V10.78h-26.956v10.78h-2.701v10.79h-2.693v10.78h-2.708v10.79h-2.7V64.7h26.963V53.92h10.781V64.7h-8.074v10.782h-43.151V64.7h2.693V53.919h2.694V43.13h2.7V32.35h2.693V21.562h2.694V10.78h2.707V0h43.152v10.781h2.694l-.007 10.78Zm67.4 53.918h-10.781V53.906h-37.73V64.7h-5.394v10.78h-10.795V64.7h5.394V53.919h5.387V43.13h5.408V32.35h5.394V21.562h5.387V10.78h5.394V0h32.336v75.48Zm-26.956-64.727v10.781h-5.394v10.788h-5.394v10.78h26.963v-32.32l-16.175-.028Zm75.487 21.597v10.78h5.387v10.79h-2.693V64.7h-2.694v10.782h-10.787V64.7h2.7V53.919h2.694V43.13h-5.394V32.35h-2.694V21.562h-2.693V10.78h-2.701V0h10.788v10.781h2.694v10.78h2.693V32.35h2.7ZM577.258 0h10.788v10.781h-8.067v10.78h-8.087V32.35h-8.088v10.78h-10.788V32.35h8.088V21.562h8.087V10.78h8.067V0Z" fill="#FE75F0"/><path d="M59.487 0h10.788v75.48H59.487V21.563H54.1V32.35h-5.394v10.78h-5.394v10.79H32.53V43.13h-5.394V32.35h-5.394V21.562h-5.387V75.48H5.568V0h10.788v10.781h10.78v10.78h5.395V32.35h10.78V21.562h5.395V10.78h10.78V0Zm83.575 64.7h2.679v10.78h-10.767V64.7h-2.693V53.919H94.537v10.78h-2.694v10.782H81.056V64.7h2.701V53.919h2.694V43.13h2.693V32.35h2.7V21.562h2.694V10.78h2.694V0h32.349v10.781h2.701v10.78h2.693V32.35h2.694v10.78h2.7v10.79h2.694V64.7Zm-16.175-32.35h-2.722V21.562h-2.7V10.78h-16.147v10.78h-2.694v10.79h-2.693v10.78h26.956V32.35Zm80.881-21.569h-21.576v64.727h-10.787V10.781h-21.576V0h53.918l.021 10.781Zm53.912 0h-26.956v10.78h-8.087V53.92h8.087V64.7h26.956v10.782h-32.35V64.7h-5.387V53.919h-8.087V21.562h8.087V10.78h5.387V0h32.35v10.781Zm10.788 10.78H261.68v-10.78h10.788v10.78Zm0 32.358v10.78H261.68V53.92h10.788ZM337.14 0v75.48h-10.753V43.13h-32.35v32.35h-10.788V0h10.788v32.35h32.35V0h10.753Zm88.99 21.562h5.394V32.35h-2.694v10.78h-2.7v10.79h-10.781V43.13h2.693V32.35h2.701V21.562h-5.394V10.78h-26.956v10.78h-2.701v10.79h-2.693v10.78h-2.707v10.79h-2.701V64.7h26.963V53.92h10.781V64.7h-8.074v10.782H364.11V64.7h2.693V53.919h2.694V43.13h2.7V32.35h2.694V21.562h2.693V10.78h2.708V0h43.151v10.781h2.694l-.007 10.78Zm67.4 53.918h-10.781V53.906h-37.73V64.7h-5.394v10.78H428.83V64.7h5.394V53.919h5.387V43.13h5.408V32.35h5.394V21.562h5.387V10.78h5.394V0h32.336v75.48Zm-26.956-64.727v10.781h-5.394v10.788h-5.394v10.78h26.963v-32.32l-16.175-.028Zm75.487 21.597v10.78h5.387v10.79h-2.693V64.7h-2.694v10.782h-10.787V64.7h2.7V53.919h2.694V43.13h-5.394V32.35h-2.694V21.562h-2.693V10.78h-2.701V0h10.788v10.781h2.694v10.78h2.693V32.35h2.7ZM571.69 0h10.788v10.781h-8.067v10.78h-8.087V32.35h-8.088v10.78h-10.788V32.35h8.088V21.562h8.087V10.78h8.067V0Z" fill="#fff"/></svg>