<svg width="36" height="34" fill="none" xmlns="http://www.w3.org/2000/svg"><path d="M33.6 16.798H36V14.4h-2.4v2.398Zm0-2.398H36v-2.401h-2.4v2.4Z" fill="#000"/><path d="M33.6 12H36V9.598h-2.4v2.4Z" fill="#000"/><path d="M33.6 9.599H36V7.2h-2.4v2.4ZM31.198 19.2H33.6v-2.402h-2.4V19.2Z" fill="#000"/><path d="M31.198 16.798H33.6V14.4h-2.4v2.398Zm0-2.398H33.6v-2.401h-2.4v2.4Z" fill="#FE3344"/><path d="M31.198 12H33.6V9.598h-2.4v2.4Z" fill="#FE3344"/><path d="M31.198 9.599H33.6V7.2h-2.4v2.4Z" fill="#FE3344"/><path d="M31.198 7.2H33.6V4.8h-2.4v2.4ZM28.8 21.6h2.398v-2.4H28.8v2.4Z" fill="#000"/><path d="M28.8 19.2h2.398v-2.402H28.8V19.2Z" fill="#FE3344"/><path d="M28.8 16.798h2.398V14.4H28.8v2.398Zm0-2.398h2.398v-2.401H28.8v2.4Z" fill="#FE3344"/><path d="M28.8 12h2.398V9.598H28.8v2.4Z" fill="#FE3344"/><path d="M28.8 9.599h2.398V7.2H28.8v2.4Zm0-2.399h2.398V4.8H28.8v2.4Z" fill="#FE3344"/><path d="M28.8 4.8h2.398V2.4H28.8v2.4Zm-2.4 19.198h2.4V21.6h-2.4v2.398Z" fill="#000"/><path d="M26.4 21.6h2.4v-2.4h-2.4v2.4Zm0-2.4h2.4v-2.402h-2.4V19.2Zm0-2.402h2.4V14.4h-2.4v2.398Zm0-2.398h2.4v-2.401h-2.4v2.4Z" fill="#FE3344"/><path d="M26.4 12h2.4V9.598h-2.4v2.4Z" fill="#FE3344"/><path d="M26.4 9.599h2.4V7.2h-2.4v2.4Zm0-2.399h2.4V4.8h-2.4v2.4Zm0-2.4h2.4V2.4h-2.4v2.4Z" fill="#FE3344"/><path d="M26.4 2.4h2.4V0h-2.4v2.4Zm-2.402 24H26.4v-2.401H24v2.4Z" fill="#000"/><path d="M23.998 23.998H26.4V21.6H24v2.398Zm0-2.398H26.4v-2.4H24v2.4Zm0-2.4H26.4v-2.402H24V19.2Zm0-2.402H26.4V14.4H24v2.398Zm0-2.398H26.4v-2.401H24v2.4Z" fill="#FE3344"/><path d="M23.998 12H26.4V9.598H24v2.4Z" fill="#FE3344"/><path d="M23.998 9.599H26.4V7.2H24v2.4Zm0-2.399H26.4V4.8H24v2.4Zm0-2.4H26.4V2.4H24v2.4Z" fill="#FE3344"/><path d="M23.998 2.4H26.4V0H24v2.4ZM21.6 28.8h2.398v-2.401H21.6v2.4Z" fill="#000"/><path d="M21.6 26.4h2.398v-2.401H21.6v2.4Zm0-2.402h2.398V21.6H21.6v2.398Zm0-2.398h2.398v-2.4H21.6v2.4Zm0-2.4h2.398v-2.402H21.6V19.2Z" fill="#FE3344"/><path d="M21.6 16.798h2.398V14.4H21.6v2.398Zm0-2.398h2.398v-2.401H21.6v2.4Z" fill="#FE3344"/><path d="M21.6 12h2.398V9.598H21.6v2.4Z" fill="#FE3344"/><path d="M21.6 9.599h2.398V7.2H21.6v2.4Zm0-2.399h2.398V4.8H21.6v2.4Zm0-2.4h2.398V2.4H21.6v2.4Z" fill="#FE3344"/><path d="M21.6 2.4h2.398V0H21.6v2.4Zm-2.401 28.798h2.4V28.8h-2.4v2.398Z" fill="#000"/><path d="M19.199 28.8h2.4v-2.401h-2.4v2.4Z" fill="#FE3344"/><path d="M19.199 26.4h2.4v-2.401h-2.4v2.4Zm0-2.402h2.4V21.6h-2.4v2.398Zm0-2.398h2.4v-2.4h-2.4v2.4Zm0-2.4h2.4v-2.402h-2.4V19.2Z" fill="#FE3344"/><path d="M19.199 16.798h2.4V14.4h-2.4v2.398Zm0-2.398h2.4v-2.401h-2.4v2.4Z" fill="#FE3344"/><path d="M19.199 12h2.4V9.598h-2.4v2.4Z" fill="#FE3344"/><path d="M19.199 9.599h2.4V7.2h-2.4v2.4Zm0-2.399h2.4V4.8h-2.4v2.4Z" fill="#FE3344"/><path d="M19.199 4.8h2.4V2.4h-2.4v2.4Zm-2.401 28.799H19.2v-2.4h-2.4v2.4Z" fill="#000"/><path d="M16.798 31.198H19.2V28.8h-2.4v2.398Zm0-2.398H19.2v-2.401h-2.4v2.4Z" fill="#FE3344"/><path d="M16.798 26.4H19.2v-2.401h-2.4v2.4Zm0-2.402H19.2V21.6h-2.4v2.398Zm0-2.398H19.2v-2.4h-2.4v2.4Zm0-2.4H19.2v-2.402h-2.4V19.2Z" fill="#FE3344"/><path d="M16.798 16.798H19.2V14.4h-2.4v2.398Zm0-2.398H19.2v-2.401h-2.4v2.4Z" fill="#FE3344"/><path d="M16.798 12H19.2V9.598h-2.4v2.4Z" fill="#FE3344"/><path d="M16.798 9.599H19.2V7.2h-2.4v2.4Z" fill="#FE3344"/><path d="M16.798 7.2H19.2V4.8h-2.4v2.4ZM14.4 31.198h2.4V28.8h-2.4v2.398Z" fill="#000"/><path d="M14.4 28.8h2.4v-2.401h-2.4v2.4Z" fill="#FE3344"/><path d="M14.4 26.4h2.4v-2.401h-2.4v2.4Zm0-2.402h2.4V21.6h-2.4v2.398Zm0-2.398h2.4v-2.4h-2.4v2.4Zm0-2.4h2.4v-2.402h-2.4V19.2Z" fill="#FE3344"/><path d="M14.4 16.798h2.4V14.4h-2.4v2.398Zm0-2.398h2.4v-2.401h-2.4v2.4Z" fill="#FE3344"/><path d="M14.4 12h2.4V9.598h-2.4v2.4Z" fill="#FE3344"/><path d="M14.4 9.599h2.4V7.2h-2.4v2.4Zm0-2.399h2.4V4.8h-2.4v2.4Z" fill="#FE3344"/><path d="M14.4 4.8h2.4V2.4h-2.4v2.4Zm-2.4 24h2.4v-2.401H12v2.4Z" fill="#000"/><path d="M12 26.4h2.4v-2.401H12v2.4Z" fill="#FE3344"/><path d="M12 23.998h2.4V21.6H12v2.398Z" fill="#FEFEFE"/><path d="M12 21.6h2.4v-2.4H12v2.4Zm0-2.4h2.4v-2.402H12V19.2Zm0-2.402h2.4V14.4H12v2.398Zm0-2.398h2.4v-2.401H12v2.4Z" fill="#FE3344"/><path d="M12 12h2.4V9.598H12v2.4Z" fill="#FE3344"/><path d="M12 9.599h2.4V7.2H12v2.4ZM12 7.2h2.4V4.8H12v2.4Zm0-2.4h2.4V2.4H12v2.4Z" fill="#FE3344"/><path d="M12 2.4h2.4V0H12v2.4Zm-2.402 24H12v-2.401H9.6v2.4Z" fill="#000"/><path d="M9.598 23.998H12V21.6H9.6v2.398Z" fill="#FE3344"/><path d="M9.598 21.6H12v-2.4H9.6v2.4Zm0-2.4H12v-2.402H9.6V19.2Z" fill="#FEFEFE"/><path d="M9.598 16.798H12V14.4H9.6v2.398Zm0-2.398H12v-2.401H9.6v2.4Z" fill="#FE3344"/><path d="M9.598 12H12V9.598H9.6v2.4Z" fill="#FE3344"/><path d="M9.598 9.599H12V7.2H9.6v2.4Zm0-2.399H12V4.8H9.6v2.4Z" fill="#FE3344"/><path d="M9.598 4.8H12V2.4H9.6v2.4Z" fill="#FEFEFE"/><path d="M9.598 2.4H12V0H9.6v2.4ZM7.2 23.998h2.398V21.6H7.2v2.398Z" fill="#000"/><path d="M7.2 21.6h2.398v-2.4H7.2v2.4Z" fill="#FE3344"/><path d="M7.2 19.2h2.398v-2.402H7.2V19.2Z" fill="#FEFEFE"/><path d="M7.2 16.798h2.398V14.4H7.2v2.398Zm0-2.398h2.398v-2.401H7.2v2.4Z" fill="#FEFEFE"/><path d="M7.2 12h2.398V9.598H7.2v2.4Z" fill="#FEFEFE"/><path d="M7.2 9.599h2.398V7.2H7.2v2.4Z" fill="#FEFEFE"/><path d="M7.2 7.2h2.398V4.8H7.2v2.4Zm0-2.4h2.398V2.4H7.2v2.4Z" fill="#FE3344"/><path d="M7.2 2.4h2.4V0H7.2v2.4ZM4.8 21.6h2.4v-2.4H4.8v2.4Z" fill="#000"/><path d="M4.8 19.2h2.4v-2.402H4.8V19.2Z" fill="#FE3344"/><path d="M4.8 16.798h2.4V14.4H4.8v2.398Zm0-2.398h2.4v-2.401H4.8v2.4Z" fill="#FEFEFE"/><path d="M4.8 12h2.4V9.598H4.8v2.4Z" fill="#FEFEFE"/><path d="M4.8 9.599h2.4V7.2H4.8v2.4Z" fill="#FEFEFE"/><path d="M4.8 7.2h2.4V4.8H4.8v2.4Z" fill="#FE3344"/><path d="M4.8 4.8h2.4V2.4H4.8v2.4ZM2.398 19.2H4.8v-2.402H2.4V19.2Z" fill="#000"/><path d="M2.398 16.798H4.8V14.4H2.4v2.398Zm0-2.398H4.8v-2.401H2.4v2.4Z" fill="#FE3344"/><path d="M2.398 12H4.8V9.598H2.4v2.4Z" fill="#FE3344"/><path d="M2.398 9.599H4.8V7.2H2.4v2.4Z" fill="#FE3344"/><path d="M2.398 7.2H4.8V4.8H2.4v2.4ZM0 16.798h2.398V14.4H0v2.398ZM0 14.4h2.398v-2.401H0v2.4Z" fill="#000"/><path d="M0 12h2.398V9.598H0v2.4Z" fill="#000"/><path d="M0 9.599h2.398V7.2H0v2.4Z" fill="#000"/></svg>