<svg width="250" height="87" fill="none" xmlns="http://www.w3.org/2000/svg"><path d="M239.416 65.453H10.334v3.443h229.082v-3.443Zm6.891-6.891h3.443V10.334h-3.443v48.228Zm-3.448-48.228h3.443V6.891h-3.443v3.443Zm-3.443 55.119h3.443V62.01h-3.443v3.443Zm3.443-3.448h3.443v-3.443h-3.443v3.443ZM210.137 72.34h3.443v-3.444h-3.443v3.443Zm3.438 3.448h3.443v-3.443h-3.443v3.443Zm0 3.442h3.443v-3.442h-3.443v3.443Zm3.448 3.444h3.443V79.23h-3.443v3.443Zm-6.886 3.448h3.443v-3.443h-3.443v3.443Z" fill="#000"/><path d="M213.575 86.122h3.443v-3.443h-3.443v3.443Zm-6.886 0h3.443v-3.443h-3.443v3.443Zm10.334 0h3.443v-3.443h-3.443v3.443Z" fill="#000"/><path d="m237.692 1.724 6.891 6.886v48.228l-6.891 6.891h-29.279v6.892l3.443 3.442v6.892h-6.891L194.631 70.62v-6.892H8.61l-6.891-6.891V8.61L8.61 1.724h229.082Z" fill="#BBA5EF"/><path d="M6.886 6.891H3.443v51.671h3.443V6.892Z" fill="#fff"/><path d="M3.443 6.891H0v51.671h3.443V6.892Z" fill="#663EC6"/><path d="M10.334 6.891H6.891v3.443h3.443V6.891Z" fill="#fff"/><path d="M6.886 3.443H3.443v3.443h3.443V3.443Z" fill="#663EC6"/><path d="M239.416 3.443H6.891v3.443h232.525V3.443Z" fill="#fff"/><path d="M239.416 0H6.891v3.443h232.525V0ZM6.886 58.562H3.443v3.443h3.443v-3.443Zm232.53 3.443H6.891v3.443h232.525v-3.443Zm3.443-3.443h3.443V6.892h-3.443v51.67Zm-3.443-51.671h3.443V3.448h-3.443v3.443Zm0 55.114h3.443v-3.443h-3.443v3.443Zm-32.727 6.892h3.443v-3.444h-3.443v3.444Z" fill="#663EC6"/><path d="M206.689 72.34h3.443v-3.444h-3.443v3.443Zm-13.777-3.443h3.443v-3.444h-3.443v3.444Z" fill="#663EC6"/><path d="M192.912 72.34h3.443v-3.444h-3.443v3.443Zm17.225 3.448h3.443v-3.443h-3.443v3.443Zm0 3.442h3.443v-3.442h-3.443v3.443Zm-3.448 3.444h3.443V79.23h-3.443v3.443Z" fill="#663EC6"/><path d="M210.137 82.674h3.443V79.23h-3.443v3.443Zm-6.896 0h3.443V79.23h-3.443v3.443Z" fill="#663EC6"/><path d="M199.803 79.23h3.443v-3.442h-3.443v3.443Zm-3.448-3.442h3.443v-3.443h-3.443v3.443Z" fill="#663EC6"/><path d="M196.355 68.897h10.334V58.562h-10.334v10.335Z" fill="#BBA5EF"/><path d="M213.575 82.674h3.443V79.23h-3.443v3.443Z" fill="#663EC6"/><path d="M81.143 41v-2.25h2.25V41h-2.25Zm-2.25-2.25V36.5h2.25v2.25h-2.25Zm-2.25-2.25v-2.25h2.25v2.25h-2.25Zm0-4.5v-2.25h2.25V32h-2.25Zm2.25-2.25V27.5h2.25v2.25h-2.25ZM72.143 41V25.25h2.25V32h2.25v2.25h-2.25V41h-2.25Zm9-13.5v-2.25h2.25v2.25h-2.25ZM92.393 41v-2.25h2.25V41h-2.25Zm-6.75 0v-4.5h2.25v2.25h2.25V41h-4.5Zm4.5-2.25V36.5h-2.25v-2.25h2.25V32h2.25v6.75h-2.25Zm-4.5-6.75v-2.25h4.5V32h-4.5Zm18 9v-2.25h4.5V41h-4.5Zm-2.25-2.25V36.5h2.25v2.25h-2.25Zm0-4.5V32h2.25v2.25h-2.25Zm-4.5 6.75V29.75h2.25v4.5h2.25v2.25h-2.25V41h-2.25Zm6.75-9v-2.25h4.5V32h-4.5Zm22.464 4.5V32h2.25v4.5h-2.25Zm-2.25 6.75V36.5h2.25v2.25h6.75V32h-4.5v-2.25h6.75v13.5h-2.25V41h-6.75v2.25h-2.25Zm15.75-2.25v-2.25h9V41h-9Zm-2.25-2.25V32h2.25v2.25h6.75v2.25h-6.75v2.25h-2.25Zm9-4.5V32h2.25v2.25h-2.25Zm-6.75-2.25v-2.25h6.75V32h-6.75Zm11.25 9v-2.25h2.25V41h-2.25Zm2.25-2.25v-4.5h2.25v4.5h-2.25Zm6.75 2.25v-9h-2.25v2.25h-2.25v-4.5h6.75V41h-2.25Zm11.25 0v-2.25h2.25V41h-2.25Zm-6.75 0v-4.5h2.25v2.25h2.25V41h-4.5Zm4.5-2.25V36.5h-2.25v-2.25h2.25V32h2.25v6.75h-2.25Zm-4.5-6.75v-2.25h4.5V32h-4.5Zm11.25 11.25V41h2.25v2.25h-2.25Zm0-4.5v-4.5h2.25v4.5h-2.25Zm2.25-4.5V32h2.25v2.25h-2.25Zm2.25-2.25v-2.25h2.25V32h-2.25Zm2.25-2.25V27.5h2.25v2.25h-2.25Zm-6.75-2.25v-2.25h6.75v2.25h-6.75Z" fill="#000"/></svg>