<svg width="156" height="87" fill="none" xmlns="http://www.w3.org/2000/svg"><path d="M144.684 65.448H10.334v3.443h134.35v-3.443Zm6.891-6.891h3.443V10.329h-3.443v48.228ZM3.443 6.886H0v3.443h3.443V6.886Zm141.241 58.562h3.443v-3.443h-3.443v3.443Zm3.443-3.443h3.443v-3.443h-3.443v3.443ZM36.17 82.674h-3.443v3.442h3.443v-3.442Zm-3.449 0h-3.443v3.442h3.443v-3.442Zm10.339 0h-3.442v3.442h3.443v-3.442Zm-3.447 0H36.17v3.442h3.443v-3.442Z" fill="#000"/><path d="M8.61 1.719 1.724 8.61v48.228l6.886 6.886h29.284v6.891l-3.443 3.448v6.886h6.886L51.67 70.615v-6.891h91.289l6.891-6.886V8.61l-6.891-6.891H8.61Z" fill="#BBA5EF"/><path d="M6.886 6.886H3.443v51.67h3.443V6.887Z" fill="#fff"/><path d="M148.127 58.562h3.443V6.892h-3.443v51.67Z" fill="#663EC6"/><path d="M10.334 6.886H6.891v3.443h3.443V6.886Z" fill="#fff"/><path d="M144.684 6.886h3.443V3.443h-3.443v3.443Z" fill="#663EC6"/><path d="M144.684 3.443H6.891v3.443h137.793V3.443Z" fill="#fff"/><path d="M6.886 3.443h137.793V0H6.886v3.443Zm137.798 58.562h3.443v-3.443h-3.443v3.443ZM6.886 65.448h137.793v-3.443H6.886v3.443ZM3.443 6.886H0v51.67h3.443V6.887Zm3.443-3.443H3.443v3.443h3.443V3.443Zm0 55.114H3.443V62h3.443v-3.443Zm32.727 6.891H36.17v3.443h3.443v-3.443Zm0 3.443H36.17v3.443h3.443v-3.443Zm13.782-3.443h-3.443v3.443h3.443v-3.443Z" fill="#663EC6"/><path d="M56.838 68.891h-3.443v3.443h3.443v-3.443ZM46.504 79.23H43.06v3.443h3.443v-3.442Zm3.443-3.448h-3.443v3.443h3.443v-3.443Zm3.448-3.442h-3.443v3.442h3.443V72.34Z" fill="#000"/><path d="M53.395 68.891h-3.443v3.443h3.443v-3.443ZM36.17 72.34h-3.443v3.442h3.443V72.34Z" fill="#663EC6"/><path d="M36.17 75.782h-3.443v3.443h3.443v-3.443Zm3.443 3.448H36.17v3.443h3.443v-3.442Zm-3.443 0h-3.443v3.443h3.443v-3.442Zm6.89 0h-3.442v3.443h3.443v-3.442Zm3.444-3.448H43.06v3.443h3.443v-3.443Zm3.443-3.442h-3.443v3.442h3.443V72.34Z" fill="#663EC6"/><path d="M49.952 58.557H39.618V68.89h10.334V58.557Z" fill="#BBA5EF"/><path d="M32.721 79.23h-3.443v3.443h3.443v-3.442Z" fill="#663EC6"/><path d="M116.254 27.31h3.788v3.788h-3.788V27.31Zm0 11.369h3.788v3.788h-3.788v-3.788Zm19.136-9.851v10.61h-1.518v6.08h-3.029v3.034h-3.034v1.511h-3.029v-3.029h3.029v-3.029h3.034V39.46h1.539V28.85h-1.539v-4.552h-3.034v-3.034h-3.029v-3.03h3.029v1.512h3.034v3.035h3.029v6.063l1.518-.015ZM20.25 41.586v-15.75H31.5v15.75h-2.25v-13.5H22.5v13.5h-2.25Zm22.5-2.25v-6.75H45v6.75h-2.25Zm-9 9v-18h9v2.25H36v6.75h6.75v2.25H36v6.75h-2.25Zm18-11.25v-2.25H54v2.25h-2.25Zm-4.5 4.5v-11.25h2.25v6.75h2.25v2.25H49.5v2.25h-2.25Zm9 0v-6.75H54v-2.25h2.25v-2.25h2.25v11.25h-2.25Zm13.5-2.25v-2.25H72v2.25h-2.25Zm0-4.5v-2.25H72v2.25h-2.25Zm-9 6.75v-11.25h9v2.25H63v2.25h6.75v2.25H63v2.25h6.75v2.25h-9Zm15.75 0v-2.25h9v2.25h-9Zm-2.25-2.25v-6.75h2.25v2.25h6.75v2.25H76.5v2.25h-2.25Zm9-4.5v-2.25h2.25v2.25h-2.25Zm-6.75-2.25v-2.25h6.75v2.25H76.5Zm15.75 9v-9h-4.5v-2.25H99v2.25h-4.5v9h-2.25Zm9 0v-2.25h2.25v2.25h-2.25Zm0-4.5v-11.25h2.25v11.25h-2.25Z" fill="#000"/></svg>