<?xml version="1.0" standalone="no"?>
<!DOCTYPE svg PUBLIC "-//W3C//DTD SVG 1.1//EN" "http://www.w3.org/Graphics/SVG/1.1/DTD/svg11.dtd" >
<svg xmlns="http://www.w3.org/2000/svg" xmlns:xlink="http://www.w3.org/1999/xlink" version="1.1">
<metadata>
Created by FontForge 20201107 at Wed Feb  6 11:12:06 2013
 By Jimmy Wärting
Copyright opipik 2012
</metadata>
<defs>
<font id="Opirus-OPIK" horiz-adv-x="384" >
  <font-face 
    font-family="Opirus OPIK"
    font-weight="400"
    font-stretch="normal"
    units-per-em="1024"
    panose-1="0 0 4 0 0 0 0 0 0 0"
    ascent="819"
    descent="-205"
    x-height="320"
    cap-height="448"
    bbox="-64 -384 576 832"
    underline-thickness="51"
    underline-position="77"
    unicode-range="U+0020-FF5A"
  />
<missing-glyph horiz-adv-x="192" 
d="M224 63v71h-72v-71h72zM295 146v72h-143v-72h143zM224 229v72h-72v-72h72zM295 313v70h-71q-30 0 -51 -20q-21 -21 -21 -50h143zM0 0v448h448v-448h-448z" />
    <glyph glyph-name=".notdef" horiz-adv-x="192" 
d="M224 63v71h-72v-71h72zM295 146v72h-143v-72h143zM224 229v72h-72v-72h72zM295 313v70h-71q-30 0 -51 -20q-21 -21 -21 -50h143zM0 0v448h448v-448h-448z" />
    <glyph glyph-name="glyph1" horiz-adv-x="0" 
 />
    <glyph glyph-name="glyph2" horiz-adv-x="383" 
 />
    <glyph glyph-name="space" unicode=" " horiz-adv-x="383" 
 />
    <glyph glyph-name="exclam" unicode="!" horiz-adv-x="128" 
d="M0 0v64h64v-64h-64zM0 128v320h64v-320h-64z" />
    <glyph glyph-name="quotedbl" unicode="&#x22;" horiz-adv-x="320" 
d="M0 0v64h64v-64h-64zM128 0v64h64v-64h-64zM64 64v64h64v-64h-64zM192 64v64h64v-64h-64z" />
    <glyph glyph-name="numbersign" unicode="#" 
d="M192 192v64h-64v-64h64zM0 0v192h64v64h-64v64h128v128h64v-128h64v128h64v-192h-64v-64h64v-64h-128v-128h-64v128h-64v-128h-64z" />
    <glyph glyph-name="dollar" unicode="$" 
d="M0 64v64h64v-64h-64zM256 256v128h64v-128h-64zM128 -128v128h-64v64h64v64h-64v64h64v256h128v-64h-64v-128h64v-64h-64v-192h64v-64h-64v-64h-64z" />
    <glyph glyph-name="percent" unicode="%" 
d="M0 0v64h64v-64h-64zM192 0v128h128v-128h-128zM64 64v128h64v-128h-64zM128 192v64h64v-64h-64zM192 256v128h64v-128h-64zM0 320v128h128v-128h-128zM256 384v64h64v-64h-64z" />
    <glyph glyph-name="ampersand" unicode="&#x26;" horiz-adv-x="512" 
d="M64 0v64h192v-64h-192zM256 64v64h64v-64h-64zM320 128v128h-64v64h192v-64h-64v-128h-64zM0 64v256h64v-64h64v64h-64v64h128v-192h-128v-128h-64z" />
    <glyph glyph-name="quotesingle" unicode="'" horiz-adv-x="128" 
d="M0 320v128h64v-128h-64z" />
    <glyph glyph-name="parenleft" unicode="(" horiz-adv-x="192" 
d="M64 0v64h64v-64h-64zM0 64v320h64v-320h-64zM64 384v64h64v-64h-64z" />
    <glyph glyph-name="parenright" unicode=")" horiz-adv-x="192" 
d="M0 0v64h64v-64h-64zM64 64v320h64v-320h-64zM0 384v64h64v-64h-64z" />
    <glyph glyph-name="asterisk" unicode="*" horiz-adv-x="256" 
d="M0 320v64h64v-64h-64zM128 320v64h64v-64h-64zM64 384v64h64v-64h-64zM0 448v64h64v-64h-64zM128 448v64h64v-64h-64z" />
    <glyph glyph-name="plus" unicode="+" horiz-adv-x="320" 
d="M128 128v64h-64v64h64v64h64v-64h64v-64h-64v-64h-64z" />
    <glyph glyph-name="comma" unicode="," horiz-adv-x="128" 
d="M0 -64v128h64v-128h-64z" />
    <glyph glyph-name="hyphen" unicode="-" horiz-adv-x="320" 
d="M64 128v64h192v-64h-192z" />
    <glyph glyph-name="period" unicode="." horiz-adv-x="128" 
d="M0 0v64h64v-64h-64z" />
    <glyph glyph-name="slash" unicode="/" 
d="M0 0v128h64v64h64v64h64v128h64v64h64v-128h-64v-128h-64v-64h-64v-64h-64v-64h-64z" />
    <glyph glyph-name="zero" unicode="0" 
d="M64 0v64h192v-64h-192zM0 64v320h64v-320h-64zM256 64v320h64v-320h-64zM64 384v64h192v-64h-192z" />
    <glyph glyph-name="one" unicode="1" horiz-adv-x="192" 
d="M64 0v384h-64v64h128v-448h-64z" />
    <glyph glyph-name="two" unicode="2" 
d="M0 0v128h64v-64h256v-64h-320zM64 128v64h64v-64h-64zM128 192v64h64v-64h-64zM192 256v64h64v-64h-64zM256 320v64h64v-64h-64zM0 384v64h256v-64h-256z" />
    <glyph glyph-name="three" unicode="3" 
d="M0 0v64h256v-64h-256zM256 64v128h64v-128h-64zM128 192v64h128v-64h-128zM256 256v128h64v-128h-64zM0 384v64h256v-64h-256z" />
    <glyph glyph-name="four" unicode="4" 
d="M64 320v64h64v-64h-64zM192 0v192h-192v128h64v-64h128v128h-64v64h128v-192h64v-64h-64v-192h-64z" />
    <glyph glyph-name="five" unicode="5" 
d="M0 0v64h256v-64h-256zM256 64v64h64v-64h-64zM192 128v64h64v-64h-64zM0 192v256h320v-64h-256v-128h128v-64h-192z" />
    <glyph glyph-name="six" unicode="6" 
d="M64 0v64h192v-64h-192zM256 64v128h64v-128h-64zM0 64v320h64v-128h192v-64h-192v-128h-64zM64 384v64h256v-64h-256z" />
    <glyph glyph-name="seven" unicode="7" 
d="M0 0v64h64v-64h-64zM64 64v64h64v-64h-64zM128 128v64h64v-64h-64zM192 192v64h64v-64h-64zM256 256v128h-256v64h320v-192h-64z" />
    <glyph glyph-name="eight" unicode="8" 
d="M0 0v192h64v-128h192v128h64v-192h-320zM64 192v64h192v-64h-192zM0 256v192h320v-192h-64v128h-192v-128h-64z" />
    <glyph glyph-name="nine" unicode="9" 
d="M0 0v64h256v-64h-256zM0 256v128h64v-128h-64zM256 64v128h-192v64h192v128h64v-320h-64zM64 384v64h192v-64h-192z" />
    <glyph glyph-name="colon" unicode=":" horiz-adv-x="128" 
d="M0 0v64h64v-64h-64zM0 128v64h64v-64h-64z" />
    <glyph glyph-name="semicolon" unicode=";" horiz-adv-x="128" 
d="M0 -64v128h64v-128h-64zM0 128v64h64v-64h-64z" />
    <glyph glyph-name="less" unicode="&#x3c;" horiz-adv-x="256" 
d="M64 64v64h128v-64h-128zM0 128v64h64v-64h-64zM64 192v64h128v-64h-128z" />
    <glyph glyph-name="equal" unicode="=" horiz-adv-x="320" 
d="M64 64v64h192v-64h-192zM64 192v64h192v-64h-192z" />
    <glyph glyph-name="greater" unicode="&#x3e;" horiz-adv-x="256" 
d="M0 64v64h128v-64h-128zM128 128v64h64v-64h-64zM0 192v64h128v-64h-128z" />
    <glyph glyph-name="question" unicode="?" horiz-adv-x="320" 
d="M0 -64v64h64v-64h-64zM0 64v128h64v-128h-64zM64 192v64h64v-64h-64zM128 256v64h64v-64h-64zM192 320v64h64v-64h-64zM0 384v64h192v-64h-192z" />
    <glyph glyph-name="at" unicode="@" horiz-adv-x="640" 
d="M64 0v64h448v-64h-448zM0 64v320h64v-320h-64zM128 128v128h64v-64h64v64h-64v64h128v-128h64v192h64v-256h-320zM64 384v64h320v-64h-320zM0 448v64h64v-64h-64zM512 64v448h64v-448h-64zM64 512v64h448v-64h-448z" />
    <glyph glyph-name="A" unicode="A" 
d="M0 0v320h64v64h64v-64h64v64h64v-64h64v-320h-64v256h-192v-256h-64zM128 384v64h64v-64h-64z" />
    <glyph glyph-name="B" unicode="B" 
d="M256 64v128h64v-128h-64zM256 256v128h64v-128h-64zM0 0v448h256v-64h-192v-128h192v-64h-192v-128h192v-64h-256z" />
    <glyph glyph-name="C" unicode="C" 
d="M64 0v64h256v-64h-256zM0 64v320h64v-320h-64zM64 384v64h256v-64h-256z" />
    <glyph glyph-name="D" unicode="D" 
d="M256 64v320h64v-320h-64zM0 0v448h256v-64h-192v-320h192v-64h-256z" />
    <glyph glyph-name="E" unicode="E" 
d="M0 0v448h320v-64h-256v-128h256v-64h-256v-128h256v-64h-320z" />
    <glyph glyph-name="F" unicode="F" 
d="M0 0v448h320v-64h-256v-128h256v-64h-256v-192h-64z" />
    <glyph glyph-name="G" unicode="G" 
d="M64 0v64h192v64h-64v64h128v-192h-256zM0 64v320h64v-320h-64zM64 384v64h256v-64h-256z" />
    <glyph glyph-name="H" unicode="H" 
d="M0 0v448h64v-192h192v192h64v-448h-64v192h-192v-192h-64z" />
    <glyph glyph-name="I" unicode="I" horiz-adv-x="128" 
d="M0 0v448h64v-448h-64z" />
    <glyph glyph-name="J" unicode="J" horiz-adv-x="192" 
d="M0 -320v64h64v-64h-64zM64 -256v704h64v-704h-64z" />
    <glyph glyph-name="K" unicode="K" 
d="M256 0v64h64v-64h-64zM192 64v64h64v-64h-64zM128 128v64h64v-64h-64zM128 256v64h64v-64h-64zM192 320v64h64v-64h-64zM0 0v448h64v-192h64v-64h-64v-192h-64zM256 384v64h64v-64h-64z" />
    <glyph glyph-name="L" unicode="L" 
d="M0 0v448h64v-384h256v-64h-320z" />
    <glyph glyph-name="M" unicode="M" 
d="M128 256v64h64v-64h-64zM0 0v448h64v-64h64v-64h-64v-320h-64zM256 0v320h-64v64h64v64h64v-448h-64z" />
    <glyph glyph-name="N" unicode="N" 
d="M128 256v64h64v-64h-64zM0 0v448h64v-64h64v-64h-64v-320h-64zM256 0v192h-64v64h64v192h64v-448h-64z" />
    <glyph glyph-name="O" unicode="O" 
d="M64 0v64h192v-64h-192zM0 64v320h64v-320h-64zM256 64v320h64v-320h-64zM64 384v64h192v-64h-192z" />
    <glyph glyph-name="P" unicode="P" 
d="M256 256v128h64v-128h-64zM0 0v448h256v-64h-192v-128h192v-64h-192v-192h-64z" />
    <glyph glyph-name="Q" unicode="Q" 
d="M192 -128v64h64v-64h-64zM256 -64v64h64v-64h-64zM64 0v64h192v-64h-192zM0 64v320h64v-320h-64zM256 64v320h64v-320h-64zM64 384v64h192v-64h-192z" />
    <glyph glyph-name="R" unicode="R" 
d="M192 0v64h128v-64h-128zM128 64v64h64v-64h-64zM256 256v128h64v-128h-64zM0 0v448h256v-64h-192v-128h192v-64h-128v-64h-64v-128h-64z" />
    <glyph glyph-name="S" unicode="S" 
d="M0 0v64h256v-64h-256zM256 64v64h64v-64h-64zM192 128v64h64v-64h-64zM128 192v64h64v-64h-64zM64 256v64h64v-64h-64zM0 320v64h64v-64h-64zM64 384v64h256v-64h-256z" />
    <glyph glyph-name="T" unicode="T" 
d="M128 0v384h-128v64h320v-64h-128v-384h-64z" />
    <glyph glyph-name="U" unicode="U" 
d="M64 0v64h192v-64h-192zM0 64v384h64v-384h-64zM256 64v384h64v-384h-64z" />
    <glyph glyph-name="V" unicode="V" 
d="M128 0v64h64v-64h-64zM64 64v64h64v-64h-64zM192 64v64h64v-64h-64zM0 128v320h64v-320h-64zM256 128v320h64v-320h-64z" />
    <glyph glyph-name="W" unicode="W" 
d="M64 0v64h64v-64h-64zM192 0v64h64v-64h-64zM0 64v384h64v-384h-64zM128 64v384h64v-384h-64zM256 64v384h64v-384h-64z" />
    <glyph glyph-name="X" unicode="X" 
d="M0 0v128h64v-128h-64zM256 0v128h64v-128h-64zM64 128v64h64v-64h-64zM192 128v64h64v-64h-64zM128 192v64h64v-64h-64zM64 256v64h64v-64h-64zM192 256v64h64v-64h-64zM0 320v128h64v-128h-64zM256 320v128h64v-128h-64z" />
    <glyph glyph-name="Y" unicode="Y" 
d="M128 0v320h64v-320h-64zM64 320v64h64v-64h-64zM192 320v64h64v-64h-64zM0 384v64h64v-64h-64zM256 384v64h64v-64h-64z" />
    <glyph glyph-name="Z" unicode="Z" 
d="M0 0v128h64v-64h256v-64h-320zM64 128v64h64v-64h-64zM128 192v64h64v-64h-64zM192 256v64h64v-64h-64zM256 320v64h-256v64h320v-128h-64z" />
    <glyph glyph-name="bracketleft" unicode="[" horiz-adv-x="192" 
d="M0 0v448h128v-64h-64v-320h64v-64h-128z" />
    <glyph glyph-name="backslash" unicode="\" 
d="M256 0v64h-64v64h-64v64h-64v128h-64v128h64v-64h64v-128h64v-64h64v-64h64v-128h-64z" />
    <glyph glyph-name="bracketright" unicode="]" horiz-adv-x="192" 
d="M0 0v64h64v320h-64v64h128v-448h-128z" />
    <glyph glyph-name="asciicircum" unicode="^" horiz-adv-x="320" 
d="M64 320v64h64v-64h-64zM192 320v64h64v-64h-64zM128 384v64h64v-64h-64z" />
    <glyph glyph-name="underscore" unicode="_" 
d="M0 -64v64h320v-64h-320z" />
    <glyph glyph-name="grave" unicode="`" horiz-adv-x="256" 
d="M128 320v64h64v-64h-64zM64 384v64h64v-64h-64z" />
    <glyph glyph-name="a" unicode="a" 
d="M256 0v64h64v-64h-64zM64 0v128h64v-64h64v-64h-128zM192 64v64h-64v64h64v64h64v-192h-64zM64 256v64h128v-64h-128z" />
    <glyph glyph-name="b" unicode="b" 
d="M128 0v64h128v-64h-128zM256 64v192h64v-192h-64zM128 256v64h128v-64h-128zM0 0v448h64v-192h64v-192h-64v-64h-64z" />
    <glyph glyph-name="c" unicode="c" 
d="M64 0v64h256v-64h-256zM0 64v192h64v-192h-64zM64 256v64h256v-64h-256z" />
    <glyph glyph-name="d" unicode="d" 
d="M64 0v64h128v-64h-128zM0 64v192h64v-192h-64zM256 0v64h-64v192h-128v64h192v128h64v-448h-64z" />
    <glyph glyph-name="e" unicode="e" 
d="M64 0v64h256v-64h-256zM0 64v192h64v-64h192v-64h-192v-64h-64zM256 192v64h64v-64h-64zM64 256v64h192v-64h-192z" />
    <glyph glyph-name="f" unicode="f" horiz-adv-x="256" 
d="M0 -320v704h64v-128h64v-64h-64v-512h-64zM64 384v64h128v-64h-128z" />
    <glyph glyph-name="g" unicode="g" 
d="M64 0v64h128v-64h-128zM0 64v192h64v-192h-64zM128 -320v64h128v320h-64v192h-128v64h192v-64h64v-576h-192z" />
    <glyph glyph-name="h" unicode="h" 
d="M256 0v256h64v-256h-64zM0 0v448h64v-128h192v-64h-192v-256h-64z" />
    <glyph glyph-name="i" unicode="i" horiz-adv-x="128" 
d="M0 0v320h64v-320h-64zM0 384v64h64v-64h-64z" />
    <glyph glyph-name="j" unicode="j" horiz-adv-x="192" 
d="M0 -192v64h64v-64h-64zM64 -128v448h64v-448h-64zM64 384v64h64v-64h-64z" />
    <glyph glyph-name="k" unicode="k" horiz-adv-x="320" 
d="M192 0v64h64v-64h-64zM128 64v64h64v-64h-64zM128 192v64h64v-64h-64zM192 256v64h64v-64h-64zM0 0v448h64v-256h64v-64h-64v-128h-64z" />
    <glyph glyph-name="l" unicode="l" horiz-adv-x="128" 
d="M0 0v448h64v-448h-64z" />
    <glyph glyph-name="m" unicode="m" 
d="M128 0v256h64v-256h-64zM256 0v256h64v-256h-64zM0 0v320h128v-64h-64v-256h-64zM192 256v64h64v-64h-64z" />
    <glyph glyph-name="n" unicode="n" 
d="M256 0v256h64v-256h-64zM0 0v320h64v-64h64v-64h-64v-192h-64zM128 256v64h128v-64h-128z" />
    <glyph glyph-name="o" unicode="o" 
d="M64 0v64h192v-64h-192zM0 64v192h64v-192h-64zM256 64v192h64v-192h-64zM64 256v64h192v-64h-192z" />
    <glyph glyph-name="p" unicode="p" 
d="M192 0v64h64v-64h-64zM128 64v64h64v-64h-64zM256 64v192h64v-192h-64zM0 -320v640h64v-64h64v-64h-64v-512h-64zM128 256v64h128v-64h-128z" />
    <glyph glyph-name="q" unicode="q" 
d="M64 0v64h64v-64h-64zM128 64v64h64v-64h-64zM0 64v192h64v-192h-64zM64 256v64h128v-64h-128zM256 -320v512h-64v64h64v64h64v-640h-64z" />
    <glyph glyph-name="r" unicode="r" 
d="M256 192v64h64v-64h-64zM0 0v320h64v-64h64v-64h-64v-192h-64zM128 256v64h128v-64h-128z" />
    <glyph glyph-name="s" unicode="s" 
d="M0 0v64h256v-64h-256zM256 64v64h64v-64h-64zM64 128v64h192v-64h-192zM0 192v64h64v-64h-64zM64 256v64h256v-64h-256z" />
    <glyph glyph-name="t" unicode="t" 
d="M64 0v64h192v-64h-192zM256 64v64h64v-64h-64zM0 64v384h64v-192h128v-64h-128v-128h-64z" />
    <glyph glyph-name="u" unicode="u" horiz-adv-x="448" 
d="M64 0v64h192v-64h-192zM320 0v64h64v-64h-64zM0 64v256h64v-256h-64zM256 64v256h64v-256h-64z" />
    <glyph glyph-name="v" unicode="v" 
d="M128 0v64h64v-64h-64zM64 64v64h64v-64h-64zM192 64v64h64v-64h-64zM0 128v192h64v-192h-64zM256 128v192h64v-192h-64z" />
    <glyph glyph-name="w" unicode="w" 
d="M64 0v64h64v-64h-64zM192 0v64h64v-64h-64zM128 64v64h64v-64h-64zM0 64v256h64v-256h-64zM256 64v256h64v-256h-64z" />
    <glyph glyph-name="x" unicode="x" 
d="M0 0v128h64v-128h-64zM256 0v128h64v-128h-64zM64 128v64h192v-64h-192zM0 192v128h64v-128h-64zM256 192v128h64v-128h-64z" />
    <glyph glyph-name="y" unicode="y" 
d="M0 64v256h64v-256h-64zM128 -320v192h64v-128h64v128h-64v64h64v64h-192v64h192v256h64v-640h-192z" />
    <glyph glyph-name="z" unicode="z" 
d="M0 0v128h64v-64h256v-64h-320zM64 128v64h192v-64h-192zM256 192v64h-256v64h320v-128h-64z" />
    <glyph glyph-name="braceleft" unicode="{" horiz-adv-x="256" 
d="M128 0v64h64v-64h-64zM64 64v128h-64v64h64v128h64v-320h-64zM128 384v64h64v-64h-64z" />
    <glyph glyph-name="bar" unicode="|" horiz-adv-x="192" 
d="M0 0v448h128v-448h-128z" />
    <glyph glyph-name="braceright" unicode="}" horiz-adv-x="256" 
d="M0 0v64h64v-64h-64zM64 64v320h64v-128h64v-64h-64v-128h-64zM0 384v64h64v-64h-64z" />
    <glyph glyph-name="asciitilde" unicode="~" 
d="M0 320v64h64v-64h-64zM128 320v64h128v-64h-128zM64 384v64h64v-64h-64zM256 384v64h64v-64h-64z" />
    <glyph glyph-name="exclamdown" unicode="&#xa1;" horiz-adv-x="128" 
d="M0 -320v320h64v-320h-64zM0 64v64h64v-64h-64z" />
    <glyph glyph-name="sterling" unicode="&#xa3;" 
d="M0 0v64h64v128h-64v64h64v128h64v-128h128v-64h-128v-128h192v-64h-320zM128 384v64h192v-64h-192z" />
    <glyph glyph-name="questiondown" unicode="&#xbf;" horiz-adv-x="320" 
d="M64 -320v64h192v-64h-192zM0 -256v64h64v-64h-64zM64 -192v64h64v-64h-64zM128 -128v128h64v-128h-64zM128 64v64h64v-64h-64z" />
    <glyph glyph-name="Agrave" unicode="&#xc0;" 
d="M0 0v320h64v64h64v-64h64v64h64v-64h64v-320h-64v256h-192v-256h-64zM128 384v64h64v-64h-64zM128 512v64h64v-64h-64zM64 576v64h64v-64h-64z" />
    <glyph glyph-name="Aacute" unicode="&#xc1;" 
d="M0 0v320h64v64h64v-64h64v64h64v-64h64v-320h-64v256h-192v-256h-64zM128 384v64h64v-64h-64zM128 512v64h64v-64h-64zM192 576v64h64v-64h-64z" />
    <glyph glyph-name="Acircumflex" unicode="&#xc2;" 
d="M0 0v320h64v64h64v-64h64v64h64v-64h64v-320h-64v256h-192v-256h-64zM128 384v64h64v-64h-64zM64 512v64h64v-64h-64zM192 512v64h64v-64h-64zM128 576v64h64v-64h-64z" />
    <glyph glyph-name="Atilde" unicode="&#xc3;" 
d="M0 0v320h64v64h64v-64h64v64h64v-64h64v-320h-64v256h-192v-256h-64zM128 384v64h64v-64h-64zM0 512v64h64v-64h-64zM128 512v64h128v-64h-128zM64 576v64h64v-64h-64zM256 576v64h64v-64h-64z" />
    <glyph glyph-name="Adieresis" unicode="&#xc4;" 
d="M0 0v320h64v64h64v-64h64v64h64v-64h64v-320h-64v256h-192v-256h-64zM128 384v64h64v-64h-64zM64 512v64h64v-64h-64zM192 512v64h64v-64h-64z" />
    <glyph glyph-name="Aring" unicode="&#xc5;" 
d="M0 0v320h64v64h64v-64h64v64h64v-64h64v-320h-64v256h-192v-256h-64zM128 384v64h64v-64h-64zM64 448v64h64v-64h-64zM192 448v64h64v-64h-64zM128 512v64h64v-64h-64z" />
    <glyph glyph-name="Ccedilla" unicode="&#xc7;" 
d="M128 -192v64h64v128h-128v64h256v-64h-64v-192h-128zM0 64v320h64v-320h-64zM64 384v64h256v-64h-256z" />
    <glyph glyph-name="Egrave" unicode="&#xc8;" 
d="M0 0v448h320v-64h-256v-128h256v-64h-256v-128h256v-64h-320zM128 512v64h64v-64h-64zM64 576v64h64v-64h-64z" />
    <glyph glyph-name="Eacute" unicode="&#xc9;" 
d="M0 0v448h320v-64h-256v-128h256v-64h-256v-128h256v-64h-320zM128 512v64h64v-64h-64zM192 576v64h64v-64h-64z" />
    <glyph glyph-name="Ecircumflex" unicode="&#xca;" 
d="M0 0v448h320v-64h-256v-128h256v-64h-256v-128h256v-64h-320zM64 512v64h64v-64h-64zM192 512v64h64v-64h-64zM128 576v64h64v-64h-64z" />
    <glyph glyph-name="Edieresis" unicode="&#xcb;" 
d="M0 0v448h320v-64h-256v-128h256v-64h-256v-128h256v-64h-320zM64 512v64h64v-64h-64zM192 512v64h64v-64h-64z" />
    <glyph glyph-name="Igrave" unicode="&#xcc;" horiz-adv-x="192" 
d="M64 0v448h64v-448h-64zM64 512v64h64v-64h-64zM0 576v64h64v-64h-64z" />
    <glyph glyph-name="Iacute" unicode="&#xcd;" horiz-adv-x="192" 
d="M0 0v448h64v-448h-64zM0 512v64h64v-64h-64zM64 576v64h64v-64h-64z" />
    <glyph glyph-name="Icircumflex" unicode="&#xce;" horiz-adv-x="256" 
d="M64 0v448h64v-448h-64zM0 512v64h64v-64h-64zM128 512v64h64v-64h-64zM64 576v64h64v-64h-64z" />
    <glyph glyph-name="Idieresis" unicode="&#xcf;" horiz-adv-x="256" 
d="M64 0v448h64v-448h-64zM0 512v64h64v-64h-64zM128 512v64h64v-64h-64z" />
    <glyph glyph-name="Eth" unicode="&#xd0;" 
d="M256 64v320h64v-320h-64zM0 0v192h-64v64h64v192h256v-64h-192v-128h64v-64h-64v-128h192v-64h-256z" />
    <glyph glyph-name="Ntilde" unicode="&#xd1;" 
d="M128 256v64h64v-64h-64zM0 0v448h64v-64h64v-64h-64v-320h-64zM256 0v192h-64v64h64v192h64v-448h-64zM0 512v64h64v-64h-64zM128 512v64h128v-64h-128zM64 576v64h64v-64h-64zM256 576v64h64v-64h-64z" />
    <glyph glyph-name="Ograve" unicode="&#xd2;" 
d="M64 0v64h192v-64h-192zM0 64v320h64v-320h-64zM256 64v320h64v-320h-64zM64 384v64h192v-64h-192zM128 512v64h64v-64h-64zM64 576v64h64v-64h-64z" />
    <glyph glyph-name="Oacute" unicode="&#xd3;" 
d="M64 0v64h192v-64h-192zM0 64v320h64v-320h-64zM256 64v320h64v-320h-64zM64 384v64h192v-64h-192zM128 512v64h64v-64h-64zM192 576v64h64v-64h-64z" />
    <glyph glyph-name="Ocircumflex" unicode="&#xd4;" 
d="M64 0v64h192v-64h-192zM0 64v320h64v-320h-64zM256 64v320h64v-320h-64zM64 384v64h192v-64h-192zM64 512v64h64v-64h-64zM192 512v64h64v-64h-64zM128 576v64h64v-64h-64z" />
    <glyph glyph-name="Otilde" unicode="&#xd5;" 
d="M64 0v64h192v-64h-192zM0 64v320h64v-320h-64zM256 64v320h64v-320h-64zM64 384v64h192v-64h-192zM0 512v64h64v-64h-64zM128 512v64h128v-64h-128zM64 576v64h64v-64h-64zM256 576v64h64v-64h-64z" />
    <glyph glyph-name="Odieresis" unicode="&#xd6;" 
d="M64 0v64h192v-64h-192zM0 64v320h64v-320h-64zM256 64v320h64v-320h-64zM64 384v64h192v-64h-192zM64 512v64h64v-64h-64zM192 512v64h64v-64h-64z" />
    <glyph glyph-name="multiply" unicode="&#xd7;" 
d="M0 0v64h64v-64h-64zM256 0v64h64v-64h-64zM64 64v64h64v-64h-64zM192 64v64h64v-64h-64zM128 128v64h64v-64h-64zM64 192v64h64v-64h-64zM192 192v64h64v-64h-64zM0 256v64h64v-64h-64zM256 256v64h64v-64h-64z" />
    <glyph glyph-name="Oslash" unicode="&#xd8;" 
d="M0 -64v448h64v-256h64v-64h128v-64h-192v-64h-64zM256 64v320h64v-320h-64zM128 128v256h-64v64h192v-64h-64v-256h-64zM256 448v64h64v-64h-64z" />
    <glyph glyph-name="Ugrave" unicode="&#xd9;" 
d="M64 0v64h192v-64h-192zM0 64v384h64v-384h-64zM256 64v384h64v-384h-64zM128 512v64h64v-64h-64zM64 576v64h64v-64h-64z" />
    <glyph glyph-name="Uacute" unicode="&#xda;" 
d="M64 0v64h192v-64h-192zM0 64v384h64v-384h-64zM256 64v384h64v-384h-64zM128 512v64h64v-64h-64zM192 576v64h64v-64h-64z" />
    <glyph glyph-name="Ucircumflex" unicode="&#xdb;" 
d="M64 0v64h192v-64h-192zM0 64v384h64v-384h-64zM256 64v384h64v-384h-64zM64 512v64h64v-64h-64zM192 512v64h64v-64h-64zM128 576v64h64v-64h-64z" />
    <glyph glyph-name="Udieresis" unicode="&#xdc;" 
d="M64 0v64h192v-64h-192zM0 64v384h64v-384h-64zM256 64v384h64v-384h-64zM64 512v64h64v-64h-64zM192 512v64h64v-64h-64z" />
    <glyph glyph-name="Yacute" unicode="&#xdd;" 
d="M128 0v320h64v-320h-64zM64 320v64h64v-64h-64zM192 320v64h64v-64h-64zM0 384v64h64v-64h-64zM256 384v64h64v-64h-64zM128 448v64h64v-64h-64zM64 512v64h64v-64h-64z" />
    <glyph glyph-name="Thorn" unicode="&#xde;" 
d="M192 128v64h64v-64h-64zM256 192v64h64v-64h-64zM192 256v64h64v-64h-64zM0 0v448h64v-64h128v-64h-128v-192h128v-64h-128v-64h-64z" />
    <glyph glyph-name="germandbls" unicode="&#xdf;" horiz-adv-x="320" 
d="M128 0v64h64v-64h-64zM192 64v128h64v-128h-64zM0 0v384h64v-384h-64zM128 192v128h64v64h64v-128h-64v-64h-64zM64 384v64h128v-64h-128z" />
    <glyph glyph-name="agrave" unicode="&#xe0;" 
d="M256 0v64h64v-64h-64zM64 0v128h64v-64h64v-64h-128zM192 64v64h-64v64h64v64h64v-192h-64zM64 256v64h128v-64h-128zM128 384v64h64v-64h-64zM64 448v64h64v-64h-64z" />
    <glyph glyph-name="aacute" unicode="&#xe1;" 
d="M256 0v64h64v-64h-64zM64 0v128h64v-64h64v-64h-128zM192 64v64h-64v64h64v64h64v-192h-64zM64 256v64h128v-64h-128zM64 384v64h64v-64h-64zM128 448v64h64v-64h-64z" />
    <glyph glyph-name="acircumflex" unicode="&#xe2;" 
d="M256 0v64h64v-64h-64zM64 0v128h64v-64h64v-64h-128zM192 64v64h-64v64h64v64h64v-192h-64zM64 256v64h128v-64h-128zM64 384v64h64v-64h-64zM192 384v64h64v-64h-64zM128 448v64h64v-64h-64z" />
    <glyph glyph-name="atilde" unicode="&#xe3;" 
d="M256 0v64h64v-64h-64zM64 0v128h64v-64h64v-64h-128zM192 64v64h-64v64h64v64h64v-192h-64zM64 256v64h128v-64h-128zM0 384v64h64v-64h-64zM128 384v64h128v-64h-128zM64 448v64h64v-64h-64zM256 448v64h64v-64h-64z" />
    <glyph glyph-name="adieresis" unicode="&#xe4;" 
d="M256 0v64h64v-64h-64zM64 0v128h64v-64h64v-64h-128zM192 64v64h-64v64h64v64h64v-192h-64zM64 256v64h128v-64h-128zM64 384v64h64v-64h-64zM192 384v64h64v-64h-64z" />
    <glyph glyph-name="aring" unicode="&#xe5;" 
d="M256 0v64h64v-64h-64zM64 0v128h64v-64h64v-64h-128zM192 64v64h-64v64h64v64h64v-192h-64zM64 256v128h64v-64h64v-64h-128zM192 320v64h64v-64h-64zM128 384v64h64v-64h-64z" />
    <glyph glyph-name="ccedilla" unicode="&#xe7;" 
d="M64 -128v64h64v64h-64v64h256v-64h-128v-128h-128zM0 64v192h64v-192h-64zM64 256v64h256v-64h-256z" />
    <glyph glyph-name="egrave" unicode="&#xe8;" 
d="M64 0v64h256v-64h-256zM0 64v192h64v-64h192v-64h-192v-64h-64zM256 192v64h64v-64h-64zM64 256v64h192v-64h-192zM128 384v64h64v-64h-64zM64 448v64h64v-64h-64z" />
    <glyph glyph-name="eacute" unicode="&#xe9;" 
d="M64 0v64h256v-64h-256zM0 64v192h64v-64h192v-64h-192v-64h-64zM256 192v64h64v-64h-64zM64 256v64h192v-64h-192zM128 384v64h64v-64h-64zM192 448v64h64v-64h-64z" />
    <glyph glyph-name="ecircumflex" unicode="&#xea;" 
d="M64 0v64h256v-64h-256zM0 64v192h64v-64h192v-64h-192v-64h-64zM256 192v64h64v-64h-64zM64 256v64h192v-64h-192zM64 384v64h64v-64h-64zM192 384v64h64v-64h-64zM128 448v64h64v-64h-64z" />
    <glyph glyph-name="edieresis" unicode="&#xeb;" 
d="M64 0v64h256v-64h-256zM0 64v192h64v-64h192v-64h-192v-64h-64zM256 192v64h64v-64h-64zM64 256v64h192v-64h-192zM64 384v64h64v-64h-64zM192 384v64h64v-64h-64z" />
    <glyph glyph-name="igrave" unicode="&#xec;" horiz-adv-x="192" 
d="M64 0v320h64v-320h-64zM64 384v64h64v-64h-64zM0 448v64h64v-64h-64z" />
    <glyph glyph-name="iacute" unicode="&#xed;" horiz-adv-x="192" 
d="M0 0v320h64v-320h-64zM0 384v64h64v-64h-64zM64 448v64h64v-64h-64z" />
    <glyph glyph-name="icircumflex" unicode="&#xee;" horiz-adv-x="256" 
d="M64 0v320h64v-320h-64zM0 384v64h64v-64h-64zM128 384v64h64v-64h-64zM64 448v64h64v-64h-64z" />
    <glyph glyph-name="idieresis" unicode="&#xef;" horiz-adv-x="256" 
d="M64 0v320h64v-320h-64zM0 384v64h64v-64h-64zM128 384v64h64v-64h-64z" />
    <glyph glyph-name="eth" unicode="&#xf0;" 
d="M64 0v64h192v-64h-192zM0 64v128h64v-128h-64zM256 64v128h-192v64h192v64h64v-256h-64zM128 320v64h-64v64h64v64h64v-64h64v-128h-128z" />
    <glyph glyph-name="ntilde" unicode="&#xf1;" 
d="M256 0v256h64v-256h-64zM0 0v320h64v-64h64v-64h-64v-192h-64zM128 256v64h128v-64h-128zM0 384v64h64v-64h-64zM128 384v64h128v-64h-128zM64 448v64h64v-64h-64zM256 448v64h64v-64h-64z" />
    <glyph glyph-name="ograve" unicode="&#xf2;" 
d="M64 0v64h192v-64h-192zM0 64v192h64v-192h-64zM256 64v192h64v-192h-64zM64 256v64h192v-64h-192zM128 384v64h64v-64h-64zM64 448v64h64v-64h-64z" />
    <glyph glyph-name="oacute" unicode="&#xf3;" 
d="M64 0v64h192v-64h-192zM0 64v192h64v-192h-64zM256 64v192h64v-192h-64zM64 256v64h192v-64h-192zM128 384v64h64v-64h-64zM192 448v64h64v-64h-64z" />
    <glyph glyph-name="ocircumflex" unicode="&#xf4;" 
d="M64 0v64h192v-64h-192zM0 64v192h64v-192h-64zM256 64v192h64v-192h-64zM64 256v64h192v-64h-192zM64 384v64h64v-64h-64zM192 384v64h64v-64h-64zM128 448v64h64v-64h-64z" />
    <glyph glyph-name="otilde" unicode="&#xf5;" 
d="M64 0v64h192v-64h-192zM0 64v192h64v-192h-64zM256 64v192h64v-192h-64zM64 256v64h192v-64h-192zM0 384v64h64v-64h-64zM128 384v64h128v-64h-128zM64 448v64h64v-64h-64zM256 448v64h64v-64h-64z" />
    <glyph glyph-name="odieresis" unicode="&#xf6;" 
d="M64 0v64h192v-64h-192zM0 64v192h64v-192h-64zM256 64v192h64v-192h-64zM64 256v64h192v-64h-192zM64 384v64h64v-64h-64zM192 384v64h64v-64h-64z" />
    <glyph glyph-name="divide" unicode="&#xf7;" 
d="M128 0v64h64v-64h-64zM0 128v64h320v-64h-320zM128 256v64h64v-64h-64z" />
    <glyph glyph-name="oslash" unicode="&#xf8;" 
d="M0 -128v128h64v-128h-64zM64 0v64h-64v192h64v-128h64v-64h128v-64h-192zM256 64v192h64v-192h-64zM128 128v128h-64v64h128v128h64v-192h-64v-128h-64z" />
    <glyph glyph-name="ugrave" unicode="&#xf9;" horiz-adv-x="448" 
d="M64 0v64h192v-64h-192zM320 0v64h64v-64h-64zM0 64v256h64v-256h-64zM256 64v256h64v-256h-64zM128 384v64h64v-64h-64zM64 448v64h64v-64h-64z" />
    <glyph glyph-name="uacute" unicode="&#xfa;" horiz-adv-x="448" 
d="M64 0v64h192v-64h-192zM320 0v64h64v-64h-64zM0 64v256h64v-256h-64zM256 64v256h64v-256h-64zM128 384v64h64v-64h-64zM192 448v64h64v-64h-64z" />
    <glyph glyph-name="ucircumflex" unicode="&#xfb;" horiz-adv-x="448" 
d="M64 0v64h192v-64h-192zM320 0v64h64v-64h-64zM0 64v256h64v-256h-64zM256 64v256h64v-256h-64zM64 384v64h64v-64h-64zM192 384v64h64v-64h-64zM128 448v64h64v-64h-64z" />
    <glyph glyph-name="udieresis" unicode="&#xfc;" horiz-adv-x="448" 
d="M64 0v64h192v-64h-192zM320 0v64h64v-64h-64zM0 64v256h64v-256h-64zM256 64v256h64v-256h-64zM64 384v64h64v-64h-64zM192 384v64h64v-64h-64z" />
    <glyph glyph-name="yacute" unicode="&#xfd;" 
d="M0 64v256h64v-256h-64zM128 -320v192h64v-128h64v128h-64v64h64v64h-192v64h192v256h64v-640h-192zM128 320v64h64v-64h-64zM192 384v64h64v-64h-64z" />
    <glyph glyph-name="thorn" unicode="&#xfe;" horiz-adv-x="320" 
d="M192 64v64h64v-64h-64zM0 -320v768h64v-256h128v-64h-128v-64h128v-64h-128v-320h-64z" />
    <glyph glyph-name="ydieresis" unicode="&#xff;" 
d="M0 64v256h64v-256h-64zM128 -320v192h64v-128h64v128h-64v64h64v64h-192v64h192v256h64v-640h-192zM0 384v64h64v-64h-64zM256 384v64h64v-64h-64z" />
    <glyph glyph-name="IJ" unicode="&#x132;" 
d="M64 0v64h192v-64h-192zM0 64v64h64v-64h-64zM0 192v256h64v-256h-64zM256 64v384h64v-384h-64z" />
    <glyph glyph-name="ij" unicode="&#x133;" 
d="M0 64v256h64v-256h-64zM128 -320v192h64v-128h64v128h-64v64h64v64h-192v64h192v256h64v-640h-192zM0 384v64h64v-64h-64zM256 384v64h64v-64h-64z" />
    <glyph glyph-name="Uring" unicode="&#x16e;" 
d="M64 0v64h192v-64h-192zM0 64v384h64v-384h-64zM256 64v384h64v-384h-64zM128 512v64h64v-64h-64zM64 576v64h64v-64h-64zM192 576v64h64v-64h-64zM128 640v64h64v-64h-64z" />
    <glyph glyph-name="uring" unicode="&#x16f;" horiz-adv-x="448" 
d="M64 0v64h192v-64h-192zM320 0v64h64v-64h-64zM0 64v256h64v-256h-64zM256 64v256h64v-256h-64zM128 384v64h64v-64h-64zM64 448v64h64v-64h-64zM192 448v64h64v-64h-64zM128 512v64h64v-64h-64z" />
    <glyph glyph-name="Ydieresis" unicode="&#x178;" 
d="M128 0v320h64v-320h-64zM64 320v64h64v-64h-64zM192 320v64h64v-64h-64zM0 384v64h64v-64h-64zM256 384v64h64v-64h-64zM64 512v64h64v-64h-64zM192 512v64h64v-64h-64z" />
    <glyph glyph-name="uni0189" unicode="&#x189;" 
d="M0 0v64h64v128h-64v64h64v128h-64v64h256v-64h-128v-128h128v128h64v-320h-64v128h-128v-128h128v-64h-256z" />
    <glyph glyph-name="uni0194" unicode="&#x194;" 
d="M128 -192v64h64v-64h-64zM64 -128v128h64v-128h-64zM192 -128v128h64v-128h-64zM128 0v64h64v-64h-64zM64 64v64h64v-64h-64zM192 64v64h64v-64h-64zM0 128v320h64v-320h-64zM256 128v320h64v-320h-64z" />
    <glyph glyph-name="uni01A2" unicode="&#x1a2;" horiz-adv-x="576" 
d="M128 -128v64h192v-64h-192zM320 -64v64h64v-64h-64zM64 0v64h192v-64h-192zM384 0v64h64v-64h-64zM0 64v320h64v-320h-64zM448 64v320h64v-320h-64zM256 64v320h-192v64h384v-64h-128v-320h-64z" />
    <glyph glyph-name="uni01A3" unicode="&#x1a3;" horiz-adv-x="576" 
d="M192 -128v64h128v-64h-128zM320 -64v64h64v-64h-64zM64 0v64h192v-64h-192zM384 0v64h64v-64h-64zM0 64v192h64v-192h-64zM448 64v192h64v-192h-64zM256 64v192h-192v64h384v-64h-128v-192h-64z" />
    <glyph glyph-name="uni01A6" unicode="&#x1a6;" horiz-adv-x="640" 
d="M384 -128v64h128v-64h-128zM320 -64v64h64v-64h-64zM512 -64v64h64v-64h-64zM256 0v64h64v-64h-64zM192 64v64h64v-64h-64zM128 128v128h128v-64h-64v-64h-64zM256 256v128h64v-128h-64zM0 0v512h64v-64h192v-64h-192v-384h-64z" />
    <glyph glyph-name="uni01A8" unicode="&#x1a8;" 
d="M64 0v64h256v-64h-256zM0 64v64h64v-64h-64zM64 128v64h192v-64h-192zM256 192v64h64v-64h-64zM0 256v64h256v-64h-256z" />
    <glyph glyph-name="uni01B2" unicode="&#x1b2;" 
d="M64 0v64h192v-64h-192zM256 64v320h64v-320h-64zM0 64v384h64v-384h-64zM128 384v64h128v-64h-128z" />
    <glyph glyph-name="uni01B5" unicode="&#x1b5;" 
d="M0 0v128h64v-64h256v-64h-320zM64 128v64h-64v64h192v64h64v-64h64v-64h-192v-64h-64zM256 320v64h-256v64h320v-128h-64z" />
    <glyph glyph-name="uni01B6" unicode="&#x1b6;" 
d="M0 0v192h256v64h-256v64h320v-192h-256v-64h256v-64h-320z" />
    <glyph glyph-name="uni021C" unicode="&#x21c;" horiz-adv-x="448" 
d="M0 0v448h320v-64h-256v-320h192v128h-64v64h192v-64h-64v-192h-320z" />
    <glyph glyph-name="uni021D" unicode="&#x21d;" 
d="M0 -320v64h128v-64h-128zM128 -256v64h64v-64h-64zM192 -192v64h64v-64h-64zM256 -128v192h64v-192h-64zM0 64v64h256v-64h-256zM256 128v128h64v-128h-64zM0 256v64h256v-64h-256z" />
    <glyph glyph-name="uni0237" unicode="&#x237;" horiz-adv-x="192" 
d="M0 -320v64h64v-64h-64zM64 -256v512h-64v64h128v-576h-64z" />
    <glyph glyph-name="uni0241" unicode="&#x241;" 
d="M0 0v128h64v-128h-64zM64 128v64h64v-64h-64zM128 192v64h64v-64h-64zM192 256v64h64v-64h-64zM256 320v64h64v-64h-64zM0 384v64h256v-64h-256z" />
    <glyph glyph-name="uni0242" unicode="&#x242;" 
d="M0 0v128h64v-128h-64zM64 128v64h192v-64h-192zM256 192v64h64v-64h-64zM0 256v64h256v-64h-256z" />
    <glyph glyph-name="uni0245" unicode="&#x245;" 
d="M0 0v320h64v-320h-64zM256 0v320h64v-320h-64zM64 320v64h64v-64h-64zM192 320v64h64v-64h-64zM128 384v64h64v-64h-64z" />
    <glyph glyph-name="uni024B" unicode="&#x24b;" 
d="M192 -320v192h64v-128h64v-64h-128zM0 64v192h64v-192h-64zM256 -128v128h-192v64h192v192h64v-384h-64zM64 256v64h192v-64h-192z" />
    <glyph glyph-name="uni0250" unicode="&#x250;" horiz-adv-x="320" 
d="M128 0v64h128v-64h-128zM64 64v192h64v-64h64v-64h-64v-64h-64zM0 256v64h64v-64h-64zM192 192v64h-64v64h128v-128h-64z" />
    <glyph glyph-name="uni0251" unicode="&#x251;" 
d="M0 64v192h64v-192h-64zM64 0v64h192v192h-192v64h256v-320h-256z" />
    <glyph glyph-name="uni0252" unicode="&#x252;" 
d="M256 64v192h64v-192h-64zM0 0v320h256v-64h-192v-192h192v-64h-256z" />
    <glyph glyph-name="uni0253" unicode="&#x253;" 
d="M128 0v64h128v-64h-128zM256 64v192h64v-192h-64zM128 256v64h128v-64h-128zM0 0v384h64v-128h64v-192h-64v-64h-64zM64 384v64h128v-64h-128z" />
    <glyph glyph-name="uni0254" unicode="&#x254;" 
d="M64 0v64h192v-64h-192zM0 64v64h64v-64h-64zM0 192v64h64v-64h-64zM256 64v192h64v-192h-64zM64 256v64h192v-64h-192z" />
    <glyph glyph-name="uni0255" unicode="&#x255;" 
d="M64 -64v128h64v64h64v-64h64v-64h-128v-64h-64zM256 64v64h64v-64h-64zM192 128v64h64v-64h-64zM0 64v192h64v-192h-64zM64 256v64h256v-64h-256z" />
    <glyph glyph-name="uni0256" unicode="&#x256;" horiz-adv-x="448" 
d="M320 -128v64h64v-64h-64zM64 0v64h128v-64h-128zM0 64v192h64v-192h-64zM64 256v64h128v-64h-128zM256 -64v128h-64v192h64v192h64v-512h-64z" />
    <glyph glyph-name="uni0257" unicode="&#x257;" horiz-adv-x="448" 
d="M64 0v64h128v-64h-128zM0 64v192h64v-192h-64zM64 256v64h128v-64h-128zM256 0v64h-64v192h64v128h64v-384h-64zM320 384v64h64v-64h-64z" />
    <glyph glyph-name="uni0258" unicode="&#x258;" 
d="M0 0v64h256v-64h-256zM0 192v64h64v-64h-64zM256 64v64h-192v64h192v64h64v-192h-64zM64 256v64h192v-64h-192z" />
    <glyph glyph-name="uni0259" unicode="&#x259;" 
d="M64 0v64h192v-64h-192zM0 64v64h64v-64h-64zM256 64v64h-192v64h192v64h64v-192h-64zM0 256v64h256v-64h-256z" />
    <glyph glyph-name="uni025A" unicode="&#x25a;" horiz-adv-x="576" 
d="M64 0v64h192v-64h-192zM0 64v64h64v-64h-64zM384 64v64h64v-64h-64zM448 128v64h64v-64h-64zM256 64v64h-192v64h192v64h64v-64h64v-64h-64v-64h-64zM0 256v64h256v-64h-256z" />
    <glyph glyph-name="uni025B" unicode="&#x25b;" 
d="M64 0v64h192v-64h-192zM0 64v64h64v-64h-64zM256 64v64h64v-64h-64zM64 128v64h64v-64h-64zM0 192v64h64v-64h-64zM256 192v64h64v-64h-64zM64 256v64h192v-64h-192z" />
    <glyph glyph-name="uni025C" unicode="&#x25c;" 
d="M64 0v64h192v-64h-192zM0 64v64h64v-64h-64zM256 64v64h64v-64h-64zM192 128v64h64v-64h-64zM0 192v64h64v-64h-64zM256 192v64h64v-64h-64zM64 256v64h192v-64h-192z" />
    <glyph glyph-name="uni025D" unicode="&#x25d;" horiz-adv-x="576" 
d="M64 0v64h192v-64h-192zM0 64v64h64v-64h-64zM256 64v64h64v-64h-64zM192 128v64h64v-64h-64zM0 192v64h64v-64h-64zM256 192v64h64v-64h-64zM384 192v64h64v-64h-64zM64 256v64h192v-64h-192zM320 256v64h64v-64h-64zM448 256v64h64v-64h-64z" />
    <glyph glyph-name="uni025E" unicode="&#x25e;" 
d="M64 0v64h192v-64h-192zM256 64v64h64v-64h-64zM192 128v64h64v-64h-64zM0 64v192h64v-192h-64zM256 192v64h64v-64h-64zM64 256v64h192v-64h-192z" />
    <glyph glyph-name="uni025F" unicode="&#x25f;" horiz-adv-x="256" 
d="M0 -192v64h64v-64h-64zM64 -128v192h-64v64h64v192h64v-192h64v-64h-64v-192h-64z" />
    <glyph glyph-name="uni0260" unicode="&#x260;" horiz-adv-x="448" 
d="M64 -320v64h192v-64h-192zM0 64v192h64v-192h-64zM256 -256v256h-192v64h192v192h-192v64h192v64h64v-640h-64zM320 384v64h64v-64h-64z" />
    <glyph glyph-name="uni0261" unicode="&#x261;" 
d="M64 -320v64h192v-64h-192zM0 64v192h64v-192h-64zM256 -256v256h-192v64h192v192h-192v64h256v-576h-64z" />
    <glyph glyph-name="uni0262" unicode="&#x262;" 
d="M64 0v64h192v64h-64v64h128v-192h-256zM0 64v192h64v-192h-64zM64 256v64h256v-64h-256z" />
    <glyph glyph-name="uni0263" unicode="&#x263;" 
d="M128 -192v64h64v-64h-64zM64 -128v128h64v-128h-64zM192 -128v128h64v-128h-64zM128 0v64h64v-64h-64zM64 64v192h64v-192h-64zM192 64v192h64v-192h-64zM0 256v64h64v-64h-64zM256 256v64h64v-64h-64z" />
    <glyph glyph-name="uni0264" unicode="&#x264;" horiz-adv-x="512" 
d="M192 0v64h64v-64h-64zM128 64v64h64v-64h-64zM256 64v64h64v-64h-64zM192 128v64h64v-64h-64zM0 192v64h64v-64h-64zM128 192v64h64v-64h-64zM256 192v64h64v-64h-64zM384 192v64h64v-64h-64zM64 256v64h64v-64h-64zM320 256v64h64v-64h-64z" />
    <glyph glyph-name="uni0265" unicode="&#x265;" horiz-adv-x="448" 
d="M0 64v256h64v-256h-64zM256 -320v320h-192v64h192v256h64v-576h64v-64h-128z" />
    <glyph glyph-name="uni0266" unicode="&#x266;" 
d="M256 0v256h64v-256h-64zM0 0v384h64v-64h192v-64h-192v-256h-64zM64 384v64h64v-64h-64z" />
    <glyph glyph-name="uni0267" unicode="&#x267;" 
d="M192 -192v64h64v-64h-64zM128 -128v64h64v-64h-64zM256 -128v384h64v-384h-64zM0 0v384h64v-64h192v-64h-192v-256h-64zM64 384v64h64v-64h-64z" />
    <glyph glyph-name="uni0268" unicode="&#x268;" horiz-adv-x="256" 
d="M64 0v128h-64v64h64v128h64v-128h64v-64h-64v-128h-64zM64 384v64h64v-64h-64z" />
    <glyph glyph-name="uni0269" unicode="&#x269;" horiz-adv-x="192" 
d="M64 0v64h64v-64h-64zM0 64v256h64v-256h-64z" />
    <glyph glyph-name="uni026A" unicode="&#x26a;" horiz-adv-x="256" 
d="M0 0v64h64v192h-64v64h192v-64h-64v-192h64v-64h-192z" />
    <glyph glyph-name="uni026B" unicode="&#x26b;" 
d="M0 128v64h64v-64h-64zM256 192v64h64v-64h-64zM128 0v192h-64v64h64v192h64v-256h64v-64h-64v-128h-64z" />
    <glyph glyph-name="uni026C" unicode="&#x26c;" horiz-adv-x="320" 
d="M0 192v64h64v-64h-64zM128 0v128h-64v64h64v64h-64v64h64v128h64v-256h64v-64h-64v-128h-64z" />
    <glyph glyph-name="uni026D" unicode="&#x26d;" horiz-adv-x="192" 
d="M64 -128v64h64v-64h-64zM0 -64v512h64v-512h-64z" />
    <glyph glyph-name="uni026E" unicode="&#x26e;" 
d="M64 -192v64h192v-64h-192zM0 -128v64h64v-64h-64zM256 -128v128h64v-128h-64zM192 0v64h64v-64h-64zM128 64v64h64v-64h-64zM192 128v64h64v-64h-64zM0 0v448h64v-128h256v-128h-64v64h-192v-256h-64z" />
    <glyph glyph-name="uni026F" unicode="&#x26f;" 
d="M64 0v64h64v-64h-64zM0 64v256h64v-256h-64zM128 64v256h64v-256h-64zM192 0v64h64v256h64v-320h-128z" />
    <glyph glyph-name="uni0270" unicode="&#x270;" 
d="M64 0v64h64v-64h-64zM0 64v256h64v-256h-64zM128 64v256h64v-256h-64zM256 -128v128h-64v64h64v256h64v-448h-64z" />
    <glyph glyph-name="uni0271" unicode="&#x271;" 
d="M128 -192v64h128v-64h-128zM64 -128v64h64v-64h-64zM128 0v256h64v-256h-64zM256 -128v384h64v-384h-64zM0 0v320h128v-64h-64v-256h-64zM192 256v64h64v-64h-64z" />
    <glyph glyph-name="uni0272" unicode="&#x272;" 
d="M0 -128v64h64v-64h-64zM256 0v256h64v-256h-64zM64 -64v384h192v-64h-128v-320h-64z" />
    <glyph glyph-name="uni0273" unicode="&#x273;" horiz-adv-x="448" 
d="M320 -128v64h64v-64h-64zM256 -64v320h64v-320h-64zM0 0v320h256v-64h-192v-256h-64z" />
    <glyph glyph-name="uni0274" unicode="&#x274;" 
d="M128 128v64h64v-64h-64zM0 0v320h64v-64h64v-64h-64v-192h-64zM256 0v64h-64v64h64v192h64v-320h-64z" />
    <glyph glyph-name="uni0275" unicode="&#x275;" 
d="M64 0v64h192v-64h-192zM0 64v192h64v-64h192v64h64v-192h-64v64h-192v-64h-64zM64 256v64h192v-64h-192z" />
    <glyph glyph-name="uni0276" unicode="&#x276;" 
d="M0 64v192h64v-192h-64zM64 0v64h64v192h-64v64h256v-64h-128v-64h64v-64h-64v-64h128v-64h-256z" />
    <glyph glyph-name="uni0277" unicode="&#x277;" 
d="M64 0v64h64v-64h-64zM192 0v64h64v-64h-64zM128 64v128h64v-128h-64zM0 64v192h64v-192h-64zM256 64v192h64v-192h-64zM64 256v64h192v-64h-192z" />
    <glyph glyph-name="uni0278" unicode="&#x278;" 
d="M0 64v192h64v-192h-64zM256 64v192h64v-192h-64zM128 -128v128h-64v64h64v192h-64v64h64v128h64v-128h64v-64h-64v-192h64v-64h-64v-128h-64z" />
    <glyph glyph-name="uni0279" unicode="&#x279;" 
d="M64 0v64h128v-64h-128zM0 64v64h64v-64h-64zM256 0v64h-64v64h64v192h64v-320h-64z" />
    <glyph glyph-name="uni027A" unicode="&#x27a;" 
d="M64 0v64h128v-64h-128zM0 64v64h64v-64h-64zM256 0v64h-64v64h64v320h64v-448h-64z" />
    <glyph glyph-name="uni027B" unicode="&#x27b;" horiz-adv-x="448" 
d="M320 -128v64h64v-64h-64zM64 0v64h128v-64h-128zM0 64v64h64v-64h-64zM256 -64v128h-64v64h64v192h64v-384h-64z" />
    <glyph glyph-name="uni027C" unicode="&#x27c;" 
d="M256 192v64h64v-64h-64zM0 -128v448h64v-64h64v-64h-64v-320h-64zM128 256v64h128v-64h-128z" />
    <glyph glyph-name="uni027D" unicode="&#x27d;" 
d="M64 -128v64h64v-64h-64zM256 192v64h64v-64h-64zM0 -64v384h64v-64h64v-64h-64v-256h-64zM128 256v64h128v-64h-128z" />
    <glyph glyph-name="uni027E" unicode="&#x27e;" horiz-adv-x="192" 
d="M0 0v256h64v-256h-64zM64 256v64h64v-64h-64z" />
    <glyph glyph-name="uni027F" unicode="&#x27f;" horiz-adv-x="192" 
d="M64 -128v384h64v-384h-64zM0 256v64h64v-64h-64z" />
    <glyph glyph-name="uni0280" unicode="&#x280;" 
d="M256 0v128h64v-128h-64zM256 192v64h64v-64h-64zM0 0v320h256v-64h-192v-64h192v-64h-192v-128h-64z" />
    <glyph glyph-name="uni0281" unicode="&#x281;" 
d="M256 64v64h64v-64h-64zM0 0v320h64v-128h192v-64h-192v-64h192v-64h-256zM256 192v128h64v-128h-64z" />
    <glyph glyph-name="uni0282" unicode="&#x282;" 
d="M64 -128v64h64v-64h-64zM0 -64v128h256v-64h-192v-64h-64zM256 64v64h64v-64h-64zM64 128v64h192v-64h-192zM0 192v64h64v-64h-64zM64 256v64h256v-64h-256z" />
    <glyph glyph-name="uni0283" unicode="&#x283;" horiz-adv-x="256" 
d="M0 -128v64h64v-64h-64zM64 -64v448h64v-448h-64zM128 384v64h64v-64h-64z" />
    <glyph glyph-name="uni0284" unicode="&#x284;" horiz-adv-x="256" 
d="M0 -128v64h64v-64h-64zM64 -64v128h-64v64h64v256h64v-256h64v-64h-64v-128h-64zM128 384v64h64v-64h-64z" />
    <glyph glyph-name="uni0285" unicode="&#x285;" horiz-adv-x="256" 
d="M128 -128v64h64v-64h-64zM64 -64v320h64v-320h-64zM0 256v64h64v-64h-64z" />
    <glyph glyph-name="uni0286" unicode="&#x286;" horiz-adv-x="320" 
d="M64 -128v64h64v-64h-64zM0 -64v64h64v-64h-64zM128 -64v64h-64v64h64v320h64v-320h64v-64h-64v-64h-64zM192 384v64h64v-64h-64z" />
    <glyph glyph-name="uni0287" unicode="&#x287;" horiz-adv-x="256" 
d="M64 0v64h-64v64h64v256h64v-256h64v-64h-64v-64h-64zM0 384v64h64v-64h-64z" />
    <glyph glyph-name="uni0288" unicode="&#x288;" horiz-adv-x="256" 
d="M64 -128v64h128v-64h-128zM0 -64v384h64v-128h128v-64h-128v-192h-64z" />
    <glyph glyph-name="uni0289" unicode="&#x289;" horiz-adv-x="448" 
d="M64 0v64h192v-64h-192zM320 0v64h64v-64h-64zM0 64v256h64v-256h-64zM256 64v256h64v-256h-64z" />
    <glyph glyph-name="uni028A" unicode="&#x28a;" 
d="M64 0v64h192v-64h-192zM0 64v128h64v-128h-64zM256 64v128h64v-128h-64zM64 192v64h-64v64h128v-128h-64zM192 192v128h128v-64h-64v-64h-64z" />
    <glyph glyph-name="uni028B" unicode="&#x28b;" 
d="M64 0v64h192v-64h-192zM256 64v192h64v-192h-64zM0 64v256h64v-256h-64zM192 256v64h64v-64h-64z" />
    <glyph glyph-name="uni028C" unicode="&#x28c;" 
d="M0 0v128h64v-128h-64zM256 0v128h64v-128h-64zM64 128v128h64v-128h-64zM192 128v128h64v-128h-64zM128 256v64h64v-64h-64z" />
    <glyph glyph-name="uni028D" unicode="&#x28d;" 
d="M0 0v256h64v-256h-64zM128 0v256h64v-256h-64zM256 0v256h64v-256h-64zM64 256v64h64v-64h-64zM192 256v64h64v-64h-64z" />
    <glyph glyph-name="uni028E" unicode="&#x28e;" 
d="M0 0v128h64v-128h-64zM256 0v128h64v-128h-64zM64 128v128h64v-128h-64zM192 128v128h64v-128h-64zM128 256v128h64v-128h-64zM192 384v64h128v-64h-128z" />
    <glyph glyph-name="uni028F" unicode="&#x28f;" 
d="M128 0v192h64v-192h-64zM64 192v64h64v-64h-64zM192 192v64h64v-64h-64zM0 256v64h64v-64h-64zM256 256v64h64v-64h-64z" />
    <glyph glyph-name="uni0290" unicode="&#x290;" horiz-adv-x="448" 
d="M320 -128v64h64v-64h-64zM256 -64v64h-256v64h64v64h64v-64h192v-128h-64zM128 128v64h64v-64h-64zM192 192v64h-192v64h320v-64h-64v-64h-64z" />
    <glyph glyph-name="uni0291" unicode="&#x291;" horiz-adv-x="512" 
d="M256 -64v64h-256v64h64v64h64v-64h128v64h64v-64h64v-64h-64v-64h-64zM384 64v64h64v-64h-64zM128 128v64h64v-64h-64zM320 128v64h64v-64h-64zM192 192v64h-192v64h320v-64h-64v-64h-64z" />
    <glyph glyph-name="uni0292" unicode="&#x292;" 
d="M64 -256v64h192v-64h-192zM0 -192v64h64v-64h-64zM256 -192v192h64v-192h-64zM128 0v64h128v-64h-128zM64 64v64h64v-64h-64zM128 128v64h64v-64h-64zM192 192v64h-192v64h320v-64h-64v-64h-64z" />
    <glyph glyph-name="uni0293" unicode="&#x293;" 
d="M0 -192v64h64v-64h-64zM128 -320v64h-64v64h64v64h64v-64h64v-64h-64v-64h-64zM64 -128v64h64v-64h-64zM256 -192v192h64v-192h-64zM128 0v64h128v-64h-128zM64 64v64h64v-64h-64zM128 128v64h64v-64h-64zM192 192v64h-192v64h320v-64h-64v-64h-64z" />
    <glyph glyph-name="uni0294" unicode="&#x294;" horiz-adv-x="256" 
d="M0 0v192h64v-192h-64zM64 192v64h64v-64h-64zM128 256v128h64v-128h-64zM0 384v64h128v-64h-128z" />
    <glyph glyph-name="uni0295" unicode="&#x295;" horiz-adv-x="256" 
d="M128 0v192h64v-192h-64zM64 192v64h64v-64h-64zM0 256v128h64v-128h-64zM64 384v64h128v-64h-128z" />
    <glyph glyph-name="uni0296" unicode="&#x296;" horiz-adv-x="256" 
d="M0 0v64h128v-64h-128zM128 64v128h64v-128h-64zM64 192v64h64v-64h-64zM0 256v192h64v-192h-64z" />
    <glyph glyph-name="uni0297" unicode="&#x297;" 
d="M64 -128v64h192v-64h-192zM256 -64v64h64v-64h-64zM0 -64v320h64v-320h-64zM256 192v64h64v-64h-64zM64 256v64h192v-64h-192z" />
    <glyph glyph-name="uni0298" unicode="&#x298;" 
d="M64 0v64h192v-64h-192zM0 64v320h64v-320h-64zM256 64v320h64v-320h-64zM64 384v64h192v-64h-192z" />
    <glyph glyph-name="uni0299" unicode="&#x299;" 
d="M256 64v64h64v-64h-64zM256 192v64h64v-64h-64zM0 0v320h256v-64h-192v-64h192v-64h-192v-64h192v-64h-256z" />
    <glyph glyph-name="uni029A" unicode="&#x29a;" 
d="M64 0v64h192v-64h-192zM0 64v64h64v-64h-64zM64 128v64h64v-64h-64zM0 192v64h64v-64h-64zM256 64v192h64v-192h-64zM64 256v64h192v-64h-192z" />
    <glyph glyph-name="uni029B" unicode="&#x29b;" 
d="M64 0v64h192v64h-64v64h128v-192h-256zM0 64v192h64v-192h-64zM64 256v64h256v-64h-256z" />
    <glyph glyph-name="uni029C" unicode="&#x29c;" 
d="M0 0v320h64v-128h192v128h64v-320h-64v128h-192v-128h-64z" />
    <glyph glyph-name="uni029D" unicode="&#x29d;" horiz-adv-x="256" 
d="M0 -256v64h64v-64h-64zM-64 -192v64h64v-64h-64zM64 -192v64h-64v64h64v384h64v-384h64v-64h-64v-64h-64zM64 384v64h64v-64h-64z" />
    <glyph glyph-name="uni029E" unicode="&#x29e;" 
d="M0 0v64h128v-64h-128zM128 64v64h64v-64h-64zM128 192v64h64v-64h-64zM0 256v64h128v-64h-128zM256 -128v256h-64v64h64v128h64v-448h-64z" />
    <glyph glyph-name="uni029F" unicode="&#x29f;" 
d="M0 0v320h64v-256h256v-64h-320z" />
    <glyph glyph-name="uni02A0" unicode="&#x2a0;" horiz-adv-x="448" 
d="M64 0v64h128v-64h-128zM0 64v192h64v-192h-64zM64 256v64h128v-64h-128zM256 -128v192h-64v192h64v128h64v-512h-64zM320 384v64h64v-64h-64z" />
    <glyph glyph-name="uni02A1" unicode="&#x2a1;" horiz-adv-x="256" 
d="M0 0v64h-64v64h64v64h64v-64h64v-64h-64v-64h-64zM64 192v64h64v-64h-64zM128 256v128h64v-128h-64zM0 384v64h128v-64h-128z" />
    <glyph glyph-name="uni02A2" unicode="&#x2a2;" horiz-adv-x="320" 
d="M128 0v64h-64v64h64v64h64v-64h64v-64h-64v-64h-64zM64 192v64h64v-64h-64zM0 256v128h64v-128h-64zM64 384v64h128v-64h-128z" />
    <glyph glyph-name="uni02A3" unicode="&#x2a3;" horiz-adv-x="448" 
d="M0 64v192h64v-192h-64zM64 0v64h64v192h-64v64h64v128h64v-128h192v-128h-64v64h-128v-192h64v128h64v-128h64v-64h-320z" />
    <glyph glyph-name="uni02A4" unicode="&#x2a4;" horiz-adv-x="448" 
d="M64 -192v64h256v-64h-256zM0 -128v64h64v-64h-64zM320 -128v192h64v-192h-64zM256 64v64h64v-64h-64zM0 64v192h64v-192h-64zM64 0v64h64v192h-64v64h64v128h64v-128h192v-192h-64v128h-128v-256h-128z" />
    <glyph glyph-name="uni02A5" unicode="&#x2a5;" horiz-adv-x="640" 
d="M512 64v64h64v-64h-64zM448 128v64h64v-64h-64zM0 64v192h64v-192h-64zM384 -64v64h-320v64h64v192h-64v64h64v128h64v-128h192v-128h-64v64h-128v-192h64v128h64v-128h64v64h64v-64h64v-64h-64v-64h-64z" />
    <glyph glyph-name="uni02A6" unicode="&#x2a6;" 
d="M64 0v64h192v-64h-192zM256 64v64h64v-64h-64zM192 128v64h64v-64h-64zM192 256v64h128v-64h-128zM0 64v384h64v-192h128v-64h-128v-128h-64z" />
    <glyph glyph-name="uni02A7" unicode="&#x2a7;" 
d="M128 -128v64h64v-64h-64zM192 -64v64h-128v64h128v192h-128v-192h-64v384h64v-128h128v64h64v-448h-64zM256 384v64h64v-64h-64z" />
    <glyph glyph-name="uni02A8" unicode="&#x2a8;" horiz-adv-x="512" 
d="M64 0v64h64v-64h-64zM256 -64v64h-64v64h64v64h64v-64h64v-64h-64v-64h-64zM384 64v64h64v-64h-64zM320 128v64h64v-64h-64zM128 64v192h64v-192h-64zM192 256v64h128v-64h-128zM0 64v384h64v-128h64v-64h-64v-192h-64z" />
    <glyph glyph-name="uni02A9" unicode="&#x2a9;" 
d="M64 -128v64h192v-64h-192zM128 0v256h64v-256h-64zM256 -64v320h64v-320h-64zM192 256v64h64v-64h-64zM0 0v384h64v-64h64v-64h-64v-256h-64zM64 384v64h64v-64h-64z" />
    <glyph glyph-name="uni02AA" unicode="&#x2aa;" 
d="M256 64v64h64v-64h-64zM192 128v64h64v-64h-64zM128 192v64h64v-64h-64zM192 256v64h128v-64h-128zM0 0v448h64v-384h192v-64h-256z" />
    <glyph glyph-name="uni02AB" unicode="&#x2ab;" 
d="M128 128v64h64v-64h-64zM0 0v448h64v-128h256v-64h-64v-64h-64v64h-128v-128h64v-64h192v-64h-320z" />
    <glyph glyph-name="uni02AC" unicode="&#x2ac;" 
d="M64 0v64h64v-64h-64zM192 0v64h64v-64h-64zM0 64v64h64v-64h-64zM128 64v64h64v-64h-64zM256 64v64h64v-64h-64zM64 192v64h64v-64h-64zM192 192v64h64v-64h-64zM0 256v64h64v-64h-64zM128 256v64h64v-64h-64zM256 256v64h64v-64h-64z" />
    <glyph glyph-name="uni02AD" unicode="&#x2ad;" 
d="M0 0v128h320v-128h-64v64h-192v-64h-64zM0 192v128h320v-128h-64v64h-192v-64h-64z" />
    <glyph glyph-name="uni02AE" unicode="&#x2ae;" 
d="M64 64v192h64v-192h-64zM0 256v64h64v-64h-64zM256 -192v192h-128v64h128v256h64v-512h-64z" />
    <glyph glyph-name="uni02AF" unicode="&#x2af;" horiz-adv-x="448" 
d="M320 -128v64h64v-64h-64zM64 64v192h64v-192h-64zM0 256v64h64v-64h-64zM256 -64v64h-128v64h128v256h64v-384h-64z" />
    <glyph glyph-name="uni03D7" unicode="&#x3d7;" 
d="M0 0v64h64v-64h-64zM128 -128v64h128v128h64v-192h-192zM64 64v128h-64v64h128v-64h64v64h64v-192h-64v64h-64v-64h-64z" />
    <glyph glyph-name="uni03EB" unicode="&#x3eb;" 
d="M0 0v64h64v64h64v-64h64v64h64v-64h64v-64h-320zM128 128v64h64v-64h-64zM64 192v64h64v-64h-64zM192 192v64h64v-64h-64zM0 256v64h64v-64h-64zM256 256v64h64v-64h-64z" />
    <glyph glyph-name="uni0400" unicode="&#x400;" 
d="M0 0v448h320v-64h-256v-128h256v-64h-256v-128h256v-64h-320zM128 512v64h64v-64h-64zM64 576v64h64v-64h-64z" />
    <glyph glyph-name="uni0401" unicode="&#x401;" 
d="M0 0v448h320v-64h-256v-128h256v-64h-256v-128h256v-64h-320zM64 512v64h64v-64h-64zM192 512v64h64v-64h-64z" />
    <glyph glyph-name="uni0402" unicode="&#x402;" horiz-adv-x="448" 
d="M256 -128v64h64v-64h-64zM320 -64v320h64v-320h-64zM128 0v384h-128v64h320v-64h-128v-64h128v-64h-128v-256h-64z" />
    <glyph glyph-name="uni0403" unicode="&#x403;" 
d="M0 0v448h320v-64h-256v-384h-64zM128 512v64h64v-64h-64zM64 576v64h64v-64h-64z" />
    <glyph glyph-name="uni0404" unicode="&#x404;" 
d="M64 0v64h256v-64h-256zM0 64v320h64v-128h128v-64h-128v-128h-64zM64 384v64h256v-64h-256z" />
    <glyph glyph-name="uni0405" unicode="&#x405;" 
d="M0 0v64h256v-64h-256zM256 64v64h64v-64h-64zM192 128v64h64v-64h-64zM128 192v64h64v-64h-64zM64 256v64h64v-64h-64zM0 320v64h64v-64h-64zM256 320v64h64v-64h-64zM64 384v64h192v-64h-192z" />
    <glyph glyph-name="uni0406" unicode="&#x406;" horiz-adv-x="128" 
d="M0 0v448h64v-448h-64z" />
    <glyph glyph-name="uni0407" unicode="&#x407;" horiz-adv-x="192" 
d="M64 0v448h64v-448h-64zM0 512v64h64v-64h-64zM128 512v64h64v-64h-64z" />
    <glyph glyph-name="uni0408" unicode="&#x408;" horiz-adv-x="192" 
d="M0 -256v64h64v-64h-64zM64 -192v640h64v-640h-64z" />
    <glyph glyph-name="uni0409" unicode="&#x409;" 
d="M256 64v128h64v-128h-64zM0 0v384h64v-384h-64zM128 0v384h-64v64h128v-192h64v-64h-64v-128h64v-64h-128z" />
    <glyph glyph-name="uni040A" unicode="&#x40a;" 
d="M256 64v128h64v-128h-64zM0 0v448h64v-192h64v192h64v-192h64v-64h-64v-128h64v-64h-128v192h-64v-192h-64z" />
    <glyph glyph-name="uni040B" unicode="&#x40b;" horiz-adv-x="448" 
d="M320 0v192h64v-192h-64zM64 0v384h-128v64h384v-64h-192v-128h192v-64h-192v-192h-64z" />
    <glyph glyph-name="uni040C" unicode="&#x40c;" 
d="M256 0v64h64v-64h-64zM192 64v64h64v-64h-64zM128 128v64h64v-64h-64zM128 256v64h64v-64h-64zM192 320v64h64v-64h-64zM0 0v448h64v-192h64v-64h-64v-192h-64zM256 384v64h64v-64h-64zM128 512v64h64v-64h-64zM192 576v64h64v-64h-64z" />
    <glyph glyph-name="uni040D" unicode="&#x40d;" 
d="M128 192v64h64v-64h-64zM0 0v448h64v-256h64v-128h-64v-64h-64zM256 0v256h-64v128h64v64h64v-448h-64zM128 512v64h64v-64h-64zM64 576v64h64v-64h-64z" />
    <glyph glyph-name="uni040E" unicode="&#x40e;" 
d="M0 0v64h192v-64h-192zM192 64v192h64v-192h-64zM128 256v64h64v-64h-64zM64 320v64h64v-64h-64zM0 384v64h64v-64h-64zM256 256v192h64v-192h-64zM128 512v64h128v-64h-128zM64 576v64h64v-64h-64zM256 576v64h64v-64h-64z" />
    <glyph glyph-name="uni040F" unicode="&#x40f;" 
d="M128 -128v128h-128v448h64v-384h192v384h64v-448h-128v-128h-64z" />
    <glyph glyph-name="uni0410" unicode="&#x410;" 
d="M0 0v320h64v-64h192v64h64v-320h-64v192h-192v-192h-64zM64 320v64h64v-64h-64zM192 320v64h64v-64h-64zM128 384v64h64v-64h-64z" />
    <glyph glyph-name="uni0411" unicode="&#x411;" 
d="M256 64v192h64v-192h-64zM0 0v448h320v-64h-256v-64h192v-64h-192v-192h192v-64h-256z" />
    <glyph glyph-name="uni0412" unicode="&#x412;" 
d="M256 64v128h64v-128h-64zM256 256v128h64v-128h-64zM0 0v448h256v-64h-192v-128h192v-64h-192v-128h192v-64h-256z" />
    <glyph glyph-name="uni0413" unicode="&#x413;" 
d="M0 0v448h320v-64h-256v-384h-64z" />
    <glyph glyph-name="uni0414" unicode="&#x414;" 
d="M0 0v256h64v-128h192v256h-128v-128h-64v192h256v-448h-64v64h-192v-64h-64z" />
    <glyph glyph-name="uni0415" unicode="&#x415;" 
d="M0 0v448h320v-64h-256v-128h256v-64h-256v-128h256v-64h-320z" />
    <glyph glyph-name="uni0416" unicode="&#x416;" 
d="M0 0v192h64v-192h-64zM256 0v192h64v-192h-64zM0 256v192h64v-192h-64zM128 0v192h-64v64h64v192h64v-192h64v-64h-64v-192h-64zM256 256v192h64v-192h-64z" />
    <glyph glyph-name="uni0417" unicode="&#x417;" 
d="M64 0v64h192v-64h-192zM0 64v64h64v-64h-64zM256 64v128h64v-128h-64zM192 192v64h64v-64h-64zM0 320v64h64v-64h-64zM256 256v128h64v-128h-64zM64 384v64h192v-64h-192z" />
    <glyph glyph-name="uni0418" unicode="&#x418;" 
d="M128 192v64h64v-64h-64zM0 0v448h64v-256h64v-128h-64v-64h-64zM256 0v256h-64v128h64v64h64v-448h-64z" />
    <glyph glyph-name="uni0419" unicode="&#x419;" 
d="M128 192v64h64v-64h-64zM0 0v448h64v-256h64v-128h-64v-64h-64zM256 0v256h-64v128h64v64h64v-448h-64zM128 512v64h128v-64h-128zM64 576v64h64v-64h-64zM256 576v64h64v-64h-64z" />
    <glyph glyph-name="uni041A" unicode="&#x41a;" 
d="M256 0v64h64v-64h-64zM192 64v64h64v-64h-64zM128 128v64h64v-64h-64zM128 256v64h64v-64h-64zM192 320v64h64v-64h-64zM0 0v448h64v-192h64v-64h-64v-192h-64zM256 384v64h64v-64h-64z" />
    <glyph glyph-name="uni041B" unicode="&#x41b;" 
d="M0 0v64h64v-64h-64zM64 64v128h64v-128h-64zM256 0v384h-64v-192h-64v256h192v-448h-64z" />
    <glyph glyph-name="uni041C" unicode="&#x41c;" 
d="M128 256v64h64v-64h-64zM0 0v448h64v-64h64v-64h-64v-320h-64zM256 0v320h-64v64h64v64h64v-448h-64z" />
    <glyph glyph-name="uni041D" unicode="&#x41d;" 
d="M0 0v448h64v-192h192v192h64v-448h-64v192h-192v-192h-64z" />
    <glyph glyph-name="uni041E" unicode="&#x41e;" 
d="M64 0v64h192v-64h-192zM0 64v320h64v-320h-64zM256 64v320h64v-320h-64zM64 384v64h192v-64h-192z" />
    <glyph glyph-name="uni041F" unicode="&#x41f;" 
d="M0 0v448h320v-448h-64v384h-192v-384h-64z" />
    <glyph glyph-name="uni0420" unicode="&#x420;" 
d="M256 256v128h64v-128h-64zM0 0v448h256v-64h-192v-128h192v-64h-192v-192h-64z" />
    <glyph glyph-name="uni0421" unicode="&#x421;" 
d="M64 0v64h192v-64h-192zM256 64v64h64v-64h-64zM0 64v320h64v-320h-64zM256 320v64h64v-64h-64zM64 384v64h192v-64h-192z" />
    <glyph glyph-name="uni0422" unicode="&#x422;" 
d="M128 0v384h-128v64h320v-64h-128v-384h-64z" />
    <glyph glyph-name="uni0423" unicode="&#x423;" 
d="M0 0v64h192v-64h-192zM192 64v192h64v-192h-64zM128 256v64h64v-64h-64zM64 320v64h64v-64h-64zM0 384v64h64v-64h-64zM256 256v192h64v-192h-64z" />
    <glyph glyph-name="uni0424" unicode="&#x424;" 
d="M0 192v192h64v-192h-64zM256 192v192h64v-192h-64zM128 0v128h-64v64h64v192h-64v64h64v64h64v-64h64v-64h-64v-192h64v-64h-64v-128h-64z" />
    <glyph glyph-name="uni0425" unicode="&#x425;" 
d="M0 0v64h64v-64h-64zM256 0v64h64v-64h-64zM64 64v128h64v-128h-64zM192 64v128h64v-128h-64zM128 192v64h64v-64h-64zM64 256v128h64v-128h-64zM192 256v128h64v-128h-64zM0 384v64h64v-64h-64zM256 384v64h64v-64h-64z" />
    <glyph glyph-name="uni0426" unicode="&#x426;" horiz-adv-x="448" 
d="M320 -64v64h-320v448h64v-384h192v384h64v-384h64v-128h-64z" />
    <glyph glyph-name="uni0427" unicode="&#x427;" 
d="M0 256v192h64v-192h-64zM256 0v192h-192v64h192v192h64v-448h-64z" />
    <glyph glyph-name="uni0428" unicode="&#x428;" 
d="M0 0v448h64v-384h64v384h64v-384h64v384h64v-448h-320z" />
    <glyph glyph-name="uni0429" unicode="&#x429;" horiz-adv-x="448" 
d="M320 -64v64h-320v448h64v-384h64v384h64v-384h64v384h64v-384h64v-128h-64z" />
    <glyph glyph-name="uni042A" unicode="&#x42a;" 
d="M256 64v128h64v-128h-64zM128 0v384h-128v64h192v-192h64v-64h-64v-128h64v-64h-128z" />
    <glyph glyph-name="uni042B" unicode="&#x42b;" 
d="M128 64v128h64v-128h-64zM0 0v448h64v-192h64v-64h-64v-128h64v-64h-128zM256 0v448h64v-448h-64z" />
    <glyph glyph-name="uni042C" unicode="&#x42c;" 
d="M256 64v128h64v-128h-64zM0 0v448h64v-192h192v-64h-192v-128h192v-64h-256z" />
    <glyph glyph-name="uni042D" unicode="&#x42d;" 
d="M0 0v64h256v-64h-256zM256 64v128h-128v64h128v128h64v-320h-64zM0 384v64h256v-64h-256z" />
    <glyph glyph-name="uni042E" unicode="&#x42e;" 
d="M192 0v64h64v-64h-64zM256 64v320h64v-320h-64zM0 0v448h64v-192h64v128h64v-320h-64v128h-64v-192h-64zM192 384v64h64v-64h-64z" />
    <glyph glyph-name="uni042F" unicode="&#x42f;" 
d="M0 0v64h64v-64h-64zM64 64v64h64v-64h-64zM0 256v128h64v-128h-64zM256 0v192h-64v-64h-64v64h-64v64h192v128h-192v64h256v-448h-64z" />
    <glyph glyph-name="uni0430" unicode="&#x430;" horiz-adv-x="320" 
d="M192 0v64h64v-64h-64zM0 0v128h64v-64h64v-64h-128zM128 64v64h-64v64h64v64h64v-192h-64zM0 256v64h128v-64h-128z" />
    <glyph glyph-name="uni0431" unicode="&#x431;" 
d="M64 0v64h192v-64h-192zM256 64v192h64v-192h-64zM0 64v320h64v-64h192v-64h-192v-192h-64zM64 384v64h256v-64h-256z" />
    <glyph glyph-name="uni0432" unicode="&#x432;" 
d="M256 64v64h64v-64h-64zM256 192v64h64v-64h-64zM0 0v320h256v-64h-192v-64h192v-64h-192v-64h192v-64h-256z" />
    <glyph glyph-name="uni0433" unicode="&#x433;" 
d="M0 0v320h320v-64h-256v-256h-64z" />
    <glyph glyph-name="uni0434" unicode="&#x434;" 
d="M64 128v128h64v-128h-64zM0 -64v192h64v-64h192v192h-128v64h192v-384h-64v64h-192v-64h-64z" />
    <glyph glyph-name="uni0435" unicode="&#x435;" 
d="M64 0v64h256v-64h-256zM0 64v192h64v-64h192v-64h-192v-64h-64zM256 192v64h64v-64h-64zM64 256v64h192v-64h-192z" />
    <glyph glyph-name="uni0436" unicode="&#x436;" 
d="M0 0v128h64v-128h-64zM256 0v128h64v-128h-64zM0 192v128h64v-128h-64zM128 0v128h-64v64h64v128h64v-128h64v-64h-64v-128h-64zM256 192v128h64v-128h-64z" />
    <glyph glyph-name="uni0437" unicode="&#x437;" 
d="M64 0v64h192v-64h-192zM0 64v64h64v-64h-64zM256 64v64h64v-64h-64zM192 128v64h64v-64h-64zM0 192v64h64v-64h-64zM256 192v64h64v-64h-64zM64 256v64h192v-64h-192z" />
    <glyph glyph-name="uni0438" unicode="&#x438;" 
d="M128 128v64h64v-64h-64zM0 0v320h64v-192h64v-64h-64v-64h-64zM256 0v192h-64v64h64v64h64v-320h-64z" />
    <glyph glyph-name="uni0439" unicode="&#x439;" 
d="M128 128v64h64v-64h-64zM0 0v320h64v-192h64v-64h-64v-64h-64zM256 0v192h-64v64h64v64h64v-320h-64zM128 384v64h128v-64h-128zM64 448v64h64v-64h-64zM256 448v64h64v-64h-64z" />
    <glyph glyph-name="uni043A" unicode="&#x43a;" 
d="M192 0v64h128v-64h-128zM128 64v64h64v-64h-64zM128 192v64h64v-64h-64zM0 0v320h64v-128h64v-64h-64v-128h-64zM192 256v64h128v-64h-128z" />
    <glyph glyph-name="uni043B" unicode="&#x43b;" 
d="M0 0v64h64v-64h-64zM64 64v128h64v-128h-64zM256 0v256h-64v-64h-64v128h192v-320h-64z" />
    <glyph glyph-name="uni043C" unicode="&#x43c;" 
d="M128 128v64h64v-64h-64zM0 0v320h64v-64h64v-64h-64v-192h-64zM256 0v192h-64v64h64v64h64v-320h-64z" />
    <glyph glyph-name="uni043D" unicode="&#x43d;" 
d="M0 0v320h64v-128h192v128h64v-320h-64v128h-192v-128h-64z" />
    <glyph glyph-name="uni043E" unicode="&#x43e;" 
d="M64 0v64h192v-64h-192zM0 64v192h64v-192h-64zM256 64v192h64v-192h-64zM64 256v64h192v-64h-192z" />
    <glyph glyph-name="uni043F" unicode="&#x43f;" 
d="M0 0v320h320v-320h-64v256h-192v-256h-64z" />
    <glyph glyph-name="uni0440" unicode="&#x440;" 
d="M256 64v192h64v-192h-64zM0 -192v512h256v-64h-192v-192h192v-64h-192v-192h-64z" />
    <glyph glyph-name="uni0441" unicode="&#x441;" 
d="M64 0v64h192v-64h-192zM256 64v64h64v-64h-64zM0 64v192h64v-192h-64zM256 192v64h64v-64h-64zM64 256v64h192v-64h-192z" />
    <glyph glyph-name="uni0442" unicode="&#x442;" 
d="M128 0v256h-128v64h320v-64h-128v-256h-64z" />
    <glyph glyph-name="uni0443" unicode="&#x443;" 
d="M64 -192v64h128v-64h-128zM0 -128v64h64v-64h-64zM192 -128v256h64v-256h-64zM128 128v64h64v-64h-64zM64 192v64h64v-64h-64zM0 256v64h64v-64h-64zM256 128v192h64v-192h-64z" />
    <glyph glyph-name="uni0444" unicode="&#x444;" 
d="M0 64v192h64v-192h-64zM256 64v192h64v-192h-64zM128 -192v192h-64v64h64v192h-64v64h64v128h64v-128h64v-64h-64v-192h64v-64h-64v-192h-64z" />
    <glyph glyph-name="uni0445" unicode="&#x445;" 
d="M0 0v64h64v-64h-64zM256 0v64h64v-64h-64zM64 64v64h64v-64h-64zM192 64v64h64v-64h-64zM128 128v64h64v-64h-64zM64 192v64h64v-64h-64zM192 192v64h64v-64h-64zM0 256v64h64v-64h-64zM256 256v64h64v-64h-64z" />
    <glyph glyph-name="uni0446" unicode="&#x446;" horiz-adv-x="448" 
d="M320 -64v64h-320v320h64v-256h192v256h64v-256h64v-128h-64z" />
    <glyph glyph-name="uni0447" unicode="&#x447;" 
d="M0 192v128h64v-128h-64zM256 0v128h-192v64h192v128h64v-320h-64z" />
    <glyph glyph-name="uni0448" unicode="&#x448;" 
d="M0 0v320h64v-256h64v256h64v-256h64v256h64v-320h-320z" />
    <glyph glyph-name="uni0449" unicode="&#x449;" horiz-adv-x="448" 
d="M320 -64v64h-320v320h64v-256h64v256h64v-256h64v256h64v-256h64v-128h-64z" />
    <glyph glyph-name="uni044A" unicode="&#x44a;" 
d="M256 64v64h64v-64h-64zM128 0v256h-128v64h192v-128h64v-64h-64v-64h64v-64h-128z" />
    <glyph glyph-name="uni044B" unicode="&#x44b;" 
d="M128 64v64h64v-64h-64zM0 0v320h64v-128h64v-64h-64v-64h64v-64h-128zM256 0v320h64v-320h-64z" />
    <glyph glyph-name="uni044C" unicode="&#x44c;" 
d="M256 64v128h64v-128h-64zM0 0v320h64v-64h192v-64h-192v-128h192v-64h-256z" />
    <glyph glyph-name="uni044D" unicode="&#x44d;" 
d="M64 0v64h192v-64h-192zM0 64v64h64v-64h-64zM0 192v64h64v-64h-64zM256 64v64h-128v64h128v64h64v-192h-64zM64 256v64h192v-64h-192z" />
    <glyph glyph-name="uni044E" unicode="&#x44e;" 
d="M192 0v64h64v-64h-64zM256 64v192h64v-192h-64zM0 0v320h64v-128h64v64h64v-192h-64v64h-64v-128h-64zM192 256v64h64v-64h-64z" />
    <glyph glyph-name="uni044F" unicode="&#x44f;" 
d="M0 0v64h128v-64h-128zM0 192v64h64v-64h-64zM256 0v128h-64v-64h-64v64h-64v64h192v64h-192v64h256v-320h-64z" />
    <glyph glyph-name="uni0450" unicode="&#x450;" 
d="M64 0v64h256v-64h-256zM0 64v192h64v-64h192v-64h-192v-64h-64zM256 192v64h64v-64h-64zM64 256v64h192v-64h-192zM128 384v64h64v-64h-64zM64 448v64h64v-64h-64z" />
    <glyph glyph-name="uni0451" unicode="&#x451;" 
d="M64 0v64h256v-64h-256zM0 64v192h64v-64h192v-64h-192v-64h-64zM256 192v64h64v-64h-64zM64 256v64h192v-64h-192zM64 384v64h64v-64h-64zM192 384v64h64v-64h-64z" />
    <glyph glyph-name="uni0452" unicode="&#x452;" 
d="M192 -192v64h64v-64h-64zM256 -128v320h64v-320h-64zM0 0v384h-64v64h64v64h64v-64h64v-64h-64v-128h192v-64h-192v-192h-64z" />
    <glyph glyph-name="uni0453" unicode="&#x453;" 
d="M0 0v320h320v-64h-256v-256h-64zM128 384v64h64v-64h-64zM64 448v64h64v-64h-64z" />
    <glyph glyph-name="uni0454" unicode="&#x454;" 
d="M64 0v64h192v-64h-192zM256 64v64h64v-64h-64zM0 64v192h64v-64h128v-64h-128v-64h-64zM256 192v64h64v-64h-64zM64 256v64h192v-64h-192z" />
    <glyph glyph-name="uni0455" unicode="&#x455;" 
d="M0 0v64h256v-64h-256zM256 64v64h64v-64h-64zM64 128v64h192v-64h-192zM0 192v64h64v-64h-64zM64 256v64h256v-64h-256z" />
    <glyph glyph-name="uni0456" unicode="&#x456;" horiz-adv-x="128" 
d="M0 0v320h64v-320h-64zM0 384v64h64v-64h-64z" />
    <glyph glyph-name="uni0457" unicode="&#x457;" horiz-adv-x="256" 
d="M64 0v320h64v-320h-64zM0 384v64h64v-64h-64zM128 384v64h64v-64h-64z" />
    <glyph glyph-name="uni0458" unicode="&#x458;" horiz-adv-x="192" 
d="M0 -192v64h64v-64h-64zM64 -128v448h64v-448h-64zM64 384v64h64v-64h-64z" />
    <glyph glyph-name="uni0459" unicode="&#x459;" 
d="M256 64v64h64v-64h-64zM0 0v256h64v-256h-64zM128 0v256h-64v64h128v-128h64v-64h-64v-64h64v-64h-128z" />
    <glyph glyph-name="uni045A" unicode="&#x45a;" 
d="M256 64v64h64v-64h-64zM0 0v320h64v-128h64v128h64v-128h64v-64h-64v-64h64v-64h-128v128h-64v-128h-64z" />
    <glyph glyph-name="uni045B" unicode="&#x45b;" 
d="M256 0v256h64v-256h-64zM0 0v384h-64v64h64v64h64v-64h64v-64h-64v-64h192v-64h-192v-256h-64z" />
    <glyph glyph-name="uni045C" unicode="&#x45c;" 
d="M192 0v64h128v-64h-128zM128 64v64h64v-64h-64zM128 192v64h64v-64h-64zM0 0v320h64v-128h64v-64h-64v-128h-64zM192 256v64h128v-64h-128zM128 384v64h64v-64h-64zM192 448v64h64v-64h-64z" />
    <glyph glyph-name="uni045D" unicode="&#x45d;" 
d="M128 128v64h64v-64h-64zM0 0v320h64v-192h64v-64h-64v-64h-64zM256 0v192h-64v64h64v64h64v-320h-64zM128 384v64h64v-64h-64zM64 448v64h64v-64h-64z" />
    <glyph glyph-name="uni045E" unicode="&#x45e;" 
d="M64 -256v64h128v-64h-128zM0 -192v64h64v-64h-64zM192 -192v320h64v-320h-64zM128 128v64h64v-64h-64zM64 192v64h64v-64h-64zM0 256v64h64v-64h-64zM256 128v192h64v-192h-64zM128 384v64h128v-64h-128zM64 448v64h64v-64h-64zM256 448v64h64v-64h-64z" />
    <glyph glyph-name="uni045F" unicode="&#x45f;" 
d="M128 -128v128h-128v320h64v-256h192v256h64v-320h-128v-128h-64z" />
    <glyph glyph-name="uni0460" unicode="&#x460;" 
d="M64 0v64h64v-64h-64zM192 0v64h64v-64h-64zM128 64v128h64v-128h-64zM0 64v320h64v-320h-64zM256 64v320h64v-320h-64zM64 384v64h64v-64h-64zM192 384v64h64v-64h-64z" />
    <glyph glyph-name="uni0461" unicode="&#x461;" 
d="M64 0v64h64v-64h-64zM192 0v64h64v-64h-64zM128 64v128h64v-128h-64zM0 64v192h64v-192h-64zM256 64v192h64v-192h-64zM64 256v64h64v-64h-64zM192 256v64h64v-64h-64z" />
    <glyph glyph-name="uni0462" unicode="&#x462;" 
d="M256 64v192h64v-192h-64zM64 0v384h-64v64h64v64h64v-64h64v-64h-64v-64h128v-64h-128v-192h128v-64h-192z" />
    <glyph glyph-name="uni0463" unicode="&#x463;" 
d="M256 64v128h64v-128h-64zM64 0v320h-64v64h64v128h64v-128h64v-64h-64v-64h128v-64h-128v-128h128v-64h-192z" />
    <glyph glyph-name="uni048C" unicode="&#x48c;" 
d="M256 64v128h64v-128h-64zM0 0v448h64v-64h64v-64h-64v-64h192v-64h-192v-128h192v-64h-256z" />
    <glyph glyph-name="uni048D" unicode="&#x48d;" horiz-adv-x="320" 
d="M192 64v64h64v-64h-64zM0 0v384h64v-64h64v-64h-64v-64h128v-64h-128v-64h128v-64h-192z" />
    <glyph glyph-name="uni0490" unicode="&#x490;" 
d="M0 0v448h256v64h64v-128h-256v-384h-64z" />
    <glyph glyph-name="uni0491" unicode="&#x491;" 
d="M0 0v320h256v64h64v-128h-256v-256h-64z" />
    <glyph glyph-name="uni04B4" unicode="&#x4b4;" 
d="M256 -64v64h-192v384h-64v64h192v-64h-64v-320h128v384h64v-512h-64z" />
    <glyph glyph-name="uni04B5" unicode="&#x4b5;" 
d="M256 -64v64h-192v256h-64v64h192v-64h-64v-192h128v256h64v-384h-64z" />
    <glyph glyph-name="uni04B6" unicode="&#x4b6;" horiz-adv-x="448" 
d="M0 256v192h64v-192h-64zM320 -64v64h-64v192h-192v64h192v192h64v-384h64v-128h-64z" />
    <glyph glyph-name="uni04B7" unicode="&#x4b7;" horiz-adv-x="448" 
d="M0 192v128h64v-128h-64zM320 -64v64h-64v128h-192v64h192v128h64v-256h64v-128h-64z" />
    <glyph glyph-name="uni04B8" unicode="&#x4b8;" 
d="M0 256v192h64v-192h-64zM256 0v192h-64v-64h-64v64h-64v64h64v64h64v-64h64v192h64v-448h-64z" />
    <glyph glyph-name="uni04B9" unicode="&#x4b9;" 
d="M0 192v128h64v-128h-64zM256 0v128h-64v-64h-64v64h-64v64h64v64h64v-64h64v128h64v-320h-64z" />
    <glyph glyph-name="uni04BA" unicode="&#x4ba;" 
d="M256 0v256h64v-256h-64zM0 0v448h64v-128h192v-64h-192v-256h-64z" />
    <glyph glyph-name="uni04BB" unicode="&#x4bb;" 
d="M256 0v192h64v-192h-64zM0 0v384h64v-128h192v-64h-192v-192h-64z" />
    <glyph glyph-name="uni04BC" unicode="&#x4bc;" 
d="M128 0v64h128v-64h-128zM256 64v64h64v-64h-64zM64 64v192h-64v64h64v64h64v-64h128v64h64v-128h-192v-192h-64zM128 384v64h128v-64h-128z" />
    <glyph glyph-name="uni04BD" unicode="&#x4bd;" 
d="M128 0v64h192v-64h-192zM64 64v64h-64v64h64v64h64v-64h128v64h64v-128h-192v-64h-64zM128 256v64h128v-64h-128z" />
    <glyph glyph-name="uni04BE" unicode="&#x4be;" 
d="M128 -64v128h128v-64h-64v-64h-64zM256 64v64h64v-64h-64zM64 64v192h-64v64h64v64h64v-64h128v64h64v-128h-192v-192h-64zM128 384v64h128v-64h-128z" />
    <glyph glyph-name="uni04BF" unicode="&#x4bf;" 
d="M128 -64v128h192v-64h-128v-64h-64zM64 64v64h-64v64h64v64h64v-64h128v64h64v-128h-192v-64h-64zM128 256v64h128v-64h-128z" />
    <glyph glyph-name="uni04C0" unicode="&#x4c0;" horiz-adv-x="128" 
d="M0 0v448h64v-448h-64z" />
    <glyph glyph-name="uni04C3" unicode="&#x4c3;" 
d="M128 -192v64h128v-64h-128zM64 -128v64h64v-64h-64zM256 -128v192h64v-192h-64zM192 64v64h64v-64h-64zM128 128v64h64v-64h-64zM128 256v64h64v-64h-64zM192 320v64h64v-64h-64zM0 0v448h64v-192h64v-64h-64v-192h-64zM256 384v64h64v-64h-64z" />
    <glyph glyph-name="uni04C4" unicode="&#x4c4;" 
d="M128 -192v64h128v-64h-128zM64 -128v64h64v-64h-64zM256 -128v128h64v-128h-64zM192 0v64h64v-64h-64zM128 64v64h64v-64h-64zM128 192v64h64v-64h-64zM0 0v320h64v-128h64v-64h-64v-128h-64zM192 256v64h128v-64h-128z" />
    <glyph glyph-name="uni04C5" unicode="&#x4c5;" horiz-adv-x="448" 
d="M256 -128v64h64v-64h-64zM0 0v64h64v-64h-64zM320 -64v64h-64v384h-128v-320h-64v384h256v-384h64v-128h-64z" />
    <glyph glyph-name="uni04C6" unicode="&#x4c6;" horiz-adv-x="448" 
d="M256 -128v64h64v-64h-64zM0 0v64h64v-64h-64zM320 -64v64h-64v256h-128v-192h-64v256h256v-256h64v-128h-64z" />
    <glyph glyph-name="uni04C7" unicode="&#x4c7;" 
d="M128 -192v64h128v-64h-128zM64 -128v64h64v-64h-64zM256 -128v320h-192v-192h-64v448h64v-192h192v192h64v-576h-64z" />
    <glyph glyph-name="uni04C8" unicode="&#x4c8;" 
d="M128 -192v64h128v-64h-128zM64 -128v64h64v-64h-64zM256 -128v256h-192v-128h-64v320h64v-128h192v128h64v-448h-64z" />
    <glyph glyph-name="uni04C9" unicode="&#x4c9;" horiz-adv-x="448" 
d="M256 -128v64h64v-64h-64zM320 -64v64h-64v192h-192v-192h-64v448h64v-192h192v192h64v-384h64v-128h-64z" />
    <glyph glyph-name="uni04CA" unicode="&#x4ca;" horiz-adv-x="448" 
d="M256 -128v64h64v-64h-64zM320 -64v64h-64v128h-192v-128h-64v320h64v-128h192v128h64v-256h64v-128h-64z" />
    <glyph glyph-name="uni04CB" unicode="&#x4cb;" 
d="M0 256v192h64v-192h-64zM192 -64v128h64v128h-192v64h192v192h64v-448h-64v-64h-64z" />
    <glyph glyph-name="uni04CC" unicode="&#x4cc;" 
d="M0 192v128h64v-128h-64zM192 -64v128h64v64h-192v64h192v128h64v-320h-64v-64h-64z" />
    <glyph glyph-name="uni04CF" unicode="&#x4cf;" horiz-adv-x="128" 
d="M0 0v448h64v-448h-64z" />
    <glyph glyph-name="uni04D4" unicode="&#x4d4;" 
d="M0 0v320h64v-64h64v64h-64v64h64v64h192v-64h-128v-128h128v-64h-128v-128h128v-64h-192v192h-64v-192h-64z" />
    <glyph glyph-name="uni04D5" unicode="&#x4d5;" 
d="M0 64v64h64v-64h-64zM64 0v64h64v64h-64v64h64v64h64v-64h64v-64h-64v-64h128v-64h-256zM256 192v64h64v-64h-64zM0 256v64h128v-64h-128zM192 256v64h64v-64h-64z" />
    <glyph glyph-name="uni04E0" unicode="&#x4e0;" 
d="M64 0v64h192v-64h-192zM0 64v64h64v-64h-64zM256 64v128h64v-128h-64zM64 192v64h64v64h64v-64h64v-64h-192zM192 320v64h-192v64h320v-64h-64v-64h-64z" />
    <glyph glyph-name="uni04E1" unicode="&#x4e1;" 
d="M64 -256v64h192v-64h-192zM0 -192v64h64v-64h-64zM256 -192v192h64v-192h-64zM0 0v64h64v64h64v-64h128v-64h-256zM128 128v64h64v-64h-64zM192 192v64h-192v64h320v-64h-64v-64h-64z" />
    <glyph glyph-name="uni04E8" unicode="&#x4e8;" 
d="M64 0v64h192v-64h-192zM0 64v320h64v-128h192v128h64v-320h-64v128h-192v-128h-64zM64 384v64h192v-64h-192z" />
    <glyph glyph-name="uni04E9" unicode="&#x4e9;" 
d="M64 0v64h192v-64h-192zM0 64v192h64v-64h192v64h64v-192h-64v64h-192v-64h-64zM64 256v64h192v-64h-192z" />
    <glyph glyph-name="uni04FE" unicode="&#x4fe;" 
d="M0 0v64h64v-64h-64zM256 0v64h64v-64h-64zM64 64v128h-64v64h64v128h64v-128h64v128h64v-128h64v-64h-64v-128h-64v128h-64v-128h-64zM0 384v64h64v-64h-64zM256 384v64h64v-64h-64z" />
    <glyph glyph-name="uni04FF" unicode="&#x4ff;" 
d="M0 0v64h64v-64h-64zM256 0v64h64v-64h-64zM64 64v64h-64v64h64v64h64v-64h64v64h64v-64h64v-64h-64v-64h-64v64h-64v-64h-64zM0 256v64h64v-64h-64zM256 256v64h64v-64h-64z" />
    <glyph glyph-name="uni0500" unicode="&#x500;" 
d="M0 64v192h64v-192h-64zM64 0v64h192v192h-192v64h192v128h64v-448h-256z" />
    <glyph glyph-name="uni0501" unicode="&#x501;" 
d="M64 0v64h128v-64h-128zM0 64v192h64v-192h-64zM64 256v64h128v-64h-128zM256 0v64h-64v192h64v192h64v-448h-64z" />
    <glyph glyph-name="uni0502" unicode="&#x502;" 
d="M0 64v192h64v-192h-64zM256 64v256h64v-256h-64zM64 0v64h64v192h-64v64h64v128h64v-384h64v-64h-192z" />
    <glyph glyph-name="uni0503" unicode="&#x503;" 
d="M0 64v128h64v-128h-64zM256 64v192h64v-192h-64zM64 0v64h64v128h-64v64h64v192h64v-384h64v-64h-192z" />
    <glyph glyph-name="uni0504" unicode="&#x504;" 
d="M192 0v64h64v-64h-64zM128 64v128h64v-128h-64zM256 64v128h64v-128h-64zM64 192v64h64v-64h-64zM0 320v64h64v-64h-64zM128 256v128h64v-128h-64zM64 384v64h64v-64h-64z" />
    <glyph glyph-name="uni0505" unicode="&#x505;" 
d="M64 0v64h64v-64h-64zM192 0v64h64v-64h-64zM256 64v128h64v-128h-64zM0 192v64h64v-64h-64zM128 64v192h64v-192h-64zM64 256v64h64v-64h-64z" />
    <glyph glyph-name="uni0506" unicode="&#x506;" 
d="M256 -64v64h-64v192h64v-128h64v-128h-64zM128 192v64h64v-64h-64zM0 320v64h64v-64h-64zM192 256v128h64v-128h-64zM64 384v64h128v-64h-128z" />
    <glyph glyph-name="uni0507" unicode="&#x507;" 
d="M256 -64v64h-64v128h64v-64h64v-128h-64zM128 128v64h64v-64h-64zM0 192v64h64v-64h-64zM192 192v64h64v-64h-64zM64 256v64h128v-64h-128z" />
    <glyph glyph-name="uni0508" unicode="&#x508;" horiz-adv-x="448" 
d="M0 0v64h64v-64h-64zM320 64v256h64v-256h-64zM192 0v384h-64v-320h-64v384h192v-384h64v-64h-128z" />
    <glyph glyph-name="uni0509" unicode="&#x509;" horiz-adv-x="448" 
d="M0 0v64h64v-64h-64zM320 64v128h64v-128h-64zM192 0v256h-64v-192h-64v256h192v-256h64v-64h-128z" />
    <glyph glyph-name="uni050A" unicode="&#x50a;" 
d="M192 0v64h64v-64h-64zM256 64v256h64v-256h-64zM0 0v448h64v-192h64v192h64v-384h-64v128h-64v-192h-64z" />
    <glyph glyph-name="uni050B" unicode="&#x50b;" 
d="M192 0v64h64v-64h-64zM256 64v128h64v-128h-64zM0 0v320h64v-128h64v128h64v-256h-64v64h-64v-128h-64z" />
    <glyph glyph-name="uni050C" unicode="&#x50c;" 
d="M64 0v64h192v-64h-192zM256 64v64h-64v64h128v-128h-64zM0 64v320h64v-320h-64zM256 320v64h64v-64h-64zM64 384v64h192v-64h-192z" />
    <glyph glyph-name="uni050D" unicode="&#x50d;" 
d="M64 0v64h128v64h128v-128h-256zM0 64v192h64v-192h-64zM256 192v64h64v-64h-64zM64 256v64h192v-64h-192z" />
    <glyph glyph-name="uni050E" unicode="&#x50e;" 
d="M192 0v64h64v-64h-64zM256 64v256h64v-256h-64zM128 64v320h-128v64h320v-64h-128v-320h-64z" />
    <glyph glyph-name="uni050F" unicode="&#x50f;" 
d="M192 0v64h64v-64h-64zM256 64v128h64v-128h-64zM128 64v192h-128v64h320v-64h-128v-192h-64z" />
    <glyph glyph-name="uni0510" unicode="&#x510;" 
d="M64 0v64h192v-64h-192zM256 64v64h64v-64h-64zM0 64v128h64v-128h-64zM64 192v64h64v-64h-64zM0 256v128h64v-128h-64zM256 320v64h64v-64h-64zM64 384v64h192v-64h-192z" />
    <glyph glyph-name="uni0511" unicode="&#x511;" 
d="M64 0v64h192v-64h-192zM0 64v64h64v-64h-64zM256 64v64h64v-64h-64zM64 128v64h64v-64h-64zM0 192v64h64v-64h-64zM256 192v64h64v-64h-64zM64 256v64h192v-64h-192z" />
    <glyph glyph-name="uni0512" unicode="&#x512;" 
d="M192 -192v64h64v-64h-64zM0 0v64h64v-64h-64zM256 -128v512h-128v-320h-64v384h256v-576h-64z" />
    <glyph glyph-name="uni0513" unicode="&#x513;" 
d="M192 -192v64h64v-64h-64zM0 0v64h64v-64h-64zM256 -128v384h-128v-192h-64v256h256v-448h-64z" />
    <glyph glyph-name="uni0514" unicode="&#x514;" horiz-adv-x="512" 
d="M0 0v64h64v-64h-64zM192 0v64h64v-64h-64zM256 64v64h64v-64h-64zM384 0v128h64v-128h-64zM320 128v192h64v-192h-64zM256 320v64h64v-64h-64zM64 64v384h192v-64h-128v-320h-64zM384 320v128h64v-128h-64z" />
    <glyph glyph-name="uni0515" unicode="&#x515;" horiz-adv-x="448" 
d="M0 0v64h64v-64h-64zM192 0v128h64v-128h-64zM320 0v128h64v-128h-64zM256 128v64h64v-64h-64zM64 64v256h192v-128h-64v64h-64v-192h-64zM320 192v128h64v-128h-64z" />
    <glyph glyph-name="uni0516" unicode="&#x516;" 
d="M256 0v64h64v-64h-64zM192 64v128h64v-128h-64zM0 0v448h128v-64h-64v-128h64v128h128v-64h-64v-128h-128v-192h-64zM256 384v64h64v-64h-64z" />
    <glyph glyph-name="uni0517" unicode="&#x517;" 
d="M256 0v64h64v-64h-64zM128 64v192h128v-64h-64v-64h64v-64h-128zM0 -256v576h128v-64h-64v-192h64v-64h-64v-256h-64zM256 256v64h64v-64h-64z" />
    <glyph glyph-name="uni0518" unicode="&#x518;" 
d="M0 0v192h64v-192h-64zM0 256v128h64v-128h-64zM128 0v192h-64v64h64v128h-64v64h256v-64h-128v-128h128v-64h-128v-128h128v-64h-192z" />
    <glyph glyph-name="uni0519" unicode="&#x519;" 
d="M192 0v64h128v-64h-128zM0 0v128h64v-128h-64zM0 192v64h64v-64h-64zM256 192v64h64v-64h-64zM128 64v64h-64v64h64v64h-64v64h192v-64h-64v-64h64v-64h-64v-64h-64z" />
    <glyph glyph-name="uni051A" unicode="&#x51a;" 
d="M256 -64v64h64v-64h-64zM64 0v64h64v64h64v-64h64v-64h-192zM0 64v320h64v-320h-64zM256 64v320h64v-320h-64zM64 384v64h192v-64h-192z" />
    <glyph glyph-name="uni051B" unicode="&#x51b;" 
d="M64 0v64h128v-64h-128zM0 64v192h64v-192h-64zM64 256v64h128v-64h-128zM256 -256v320h-64v192h64v64h64v-576h-64z" />
    <glyph glyph-name="uni051C" unicode="&#x51c;" 
d="M64 0v64h64v-64h-64zM192 0v64h64v-64h-64zM0 64v384h64v-384h-64zM128 64v384h64v-384h-64zM256 64v384h64v-384h-64z" />
    <glyph glyph-name="uni051D" unicode="&#x51d;" 
d="M64 0v64h64v-64h-64zM192 0v64h64v-64h-64zM0 64v256h64v-256h-64zM128 64v256h64v-256h-64zM256 64v256h64v-256h-64z" />
    <glyph glyph-name="uni051E" unicode="&#x51e;" 
d="M256 0v64h64v-64h-64zM192 64v64h64v-64h-64zM128 128v64h64v-64h-64zM128 256v64h64v-64h-64zM256 256v64h64v-64h-64zM192 320v64h64v-64h-64zM0 0v448h64v-192h64v-64h-64v-192h-64zM128 384v64h64v-64h-64zM256 384v64h64v-64h-64z" />
    <glyph glyph-name="uni051F" unicode="&#x51f;" 
d="M192 0v64h128v-64h-128zM128 64v64h64v-64h-64zM128 192v64h64v-64h-64zM0 0v320h64v-128h64v-64h-64v-128h-64zM256 192v64h-64v64h128v-128h-64zM128 320v64h64v-64h-64z" />
    <glyph glyph-name="uni0520" unicode="&#x520;" horiz-adv-x="448" 
d="M256 -192v64h64v-64h-64zM192 -128v64h64v-64h-64zM0 0v64h64v-64h-64zM320 -128v384h64v-384h-64zM192 0v384h-64v-320h-64v384h192v-128h64v-64h-64v-256h-64z" />
    <glyph glyph-name="uni0521" unicode="&#x521;" horiz-adv-x="448" 
d="M256 -192v64h64v-64h-64zM192 -128v64h64v-64h-64zM0 0v64h64v-64h-64zM320 -128v256h64v-256h-64zM192 0v256h-64v-192h-64v256h192v-128h64v-64h-64v-128h-64z" />
    <glyph glyph-name="uni0522" unicode="&#x522;" 
d="M192 -192v64h64v-64h-64zM128 -128v64h64v-64h-64zM256 -128v320h64v-320h-64zM0 0v448h64v-192h64v192h64v-192h64v-64h-64v-192h-64v192h-64v-192h-64z" />
    <glyph glyph-name="uni0523" unicode="&#x523;" 
d="M192 -192v64h64v-64h-64zM128 -128v64h64v-64h-64zM256 -128v256h64v-256h-64zM0 0v320h64v-128h64v128h64v-128h64v-64h-64v-128h-64v128h-64v-128h-64z" />
    <glyph glyph-name="uni0524" unicode="&#x524;" 
d="M256 -64v64h-64v384h-128v-384h-64v448h256v-384h64v-128h-64z" />
    <glyph glyph-name="uni0525" unicode="&#x525;" 
d="M256 -64v64h-64v256h-128v-256h-64v320h256v-256h64v-128h-64z" />
    <glyph glyph-name="uni0526" unicode="&#x526;" 
d="M256 -64v64h-64v256h64v-192h64v-128h-64zM0 0v448h64v-128h128v-64h-128v-256h-64z" />
    <glyph glyph-name="uni0527" unicode="&#x527;" 
d="M256 -64v64h-64v192h64v-128h64v-128h-64zM0 0v384h64v-128h128v-64h-128v-192h-64z" />
    <glyph glyph-name="uni055A" unicode="&#x55a;" horiz-adv-x="192" 
d="M64 320v128h64v-128h-64z" />
    <glyph glyph-name="uni0591" unicode="&#x591;" 
d="M64 -192v128h64v-128h-64zM192 -192v128h64v-128h-64zM128 -64v64h64v-64h-64zM64 0v64h64v-64h-64zM192 0v64h64v-64h-64zM0 128v64h64v-64h-64zM256 128v64h64v-64h-64zM64 256v64h64v-64h-64zM192 256v64h64v-64h-64z" />
    <glyph glyph-name="uni05C0" unicode="&#x5c0;" horiz-adv-x="128" 
d="M0 0v320h64v-320h-64z" />
    <glyph glyph-name="uni05C3" unicode="&#x5c3;" horiz-adv-x="128" 
d="M0 64v64h64v-64h-64zM0 192v64h64v-64h-64z" />
    <glyph glyph-name="uni05C6" unicode="&#x5c6;" horiz-adv-x="192" 
d="M0 0v256h64v-192h64v-64h-128zM64 256v64h64v-64h-64z" />
    <glyph glyph-name="uni05D0" unicode="&#x5d0;" 
d="M256 0v64h64v-64h-64zM192 64v64h64v-64h-64zM0 0v192h64v-192h-64zM128 128v64h64v-64h-64zM64 192v64h64v-64h-64zM0 256v64h64v-64h-64zM256 128v192h64v-192h-64z" />
    <glyph glyph-name="uni05D1" unicode="&#x5d1;" horiz-adv-x="448" 
d="M0 0v64h256v192h64v-192h64v-64h-384zM0 256v64h256v-64h-256z" />
    <glyph glyph-name="uni05D2" unicode="&#x5d2;" horiz-adv-x="256" 
d="M0 0v128h64v-128h-64zM128 0v128h-64v64h64v64h64v-256h-64zM0 256v64h128v-64h-128z" />
    <glyph glyph-name="uni05D3" unicode="&#x5d3;" 
d="M192 0v256h-192v64h320v-64h-64v-256h-64z" />
    <glyph glyph-name="uni05D4" unicode="&#x5d4;" 
d="M0 0v192h64v-192h-64zM256 0v256h64v-256h-64zM0 256v64h256v-64h-256z" />
    <glyph glyph-name="uni05D5" unicode="&#x5d5;" horiz-adv-x="192" 
d="M64 0v256h64v-256h-64zM0 256v64h64v-64h-64z" />
    <glyph glyph-name="uni05D6" unicode="&#x5d6;" horiz-adv-x="320" 
d="M192 192v64h64v-64h-64zM64 0v320h128v-64h-64v-256h-64zM0 320v64h64v-64h-64z" />
    <glyph glyph-name="uni05D7" unicode="&#x5d7;" 
d="M256 0v256h64v-256h-64zM64 0v256h-64v64h256v-64h-128v-256h-64z" />
    <glyph glyph-name="uni05D8" unicode="&#x5d8;" 
d="M64 0v128h64v-64h128v-64h-192zM256 64v192h64v-192h-64zM0 128v192h64v-192h-64zM128 256v64h128v-64h-128z" />
    <glyph glyph-name="uni05D9" unicode="&#x5d9;" horiz-adv-x="192" 
d="M64 192v64h-64v64h128v-128h-64z" />
    <glyph glyph-name="uni05DA" unicode="&#x5da;" horiz-adv-x="256" 
d="M128 -256v512h-128v64h192v-576h-64z" />
    <glyph glyph-name="uni05DB" unicode="&#x5db;" 
d="M0 0v64h192v64h64v-128h-256zM256 128v128h64v-128h-64zM0 256v64h256v-64h-256z" />
    <glyph glyph-name="uni05DC" unicode="&#x5dc;" horiz-adv-x="320" 
d="M0 0v64h128v-64h-128zM128 64v64h64v-64h-64zM192 128v128h64v-128h-64zM0 256v192h64v-128h128v-64h-192z" />
    <glyph glyph-name="uni05DD" unicode="&#x5dd;" 
d="M64 0v256h-64v64h256v-64h-128v-192h128v192h64v-256h-256z" />
    <glyph glyph-name="uni05DE" unicode="&#x5de;" 
d="M0 0v128h64v-128h-64zM128 0v64h128v64h64v-128h-192zM64 128v128h64v-128h-64zM0 256v64h64v-64h-64zM192 128v128h-64v64h128v-192h-64z" />
    <glyph glyph-name="uni05DF" unicode="&#x5df;" horiz-adv-x="192" 
d="M64 -320v576h64v-576h-64zM0 256v64h64v-64h-64z" />
    <glyph glyph-name="uni05E0" unicode="&#x5e0;" horiz-adv-x="192" 
d="M0 0v64h64v192h64v-256h-128zM0 256v64h64v-64h-64z" />
    <glyph glyph-name="uni05E1" unicode="&#x5e1;" 
d="M128 0v64h64v-64h-64zM64 64v128h64v-128h-64zM192 64v128h64v-128h-64zM256 192v64h64v-64h-64zM0 192v128h256v-64h-192v-64h-64z" />
    <glyph glyph-name="uni05E2" unicode="&#x5e2;" 
d="M0 0v64h192v-64h-192zM192 64v64h64v-64h-64zM128 128v64h64v-64h-64zM64 192v128h64v-128h-64zM256 128v192h64v-192h-64z" />
    <glyph glyph-name="uni05E3" unicode="&#x5e3;" horiz-adv-x="320" 
d="M64 128v64h64v-64h-64zM0 192v64h64v-64h-64zM192 -320v576h64v-576h-64zM64 256v64h128v-64h-128z" />
    <glyph glyph-name="uni05E4" unicode="&#x5e4;" 
d="M64 128v64h64v-64h-64zM0 192v64h64v-64h-64zM0 0v64h256v192h64v-256h-320zM64 256v64h192v-64h-192z" />
    <glyph glyph-name="uni05E5" unicode="&#x5e5;" horiz-adv-x="320" 
d="M64 -256v512h64v-64h64v-64h-64v-384h-64zM0 256v64h64v-64h-64zM192 192v128h64v-128h-64z" />
    <glyph glyph-name="uni05E6" unicode="&#x5e6;" 
d="M0 0v64h192v64h64v-64h64v-64h-320zM128 128v64h-64v64h128v-128h-64zM0 256v64h64v-64h-64zM192 256v64h64v-64h-64z" />
    <glyph glyph-name="uni05E7" unicode="&#x5e7;" 
d="M128 0v64h64v-64h-64zM0 -128v256h64v-256h-64zM192 64v64h64v-64h-64zM256 128v128h64v-128h-64zM0 256v64h256v-64h-256z" />
    <glyph glyph-name="uni05E8" unicode="&#x5e8;" horiz-adv-x="256" 
d="M128 0v256h64v-256h-64zM0 256v64h128v-64h-128z" />
    <glyph glyph-name="uni05E9" unicode="&#x5e9;" 
d="M64 0v128h64v-64h128v-64h-192zM0 128v192h64v-192h-64zM128 128v192h64v-192h-64zM256 64v256h64v-256h-64z" />
    <glyph glyph-name="uni05EA" unicode="&#x5ea;" 
d="M256 0v256h64v-256h-64zM0 0v64h64v192h-64v64h256v-64h-128v-256h-128z" />
    <glyph glyph-name="uni05F0" unicode="&#x5f0;" 
d="M64 0v256h64v-256h-64zM256 0v256h64v-256h-64zM0 256v64h64v-64h-64zM192 256v64h64v-64h-64z" />
    <glyph glyph-name="uni05F1" unicode="&#x5f1;" 
d="M256 0v256h64v-256h-64zM64 192v64h-64v64h128v-128h-64zM192 256v64h64v-64h-64z" />
    <glyph glyph-name="uni05F2" unicode="&#x5f2;" horiz-adv-x="320" 
d="M64 192v64h-64v64h256v-128h-64v64h-64v-64h-64z" />
    <glyph glyph-name="uni0904" unicode="&#x904;" horiz-adv-x="512" 
d="M0 0v64h128v-64h-128zM-64 64v64h64v-64h-64zM128 64v128h64v-128h-64zM64 192v64h64v-64h-64zM0 320v64h64v-64h-64zM64 384v64h64v-64h-64zM256 0v256h-128v128h64v-64h64v64h64v64h64v-64h64v-64h-128v-320h-64zM256 448v64h64v-64h-64z" />
    <glyph glyph-name="uni0905" unicode="&#x905;" horiz-adv-x="512" 
d="M0 0v64h128v-64h-128zM-64 64v64h64v-64h-64zM128 64v128h64v-128h-64zM64 192v64h64v-64h-64zM0 320v64h64v-64h-64zM256 0v256h-128v128h64v-64h64v64h192v-64h-128v-320h-64zM64 384v64h64v-64h-64z" />
    <glyph glyph-name="uni0906" unicode="&#x906;" horiz-adv-x="576" 
d="M0 0v64h128v-64h-128zM-64 64v64h64v-64h-64zM128 64v128h64v-128h-64zM64 192v64h64v-64h-64zM0 320v64h64v-64h-64zM256 0v256h-128v128h64v-64h64v64h256v-64h-64v-320h-64v320h-64v-320h-64zM64 384v64h64v-64h-64z" />
    <glyph glyph-name="uni0907" unicode="&#x907;" 
d="M128 -192v64h64v-64h-64zM64 -128v128h128v-64h-64v-64h-64zM192 0v64h64v-64h-64zM0 64v192h128v-64h-64v-64h128v-64h-192zM128 256v64h-128v64h320v-64h-128v-64h-64z" />
    <glyph glyph-name="uni0908" unicode="&#x908;" 
d="M128 -192v64h64v-64h-64zM64 -128v128h128v-64h-64v-64h-64zM192 0v64h64v-64h-64zM0 64v192h128v-64h-64v-64h128v-64h-192zM128 256v64h-128v64h192v64h64v-64h64v-64h-128v-64h-64zM128 448v64h64v-64h-64zM192 512v64h64v-64h-64z" />
    <glyph glyph-name="uni0909" unicode="&#x909;" 
d="M64 -64v64h192v-64h-192zM0 0v64h64v-64h-64zM256 0v128h64v-128h-64zM192 128v64h64v-64h-64zM256 192v64h64v-64h-64zM192 256v64h-192v64h320v-64h-64v-64h-64z" />
    <glyph glyph-name="uni0DC7" unicode="&#xdc7;" horiz-adv-x="512" 
d="M64 0v64h192v-64h-192zM384 0v192h-64v-128h-64v192h192v-256h-64zM0 64v320h64v-320h-64zM256 320v64h64v-64h-64zM64 384v64h192v-64h-192z" />
    <glyph glyph-name="uni0DC8" unicode="&#xdc8;" horiz-adv-x="448" 
d="M64 -256v64h192v-64h-192zM0 -192v64h64v-64h-64zM256 -192v128h64v-128h-64zM192 64v64h64v-64h-64zM256 128v128h64v-128h-64zM0 -64v384h64v-64h128v-128h-64v64h-64v-192h192v-64h-256zM192 256v64h64v-64h-64zM320 256v64h64v-64h-64z" />
    <glyph glyph-name="uni0DCB" unicode="&#xdcb;" 
d="M256 0v384h-256v64h320v-448h-64z" />
    <glyph glyph-name="uni0DCC" unicode="&#xdcc;" 
d="M256 -192v448h-256v64h320v-512h-64z" />
    <glyph glyph-name="uni0DCD" unicode="&#xdcd;" horiz-adv-x="448" 
d="M256 0v192h-64v64h64v128h-256v64h320v-192h64v-64h-64v-192h-64z" />
    <glyph glyph-name="uni0DCE" unicode="&#xdce;" horiz-adv-x="448" 
d="M256 -192v192h-64v64h64v192h-256v64h320v-256h64v-64h-64v-192h-64z" />
    <glyph glyph-name="uni1950" unicode="&#x1950;" 
d="M256 0v320h64v-320h-64zM0 256v128h64v-64h64v-64h-128zM128 320v64h128v-64h-128z" />
    <glyph glyph-name="uni1951" unicode="&#x1951;" 
d="M0 64v64h64v-64h-64zM64 0v64h192v64h-192v64h192v128h64v-320h-256zM0 256v128h64v-64h64v-64h-128zM128 320v64h128v-64h-128z" />
    <glyph glyph-name="uni1952" unicode="&#x1952;" 
d="M256 0v320h64v-320h-64zM0 0v384h64v-64h64v-64h-64v-256h-64zM128 320v64h128v-64h-128z" />
    <glyph glyph-name="uni1953" unicode="&#x1953;" horiz-adv-x="448" 
d="M256 0v64h64v-64h-64zM192 64v256h64v-256h-64zM320 64v256h64v-256h-64zM0 256v128h64v-64h64v-64h-128zM128 320v64h64v-64h-64zM256 320v64h64v-64h-64z" />
    <glyph glyph-name="uni1954" unicode="&#x1954;" horiz-adv-x="512" 
d="M256 0v64h64v-64h-64zM384 0v64h64v-64h-64zM192 64v256h64v-256h-64zM0 256v128h64v-64h64v-64h-128zM128 320v64h64v-64h-64zM320 64v320h64v-320h-64z" />
    <glyph glyph-name="uni1955" unicode="&#x1955;" 
d="M128 128v64h64v-64h-64zM0 0v384h64v-256h64v-64h-64v-64h-64zM256 0v64h-64v64h64v256h64v-384h-64z" />
    <glyph glyph-name="uni1956" unicode="&#x1956;" horiz-adv-x="448" 
d="M64 0v64h64v-64h-64zM0 64v256h64v-256h-64zM128 64v256h64v-256h-64zM320 0v320h64v-320h-64zM64 320v64h64v-64h-64zM192 320v64h128v-64h-128z" />
    <glyph glyph-name="uni1957" unicode="&#x1957;" horiz-adv-x="448" 
d="M64 0v64h64v-64h-64zM192 0v64h64v-64h-64zM320 0v64h64v-64h-64zM0 64v256h64v-256h-64zM128 64v256h64v-256h-64zM256 64v256h64v-256h-64zM-64 320v64h64v-64h-64zM64 320v64h64v-64h-64zM192 320v64h64v-64h-64z" />
    <glyph glyph-name="uni1958" unicode="&#x1958;" 
d="M0 0v128h64v-128h-64zM64 128v64h64v-64h-64zM256 0v64h-128v64h128v256h64v-384h-64z" />
    <glyph glyph-name="uni1959" unicode="&#x1959;" 
d="M64 0v64h128v-64h-128zM0 64v320h64v-320h-64zM256 0v64h-64v64h64v256h64v-384h-64z" />
    <glyph glyph-name="uni195A" unicode="&#x195a;" horiz-adv-x="448" 
d="M64 0v64h64v-64h-64zM192 0v64h64v-64h-64zM320 0v64h64v-64h-64zM256 64v256h64v-256h-64zM0 64v320h64v-320h-64zM128 64v320h128v-64h-64v-256h-64z" />
    <glyph glyph-name="uni195B" unicode="&#x195b;" 
d="M64 0v64h128v-64h-128zM256 0v64h-64v64h64v64h-192v-128h-64v320h64v-128h192v128h64v-384h-64z" />
    <glyph glyph-name="uni195C" unicode="&#x195c;" 
d="M0 -128v64h256v-64h-256zM64 0v64h64v-64h-64zM256 -64v64h-64v64h64v256h64v-384h-64zM0 64v320h64v-320h-64zM128 64v320h128v-64h-64v-256h-64z" />
    <glyph glyph-name="uni195D" unicode="&#x195d;" horiz-adv-x="448" 
d="M64 0v64h192v-64h-192zM320 0v64h64v-64h-64zM0 64v256h64v-256h-64zM256 64v256h64v-256h-64zM-64 320v64h64v-64h-64zM64 320v64h192v-64h-192z" />
    <glyph glyph-name="uni195E" unicode="&#x195e;" horiz-adv-x="448" 
d="M0 -128v64h128v-64h-128zM128 -64v64h-64v64h64v256h64v-384h-64zM320 0v320h64v-320h-64zM0 64v320h128v-64h-64v-256h-64zM192 320v64h128v-64h-128z" />
    <glyph glyph-name="uni195F" unicode="&#x195f;" horiz-adv-x="448" 
d="M0 -128v64h192v-64h-192zM192 -64v384h64v-384h-64zM320 0v320h64v-320h-64zM0 256v128h64v-64h64v-64h-128zM128 320v64h64v-64h-64zM256 320v64h64v-64h-64z" />
    <glyph glyph-name="uni1960" unicode="&#x1960;" 
d="M0 -128v64h256v-64h-256zM0 64v64h64v-64h-64zM256 -64v64h-192v64h192v64h-192v64h192v128h64v-384h-64zM0 256v128h64v-64h64v-64h-128zM128 320v64h128v-64h-128z" />
    <glyph glyph-name="uni1961" unicode="&#x1961;" horiz-adv-x="448" 
d="M0 -128v64h320v-64h-320zM0 256v128h64v-64h64v-64h-128zM192 64v256h-64v64h128v-320h-64zM320 -64v64h-64v64h64v320h64v-448h-64z" />
    <glyph glyph-name="uni1962" unicode="&#x1962;" 
d="M128 128v64h64v-64h-64zM0 0v384h64v-256h64v-64h-64v-64h-64zM256 0v192h-64v64h64v128h64v-384h-64z" />
    <glyph glyph-name="uni1963" unicode="&#x1963;" horiz-adv-x="128" 
d="M0 0v384h64v-384h-64zM-64 384v64h64v-64h-64z" />
    <glyph glyph-name="uni1964" unicode="&#x1964;" horiz-adv-x="320" 
d="M0 0v384h64v-192h64v-64h-64v-128h-64zM192 0v64h-64v64h64v64h-64v64h64v128h64v-384h-64zM64 384v64h128v-64h-128z" />
    <glyph glyph-name="uni1965" unicode="&#x1965;" horiz-adv-x="320" 
d="M0 0v384h64v-384h-64zM192 0v384h64v-384h-64zM64 384v64h128v-64h-128z" />
    <glyph glyph-name="uni1966" unicode="&#x1966;" horiz-adv-x="320" 
d="M0 -128v64h192v-64h-192zM0 0v384h64v-384h-64zM192 -64v448h64v-448h-64zM64 384v64h128v-64h-128z" />
    <glyph glyph-name="uni1967" unicode="&#x1967;" horiz-adv-x="320" 
d="M-64 -128v64h64v-64h-64zM64 -128v64h192v-64h-192zM0 -64v448h64v-448h-64z" />
    <glyph glyph-name="uni1968" unicode="&#x1968;" horiz-adv-x="320" 
d="M64 -128v64h192v-64h-192zM0 -64v448h64v-448h-64z" />
    <glyph glyph-name="uni1969" unicode="&#x1969;" horiz-adv-x="320" 
d="M64 -128v64h128v-64h-128zM0 -64v448h64v-448h-64zM192 -64v448h64v-448h-64z" />
    <glyph glyph-name="uni196A" unicode="&#x196a;" horiz-adv-x="320" 
d="M64 -128v64h192v-64h-192zM0 -64v448h64v-192h64v-64h-64v-192h-64zM192 0v64h-64v64h64v64h-64v64h64v128h64v-384h-64zM64 384v64h128v-64h-128z" />
    <glyph glyph-name="uni196B" unicode="&#x196b;" horiz-adv-x="320" 
d="M64 -128v64h192v-64h-192zM0 -64v448h64v-448h-64zM192 0v384h64v-384h-64zM64 384v64h128v-64h-128z" />
    <glyph glyph-name="uni196C" unicode="&#x196c;" horiz-adv-x="320" 
d="M0 0v384h64v-384h-64zM64 384v64h192v-64h-192z" />
    <glyph glyph-name="uni196D" unicode="&#x196d;" horiz-adv-x="448" 
d="M0 -128v64h192v-64h-192zM192 -64v384h64v-256h64v-64h-64v-64h-64zM320 64v256h64v-256h-64zM0 256v128h64v-64h64v-64h-128zM128 320v64h64v-64h-64z" />
    <glyph glyph-name="uni1970" unicode="&#x1970;" horiz-adv-x="448" 
d="M0 0v64h64v-64h-64zM320 0v64h64v-64h-64zM256 64v256h64v-256h-64zM64 64v256h-64v64h256v-64h-128v-256h-64z" />
    <glyph glyph-name="uni1971" unicode="&#x1971;" 
d="M64 0v64h192v-64h-192zM256 64v64h64v-64h-64zM0 64v256h64v-64h192v-64h-192v-128h-64zM256 256v64h64v-64h-64zM64 320v64h192v-64h-192z" />
    <glyph glyph-name="uni1972" unicode="&#x1972;" horiz-adv-x="448" 
d="M64 0v64h192v-64h-192zM320 0v64h64v-64h-64zM0 64v256h64v-256h-64zM256 64v256h64v-256h-64zM64 320v64h192v-64h-192z" />
    <glyph glyph-name="uni1973" unicode="&#x1973;" 
d="M64 0v64h192v-64h-192zM256 256v64h-64v-64h64zM0 64v320h64v-320h-64zM256 64v128h-128v192h192v-320h-64z" />
    <glyph glyph-name="uni1974" unicode="&#x1974;" 
d="M64 0v64h192v-64h-192zM256 64v64h64v-64h-64zM0 64v256h64v-256h-64zM256 256v64h64v-64h-64zM64 320v64h192v-64h-192z" />
    <glyph glyph-name="uni1975" unicode="&#x1975;" horiz-adv-x="640" 
d="M128 -128v64h192v-64h-192zM320 -64v64h64v-64h-64zM64 0v64h192v-64h-192zM384 0v64h64v-64h-64zM0 64v320h64v-320h-64zM448 64v128h-64v64h64v128h64v-128h64v-64h-64v-128h-64zM256 64v320h-192v64h384v-64h-128v-320h-64z" />
    <glyph glyph-name="uni1976" unicode="&#x1976;" horiz-adv-x="640" 
d="M192 -128v64h128v-64h-128zM320 -64v64h64v-64h-64zM64 0v64h192v-64h-192zM384 0v64h64v-64h-64zM0 64v192h64v-192h-64zM448 64v64h-64v64h64v64h64v-64h64v-64h-64v-64h-64zM256 64v192h-192v64h384v-64h-128v-192h-64z" />
    <glyph glyph-name="uni1977" unicode="&#x1977;" horiz-adv-x="512" 
d="M384 256v128h64v-128h-64zM0 256v192h64v-192h-64zM128 0v192h-64v64h64v192h256v-64h-192v-128h192v-64h-192v-192h-64z" />
    <glyph glyph-name="uni1978" unicode="&#x1978;" 
d="M64 0v64h192v-64h-192zM0 64v64h64v-64h-64zM256 64v320h-256v64h320v-384h-64z" />
    <glyph glyph-name="uni1979" unicode="&#x1979;" 
d="M64 -192v64h192v-64h-192zM0 -128v64h64v-64h-64zM256 -128v384h-256v64h320v-448h-64z" />
    <glyph glyph-name="uni197A" unicode="&#x197a;" 
d="M256 192v64h64v-64h-64zM0 192v128h64v-128h-64zM128 0v128h-64v64h64v128h128v-64h-64v-64h64v-64h-64v-128h-64z" />
    <glyph glyph-name="uni1EFA" unicode="&#x1efa;" 
d="M0 0v448h64v-384h64v384h64v-384h128v-64h-320z" />
    <glyph glyph-name="uni1EFB" unicode="&#x1efb;" 
d="M64 0v320h-64v64h64v64h64v-64h64v64h64v-64h64v-64h-64v-320h-64v320h-64v-320h-64z" />
    <glyph glyph-name="uni1EFC" unicode="&#x1efc;" 
d="M64 0v64h192v-64h-192zM128 192v64h64v-64h-64zM256 64v192h64v-192h-64zM0 64v256h64v-256h-64zM192 256v64h64v-64h-64zM64 320v64h64v-64h-64zM128 384v64h64v-64h-64z" />
    <glyph glyph-name="uni1EFD" unicode="&#x1efd;" 
d="M64 0v64h192v-64h-192zM128 128v64h64v-64h-64zM256 64v128h64v-128h-64zM0 64v192h64v-192h-64zM192 192v64h64v-64h-64zM64 256v64h64v-64h-64zM128 320v64h128v-64h-128z" />
    <glyph glyph-name="uni3190" unicode="&#x3190;" horiz-adv-x="192" 
d="M0 0v192h64v-192h-64zM64 192v256h64v-256h-64z" />
    <glyph glyph-name="uni3191" unicode="&#x3191;" 
d="M192 64v64h64v-64h-64zM0 0v192h64v-128h128v-64h-192zM256 128v64h64v-64h-64zM64 192v256h64v-256h-64z" />
    <glyph glyph-name="uni3192" unicode="&#x3192;" 
d="M0 320v64h192v-64h-192zM192 384v64h128v-64h-128z" />
    <glyph glyph-name="uni3193" unicode="&#x3193;" 
d="M0 128v64h192v-64h-192zM192 192v64h128v-64h-128zM0 320v64h192v-64h-192zM192 384v64h128v-64h-128z" />
    <glyph glyph-name="uni3194" unicode="&#x3194;" 
d="M0 64v64h192v-64h-192zM192 128v64h128v-64h-128zM128 256v64h128v-64h-128zM0 384v64h192v-64h-192zM192 448v64h128v-64h-128z" />
    <glyph glyph-name="uni3195" unicode="&#x3195;" horiz-adv-x="448" 
d="M192 192v64h128v-64h-128zM320 384v64h-64v-64h64zM-64 128v256h64v-64h64v64h-64v64h192v64h192v-256h-64v64h-128v64h-64v-128h-128v-64h192v-64h-256z" />
    <glyph glyph-name="uni3196" unicode="&#x3196;" 
d="M0 128v64h192v-64h-192zM192 192v64h128v-64h-128zM128 256v192h64v-64h128v-64h-128v-64h-64z" />
    <glyph glyph-name="uni3197" unicode="&#x3197;" 
d="M128 320v64h-64v-64h64zM256 320v64h-64v-64h64zM128 0v256h-128v192h128v64h64v-64h128v-192h-128v-256h-64z" />
    <glyph glyph-name="uni3198" unicode="&#x3198;" 
d="M64 0v128h64v-128h-64zM256 192v64h64v-64h-64zM128 128v256h-128v64h192v-128h64v-64h-64v-128h-64zM192 448v64h128v-64h-128z" />
    <glyph glyph-name="uni3199" unicode="&#x3199;" 
d="M64 0v64h64v-64h-64zM128 192v64h-64v-64h64zM256 192v64h-64v-64h64zM128 320v64h-64v-64h64zM256 320v64h-64v-64h64zM128 64v64h-128v320h320v-320h-128v-64h-64z" />
    <glyph glyph-name="uni319A" unicode="&#x319a;" 
d="M64 64v64h192v-64h-192zM0 128v64h64v-64h-64zM256 128v64h64v-64h-64zM64 192v64h64v-64h-64zM128 256v64h-128v64h192v64h128v-64h-64v-64h-64v-64h-64z" />
    <glyph glyph-name="uni319B" unicode="&#x319b;" 
d="M0 64v256h128v64h-128v64h192v-64h128v-320h-64v64h-64v64h64v128h-64v-128h-64v64h-64v-64h64v-64h-64v-64h-64zM192 448v64h128v-64h-128z" />
    <glyph glyph-name="uni319C" unicode="&#x319c;" 
d="M64 64v64h64v-64h-64zM0 128v128h64v-128h-64zM128 128v256h-128v64h192v-320h-64zM192 448v64h128v-64h-128z" />
    <glyph glyph-name="uni319D" unicode="&#x319d;" 
d="M0 64v64h64v-64h-64zM256 64v64h64v-64h-64zM64 128v64h64v-64h-64zM192 128v64h64v-64h-64zM128 192v64h-128v64h128v64h-128v64h192v-64h128v-64h-128v-128h-64zM192 448v64h128v-64h-128z" />
    <glyph glyph-name="uni319E" unicode="&#x319e;" horiz-adv-x="576" 
d="M192 0v64h256v-64h-256zM-64 64v64h64v-64h-64zM128 64v64h64v-64h-64zM448 64v64h64v-64h-64zM0 128v128h-64v64h64v128h64v-128h64v-64h-64v-64h64v-64h-128zM192 128v320h64v-192h64v192h64v-128h128v-128h-64v64h-64v-128h-64v64h-64v-64h-64z" />
    <glyph glyph-name="uni319F" unicode="&#x319f;" 
d="M0 0v64h64v-64h-64zM256 0v128h64v-128h-64zM64 64v128h64v-128h-64zM192 128v64h-64v256h64v-128h64v-192h-64z" />
    <glyph glyph-name="uniA4D0" unicode="&#xa4d0;" 
d="M256 64v128h64v-128h-64zM256 256v128h64v-128h-64zM0 0v448h256v-64h-192v-128h192v-64h-192v-128h192v-64h-256z" />
    <glyph glyph-name="uniA4D1" unicode="&#xa4d1;" 
d="M256 256v128h64v-128h-64zM0 0v448h256v-64h-192v-128h192v-64h-192v-192h-64z" />
    <glyph glyph-name="uniA4D2" unicode="&#xa4d2;" 
d="M0 64v128h64v-128h-64zM64 0v64h192v128h-192v64h192v192h64v-448h-256z" />
    <glyph glyph-name="uniA4D3" unicode="&#xa4d3;" 
d="M256 64v320h64v-320h-64zM0 0v448h256v-64h-192v-320h192v-64h-256z" />
    <glyph glyph-name="uniA4D4" unicode="&#xa4d4;" 
d="M128 0v384h-128v64h320v-64h-128v-384h-64z" />
    <glyph glyph-name="uniA4D5" unicode="&#xa4d5;" 
d="M0 0v64h128v384h64v-384h128v-64h-320z" />
    <glyph glyph-name="uniA4D6" unicode="&#xa4d6;" 
d="M64 0v64h192v64h-64v64h128v-192h-256zM0 64v320h64v-320h-64zM64 384v64h256v-64h-256z" />
    <glyph glyph-name="uniA4D7" unicode="&#xa4d7;" 
d="M256 0v64h64v-64h-64zM192 64v64h64v-64h-64zM128 128v64h64v-64h-64zM128 256v64h64v-64h-64zM192 320v64h64v-64h-64zM0 0v448h64v-192h64v-64h-64v-192h-64zM256 384v64h64v-64h-64z" />
    <glyph glyph-name="uniA4D8" unicode="&#xa4d8;" 
d="M0 0v64h64v-64h-64zM64 64v64h64v-64h-64zM128 128v64h64v-64h-64zM128 256v64h64v-64h-64zM64 320v64h64v-64h-64zM0 384v64h64v-64h-64zM256 0v192h-64v64h64v192h64v-448h-64z" />
    <glyph glyph-name="uniA4D9" unicode="&#xa4d9;" horiz-adv-x="192" 
d="M0 -320v64h64v-64h-64zM64 -256v704h64v-704h-64z" />
    <glyph glyph-name="uniA4DA" unicode="&#xa4da;" 
d="M64 0v64h256v-64h-256zM0 64v320h64v-320h-64zM64 384v64h256v-64h-256z" />
    <glyph glyph-name="uniA4DB" unicode="&#xa4db;" 
d="M0 0v64h256v-64h-256zM256 64v320h64v-320h-64zM0 384v64h256v-64h-256z" />
    <glyph glyph-name="uniA4DC" unicode="&#xa4dc;" 
d="M0 0v128h64v-64h256v-64h-320zM64 128v64h64v-64h-64zM128 192v64h64v-64h-64zM192 256v64h64v-64h-64zM256 320v64h-256v64h320v-128h-64z" />
    <glyph glyph-name="uniA4DD" unicode="&#xa4dd;" 
d="M0 0v448h320v-64h-256v-128h256v-64h-256v-192h-64z" />
    <glyph glyph-name="uniA4DE" unicode="&#xa4de;" 
d="M0 0v64h256v128h-256v64h256v192h64v-448h-320z" />
    <glyph glyph-name="uniA4DF" unicode="&#xa4df;" 
d="M128 256v64h64v-64h-64zM0 0v448h64v-64h64v-64h-64v-320h-64zM256 0v320h-64v64h64v64h64v-448h-64z" />
    <glyph glyph-name="uniA4E0" unicode="&#xa4e0;" 
d="M128 256v64h64v-64h-64zM0 0v448h64v-64h64v-64h-64v-320h-64zM256 0v192h-64v64h64v192h64v-448h-64z" />
    <glyph glyph-name="uniA4E1" unicode="&#xa4e1;" 
d="M0 0v448h64v-384h256v-64h-320z" />
    <glyph glyph-name="uniA4E2" unicode="&#xa4e2;" 
d="M64 0v64h192v-64h-192zM0 64v64h64v-64h-64zM256 64v64h64v-64h-64zM192 128v64h64v-64h-64zM128 192v64h64v-64h-64zM64 256v64h64v-64h-64zM0 320v64h64v-64h-64zM256 320v64h64v-64h-64zM64 384v64h192v-64h-192z" />
    <glyph glyph-name="uniA4E3" unicode="&#xa4e3;" 
d="M256 0v64h64v-64h-64zM192 64v64h64v-64h-64zM256 256v128h64v-128h-64zM0 0v448h256v-64h-192v-128h192v-64h-64v-64h-64v64h-64v-192h-64z" />
    <glyph glyph-name="uniA4E4" unicode="&#xa4e4;" 
d="M0 64v128h64v-128h-64zM128 320v64h64v-64h-64zM64 384v64h64v-64h-64zM64 0v64h192v128h-192v64h128v64h64v128h64v-448h-256z" />
    <glyph glyph-name="uniA4E5" unicode="&#xa4e5;" 
d="M0 0v320h64v-320h-64zM256 0v320h64v-320h-64zM64 320v64h64v-64h-64zM192 320v64h64v-64h-64zM128 384v64h64v-64h-64z" />
    <glyph glyph-name="uniA4E6" unicode="&#xa4e6;" 
d="M128 0v64h64v-64h-64zM64 64v64h64v-64h-64zM192 64v64h64v-64h-64zM0 128v320h64v-320h-64zM256 128v320h64v-320h-64z" />
    <glyph glyph-name="uniA4E7" unicode="&#xa4e7;" 
d="M0 0v448h64v-192h192v192h64v-448h-64v192h-192v-192h-64z" />
    <glyph glyph-name="uniA4E8" unicode="&#xa4e8;" 
d="M0 0v64h256v-64h-256zM256 64v320h64v-320h-64zM0 256v192h256v-64h-192v-64h64v-64h-128z" />
    <glyph glyph-name="uniA4E9" unicode="&#xa4e9;" horiz-adv-x="192" 
d="M0 -320v1088h64v-1088h-64zM64 768v64h64v-64h-64z" />
    <glyph glyph-name="uniA4EA" unicode="&#xa4ea;" 
d="M64 0v64h64v-64h-64zM192 0v64h64v-64h-64zM0 64v384h64v-384h-64zM128 64v384h64v-384h-64zM256 64v384h64v-384h-64z" />
    <glyph glyph-name="uniA4EB" unicode="&#xa4eb;" 
d="M0 0v128h64v-128h-64zM256 0v128h64v-128h-64zM64 128v64h64v-64h-64zM192 128v64h64v-64h-64zM128 192v64h64v-64h-64zM64 256v64h64v-64h-64zM192 256v64h64v-64h-64zM0 320v128h64v-128h-64zM256 320v128h64v-128h-64z" />
    <glyph glyph-name="uniA4EC" unicode="&#xa4ec;" 
d="M128 0v320h64v-320h-64zM64 320v64h64v-64h-64zM192 320v64h64v-64h-64zM0 384v64h64v-64h-64zM256 384v64h64v-64h-64z" />
    <glyph glyph-name="uniA4ED" unicode="&#xa4ed;" 
d="M0 64v128h64v-128h-64zM0 256v128h64v-128h-64zM64 0v64h192v128h-192v64h192v128h-192v64h256v-448h-256z" />
    <glyph glyph-name="uniA4EE" unicode="&#xa4ee;" 
d="M0 0v320h64v64h64v-64h64v64h64v-64h64v-320h-64v256h-192v-256h-64zM128 384v64h64v-64h-64z" />
    <glyph glyph-name="uniA4EF" unicode="&#xa4ef;" 
d="M128 0v64h64v-64h-64zM64 64v64h-64v320h64v-256h192v256h64v-320h-64v-64h-64v64h-64v-64h-64z" />
    <glyph glyph-name="uniA4F0" unicode="&#xa4f0;" 
d="M0 0v448h320v-64h-256v-128h256v-64h-256v-128h256v-64h-320z" />
    <glyph glyph-name="uniA4F1" unicode="&#xa4f1;" 
d="M0 0v64h256v128h-256v64h256v128h-256v64h320v-448h-320z" />
    <glyph glyph-name="uniA4F2" unicode="&#xa4f2;" horiz-adv-x="128" 
d="M0 0v448h64v-448h-64z" />
    <glyph glyph-name="uniA4F3" unicode="&#xa4f3;" 
d="M64 0v64h192v-64h-192zM0 64v320h64v-320h-64zM256 64v320h64v-320h-64zM64 384v64h192v-64h-192z" />
    <glyph glyph-name="uniA4F4" unicode="&#xa4f4;" 
d="M64 0v64h192v-64h-192zM0 64v384h64v-384h-64zM256 64v384h64v-384h-64z" />
    <glyph glyph-name="uniA4F5" unicode="&#xa4f5;" 
d="M0 0v384h64v-384h-64zM256 0v384h64v-384h-64zM64 384v64h192v-64h-192z" />
    <glyph glyph-name="uniA4F6" unicode="&#xa4f6;" 
d="M256 0v384h-256v64h320v-448h-64z" />
    <glyph glyph-name="uniA4F7" unicode="&#xa4f7;" 
d="M0 64v320h64v-320h-64zM64 0v64h192v320h-192v64h256v-448h-256z" />
    <glyph glyph-name="uniA4F8" unicode="&#xa4f8;" horiz-adv-x="128" 
d="M0 0v64h64v-64h-64z" />
    <glyph glyph-name="uniA4F9" unicode="&#xa4f9;" horiz-adv-x="128" 
d="M0 -64v128h64v-128h-64z" />
    <glyph glyph-name="uniA4FA" unicode="&#xa4fa;" horiz-adv-x="256" 
d="M0 0v64h64v-64h-64zM128 0v64h64v-64h-64z" />
    <glyph glyph-name="uniA4FB" unicode="&#xa4fb;" horiz-adv-x="256" 
d="M0 0v64h64v-64h-64zM128 -64v128h64v-128h-64z" />
    <glyph glyph-name="uniA4FC" unicode="&#xa4fc;" horiz-adv-x="128" 
d="M0 -64v128h64v-128h-64zM0 128v64h64v-64h-64z" />
    <glyph glyph-name="uniA4FD" unicode="&#xa4fd;" horiz-adv-x="128" 
d="M0 0v64h64v-64h-64zM0 128v64h64v-64h-64z" />
    <glyph glyph-name="uniA4FE" unicode="&#xa4fe;" horiz-adv-x="320" 
d="M192 0v64h64v-64h-64zM0 128v64h192v-64h-192z" />
    <glyph glyph-name="uniA4FF" unicode="&#xa4ff;" horiz-adv-x="320" 
d="M64 64v64h192v-64h-192zM64 192v64h192v-64h-192z" />
    <glyph glyph-name="uniA500" unicode="&#xa500;" 
d="M0 192v64h64v-64h-64zM256 192v64h64v-64h-64zM0 0v64h128v320h-128v64h320v-64h-128v-320h128v-64h-320z" />
    <glyph glyph-name="uniA65E" unicode="&#xa65e;" 
d="M0 256v128h64v-128h-64zM256 256v128h64v-128h-64zM128 0v384h-64v64h192v-64h-64v-384h-64z" />
    <glyph glyph-name="uniA65F" unicode="&#xa65f;" 
d="M0 64v128h64v-128h-64zM256 64v128h64v-128h-64zM128 -192v384h-64v64h192v-64h-64v-384h-64z" />
    <glyph glyph-name="uniA72C" unicode="&#xa72c;" horiz-adv-x="448" 
d="M64 0v64h192v-64h-192zM0 64v64h64v-64h-64zM128 320v64h64v-64h-64zM256 64v128h-256v64h64v64h64v-64h128v128h-64v64h128v-192h64v-64h-64v-128h-64z" />
    <glyph glyph-name="uniA72D" unicode="&#xa72d;" 
d="M64 -320v64h128v-64h-128zM0 -256v64h64v-64h-64zM192 -256v256h-192v64h64v64h64v-64h64v64h-64v64h64v64h64v-192h64v-64h-64v-256h-64z" />
    <glyph glyph-name="uniA75A" unicode="&#xa75a;" 
d="M256 0v128h64v-128h-64zM192 128v128h64v-128h-64zM256 256v128h64v-128h-64zM0 384v64h256v-64h-256z" />
    <glyph glyph-name="uniA75B" unicode="&#xa75b;" horiz-adv-x="256" 
d="M128 0v64h64v-64h-64zM64 64v128h64v-128h-64zM128 192v64h64v-64h-64zM0 256v64h128v-64h-128z" />
    <glyph glyph-name="uniA768" unicode="&#xa768;" 
d="M128 64v64h64v-64h-64zM192 128v64h64v-64h-64zM256 192v192h64v-192h-64zM0 -320v768h64v-384h64v-64h-64v-320h-64zM192 384v64h64v-64h-64z" />
    <glyph glyph-name="uniA769" unicode="&#xa769;" 
d="M128 64v64h64v-64h-64zM192 128v64h64v-64h-64zM256 192v64h64v-64h-64zM0 -320v640h64v-256h64v-64h-64v-320h-64zM192 256v64h64v-64h-64z" />
    <glyph glyph-name="uniA786" unicode="&#xa786;" 
d="M128 0v64h128v-64h-128zM64 64v64h64v-64h-64zM256 64v64h64v-64h-64zM0 128v128h64v-128h-64zM64 256v64h64v-64h-64zM128 320v64h-128v64h320v-64h-128v-64h-64z" />
    <glyph glyph-name="uniA787" unicode="&#xa787;" 
d="M64 0v64h192v-64h-192zM0 64v64h64v-64h-64zM256 64v64h64v-64h-64zM64 128v64h64v-64h-64zM128 192v64h-128v64h320v-64h-128v-64h-64z" />
    <glyph glyph-name="uniFF01" unicode="&#xff01;" horiz-adv-x="128" 
d="M0 0v64h64v-64h-64zM0 128v320h64v-320h-64z" />
    <glyph glyph-name="uniFF02" unicode="&#xff02;" 
d="M64 320v64h64v-64h-64zM192 320v64h64v-64h-64zM0 384v64h64v-64h-64zM256 384v64h64v-64h-64z" />
    <glyph glyph-name="uniFF10" unicode="&#xff10;" horiz-adv-x="448" 
d="M64 0v64h256v-64h-256zM0 64v320h64v-320h-64zM320 64v320h64v-320h-64zM64 384v64h256v-64h-256z" />
    <glyph glyph-name="uniFF11" unicode="&#xff11;" horiz-adv-x="320" 
d="M0 320v64h64v-64h-64zM192 0v384h-128v64h192v-448h-64z" />
    <glyph glyph-name="uniFF12" unicode="&#xff12;" horiz-adv-x="448" 
d="M0 0v192h64v-128h320v-64h-384zM64 192v64h256v-64h-256zM0 320v64h64v-64h-64zM320 256v128h64v-128h-64zM64 384v64h256v-64h-256z" />
    <glyph glyph-name="uniFF13" unicode="&#xff13;" horiz-adv-x="448" 
d="M64 0v64h256v-64h-256zM0 64v64h64v-64h-64zM320 64v128h64v-128h-64zM256 192v64h64v-64h-64zM0 320v64h64v-64h-64zM320 256v128h64v-128h-64zM64 384v64h256v-64h-256z" />
    <glyph glyph-name="uniFF14" unicode="&#xff14;" horiz-adv-x="448" 
d="M64 256v64h64v-64h-64zM128 320v64h64v-64h-64zM320 0v128h-320v128h64v-64h256v192h-128v64h192v-448h-64z" />
    <glyph glyph-name="uniFF15" unicode="&#xff15;" horiz-adv-x="448" 
d="M64 0v64h256v-64h-256zM0 64v64h64v-64h-64zM320 64v128h64v-128h-64zM0 192v128h64v-64h256v-64h-320zM64 320v64h-64v64h384v-64h-256v-64h-64z" />
    <glyph glyph-name="uniFF16" unicode="&#xff16;" horiz-adv-x="448" 
d="M64 0v64h256v-64h-256zM320 64v128h64v-128h-64zM0 64v320h64v-128h256v-64h-256v-128h-64zM320 320v64h64v-64h-64zM64 384v64h256v-64h-256z" />
    <glyph glyph-name="uniFF17" unicode="&#xff17;" horiz-adv-x="448" 
d="M0 0v64h64v-64h-64zM64 64v64h64v-64h-64zM128 128v64h-128v64h256v64h64v-64h64v-64h-192v-64h-64zM320 320v64h-320v64h384v-128h-64z" />
    <glyph glyph-name="uniFF18" unicode="&#xff18;" horiz-adv-x="448" 
d="M0 64v128h64v-128h-64zM64 0v64h256v128h64v-192h-320zM64 192v64h256v-64h-256zM320 256v128h64v-128h-64zM0 256v192h320v-64h-256v-128h-64z" />
    <glyph glyph-name="uniFF19" unicode="&#xff19;" 
d="M64 0v64h192v-64h-192zM0 64v64h64v-64h-64zM0 256v128h64v-128h-64zM256 64v128h-192v64h192v128h64v-320h-64zM64 384v64h192v-64h-192z" />
    <glyph glyph-name="uniFF21" unicode="&#xff21;" horiz-adv-x="576" 
d="M0 0v64h64v-64h-64zM448 0v64h64v-64h-64zM64 64v128h64v-128h-64zM384 64v128h64v-128h-64zM128 192v128h64v-64h128v64h64v-128h-256zM192 320v128h128v-128h-128z" />
    <glyph glyph-name="uniFF22" unicode="&#xff22;" horiz-adv-x="512" 
d="M384 64v64h64v-64h-64zM320 128v64h64v-64h-64zM320 256v128h64v-128h-64zM0 0v448h320v-64h-256v-128h256v-64h-256v-128h320v-64h-384z" />
    <glyph glyph-name="uniFF23" unicode="&#xff23;" horiz-adv-x="448" 
d="M64 0v64h256v-64h-256zM320 64v64h64v-64h-64zM320 256v64h64v-64h-64zM0 64v320h64v-320h-64zM256 320v64h64v-64h-64zM64 384v64h192v-64h-192z" />
    <glyph glyph-name="uniFF24" unicode="&#xff24;" horiz-adv-x="448" 
d="M320 64v320h64v-320h-64zM0 0v448h320v-64h-256v-320h256v-64h-320z" />
    <glyph glyph-name="uniFF25" unicode="&#xff25;" horiz-adv-x="448" 
d="M0 0v448h384v-64h-320v-128h64v-64h-64v-128h320v-64h-384z" />
    <glyph glyph-name="uniFF26" unicode="&#xff26;" horiz-adv-x="448" 
d="M0 0v448h384v-64h-320v-128h64v-64h-64v-192h-64z" />
    <glyph glyph-name="uniFF27" unicode="&#xff27;" horiz-adv-x="448" 
d="M256 -256v64h64v192h-256v64h256v64h64v-384h-128zM0 64v320h64v-320h-64zM320 320v64h64v-64h-64zM64 384v64h256v-64h-256z" />
    <glyph glyph-name="uniFF28" unicode="&#xff28;" horiz-adv-x="448" 
d="M0 0v448h64v-192h256v192h64v-448h-64v192h-256v-192h-64z" />
    <glyph glyph-name="uniFF29" unicode="&#xff29;" horiz-adv-x="256" 
d="M0 0v64h64v320h-64v64h192v-64h-64v-320h64v-64h-192z" />
    <glyph glyph-name="uniFF2A" unicode="&#xff2a;" horiz-adv-x="256" 
d="M0 -192v64h64v-64h-64zM64 -128v512h-64v64h192v-64h-64v-512h-64z" />
    <glyph glyph-name="uniFF2B" unicode="&#xff2b;" horiz-adv-x="448" 
d="M320 0v64h64v-64h-64zM256 64v64h64v-64h-64zM192 128v64h64v-64h-64zM192 320v64h64v-64h-64zM0 0v448h64v-128h128v-128h-64v64h-64v-256h-64zM256 384v64h128v-64h-128z" />
    <glyph glyph-name="uniFF2C" unicode="&#xff2c;" horiz-adv-x="448" 
d="M0 0v448h64v-384h320v-64h-384z" />
    <glyph glyph-name="uniFF2D" unicode="&#xff2d;" horiz-adv-x="448" 
d="M192 256v64h64v-64h-64zM0 0v448h64v-64h128v-64h-128v-320h-64zM320 0v320h-64v64h64v64h64v-448h-64z" />
    <glyph glyph-name="uniFF2E" unicode="&#xff2e;" horiz-adv-x="448" 
d="M192 128v128h64v-128h-64zM128 256v64h64v-64h-64zM0 0v448h64v-64h64v-64h-64v-320h-64zM320 0v64h-64v64h64v320h64v-448h-64z" />
    <glyph glyph-name="uniFF2F" unicode="&#xff2f;" horiz-adv-x="448" 
d="M64 0v64h256v-64h-256zM0 64v320h64v-320h-64zM320 64v320h64v-320h-64zM64 384v64h256v-64h-256z" />
    <glyph glyph-name="uniFF30" unicode="&#xff30;" horiz-adv-x="448" 
d="M320 256v128h64v-128h-64zM0 0v448h320v-64h-256v-128h256v-64h-256v-192h-64z" />
    <glyph glyph-name="uniFF31" unicode="&#xff31;" horiz-adv-x="448" 
d="M64 -128v64h192v-64h-192zM256 -64v64h-128v64h192v-128h-64zM0 64v320h128v-64h-64v-192h64v-64h-128zM320 64v320h64v-320h-64zM128 384v64h192v-64h-192z" />
    <glyph glyph-name="uniFF32" unicode="&#xff32;" horiz-adv-x="448" 
d="M320 0v192h64v-192h-64zM128 192v64h192v-64h-192zM320 256v128h64v-128h-64zM0 0v448h320v-64h-256v-384h-64z" />
    <glyph glyph-name="uniFF33" unicode="&#xff33;" horiz-adv-x="448" 
d="M64 0v64h256v-64h-256zM0 64v64h64v-64h-64zM320 64v64h64v-64h-64zM256 128v64h64v-64h-64zM128 192v64h128v-64h-128zM64 256v64h64v-64h-64zM0 320v64h64v-64h-64zM320 320v64h64v-64h-64zM64 384v64h256v-64h-256z" />
    <glyph glyph-name="uniFF34" unicode="&#xff34;" horiz-adv-x="448" 
d="M192 0v384h-192v64h384v-64h-128v-384h-64z" />
    <glyph glyph-name="uniFF35" unicode="&#xff35;" horiz-adv-x="448" 
d="M64 0v64h256v-64h-256zM0 64v384h64v-384h-64zM320 64v384h64v-384h-64z" />
    <glyph glyph-name="uniFF36" unicode="&#xff36;" horiz-adv-x="448" 
d="M192 0v64h64v-64h-64zM128 64v128h64v-128h-64zM256 64v192h64v-192h-64zM64 192v128h64v-128h-64zM0 320v128h64v-128h-64zM320 256v192h64v-192h-64z" />
    <glyph glyph-name="uniFF37" unicode="&#xff37;" horiz-adv-x="512" 
d="M64 0v64h64v-64h-64zM320 0v64h64v-64h-64zM128 64v64h64v-64h-64zM256 64v64h64v-64h-64zM0 64v384h64v-384h-64zM192 128v320h64v-320h-64zM384 64v384h64v-384h-64z" />
    <glyph glyph-name="uniFF38" unicode="&#xff38;" horiz-adv-x="448" 
d="M0 0v64h64v-64h-64zM320 0v64h64v-64h-64zM64 64v64h64v-64h-64zM256 64v64h64v-64h-64zM128 128v192h128v-192h-128zM64 320v64h64v-64h-64zM256 320v64h64v-64h-64zM0 384v64h64v-64h-64zM320 384v64h64v-64h-64z" />
    <glyph glyph-name="uniFF39" unicode="&#xff39;" horiz-adv-x="448" 
d="M64 0v64h64v192h64v-192h64v-64h-192zM192 256v64h64v-64h-64zM64 256v128h64v-128h-64zM256 320v64h64v-64h-64zM0 384v64h64v-64h-64zM320 384v64h64v-64h-64z" />
    <glyph glyph-name="uniFF3A" unicode="&#xff3a;" horiz-adv-x="448" 
d="M0 0v128h64v-64h256v64h64v-128h-384zM64 128v64h64v-64h-64zM128 192v64h128v-64h-128zM256 256v64h64v-64h-64zM0 320v128h384v-128h-64v64h-256v-64h-64z" />
    <glyph glyph-name="uniFF41" unicode="&#xff41;" horiz-adv-x="448" 
d="M0 64v64h64v-64h-64zM64 0v64h256v64h-256v64h256v64h64v-256h-320zM0 256v64h320v-64h-320z" />
    <glyph glyph-name="uniFF42" unicode="&#xff42;" horiz-adv-x="448" 
d="M64 0v64h256v-64h-256zM320 64v192h64v-192h-64zM0 64v384h64v-128h256v-64h-256v-192h-64z" />
    <glyph glyph-name="uniFF43" unicode="&#xff43;" 
d="M64 0v64h192v-64h-192zM256 64v64h64v-64h-64zM0 64v192h64v-192h-64zM256 192v64h64v-64h-64zM64 256v64h192v-64h-192z" />
    <glyph glyph-name="uniFF44" unicode="&#xff44;" 
d="M0 64v192h64v-192h-64zM64 0v64h192v192h-192v64h192v128h64v-448h-256z" />
    <glyph glyph-name="uniFF45" unicode="&#xff45;" horiz-adv-x="448" 
d="M256 64v64h64v-64h-64zM128 128v64h64v-64h-64zM64 0v64h-64v192h64v-128h64v-64h128v-64h-192zM192 192v64h-128v64h256v-64h64v-64h-192z" />
    <glyph glyph-name="uniFF46" unicode="&#xff46;" horiz-adv-x="448" 
d="M0 0v448h64v-192h320v-64h-320v-192h-64zM320 384v64h64v-64h-64zM64 448v64h256v-64h-256z" />
    <glyph glyph-name="uniFF47" unicode="&#xff47;" horiz-adv-x="448" 
d="M64 -384v64h192v-64h-192zM0 -320v128h64v-128h-64zM256 -320v128h64v-128h-64zM64 -192v64h192v-64h-192zM0 -128v64h64v-64h-64zM64 -64v128h256v-64h-192v-64h-64zM0 64v192h64v-192h-64zM320 64v192h64v-192h-64zM64 256v64h256v-64h-256z" />
    <glyph glyph-name="uniFF48" unicode="&#xff48;" 
d="M256 0v256h64v-256h-64zM0 0v448h64v-128h192v-64h-192v-256h-64z" />
    <glyph glyph-name="uniFF49" unicode="&#xff49;" horiz-adv-x="128" 
d="M0 0v320h64v-320h-64zM0 384v64h64v-64h-64z" />
    <glyph glyph-name="uniFF4A" unicode="&#xff4a;" horiz-adv-x="256" 
d="M0 -192v64h64v-64h-64zM64 -128v384h-64v64h192v-64h-64v-384h-64zM64 384v64h64v-64h-64z" />
    <glyph glyph-name="uniFF4B" unicode="&#xff4b;" 
d="M256 0v64h64v-64h-64zM192 64v128h64v-128h-64zM192 256v64h128v-64h-128zM0 0v448h64v-192h128v-64h-128v-192h-64z" />
    <glyph glyph-name="uniFF4C" unicode="&#xff4c;" horiz-adv-x="192" 
d="M64 0v64h64v-64h-64zM0 64v384h64v-384h-64z" />
    <glyph glyph-name="uniFF4D" unicode="&#xff4d;" horiz-adv-x="448" 
d="M192 0v256h64v-256h-64zM320 0v256h64v-256h-64zM0 0v320h192v-64h-128v-256h-64zM256 256v64h64v-64h-64z" />
    <glyph glyph-name="uniFF4E" unicode="&#xff4e;" horiz-adv-x="448" 
d="M320 0v256h64v-256h-64zM0 0v320h320v-64h-256v-256h-64z" />
    <glyph glyph-name="uniFF4F" unicode="&#xff4f;" horiz-adv-x="448" 
d="M64 0v64h256v-64h-256zM0 64v192h64v-192h-64zM320 64v192h-256v64h320v-256h-64z" />
    <glyph glyph-name="uniFF50" unicode="&#xff50;" horiz-adv-x="448" 
d="M320 64v192h64v-192h-64zM0 -192v512h320v-64h-256v-192h256v-64h-256v-192h-64z" />
    <glyph glyph-name="uniFF51" unicode="&#xff51;" horiz-adv-x="448" 
d="M0 64v192h64v-192h-64zM320 -192v192h-256v64h256v192h-256v64h320v-512h-64z" />
    <glyph glyph-name="uniFF52" unicode="&#xff52;" horiz-adv-x="448" 
d="M320 192v64h64v-64h-64zM0 0v320h64v-64h64v-64h-64v-192h-64zM128 256v64h192v-64h-192z" />
    <glyph glyph-name="uniFF53" unicode="&#xff53;" horiz-adv-x="448" 
d="M0 0v64h320v-64h-320zM320 64v64h64v-64h-64zM64 128v64h256v-64h-256zM0 192v64h64v-64h-64zM64 256v64h320v-64h-320z" />
    <glyph glyph-name="uniFF54" unicode="&#xff54;" horiz-adv-x="448" 
d="M64 0v64h192v-64h-192zM256 64v64h128v-64h-128zM0 64v384h64v-192h320v-64h-320v-128h-64z" />
    <glyph glyph-name="uniFF55" unicode="&#xff55;" horiz-adv-x="448" 
d="M0 64v256h64v-256h-64zM64 0v64h256v256h64v-320h-320z" />
    <glyph glyph-name="uniFF56" unicode="&#xff56;" horiz-adv-x="512" 
d="M192 0v64h64v-64h-64zM128 64v128h64v-128h-64zM256 64v128h64v-128h-64zM64 192v64h64v-64h-64zM320 192v64h64v-64h-64zM0 256v64h64v-64h-64zM384 256v64h64v-64h-64z" />
    <glyph glyph-name="uniFF57" unicode="&#xff57;" horiz-adv-x="576" 
d="M64 0v64h128v-64h-128zM256 0v64h128v-64h-128zM448 0v64h64v-64h-64zM0 64v256h64v-256h-64zM192 64v256h64v-256h-64zM384 64v256h64v-256h-64z" />
    <glyph glyph-name="uniFF58" unicode="&#xff58;" horiz-adv-x="448" 
d="M0 0v64h64v-64h-64zM320 0v64h64v-64h-64zM64 64v64h64v-64h-64zM256 64v64h64v-64h-64zM128 128v64h128v-64h-128zM64 192v64h64v-64h-64zM256 192v64h64v-64h-64zM0 256v64h64v-64h-64zM320 256v64h64v-64h-64z" />
    <glyph glyph-name="uniFF59" unicode="&#xff59;" horiz-adv-x="448" 
d="M0 -256v128h64v-64h192v-64h-256zM256 -192v192h-64v64h128v-256h-64zM128 64v64h64v-64h-64zM64 128v128h64v-128h-64zM0 256v64h64v-64h-64zM320 64v256h64v-256h-64z" />
    <glyph glyph-name="uniFF5A" unicode="&#xff5a;" horiz-adv-x="448" 
d="M0 0v128h64v-64h320v-64h-384zM64 128v64h256v-64h-256zM320 192v64h-320v64h384v-128h-64z" />
  </font>
</defs>
</svg>
