<svg width="1321" height="738" fill="none" xmlns="http://www.w3.org/2000/svg"><mask id="a" style="mask-type:alpha" maskUnits="userSpaceOnUse" x="0" y="0" width="1321" height="738"><path fill="#C4C4C4" d="M0 0h1321v738H0z"/></mask><g mask="url(#a)" stroke="#BBA5EF" stroke-miterlimit="10"><path d="M29.563-198.188v848.376m41.25-848.376v848.376m40.562-848.376v848.376m40.563-848.376-.001 849.063m41.251-849.063L193.187 732m40.563-930.188V732m40.763-239.938V-191.89m41.067 683.952-.018-43.715-.017-43.72-.018-43.72-.018-43.72-.018-43.719-.017-43.72-.018-43.72-.018-43.715-.018-43.72-.017-43.72-.018-43.72-.018-43.72-.018-43.72-.018-43.72-.017-43.715-.012-28.168m40.79 685.327V-191.89m-81.579 882.945V487.084M315.562 732V487.25m40.53 244.594v-244.76m40.595-685.272v930.876m41.25-930.876v848.376M478.5-198.188v848.376m40.562-848.376v848.376m41.25-848.376v848.376m40.563-848.376v848.376m40.563-848.376V690.75m41.25-888.938v930.875m40.562-930.875v930.875m40.562-930.875v930.875m34.542-694.328H-167.75m966.104 40.794H-167.75m966.104 40.794H-167.75m966.104 40.789H-167.75m966.104 40.794H-167.75m966.104 40.795H-167.75m966.104 40.794H-167.75m966.104 40.794H-167.75m966.104 40.794H-167.75m966.104 40.794H-167.75m966.104 40.789H-167.75m966.104 40.794H-167.75m966.104 40.795H-167.75m966.104 40.794H-167.75m966.104 40.794H-167.75m966.104 40.794H-167.75m564.438 40.489H192.5m41.594 41.094h-40.906m204.187.156h-82.5" stroke-width="3"/><path d="M804.375-198.188v929.5m41.25-929.5v929.5m40.562-929.5v929.5m40.563-929.5v929.5m41.25-929.5v929.5m40.56-929.5v929.5m40.76-238.218V-191.89m40.79 638.18v45.085-683.265m40.79 638.18v51.616-689.796M1049.12 732V461.125M1090.37 732V461.125M1130.94 732V461.125m40.56-659.313v849.063m41.25-849.063v848.376m40.56-848.376v848.376m40.57-848.376v848.376m279.29-611.829H607.062m966.108 40.794H607.062m966.108 40.794H607.062m966.108 40.79H607.062m966.108 40.794H607.062m966.108 40.794H607.062m966.108 40.794H607.062m966.108 40.794H607.062m966.108 40.794H607.062m966.108 40.794H607.062m966.108 40.789H607.062m966.108 40.794H607.062m966.108 40.795H607.062m966.108 40.794H607.062m966.108 40.794H607.062m966.108 40.794H607.062m523.878 40.489H640.75M1131.62 732H682.688" stroke-width="2"/></g><path fill="#8353E3" d="M520 325h243v284H520z"/></svg>