<svg width="2533" height="1406" fill="none" xmlns="http://www.w3.org/2000/svg"><path d="M50.001 0v1405.4M109.325 0v1405.4M168.655 0v1405.4M227.986 0v1405.4M287 0v1234M347 0v1234M406 0v1234M465 0v1235M525 0v1353M584 0v1353m59.291-349V9.16M703.025 1004 703 940.414l-.026-63.592-.026-63.593-.026-63.593-.026-63.592-.026-63.593-.025-63.592-.026-63.586-.026-63.593-.026-63.592-.026-63.593-.026-63.593-.026-63.592-.025-63.593-.026-63.585-.017-40.972m59.33 996.84V9.16m-118.66 1284.28V996.759M703 1353V997m58.951 355.77V996.759M821 0v1354M881 0v1234M940 0v1234M999 0v1234M1059 0v1234M1118 0v1234M1177 0v1293M1237 0v1354M1296 0v1354M1355 0v1354m50.24-1306.61H0m1405.24 59.33H0m1405.24 59.337H0m1405.24 59.337H0m1405.24 59.336H0m1405.24 59.337H0m1405.24 59.337H0m1405.24 59.337H0m1405.24 59.33H0m1405.24 59.337H0m1405.24 59.337H0m1405.24 59.337H0m1405.24 59.336H0m1405.24 59.337H0m1405.24 59.337H0m1405.24 59.33H0m1405.24 59.337H0m1405.24 59.341H0m1405.24 59.33H0m1405.24 59.34H0m1405.24 59.34H0M821 1293H524m60.5 59.77H525m297 .23H702M1414 0v1352M1474 0v1352M1533 0v1352M1592 0v1352M1652 0v1352M1711 0v1352m59.29-346.5V9.16m59.33 928.263V1003 9.16m59.33 928.263v75.077V9.16M1770 1353V959m60 394V959m59 394V959m59-959v1235M2008 0v1234M2067 0v1234M2126 0v1234M2185.6 0v1405.4M2244.93 0v1405.4M2304.26 0v1405.4M2363.59 0v1405.4M2422.92 0v1405.4M2482.24 0v1405.4m50-1358.01H1127m1405.24 59.33H1127m1405.24 59.337H1127m1405.24 59.337H1127m1405.24 59.336H1127m1405.24 59.337H1127m1405.24 59.337H1127m1405.24 59.337H1127m1405.24 59.33H1127m1405.24 59.337H1127m1405.24 59.337H1127m1405.24 59.337H1127m1405.24 59.336H1127m1405.24 59.337H1127m1405.24 59.337H1127m1405.24 59.33H1127m1405.24 59.337H1127m1405.24 59.341H1127m1405.24 59.33H1127m1405.24 59.34H1127m1405.24 59.34H1127m762 58.89h-713m714 60h-653" stroke="#BBA5EF" stroke-width="4" stroke-miterlimit="10"/><path fill="#8353E3" d="M883 939h648v234H883z"/></svg>