<svg width="298" height="106" fill="none" xmlns="http://www.w3.org/2000/svg"><path d="M296.364 105.404a.499.499 0 0 0 .786-.41V1a.5.5 0 0 0-.786-.41l-2.598 1.81a.5.5 0 0 0-.214.41l-.069 100.327a.5.5 0 0 0 .214.41l2.667 1.857Z" fill="#000" stroke="#000" stroke-linejoin="round"/><path d="M294.397 102.039a.5.5 0 0 0-.353-.146l-290.039-.399a.501.501 0 0 0-.354.147l-3.005 3.006A.499.499 0 0 0 1 105.5h295.65a.501.501 0 0 0 .353-.853l-2.606-2.608Z" fill="#000" stroke="#000" stroke-linejoin="round"/><path d="M1.286.59A.5.5 0 0 0 .5 1v103.994a.5.5 0 0 0 .786.41l2.598-1.809a.502.502 0 0 0 .214-.41L4.167 2.858a.5.5 0 0 0-.215-.411L1.286.59Z" fill="#000" stroke="#000" stroke-linejoin="round"/><path d="M3.252 3.96a.5.5 0 0 0 .353.147l290.04.399a.5.5 0 0 0 .354-.147l3.004-3.006A.5.5 0 0 0 296.65.5H1a.5.5 0 0 0-.354.853l2.606 2.608Z" fill="#000" stroke="#000" stroke-linejoin="round"/><path d="M295.316 2.333H2.333v101.328h292.983V2.333Z" fill="#fff"/><path d="M294.111 3.538H3.537V21.31H294.11V3.538Z" fill="#8353E3"/><path d="M290.939 6.713h-11.421V18.14h11.421V6.713Z" fill="#BBA5EF"/><path d="M290.939 6.713v11.424h-11.421l11.421-11.424Z" fill="#663EC6"/><path d="M289.669 7.984h-8.881v8.886h8.881V7.984Z" fill="#fff"/><path d="M288.935 8.719h-.897l-2.809 2.81-2.807-2.81h-.899v.897l2.809 2.81-2.809 2.81v.896h.899l2.807-2.808 2.809 2.808h.897v-.895l-2.809-2.81 2.809-2.81v-.898Z" fill="#000"/><path d="M276.349 6.713h-11.421V18.14h11.421V6.713Z" fill="#BBA5EF"/><path d="M276.347 6.713v11.424h-11.421l11.421-11.424Z" fill="#663EC6"/><path d="M275.077 7.984h-8.882v8.886h8.882V7.984Z" fill="#fff"/><path d="M274.003 14.864h-6.731v1.27h6.731v-1.27Z" fill="#000"/><path d="M54.657 47.33h4.334v30.321h-4.334V55.992h-2.164v4.334h-2.167v4.33H48.16v4.334h-4.331v-4.334h-2.167v-4.33h-2.166v-4.334H37.33v21.66h-4.333V47.33h4.334v4.33h4.33v4.331h2.167v4.334h4.33v-4.334h2.167v-4.33h4.331V47.33Zm33.572 25.99h1.076v4.331H84.98v-4.33h-1.082V68.99H68.737v4.33h-1.082v4.331H63.32v-4.33h1.085V68.99h1.082v-4.334h1.082v-4.33h1.085v-4.334h1.082v-4.33h1.082V47.33h12.995v4.33h1.084v4.331h1.082v4.334h1.082v4.33h1.085v4.334h1.082v4.33Zm-6.497-12.994h-1.094v-4.334h-1.084v-4.33h-6.487v4.33h-1.081v4.334h-1.083v4.33h10.829v-4.33Zm32.49-8.665h-8.667v26.001h-4.334v-26h-8.667V47.33h21.659l.009 4.33Zm21.656 0H125.05v4.331h-3.249V68.99h3.249v4.33h10.828v4.331h-12.995v-4.33h-2.164V68.99h-3.249V55.992h3.249v-4.33h2.164V47.33h12.995v4.33Zm4.333 4.331h-4.333v-4.33h4.333v4.33Zm0 12.998v4.33h-4.333v-4.33h4.333Zm25.979-21.66v30.321h-4.32V64.656h-12.995v12.995h-4.333v-30.32h4.333v12.994h12.995V47.331h4.32Zm35.747 8.662h2.167v4.334h-1.082v4.33h-1.085v4.334h-4.331v-4.334h1.082v-4.33h1.085v-4.334h-2.167v-4.33h-10.828v4.33h-1.085v4.334h-1.082v4.33h-1.087v4.334h-1.085v4.33h10.831v-4.33h4.331v4.33h-3.243v4.331h-17.334v-4.33h1.082V68.99h1.082v-4.334h1.084v-4.33h1.082v-4.334h1.082v-4.33h1.088V47.33h17.334v4.33h1.082l-.003 4.331Zm27.074 21.659h-4.33v-8.667h-15.156v4.336h-2.167v4.331h-4.336v-4.33h2.166V68.99h2.164v-4.334h2.173v-4.33h2.166v-4.334h2.164v-4.33h2.167V47.33h12.989v30.32Zm-10.828-26v4.33h-2.166v4.333h-2.167v4.331h10.831V51.661l-6.498-.01Zm30.324 8.674v4.331h2.163v4.334h-1.082v4.33h-1.081v4.331h-4.334v-4.33h1.085V68.99h1.082v-4.334h-2.167v-4.33h-1.082v-4.334h-1.082v-4.33h-1.085V47.33h4.334v4.33h1.082v4.331h1.082v4.334h1.085Zm11.901-12.994h4.334v4.33h-3.241v4.331h-3.248v4.334h-3.249v4.33h-4.334v-4.33h3.249v-4.334h3.249v-4.33h3.24V47.33Z" fill="#43FE01"/><path d="M59.13 47.33h4.334v30.321H59.13V55.992h-2.164v4.334H54.8v4.33h-2.167v4.334h-4.33v-4.334h-2.168v-4.33H43.97v-4.334h-2.164v21.66H37.47V47.33h4.334v4.33h4.33v4.331h2.167v4.334h4.33v-4.334H54.8v-4.33h4.33V47.33Zm33.572 25.99h1.077v4.331h-4.325v-4.33h-1.082V68.99H73.21v4.33h-1.082v4.331h-4.334v-4.33h1.085V68.99h1.082v-4.334h1.082v-4.33h1.085v-4.334h1.082v-4.33h1.082V47.33h12.995v4.33h1.084v4.331h1.083v4.334h1.081v4.33h1.085v4.334h1.082v4.33Zm-6.497-12.994h-1.093v-4.334h-1.085v-4.33H77.54v4.33h-1.082v4.334h-1.082v4.33h10.828v-4.33Zm32.49-8.665h-8.667v26.001h-4.334v-26h-8.667V47.33h21.659l.009 4.33Zm21.656 0h-10.828v4.331h-3.249V68.99h3.249v4.33h10.828v4.331h-12.995v-4.33h-2.164V68.99h-3.249V55.992h3.249v-4.33h2.164V47.33h12.995v4.33Zm4.333 4.331h-4.333v-4.33h4.333v4.33Zm0 12.998v4.33h-4.333v-4.33h4.333Zm25.979-21.66v30.321h-4.32V64.656h-12.994v12.995h-4.334v-30.32h4.334v12.995h12.994V47.33h4.32Zm35.747 8.662h2.167v4.334h-1.082v4.33h-1.085v4.334h-4.331v-4.334h1.082v-4.33h1.085v-4.334h-2.167v-4.33h-10.828v4.33h-1.085v4.334h-1.082v4.33h-1.087v4.334h-1.085v4.33h10.831v-4.33h4.331v4.33h-3.243v4.331h-17.334v-4.33h1.082V68.99h1.082v-4.334h1.084v-4.33h1.082v-4.334h1.082v-4.33h1.088V47.33h17.334v4.33h1.082l-.003 4.331Zm27.075 21.659h-4.331v-8.667h-15.156v4.336h-2.167v4.331h-4.336v-4.33h2.167V68.99h2.164v-4.334h2.172v-4.33h2.167v-4.334h2.164v-4.33h2.166V47.33h12.99v30.32Zm-10.829-26v4.33h-2.166v4.333h-2.167v4.331h10.831V51.661l-6.498-.01Zm30.324 8.675v4.33h2.163v4.334h-1.081v4.33h-1.082v4.331h-4.334v-4.33h1.085V68.99h1.082v-4.334h-2.167v-4.33h-1.082v-4.334h-1.082v-4.33h-1.085V47.33h4.334v4.33h1.082v4.331h1.082v4.334h1.085Zm11.901-12.995h4.334v4.33h-3.241v4.331h-3.248v4.334h-3.249v4.33h-4.334v-4.33h3.249v-4.334h3.249v-4.33h3.24V47.33Z" fill="#FE75F0"/><path d="M56.894 47.33h4.333v30.321h-4.333V55.992H54.73v4.334h-2.167v4.33h-2.167v4.334h-4.33v-4.334h-2.167v-4.33h-2.167v-4.334h-2.164v21.66h-4.333V47.33h4.333v4.33h4.33v4.331h2.168v4.334h4.33v-4.334h2.167v-4.33h4.33V47.33Zm33.572 25.99h1.076v4.331h-4.325v-4.33h-1.082V68.99H70.973v4.33h-1.082v4.331h-4.333v-4.33h1.085V68.99h1.082v-4.334h1.082v-4.33h1.084v-4.334h1.082v-4.33h1.082V47.33H85.05v4.33h1.085v4.331h1.082v4.334h1.082v4.33h1.085v4.334h1.082v4.33Zm-6.498-12.994h-1.093v-4.334H81.79v-4.33h-6.486v4.33h-1.082v4.334H73.14v4.33h10.828v-4.33Zm32.49-8.665h-8.667v26.001h-4.333v-26h-8.667V47.33h21.659l.008 4.33Zm21.656 0h-10.828v4.331h-3.248V68.99h3.248v4.33h10.828v4.331H125.12v-4.33h-2.164V68.99h-3.249V55.992h3.249v-4.33h2.164V47.33h12.994v4.33Zm4.334 4.331h-4.334v-4.33h4.334v4.33Zm0 12.998v4.33h-4.334v-4.33h4.334Zm25.979-21.66v30.321h-4.32V64.656h-12.995v12.995h-4.333v-30.32h4.333v12.994h12.995V47.331h4.32Zm35.747 8.662h2.166v4.334h-1.082v4.33h-1.084v4.334h-4.331v-4.334h1.082v-4.33h1.085v-4.334h-2.167v-4.33h-10.828v4.33h-1.085v4.334h-1.082v4.33h-1.088v4.334h-1.084v4.33h10.831v-4.33h4.33v4.33h-3.243v4.331H179.26v-4.33h1.082V68.99h1.082v-4.334h1.085v-4.33h1.082v-4.334h1.082v-4.33h1.087V47.33h17.334v4.33h1.082l-.002 4.331Zm27.074 21.659h-4.33v-8.667h-15.156v4.336h-2.167v4.331h-4.336v-4.33h2.166V68.99h2.164v-4.334h2.173v-4.33h2.166v-4.334h2.164v-4.33h2.167V47.33h12.989v30.32Zm-10.828-26v4.33h-2.167v4.333h-2.166v4.331h10.831V51.661l-6.498-.01Zm30.323 8.674v4.331h2.164v4.334h-1.082v4.33h-1.082v4.331h-4.333v-4.33h1.084V68.99h1.082v-4.334h-2.166v-4.33h-1.082v-4.334h-1.082v-4.33h-1.085V47.33h4.333v4.33h1.082v4.331h1.082v4.334h1.085Zm11.902-12.994h4.333v4.33h-3.24v4.331h-3.249v4.334h-3.248v4.33h-4.334v-4.33h3.249v-4.334h3.249v-4.33h3.24V47.33Z" fill="#000"/></svg>