<svg width="40" height="40" viewBox="0 0 40 40" fill="none" xmlns="http://www.w3.org/2000/svg">
<path d="M8.33337 8.33331H11.6667V11.6666H8.33337V8.33331ZM15 15H11.6667V11.6666H15V15ZM18.3334 18.3333H15V15H18.3334V18.3333ZM21.6667 18.3333H18.3334V21.6666H15V25H11.6667V28.3333H8.33337V31.6666H11.6667V28.3333H15V25H18.3334V21.6666H21.6667V25H25V28.3333H28.3334V31.6666H31.6667V28.3333H28.3334V25H25V21.6666H21.6667V18.3333ZM25 15V18.3333H21.6667V15H25ZM28.3334 11.6666V15H25V11.6666H28.3334ZM28.3334 11.6666V8.33331H31.6667V11.6666H28.3334Z" fill="black"/>
</svg>
