<svg width="41" height="40" viewBox="0 0 41 40" fill="none" xmlns="http://www.w3.org/2000/svg">
<path d="M18.9417 3.33331H22.2751V36.6666H18.9417V33.3333H15.6084V30H18.9417V9.99998H15.6084V6.66665H18.9417V3.33331ZM12.2751 13.3333V9.99998H15.6084V13.3333H12.2751ZM12.2751 26.6666H5.6084V13.3333H12.2751V16.6666H8.94173V23.3333H12.2751V26.6666ZM12.2751 26.6666V30H15.6084V26.6666H12.2751ZM28.9417 16.6666H25.6084V23.3333H28.9417V16.6666ZM32.2751 13.3333H35.6084V26.6666H32.2751V13.3333ZM32.2751 26.6666V30H25.6084V26.6666H32.2751ZM32.2751 9.99998V13.3333H25.6084V9.99998H32.2751Z" fill="black"/>
</svg>
