<svg width="116" height="99" viewBox="0 0 116 99" fill="none" xmlns="http://www.w3.org/2000/svg">
<path d="M49.3842 39.5074H54.3228V34.5688H49.3842V39.5074Z" fill="black"/>
<path d="M49.3842 44.4456H54.3228V39.5073H49.3842V44.4456Z" fill="#FE3344"/>
<path d="M54.3229 44.4456H59.2611V39.5073H54.3229V44.4456Z" fill="black"/>
<path d="M49.3842 49.3841H54.3228V44.4458H49.3842V49.3841Z" fill="#FE3344"/>
<path d="M54.3229 49.3841H59.2611V44.4458H54.3229V49.3841Z" fill="#FE3344"/>
<path d="M59.2611 49.3841H64.1997V44.4458H59.2611V49.3841Z" fill="black"/>
<path d="M49.3842 54.3225H54.3228V49.3838H49.3842V54.3225Z" fill="#FE3344"/>
<path d="M54.3229 54.3225H59.2611V49.3838H54.3229V54.3225Z" fill="black"/>
<path d="M49.3842 59.261H54.3228V54.3228H49.3842V59.261Z" fill="black"/>
<path d="M24.6922 69.1379H29.6305V64.1997H24.6922V69.1379Z" fill="#FE3344"/>
<path d="M19.7536 69.1379H24.6923V64.1997H19.7536V69.1379Z" fill="black"/>
<path d="M29.6305 69.1379H34.5691V64.1997H29.6305V69.1379Z" fill="#FE3344"/>
<path d="M34.5691 69.1379H39.5074V64.1997H34.5691V69.1379Z" fill="#FE3344"/>
<path d="M39.5074 69.1379H44.4459V64.1997H39.5074V69.1379Z" fill="black"/>
<path d="M24.6923 4.93847H29.6305V0H24.6923V4.93847Z" fill="black"/>
<path d="M29.6305 4.93847H34.5692V0H29.6305V4.93847Z" fill="black"/>
<path d="M34.5692 4.93847H39.5074V0H34.5692V4.93847Z" fill="black"/>
<path d="M39.5074 4.93847H44.446V0H39.5074V4.93847Z" fill="black"/>
<path d="M24.6923 9.87656H29.6305V4.93799H24.6923V9.87656Z" fill="#FE3344"/>
<path d="M19.7536 9.87656H24.6923V4.93799H19.7536V9.87656Z" fill="black"/>
<path d="M14.8155 9.87656H19.7538V4.93799H14.8155V9.87656Z" fill="black"/>
<path d="M29.6305 9.87656H34.5692V4.93799H29.6305V9.87656Z" fill="#FE3344"/>
<path d="M34.5692 9.87656H39.5074V4.93799H34.5692V9.87656Z" fill="#FE3344"/>
<path d="M39.5074 9.87656H44.446V4.93799H39.5074V9.87656Z" fill="#FE3344"/>
<path d="M44.4462 9.87656H49.3844V4.93799H44.4462V9.87656Z" fill="black"/>
<path d="M24.6923 14.8147H29.6305V9.87646H24.6923V14.8147Z" fill="#FE3344"/>
<path d="M19.7536 14.8147H24.6923V9.87646H19.7536V14.8147Z" fill="#FE3344"/>
<path d="M14.8155 14.8147H19.7538V9.87646H14.8155V14.8147Z" fill="#FE3344"/>
<path d="M9.87698 14.8147H14.8155V9.87646H9.87698V14.8147Z" fill="black"/>
<path d="M29.6305 14.8147H34.5692V9.87646H29.6305V14.8147Z" fill="#FE3344"/>
<path d="M34.5692 14.8147H39.5074V9.87646H34.5692V14.8147Z" fill="#FE3344"/>
<path d="M39.5074 14.8147H44.446V9.87646H39.5074V14.8147Z" fill="#FE3344"/>
<path d="M44.4462 14.8147H49.3844V9.87646H44.4462V14.8147Z" fill="#FE3344"/>
<path d="M49.3844 14.8147H54.323V9.87646H49.3844V14.8147Z" fill="black"/>
<path d="M24.6923 19.7536H29.6305V14.8149H24.6923V19.7536Z" fill="white"/>
<path d="M19.7536 19.7536H24.6923V14.8149H19.7536V19.7536Z" fill="#FE3344"/>
<path d="M14.8155 19.7536H19.7538V14.8149H14.8155V19.7536Z" fill="#FE3344"/>
<path d="M9.87698 19.7536H14.8155V14.8149H9.87698V19.7536Z" fill="#FE3344"/>
<path d="M4.9386 19.7536H9.87698V14.8149H4.9386V19.7536Z" fill="black"/>
<path d="M29.6305 19.7536H34.5692V14.8149H29.6305V19.7536Z" fill="white"/>
<path d="M34.5692 19.7536H39.5074V14.8149H34.5692V19.7536Z" fill="#FE3344"/>
<path d="M39.5074 19.7536H44.446V14.8149H39.5074V19.7536Z" fill="#FE3344"/>
<path d="M44.4462 19.7536H49.3844V14.8149H44.4462V19.7536Z" fill="#FE3344"/>
<path d="M49.3844 19.7536H54.323V14.8149H49.3844V19.7536Z" fill="black"/>
<path d="M24.6922 24.6917H29.6305V19.7534H24.6922V24.6917Z" fill="#FE3344"/>
<path d="M19.7536 24.6917H24.6923V19.7534H19.7536V24.6917Z" fill="white"/>
<path d="M14.8154 24.6917H19.7536V19.7534H14.8154V24.6917Z" fill="#FE3344"/>
<path d="M9.87697 24.6917H14.8154V19.7534H9.87697V24.6917Z" fill="#FE3344"/>
<path d="M4.93858 24.6917H9.87696V19.7534H4.93858V24.6917Z" fill="black"/>
<path d="M29.6305 24.6917H34.5692V19.7534H29.6305V24.6917Z" fill="#FE3344"/>
<path d="M34.5691 24.6917H39.5074V19.7534H34.5691V24.6917Z" fill="#FE3344"/>
<path d="M39.5074 24.6917H44.446V19.7534H39.5074V24.6917Z" fill="#FE3344"/>
<path d="M44.446 24.6917H49.3843V19.7534H44.446V24.6917Z" fill="black"/>
<path d="M24.6922 29.63H29.6305V24.6914H24.6922V29.63Z" fill="#FE3344"/>
<path d="M19.7536 29.63H24.6923V24.6914H19.7536V29.63Z" fill="#FE3344"/>
<path d="M14.8154 29.63H19.7536V24.6914H14.8154V29.63Z" fill="white"/>
<path d="M9.87697 29.63H14.8154V24.6914H9.87697V29.63Z" fill="#FE3344"/>
<path d="M4.93858 29.63H9.87696V24.6914H4.93858V29.63Z" fill="#FE3344"/>
<path d="M7.62939e-05 29.63H4.93855V24.6914H7.62939e-05V29.63Z" fill="black"/>
<path d="M29.6305 29.63H34.5692V24.6914H29.6305V29.63Z" fill="#FE3344"/>
<path d="M34.5691 29.63H39.5074V24.6914H34.5691V29.63Z" fill="#FE3344"/>
<path d="M39.5074 29.63H44.446V24.6914H39.5074V29.63Z" fill="black"/>
<path d="M24.6922 34.5682H29.6305V29.6299H24.6922V34.5682Z" fill="#FE3344"/>
<path d="M19.7536 34.5682H24.6923V29.6299H19.7536V34.5682Z" fill="#FE3344"/>
<path d="M14.8154 34.5682H19.7536V29.6299H14.8154V34.5682Z" fill="white"/>
<path d="M9.87697 34.5682H14.8154V29.6299H9.87697V34.5682Z" fill="#FE3344"/>
<path d="M4.93858 34.5682H9.87696V29.6299H4.93858V34.5682Z" fill="#FE3344"/>
<path d="M7.62939e-05 34.5682H4.93855V29.6299H7.62939e-05V34.5682Z" fill="black"/>
<path d="M29.6305 34.5682H34.5692V29.6299H29.6305V34.5682Z" fill="#FE3344"/>
<path d="M34.5691 34.5682H39.5074V29.6299H34.5691V34.5682Z" fill="#FE3344"/>
<path d="M39.5074 34.5682H44.446V29.6299H39.5074V34.5682Z" fill="#FE3344"/>
<path d="M44.446 34.5682H49.3843V29.6299H44.446V34.5682Z" fill="black"/>
<path d="M24.6922 39.5069H29.6305V34.5684H24.6922V39.5069Z" fill="#FE3344"/>
<path d="M19.7536 39.5069H24.6923V34.5684H19.7536V39.5069Z" fill="#FE3344"/>
<path d="M14.8154 39.5069H19.7536V34.5684H14.8154V39.5069Z" fill="#FE3344"/>
<path d="M9.87697 39.5069H14.8154V34.5684H9.87697V39.5069Z" fill="#FE3344"/>
<path d="M4.93858 39.5069H9.87696V34.5684H4.93858V39.5069Z" fill="#FE3344"/>
<path d="M7.62939e-05 39.5069H4.93855V34.5684H7.62939e-05V39.5069Z" fill="black"/>
<path d="M29.6305 39.5069H34.5692V34.5684H29.6305V39.5069Z" fill="#FE3344"/>
<path d="M34.5691 39.5069H39.5074V34.5684H34.5691V39.5069Z" fill="#FE3344"/>
<path d="M39.5074 39.5069H44.446V34.5684H39.5074V39.5069Z" fill="#FE3344"/>
<path d="M44.446 39.5069H49.3843V34.5684H44.446V39.5069Z" fill="#FE3344"/>
<path d="M24.6922 44.4451H29.6305V39.5068H24.6922V44.4451Z" fill="#FE3344"/>
<path d="M19.7536 44.4451H24.6923V39.5068H19.7536V44.4451Z" fill="#FE3344"/>
<path d="M14.8154 44.4451H19.7536V39.5068H14.8154V44.4451Z" fill="#FE3344"/>
<path d="M9.87697 44.4451H14.8154V39.5068H9.87697V44.4451Z" fill="#FE3344"/>
<path d="M4.93858 44.4451H9.87696V39.5068H4.93858V44.4451Z" fill="#FE3344"/>
<path d="M7.62939e-05 44.4451H4.93855V39.5068H7.62939e-05V44.4451Z" fill="black"/>
<path d="M29.6305 44.4451H34.5692V39.5068H29.6305V44.4451Z" fill="#FE3344"/>
<path d="M34.5691 44.4451H39.5074V39.5068H34.5691V44.4451Z" fill="#FE3344"/>
<path d="M39.5074 44.4451H44.446V39.5068H39.5074V44.4451Z" fill="#FE3344"/>
<path d="M44.446 44.4451H49.3843V39.5068H44.446V44.4451Z" fill="#FE3344"/>
<path d="M24.6922 49.3836H29.6305V44.4453H24.6922V49.3836Z" fill="#FE3344"/>
<path d="M19.7536 49.3836H24.6923V44.4453H19.7536V49.3836Z" fill="#FE3344"/>
<path d="M14.8154 49.3836H19.7536V44.4453H14.8154V49.3836Z" fill="#FE3344"/>
<path d="M9.87697 49.3836H14.8154V44.4453H9.87697V49.3836Z" fill="#FE3344"/>
<path d="M4.93858 49.3836H9.87696V44.4453H4.93858V49.3836Z" fill="black"/>
<path d="M29.6305 49.3836H34.5692V44.4453H29.6305V49.3836Z" fill="#FE3344"/>
<path d="M34.5691 49.3836H39.5074V44.4453H34.5691V49.3836Z" fill="#FE3344"/>
<path d="M39.5074 49.3836H44.446V44.4453H39.5074V49.3836Z" fill="#FE3344"/>
<path d="M44.446 49.3836H49.3843V44.4453H44.446V49.3836Z" fill="#FE3344"/>
<path d="M24.6922 54.322H29.6305V49.3833H24.6922V54.322Z" fill="#FE3344"/>
<path d="M19.7536 54.322H24.6923V49.3833H19.7536V54.322Z" fill="#FE3344"/>
<path d="M14.8154 54.322H19.7536V49.3833H14.8154V54.322Z" fill="#FE3344"/>
<path d="M9.87697 54.322H14.8154V49.3833H9.87697V54.322Z" fill="#FE3344"/>
<path d="M4.93858 54.322H9.87696V49.3833H4.93858V54.322Z" fill="black"/>
<path d="M29.6305 54.322H34.5692V49.3833H29.6305V54.322Z" fill="#FE3344"/>
<path d="M34.5691 54.322H39.5074V49.3833H34.5691V54.322Z" fill="#FE3344"/>
<path d="M39.5074 54.322H44.446V49.3833H39.5074V54.322Z" fill="#FE3344"/>
<path d="M44.446 54.322H49.3843V49.3833H44.446V54.322Z" fill="#FE3344"/>
<path d="M24.6922 59.2605H29.6305V54.3223H24.6922V59.2605Z" fill="#FE3344"/>
<path d="M19.7536 59.2605H24.6923V54.3223H19.7536V59.2605Z" fill="#FE3344"/>
<path d="M14.8154 59.2605H19.7536V54.3223H14.8154V59.2605Z" fill="#FE3344"/>
<path d="M9.87697 59.2605H14.8154V54.3223H9.87697V59.2605Z" fill="black"/>
<path d="M29.6305 59.2605H34.5692V54.3223H29.6305V59.2605Z" fill="#FE3344"/>
<path d="M34.5691 59.2605H39.5074V54.3223H34.5691V59.2605Z" fill="#FE3344"/>
<path d="M39.5074 59.2605H44.446V54.3223H39.5074V59.2605Z" fill="#FE3344"/>
<path d="M44.446 59.2605H49.3843V54.3223H44.446V59.2605Z" fill="#FE3344"/>
<path d="M24.6922 64.1989H29.6305V59.2603H24.6922V64.1989Z" fill="#FE3344"/>
<path d="M19.7536 64.1989H24.6923V59.2603H19.7536V64.1989Z" fill="#FE3344"/>
<path d="M14.8154 64.1989H19.7536V59.2603H14.8154V64.1989Z" fill="black"/>
<path d="M29.6305 64.1989H34.5692V59.2603H29.6305V64.1989Z" fill="#FE3344"/>
<path d="M34.5691 64.1989H39.5074V59.2603H34.5691V64.1989Z" fill="#FE3344"/>
<path d="M39.5074 64.1989H44.446V59.2603H39.5074V64.1989Z" fill="#FE3344"/>
<path d="M44.446 64.1989H49.3843V59.2603H44.446V64.1989Z" fill="black"/>
<path d="M24.6922 74.0763H29.6305V69.1377H24.6922V74.0763Z" fill="black"/>
<path d="M29.6305 74.0763H34.5691V69.1377H29.6305V74.0763Z" fill="#FE3344"/>
<path d="M34.5691 74.0763H39.5074V69.1377H34.5691V74.0763Z" fill="black"/>
<path d="M29.6305 79.0145H34.5691V74.0762H29.6305V79.0145Z" fill="black"/>
<path d="M34.5691 79.0145H39.5074V74.0762H34.5691V79.0145Z" fill="#FE3344"/>
<path d="M39.5074 79.0145H44.4459V74.0762H39.5074V79.0145Z" fill="black"/>
<path d="M34.5691 83.9532H39.5074V79.0146H34.5691V83.9532Z" fill="black"/>
<path d="M39.5074 83.9532H44.4459V79.0146H39.5074V83.9532Z" fill="#FE3344"/>
<path d="M44.446 83.9532H49.3843V79.0146H44.446V83.9532Z" fill="black"/>
<path d="M39.5074 88.8914H44.4459V83.9531H39.5074V88.8914Z" fill="black"/>
<path d="M44.446 88.8914H49.3843V83.9531H44.446V88.8914Z" fill="#FE3344"/>
<path d="M49.3843 88.8914H54.3228V83.9531H49.3843V88.8914Z" fill="black"/>
<path d="M44.446 93.8298H49.3843V88.8911H44.446V93.8298Z" fill="black"/>
<path d="M49.3843 93.8298H54.3228V88.8911H49.3843V93.8298Z" fill="black"/>
<path d="M49.3843 98.7684H54.3228V93.8301H49.3843V98.7684Z" fill="black"/>
<path d="M71.165 4.93847H76.1036V0H71.165V4.93847Z" fill="black"/>
<path d="M76.1037 4.93847H81.042V0H76.1037V4.93847Z" fill="black"/>
<path d="M81.042 4.93847H85.9806V0H81.042V4.93847Z" fill="black"/>
<path d="M85.9805 4.93847H90.9187V0H85.9805V4.93847Z" fill="black"/>
<path d="M66.2268 9.87656H71.165V4.93799H66.2268V9.87656Z" fill="black"/>
<path d="M71.165 9.87656H76.1036V4.93799H71.165V9.87656Z" fill="#FE3344"/>
<path d="M76.1037 9.87656H81.042V4.93799H76.1037V9.87656Z" fill="#FE3344"/>
<path d="M81.042 9.87656H85.9806V4.93799H81.042V9.87656Z" fill="#FE3344"/>
<path d="M85.9805 9.87656H90.9187V4.93799H85.9805V9.87656Z" fill="#FE3344"/>
<path d="M90.9185 9.87656H95.8571V4.93799H90.9185V9.87656Z" fill="black"/>
<path d="M95.8572 9.87656H100.795V4.93799H95.8572V9.87656Z" fill="black"/>
<path d="M61.2883 14.8147H66.2269V9.87646H61.2883V14.8147Z" fill="black"/>
<path d="M66.2268 14.8147H71.165V9.87646H66.2268V14.8147Z" fill="#FE3344"/>
<path d="M71.165 14.8147H76.1036V9.87646H71.165V14.8147Z" fill="#FE3344"/>
<path d="M76.1037 14.8147H81.042V9.87646H76.1037V14.8147Z" fill="#FE3344"/>
<path d="M81.042 14.8147H85.9806V9.87646H81.042V14.8147Z" fill="#FE3344"/>
<path d="M85.9805 14.8147H90.9187V9.87646H85.9805V14.8147Z" fill="#FE3344"/>
<path d="M90.9185 14.8147H95.8571V9.87646H90.9185V14.8147Z" fill="#FE3344"/>
<path d="M95.8572 14.8147H100.795V9.87646H95.8572V14.8147Z" fill="#FE3344"/>
<path d="M100.796 14.8147H105.735V9.87646H100.796V14.8147Z" fill="black"/>
<path d="M61.2883 19.7536H66.2269V14.8149H61.2883V19.7536Z" fill="black"/>
<path d="M66.2268 19.7536H71.165V14.8149H66.2268V19.7536Z" fill="#FE3344"/>
<path d="M71.165 19.7536H76.1036V14.8149H71.165V19.7536Z" fill="#FE3344"/>
<path d="M76.1037 19.7536H81.042V14.8149H76.1037V19.7536Z" fill="#FE3344"/>
<path d="M81.042 19.7536H85.9806V14.8149H81.042V19.7536Z" fill="#FE3344"/>
<path d="M85.9805 19.7536H90.9187V14.8149H85.9805V19.7536Z" fill="#FE3344"/>
<path d="M90.9185 19.7536H95.8571V14.8149H90.9185V19.7536Z" fill="#FE3344"/>
<path d="M95.8572 19.7536H100.795V14.8149H95.8572V19.7536Z" fill="#FE3344"/>
<path d="M100.796 19.7536H105.735V14.8149H100.796V19.7536Z" fill="#FE3344"/>
<path d="M105.735 19.7536H110.673V14.8149H105.735V19.7536Z" fill="black"/>
<path d="M56.3499 24.6917H61.2882V19.7534H56.3499V24.6917Z" fill="black"/>
<path d="M61.2883 24.6917H66.2269V19.7534H61.2883V24.6917Z" fill="#FE3344"/>
<path d="M66.2268 24.6917H71.165V19.7534H66.2268V24.6917Z" fill="#FE3344"/>
<path d="M71.165 24.6917H76.1036V19.7534H71.165V24.6917Z" fill="#FE3344"/>
<path d="M76.1037 24.6917H81.042V19.7534H76.1037V24.6917Z" fill="#FE3344"/>
<path d="M81.042 24.6917H85.9806V19.7534H81.042V24.6917Z" fill="#FE3344"/>
<path d="M85.9805 24.6917H90.9187V19.7534H85.9805V24.6917Z" fill="#FE3344"/>
<path d="M90.9185 24.6917H95.8571V19.7534H90.9185V24.6917Z" fill="#FE3344"/>
<path d="M95.8572 24.6917H100.795V19.7534H95.8572V24.6917Z" fill="#FE3344"/>
<path d="M100.796 24.6917H105.735V19.7534H100.796V24.6917Z" fill="#FE3344"/>
<path d="M105.735 24.6917H110.673V19.7534H105.735V24.6917Z" fill="black"/>
<path d="M51.4113 29.6305H56.3499V24.6919H51.4113V29.6305Z" fill="black"/>
<path d="M56.3499 29.6305H61.2882V24.6919H56.3499V29.6305Z" fill="#FE3344"/>
<path d="M61.2883 29.6305H66.2269V24.6919H61.2883V29.6305Z" fill="#FE3344"/>
<path d="M66.2268 29.6305H71.165V24.6919H66.2268V29.6305Z" fill="#FE3344"/>
<path d="M71.165 29.6305H76.1036V24.6919H71.165V29.6305Z" fill="#FE3344"/>
<path d="M76.1037 29.6305H81.042V24.6919H76.1037V29.6305Z" fill="#FE3344"/>
<path d="M81.042 29.6305H85.9806V24.6919H81.042V29.6305Z" fill="#FE3344"/>
<path d="M85.9805 29.6305H90.9187V24.6919H85.9805V29.6305Z" fill="#FE3344"/>
<path d="M90.9185 29.6305H95.8571V24.6919H90.9185V29.6305Z" fill="#FE3344"/>
<path d="M95.8572 29.6305H100.795V24.6919H95.8572V29.6305Z" fill="#FE3344"/>
<path d="M100.796 29.6305H105.735V24.6919H100.796V29.6305Z" fill="#FE3344"/>
<path d="M105.735 29.6305H110.673V24.6919H105.735V29.6305Z" fill="#FE3344"/>
<path d="M110.673 29.6305H115.611V24.6919H110.673V29.6305Z" fill="black"/>
<path d="M56.3499 34.5687H61.2882V29.6304H56.3499V34.5687Z" fill="black"/>
<path d="M61.2883 34.5687H66.2269V29.6304H61.2883V34.5687Z" fill="#FE3344"/>
<path d="M66.2268 34.5687H71.165V29.6304H66.2268V34.5687Z" fill="#FE3344"/>
<path d="M71.165 34.5687H76.1036V29.6304H71.165V34.5687Z" fill="#FE3344"/>
<path d="M76.1037 34.5687H81.042V29.6304H76.1037V34.5687Z" fill="#FE3344"/>
<path d="M81.042 34.5687H85.9806V29.6304H81.042V34.5687Z" fill="#FE3344"/>
<path d="M85.9805 34.5687H90.9187V29.6304H85.9805V34.5687Z" fill="#FE3344"/>
<path d="M90.9185 34.5687H95.8571V29.6304H90.9185V34.5687Z" fill="#FE3344"/>
<path d="M95.8572 34.5687H100.795V29.6304H95.8572V34.5687Z" fill="#FE3344"/>
<path d="M100.796 34.5687H105.735V29.6304H100.796V34.5687Z" fill="#FE3344"/>
<path d="M105.735 34.5687H110.673V29.6304H105.735V34.5687Z" fill="#FE3344"/>
<path d="M110.673 34.5687H115.611V29.6304H110.673V34.5687Z" fill="black"/>
<path d="M61.2883 39.5074H66.2269V34.5688H61.2883V39.5074Z" fill="black"/>
<path d="M66.2268 39.5074H71.165V34.5688H66.2268V39.5074Z" fill="#FE3344"/>
<path d="M71.165 39.5074H76.1036V34.5688H71.165V39.5074Z" fill="#FE3344"/>
<path d="M76.1037 39.5074H81.042V34.5688H76.1037V39.5074Z" fill="#FE3344"/>
<path d="M81.042 39.5074H85.9806V34.5688H81.042V39.5074Z" fill="#FE3344"/>
<path d="M85.9805 39.5074H90.9187V34.5688H85.9805V39.5074Z" fill="#FE3344"/>
<path d="M90.9185 39.5074H95.8571V34.5688H90.9185V39.5074Z" fill="#FE3344"/>
<path d="M95.8572 39.5074H100.795V34.5688H95.8572V39.5074Z" fill="#FE3344"/>
<path d="M100.796 39.5074H105.735V34.5688H100.796V39.5074Z" fill="#FE3344"/>
<path d="M105.735 39.5074H110.673V34.5688H105.735V39.5074Z" fill="#FE3344"/>
<path d="M110.673 39.5074H115.611V34.5688H110.673V39.5074Z" fill="black"/>
<path d="M66.2268 44.4456H71.165V39.5073H66.2268V44.4456Z" fill="black"/>
<path d="M71.165 44.4456H76.1036V39.5073H71.165V44.4456Z" fill="#FE3344"/>
<path d="M76.1037 44.4456H81.042V39.5073H76.1037V44.4456Z" fill="#FE3344"/>
<path d="M81.042 44.4456H85.9806V39.5073H81.042V44.4456Z" fill="#FE3344"/>
<path d="M85.9805 44.4456H90.9187V39.5073H85.9805V44.4456Z" fill="#FE3344"/>
<path d="M90.9185 44.4456H95.8571V39.5073H90.9185V44.4456Z" fill="#FE3344"/>
<path d="M95.8572 44.4456H100.795V39.5073H95.8572V44.4456Z" fill="#FE3344"/>
<path d="M100.796 44.4456H105.735V39.5073H100.796V44.4456Z" fill="#FE3344"/>
<path d="M105.735 44.4456H110.673V39.5073H105.735V44.4456Z" fill="#FE3344"/>
<path d="M110.673 44.4456H115.611V39.5073H110.673V44.4456Z" fill="black"/>
<path d="M71.165 49.3841H76.1036V44.4458H71.165V49.3841Z" fill="black"/>
<path d="M76.1037 49.3841H81.042V44.4458H76.1037V49.3841Z" fill="#FE3344"/>
<path d="M81.042 49.3841H85.9806V44.4458H81.042V49.3841Z" fill="#FE3344"/>
<path d="M85.9805 49.3841H90.9187V44.4458H85.9805V49.3841Z" fill="#FE3344"/>
<path d="M90.9185 49.3841H95.8571V44.4458H90.9185V49.3841Z" fill="#FE3344"/>
<path d="M95.8572 49.3841H100.795V44.4458H95.8572V49.3841Z" fill="#FE3344"/>
<path d="M100.796 49.3841H105.735V44.4458H100.796V49.3841Z" fill="#FE3344"/>
<path d="M105.735 49.3841H110.673V44.4458H105.735V49.3841Z" fill="black"/>
<path d="M66.2268 54.3225H71.165V49.3838H66.2268V54.3225Z" fill="black"/>
<path d="M71.165 54.3225H76.1036V49.3838H71.165V54.3225Z" fill="#FE3344"/>
<path d="M76.1037 54.3225H81.042V49.3838H76.1037V54.3225Z" fill="#FE3344"/>
<path d="M81.042 54.3225H85.9806V49.3838H81.042V54.3225Z" fill="#FE3344"/>
<path d="M85.9805 54.3225H90.9187V49.3838H85.9805V54.3225Z" fill="#FE3344"/>
<path d="M90.9185 54.3225H95.8571V49.3838H90.9185V54.3225Z" fill="#FE3344"/>
<path d="M95.8572 54.3225H100.795V49.3838H95.8572V54.3225Z" fill="#FE3344"/>
<path d="M100.796 54.3225H105.735V49.3838H100.796V54.3225Z" fill="#FE3344"/>
<path d="M105.735 54.3225H110.673V49.3838H105.735V54.3225Z" fill="black"/>
<path d="M61.2883 59.261H66.2269V54.3228H61.2883V59.261Z" fill="black"/>
<path d="M66.2268 59.261H71.165V54.3228H66.2268V59.261Z" fill="#FE3344"/>
<path d="M71.165 59.261H76.1036V54.3228H71.165V59.261Z" fill="#FE3344"/>
<path d="M76.1037 59.261H81.042V54.3228H76.1037V59.261Z" fill="#FE3344"/>
<path d="M81.042 59.261H85.9806V54.3228H81.042V59.261Z" fill="#FE3344"/>
<path d="M85.9805 59.261H90.9187V54.3228H85.9805V59.261Z" fill="#FE3344"/>
<path d="M90.9185 59.261H95.8571V54.3228H90.9185V59.261Z" fill="#FE3344"/>
<path d="M95.8572 59.261H100.795V54.3228H95.8572V59.261Z" fill="#FE3344"/>
<path d="M100.796 59.261H105.735V54.3228H100.796V59.261Z" fill="black"/>
<path d="M56.3499 64.1994H61.2882V59.2607H56.3499V64.1994Z" fill="black"/>
<path d="M61.2883 64.1994H66.2269V59.2607H61.2883V64.1994Z" fill="#FE3344"/>
<path d="M66.2268 64.1994H71.165V59.2607H66.2268V64.1994Z" fill="#FE3344"/>
<path d="M71.165 64.1994H76.1036V59.2607H71.165V64.1994Z" fill="#FE3344"/>
<path d="M76.1037 64.1994H81.042V59.2607H76.1037V64.1994Z" fill="#FE3344"/>
<path d="M81.042 64.1994H85.9806V59.2607H81.042V64.1994Z" fill="#FE3344"/>
<path d="M85.9805 64.1994H90.9187V59.2607H85.9805V64.1994Z" fill="#FE3344"/>
<path d="M90.9185 64.1994H95.8571V59.2607H90.9185V64.1994Z" fill="#FE3344"/>
<path d="M95.8572 64.1994H100.795V59.2607H95.8572V64.1994Z" fill="black"/>
<path d="M51.4113 69.1379H56.3499V64.1997H51.4113V69.1379Z" fill="black"/>
<path d="M56.3499 69.1379H61.2882V64.1997H56.3499V69.1379Z" fill="#FE3344"/>
<path d="M61.2883 69.1379H66.2269V64.1997H61.2883V69.1379Z" fill="#FE3344"/>
<path d="M66.2268 69.1379H71.165V64.1997H66.2268V69.1379Z" fill="#FE3344"/>
<path d="M71.165 69.1379H76.1036V64.1997H71.165V69.1379Z" fill="#FE3344"/>
<path d="M76.1037 69.1379H81.042V64.1997H76.1037V69.1379Z" fill="#FE3344"/>
<path d="M81.042 69.1379H85.9806V64.1997H81.042V69.1379Z" fill="#FE3344"/>
<path d="M85.9805 69.1379H90.9187V64.1997H85.9805V69.1379Z" fill="#FE3344"/>
<path d="M90.9185 69.1379H95.8571V64.1997H90.9185V69.1379Z" fill="black"/>
<path d="M46.473 74.0763H51.4113V69.1377H46.473V74.0763Z" fill="black"/>
<path d="M51.4113 74.0763H56.3499V69.1377H51.4113V74.0763Z" fill="#FE3344"/>
<path d="M56.3499 74.0763H61.2882V69.1377H56.3499V74.0763Z" fill="#FE3344"/>
<path d="M61.2883 74.0763H66.2269V69.1377H61.2883V74.0763Z" fill="#FE3344"/>
<path d="M66.2268 74.0763H71.165V69.1377H66.2268V74.0763Z" fill="#FE3344"/>
<path d="M71.165 74.0763H76.1036V69.1377H71.165V74.0763Z" fill="#FE3344"/>
<path d="M76.1037 74.0763H81.042V69.1377H76.1037V74.0763Z" fill="#FE3344"/>
<path d="M81.042 74.0763H85.9806V69.1377H81.042V74.0763Z" fill="#FE3344"/>
<path d="M85.9805 74.0763H90.9187V69.1377H85.9805V74.0763Z" fill="black"/>
<path d="M51.4113 79.0145H56.3499V74.0762H51.4113V79.0145Z" fill="black"/>
<path d="M56.3499 79.0145H61.2882V74.0762H56.3499V79.0145Z" fill="#FE3344"/>
<path d="M61.2883 79.0145H66.2269V74.0762H61.2883V79.0145Z" fill="#FE3344"/>
<path d="M66.2268 79.0145H71.165V74.0762H66.2268V79.0145Z" fill="#FE3344"/>
<path d="M71.165 79.0145H76.1036V74.0762H71.165V79.0145Z" fill="#FE3344"/>
<path d="M76.1037 79.0145H81.042V74.0762H76.1037V79.0145Z" fill="#FE3344"/>
<path d="M81.042 79.0145H85.9806V74.0762H81.042V79.0145Z" fill="black"/>
<path d="M56.3499 83.9532H61.2882V79.0146H56.3499V83.9532Z" fill="black"/>
<path d="M61.2883 83.9532H66.2269V79.0146H61.2883V83.9532Z" fill="#FE3344"/>
<path d="M66.2268 83.9532H71.165V79.0146H66.2268V83.9532Z" fill="#FE3344"/>
<path d="M71.165 83.9532H76.1036V79.0146H71.165V83.9532Z" fill="#FE3344"/>
<path d="M76.1037 83.9532H81.042V79.0146H76.1037V83.9532Z" fill="black"/>
<path d="M61.2883 88.8914H66.2269V83.9531H61.2883V88.8914Z" fill="black"/>
<path d="M66.2268 88.8914H71.165V83.9531H66.2268V88.8914Z" fill="#FE3344"/>
<path d="M71.165 88.8914H76.1036V83.9531H71.165V88.8914Z" fill="black"/>
<path d="M61.2883 93.8298H66.2269V88.8911H61.2883V93.8298Z" fill="black"/>
<path d="M66.2268 93.8298H71.165V88.8911H66.2268V93.8298Z" fill="black"/>
<path d="M61.2883 98.7684H66.2269V93.8301H61.2883V98.7684Z" fill="black"/>
</svg>
