<svg width="103" height="98" viewBox="0 0 103 98" fill="none" xmlns="http://www.w3.org/2000/svg">
<path d="M40.0269 2.33496L35.357 6.99777H30.6941L26.0242 11.6606H21.3613L12.0286 20.9934V25.6562L7.36575 30.3262V34.989L2.70294 39.659V58.3174L7.36575 62.9802V67.6502L12.0286 72.313V76.9758L21.3613 86.3086H26.0242L30.6941 90.9714H35.357L40.0269 95.6414H63.3482L68.0182 90.9714H72.681L77.3438 86.3086H82.0137L91.3394 76.9758V72.313L96.0093 67.6502V62.9802L100.672 58.3174V39.659L96.0093 34.989V30.3262L91.3394 25.6562V20.9934L82.0137 11.6606H77.3438L72.681 6.99777H68.0182L63.3482 2.33496H40.0269Z" fill="#FE75F0"/>
<path d="M14.3636 18.6582H19.0264V13.9954H14.3636V18.6582Z" fill="black"/>
<path d="M19.0264 13.9956L28.3592 13.9956V9.3328H19.0264V13.9956Z" fill="black"/>
<path d="M0.367956 60.645H5.03076L5.03076 37.3166H0.367956L0.367956 60.645Z" fill="black"/>
<path d="M37.692 4.66309L65.6832 4.66309V0.00028038L37.692 0.00028038V4.66309Z" fill="black"/>
<path d="M37.692 4.66309H28.3592V9.32589H37.692V4.66309Z" fill="black"/>
<path d="M9.69354 37.324V27.9912H5.03074L5.03074 37.324H9.69354Z" fill="black"/>
<path d="M9.70078 27.9985H14.3636L14.3636 18.6657H9.70078V27.9985Z" fill="black"/>
<path d="M103 37.3242H98.3372V60.6526H103V37.3242Z" fill="black"/>
<path d="M65.6832 93.3066H37.692V97.9695H65.6832V93.3066Z" fill="black"/>
<path d="M77.3438 69.978H72.681V74.6408H77.3438V69.978Z" fill="black"/>
<path d="M72.681 74.6479H63.3482V79.3108H72.681V74.6479Z" fill="black"/>
<path d="M82.0137 51.3195V60.6523H86.6765V51.3195H82.0137Z" fill="black"/>
<path d="M82.0066 60.6523H77.3438V69.9851H82.0066V60.6523Z" fill="black"/>
<path d="M30.687 79.3105H40.0198V74.6477H30.687V79.3105Z" fill="black"/>
<path d="M26.0314 74.6479H30.6942V69.9851H26.0314V74.6479Z" fill="black"/>
<path d="M63.3482 79.3105H40.0198V83.9734H63.3482V79.3105Z" fill="black"/>
<path d="M16.6985 51.3195V60.6523H21.3614V51.3195H16.6985Z" fill="black"/>
<path d="M21.3686 69.978H26.0314V60.6452H21.3686V69.978Z" fill="black"/>
<path d="M89.0044 13.9956H84.3416V18.6584H89.0044V13.9956Z" fill="black"/>
<path d="M84.3488 9.33301H75.016V13.9958H84.3488V9.33301Z" fill="black"/>
<path d="M65.6832 9.33301L75.016 9.33301V4.6702L65.6832 4.6702V9.33301Z" fill="black"/>
<path d="M98.3372 37.324V27.9912H93.6744V37.324H98.3372Z" fill="black"/>
<path d="M93.6743 18.6582H89.0115V27.991H93.6743V18.6582Z" fill="black"/>
<path d="M14.3636 83.9736H19.0264V79.3108H14.3636V83.9736Z" fill="black"/>
<path d="M19.0264 88.6436H28.3592V83.9807H19.0264V88.6436Z" fill="black"/>
<path d="M37.692 88.6436H28.3592V93.3064H37.692V88.6436Z" fill="black"/>
<path d="M5.03076 60.6452L5.03076 69.978H9.69357V60.6452H5.03076Z" fill="black"/>
<path d="M9.70078 79.3105H14.3636L14.3636 69.9778H9.70078V79.3105Z" fill="black"/>
<path d="M89.0115 83.9734V79.3105H84.3487V83.9734H89.0115Z" fill="black"/>
<path d="M93.6744 79.3108V69.978H89.0116V79.3108H93.6744Z" fill="black"/>
<path d="M93.6744 60.6526V69.9854H98.3372V60.6526H93.6744Z" fill="black"/>
<path d="M65.6832 93.3066H75.016V88.6438H65.6832V93.3066Z" fill="black"/>
<path d="M84.3416 88.6364V83.9736H75.0088V88.6364H84.3416Z" fill="black"/>
<path d="M42.6062 27.9912V41.9868H47.269V27.9912H42.6062Z" fill="black"/>
<path d="M28.6178 27.9912H42.6134V23.3284H28.6178V27.9912Z" fill="black"/>
<path d="M42.6134 27.9912H28.6178V41.9868H42.6134V27.9912Z" fill="white"/>
<path d="M23.9478 27.9912V41.9868H28.6106V27.9912H23.9478Z" fill="black"/>
<path d="M28.6178 46.6567H42.6134V41.9939H28.6178V46.6567Z" fill="black"/>
<path d="M75.2674 27.9912V41.9868H79.9302V27.9912H75.2674Z" fill="black"/>
<path d="M61.2791 27.9912H75.2747V23.3284H61.2791V27.9912Z" fill="black"/>
<path d="M75.2675 27.9912H61.2719V41.9868H75.2675V27.9912Z" fill="white"/>
<path d="M56.6091 27.9912V41.9868H61.2719V27.9912H56.6091Z" fill="black"/>
<path d="M61.2791 46.6567H75.2747V41.9939H61.2791V46.6567Z" fill="black"/>
<path d="M32.0305 37.4463H42.6134V27.9914H32.0305V37.4463Z" fill="black"/>
<path d="M64.6917 37.4463H75.2747V27.9914H64.6917V37.4463Z" fill="black"/>
</svg>
