<svg width="103" height="98" viewBox="0 0 103 98" fill="none" xmlns="http://www.w3.org/2000/svg">
<path d="M39.659 2.33499L34.989 6.9978H30.3262L25.6562 11.6606H20.9934L11.6606 20.9934V25.6562L6.9978 30.3262V34.989L2.33499 39.659V58.3174L6.9978 62.9802V67.6502L11.6606 72.313V76.9758L20.9934 86.3086H25.6562L30.3262 90.9714H34.989L39.659 95.6414H62.9802L67.6502 90.9714H72.313L76.9758 86.3086H81.6458L90.9714 76.9758V72.313L95.6414 67.6502V62.9802L100.304 58.3174V39.659L95.6414 34.989V30.3262L90.9714 25.6562V20.9934L81.6458 11.6606H76.9758L72.313 6.9978H67.6502L62.9802 2.33499H39.659Z" fill="#FE3344"/>
<path d="M13.9956 18.6584H18.6584V13.9956H13.9956V18.6584Z" fill="black"/>
<path d="M18.6584 13.9956L27.9912 13.9956V9.3328H18.6584V13.9956Z" fill="black"/>
<path d="M-2.47955e-05 60.6452H4.66278L4.66278 37.3168H-2.47955e-05L-2.47955e-05 60.6452Z" fill="black"/>
<path d="M37.324 4.66278L65.3152 4.66278V-2.47955e-05L37.324 -2.47955e-05V4.66278Z" fill="black"/>
<path d="M37.324 4.66278H27.9912V9.32559H37.324V4.66278Z" fill="black"/>
<path d="M9.32562 37.324V27.9912H4.66282L4.66282 37.324H9.32562Z" fill="black"/>
<path d="M9.3328 27.9984H13.9956L13.9956 18.6656H9.3328V27.9984Z" fill="black"/>
<path d="M102.632 37.324H97.9692V60.6524H102.632V37.324Z" fill="black"/>
<path d="M65.3152 93.3064H37.324V97.9692H65.3152V93.3064Z" fill="black"/>
<path d="M76.9758 69.978H72.313V74.6408H76.9758V69.978Z" fill="black"/>
<path d="M72.313 74.648H62.9802V79.3108H72.313V74.648Z" fill="black"/>
<path d="M81.6458 51.3196V60.6524H86.3086V51.3196H81.6458Z" fill="black"/>
<path d="M81.6386 60.6524H76.9758V69.9852H81.6386V60.6524Z" fill="black"/>
<path d="M30.319 79.3108H39.6518V74.648H30.319V79.3108Z" fill="black"/>
<path d="M25.6634 74.648H30.3262V69.9852H25.6634V74.648Z" fill="black"/>
<path d="M62.9802 79.3108H39.6518V83.9736H62.9802V79.3108Z" fill="black"/>
<path d="M16.3306 51.3196V60.6524H20.9934V51.3196H16.3306Z" fill="black"/>
<path d="M21.0006 69.978H25.6634V60.6452H21.0006V69.978Z" fill="black"/>
<path d="M88.6364 13.9956H83.9736V18.6584H88.6364V13.9956Z" fill="black"/>
<path d="M83.9808 9.33276H74.648V13.9956H83.9808V9.33276Z" fill="black"/>
<path d="M65.3152 9.33276L74.648 9.33276V4.66996L65.3152 4.66996V9.33276Z" fill="black"/>
<path d="M97.9692 37.324V27.9912H93.3064V37.324H97.9692Z" fill="black"/>
<path d="M93.3064 18.6584H88.6436V27.9912H93.3064V18.6584Z" fill="black"/>
<path d="M13.9956 83.9736H18.6584V79.3108H13.9956V83.9736Z" fill="black"/>
<path d="M18.6584 88.6436H27.9912V83.9808H18.6584V88.6436Z" fill="black"/>
<path d="M37.324 88.6436H27.9912V93.3064H37.324V88.6436Z" fill="black"/>
<path d="M4.66278 60.6452L4.66278 69.978H9.32558V60.6452H4.66278Z" fill="black"/>
<path d="M9.3328 79.3108H13.9956L13.9956 69.978H9.3328V79.3108Z" fill="black"/>
<path d="M88.6436 83.9736V79.3108H83.9808V83.9736H88.6436Z" fill="black"/>
<path d="M93.3064 79.3108V69.978H88.6436V79.3108H93.3064Z" fill="black"/>
<path d="M93.3064 60.6524V69.9852H97.9692V60.6524H93.3064Z" fill="black"/>
<path d="M65.3152 93.3064H74.648V88.6436H65.3152V93.3064Z" fill="black"/>
<path d="M83.9736 88.6364V83.9736H74.6408V88.6364H83.9736Z" fill="black"/>
<path d="M42.2383 27.9912V41.9868H46.9011V27.9912H42.2383Z" fill="black"/>
<path d="M28.2498 27.9912H42.2454V23.3284H28.2498V27.9912Z" fill="black"/>
<path d="M42.2454 27.9912H28.2498V41.9868H42.2454V27.9912Z" fill="white"/>
<path d="M23.5799 27.9912V41.9868H28.2427V27.9912H23.5799Z" fill="black"/>
<path d="M28.2498 46.6568H42.2454V41.994H28.2498V46.6568Z" fill="black"/>
<path d="M74.8994 27.9912V41.9868H79.5622V27.9912H74.8994Z" fill="black"/>
<path d="M60.911 27.9912H74.9066V23.3284H60.911V27.9912Z" fill="black"/>
<path d="M74.8994 27.9912H60.9038V41.9868H74.8994V27.9912Z" fill="white"/>
<path d="M56.2411 27.9912V41.9868H60.9039V27.9912H56.2411Z" fill="black"/>
<path d="M60.911 46.6568H74.9066V41.994H60.911V46.6568Z" fill="black"/>
<path d="M31.6625 37.4461H42.2454V27.9912H31.6625V37.4461Z" fill="black"/>
<path d="M64.3237 37.4461H74.9066V27.9912H64.3237V37.4461Z" fill="black"/>
</svg>
