<svg width="320" height="752" viewBox="0 0 320 752" fill="none" xmlns="http://www.w3.org/2000/svg">
<path d="M268 610.291L140.092 610.291L80.7554 610.291L21.4185 610.291L-37.9183 610.291L-97.2551 610.291L-156.592 610.291L-215.929 610.291L-275.259 610.291L-334.596 610.291L-393.933 610.291L-453.27 610.291L-512.606 610.291L-571.943 610.291L-631.28 610.291L-690.61 610.291L-728.84 610.291" stroke="#BBA5EF" stroke-width="4" stroke-miterlimit="10"/>
<path d="M319 669H295.188H268.992H242.794H216.595H190.397H164.198H138" stroke="#BBA5EF" stroke-width="4" stroke-miterlimit="10"/>
<path d="M318.096 610.291L258.759 610.291" stroke="#BBA5EF" stroke-width="4" stroke-miterlimit="10"/>
<path d="M-738 551.242L318 551.242" stroke="#BBA5EF" stroke-width="4" stroke-miterlimit="10"/>
<path d="M-738 491L317 491" stroke="#BBA5EF" stroke-width="4" stroke-miterlimit="10"/>
<path d="M-738 432L259.5 432" stroke="#BBA5EF" stroke-width="4" stroke-miterlimit="10"/>
<path d="M-738 373L317 373" stroke="#BBA5EF" stroke-width="4" stroke-miterlimit="10"/>
<path d="M-738 313L317 313" stroke="#BBA5EF" stroke-width="4" stroke-miterlimit="10"/>
<path d="M-738 254L320 254" stroke="#BBA5EF" stroke-width="4" stroke-miterlimit="10"/>
<path d="M-738 195L259 195" stroke="#BBA5EF" stroke-width="4" stroke-miterlimit="10"/>
<path d="M-738 135H259" stroke="#BBA5EF" stroke-width="4" stroke-miterlimit="10"/>
<path d="M-738 75.9998L201 75.9998" stroke="#BBA5EF" stroke-width="4" stroke-miterlimit="10"/>
<path d="M-738 16.9998H142" stroke="#BBA5EF" stroke-width="4" stroke-miterlimit="10"/>
<path d="M20 17.588L24 610" stroke="#BBA5EF" stroke-width="4" stroke-miterlimit="10"/>
<path d="M78 16.9997L81 610" stroke="#BBA5EF" stroke-width="4" stroke-miterlimit="10"/>
<path d="M140 16.9998V669" stroke="#BBA5EF" stroke-width="4" stroke-miterlimit="10"/>
<path d="M199 74.9997L199 669" stroke="#BBA5EF" stroke-width="4" stroke-miterlimit="10"/>
<path d="M260 133L260 669" stroke="#BBA5EF" stroke-width="4" stroke-miterlimit="10"/>
<path d="M318 253L318 375" stroke="#BBA5EF" stroke-width="4" stroke-miterlimit="10"/>
<path d="M318 489L318 671" stroke="#BBA5EF" stroke-width="4" stroke-miterlimit="10"/>
</svg>
