<svg width="103" height="98" viewBox="0 0 103 98" fill="none" xmlns="http://www.w3.org/2000/svg">
<path d="M63.341 2.33496L68.011 6.99777H72.6738L77.3438 11.6606H82.0066L91.3394 20.9934V25.6562L96.0022 30.3262V34.989L100.665 39.659V58.3174L96.0022 62.9802V67.6502L91.3394 72.313V76.9758L82.0066 86.3086H77.3438L72.6738 90.9714H68.011L63.341 95.6414H40.0198L35.3498 90.9714H30.687L26.0242 86.3086H21.3542L12.0286 76.9758V72.313L7.35863 67.6502V62.9802L2.69582 58.3174V39.659L7.35863 34.989V30.3262L12.0286 25.6562V20.9934L21.3542 11.6606H26.0242L30.687 6.99777H35.3498L40.0198 2.33496H63.341Z" fill="#43FE01"/>
<path d="M89.0044 18.6582H84.3416V13.9954H89.0044V18.6582Z" fill="black"/>
<path d="M84.3416 13.9956L75.0088 13.9956V9.3328H84.3416V13.9956Z" fill="black"/>
<path d="M103 60.6455H98.3372V37.3171H103V60.6455Z" fill="black"/>
<path d="M65.676 4.66309L37.6848 4.66309V0.00028038L65.676 0.00028038V4.66309Z" fill="black"/>
<path d="M65.676 4.66309H75.0088V9.32589H65.676V4.66309Z" fill="black"/>
<path d="M93.6744 37.324V27.9912H98.3372V37.324H93.6744Z" fill="black"/>
<path d="M93.6672 27.998H89.0044V18.6653H93.6672V27.998Z" fill="black"/>
<path d="M0.367952 37.3242H5.03076V60.6526H0.367952V37.3242Z" fill="black"/>
<path d="M37.6848 93.3066H65.676V97.9695H37.6848V93.3066Z" fill="black"/>
<path d="M26.0242 69.978H30.687V74.6408H26.0242V69.978Z" fill="black"/>
<path d="M30.687 74.6479H40.0198V79.3108H30.687V74.6479Z" fill="black"/>
<path d="M21.3542 51.3195V60.6523H16.6914V51.3195H21.3542Z" fill="black"/>
<path d="M21.3614 60.6523H26.0242V69.9851H21.3614V60.6523Z" fill="black"/>
<path d="M72.681 79.3105H63.3482V74.6477H72.681V79.3105Z" fill="black"/>
<path d="M77.3366 74.6479H72.6738V69.9851H77.3366V74.6479Z" fill="black"/>
<path d="M40.0198 79.3105H63.3482V83.9734H40.0198V79.3105Z" fill="black"/>
<path d="M86.6694 51.3195V60.6523H82.0066V51.3195H86.6694Z" fill="black"/>
<path d="M81.9994 69.978H77.3366V60.6452H81.9994V69.978Z" fill="black"/>
<path d="M14.3636 13.9956H19.0264V18.6584H14.3636V13.9956Z" fill="black"/>
<path d="M19.0192 9.33301H28.352V13.9958H19.0192V9.33301Z" fill="black"/>
<path d="M37.6848 9.33301L28.352 9.33301V4.6702L37.6848 4.6702V9.33301Z" fill="black"/>
<path d="M5.03076 37.324L5.03076 27.9912H9.69357V37.324H5.03076Z" fill="black"/>
<path d="M9.69364 18.6582H14.3564V27.991H9.69364V18.6582Z" fill="black"/>
<path d="M89.0044 83.9736H84.3416V79.3108H89.0044V83.9736Z" fill="black"/>
<path d="M84.3416 88.6436H75.0088V83.9807H84.3416V88.6436Z" fill="black"/>
<path d="M65.676 88.6436H75.0088V93.3064H65.676V88.6436Z" fill="black"/>
<path d="M98.3372 60.6452V69.978H93.6744V60.6452H98.3372Z" fill="black"/>
<path d="M93.6672 79.3105H89.0044V69.9778H93.6672V79.3105Z" fill="black"/>
<path d="M14.3564 83.9734V79.3105H19.0192V83.9734H14.3564Z" fill="black"/>
<path d="M9.6936 79.3108V69.978H14.3564V79.3108H9.6936Z" fill="black"/>
<path d="M9.6936 60.6526V69.9854H5.0308L5.0308 60.6526H9.6936Z" fill="black"/>
<path d="M37.6848 93.3066H28.352V88.6438H37.6848V93.3066Z" fill="black"/>
<path d="M19.0264 88.6364V83.9736H28.3592V88.6364H19.0264Z" fill="black"/>
<path d="M60.7617 27.9912V41.9868H56.0989V27.9912H60.7617Z" fill="black"/>
<path d="M74.7502 27.9912H60.7546V23.3284H74.7502V27.9912Z" fill="black"/>
<path d="M60.7546 27.9912H74.7502V41.9868H60.7546V27.9912Z" fill="white"/>
<path d="M79.4202 27.9912V41.9868H74.7574V27.9912H79.4202Z" fill="black"/>
<path d="M74.7502 46.6567H60.7546V41.9939H74.7502V46.6567Z" fill="black"/>
<path d="M28.1006 27.9912V41.9868H23.4378V27.9912H28.1006Z" fill="black"/>
<path d="M42.089 27.9912H28.0934V23.3284H42.089V27.9912Z" fill="black"/>
<path d="M28.1005 27.9912H42.0961V41.9868H28.1005V27.9912Z" fill="white"/>
<path d="M46.7589 27.9912V41.9868H42.0961V27.9912H46.7589Z" fill="black"/>
<path d="M42.089 46.6567H28.0934V41.9939H42.089V46.6567Z" fill="black"/>
<path d="M71.3375 37.4463H60.7546V27.9914H71.3375V37.4463Z" fill="black"/>
<path d="M38.6763 37.4463H28.0934V27.9914H38.6763V37.4463Z" fill="black"/>
</svg>
