<svg width="58" height="55" viewBox="0 0 58 55" fill="none" xmlns="http://www.w3.org/2000/svg">
<path d="M35.3529 1.31091L37.9747 3.92862H40.5924L43.2141 6.54632H45.8318L51.0712 11.7858V14.4035L53.6889 17.0252V19.6429L56.3066 22.2646V32.7395L53.6889 35.3572V37.9789L51.0712 40.5966V43.2143L45.8318 48.4538H43.2141L40.5924 51.0715H37.9747L35.3529 53.6932H22.2604L19.6386 51.0715H17.0209L14.4032 48.4538H11.7815L6.54608 43.2143V40.5966L3.92434 37.9789V35.3572L1.30664 32.7395V22.2646L3.92434 19.6429V17.0252L6.54608 14.4035V11.7858L11.7815 6.54632H14.4032L17.0209 3.92862H19.6386L22.2604 1.31091H35.3529Z" fill="#FFFF00"/>
<path d="M49.7605 10.4749H47.1428V7.85715H49.7605V10.4749Z" fill="black"/>
<path d="M47.1428 7.85718L41.9033 7.85718V5.23947H47.1428V7.85718Z" fill="black"/>
<path d="M57.6177 34.0463H55V20.9497H57.6177V34.0463Z" fill="black"/>
<path d="M36.664 2.61768L20.9497 2.61768V-2.71797e-05L36.664 -2.71797e-05V2.61768Z" fill="black"/>
<path d="M36.6639 2.61768H41.9033V5.23538H36.6639V2.61768Z" fill="black"/>
<path d="M52.3823 20.9537V15.7142H55V20.9537H52.3823Z" fill="black"/>
<path d="M52.3784 15.7183H49.7607V10.4788H52.3784V15.7183Z" fill="black"/>
<path d="M-2.95639e-05 20.9537H2.61768V34.0503H-2.95639e-05V20.9537Z" fill="black"/>
<path d="M20.9498 52.3823H36.6641V55H20.9498V52.3823Z" fill="black"/>
<path d="M14.4033 39.2856H17.021V41.9033H14.4033V39.2856Z" fill="black"/>
<path d="M17.0213 41.9075H22.2607V44.5252H17.0213V41.9075Z" fill="black"/>
<path d="M11.7817 28.8109V34.0503H9.16404V28.8109H11.7817Z" fill="black"/>
<path d="M11.7856 34.0503H14.4033V39.2897H11.7856V34.0503Z" fill="black"/>
<path d="M40.5966 44.5251H35.3572V41.9074H40.5966V44.5251Z" fill="black"/>
<path d="M43.2102 41.9075H40.5925V39.2898H43.2102V41.9075Z" fill="black"/>
<path d="M22.2606 44.5251H35.3572V47.1428H22.2606V44.5251Z" fill="black"/>
<path d="M48.4497 28.8109V34.0503H45.832V28.8109H48.4497Z" fill="black"/>
<path d="M45.8282 39.2856H43.2104V34.0462H45.8282V39.2856Z" fill="black"/>
<path d="M7.85715 7.85718H10.4749V10.4749H7.85715V7.85718Z" fill="black"/>
<path d="M10.471 5.2395H15.7104V7.8572H10.471V5.2395Z" fill="black"/>
<path d="M20.9499 5.2395L15.7104 5.2395V2.6218L20.9499 2.6218V5.2395Z" fill="black"/>
<path d="M2.61768 20.9537L2.61768 15.7142H5.23538V20.9537H2.61768Z" fill="black"/>
<path d="M5.23533 10.4749H7.85303V15.7143H5.23533V10.4749Z" fill="black"/>
<path d="M49.7605 47.1428H47.1428V44.5251H49.7605V47.1428Z" fill="black"/>
<path d="M47.1428 49.7646H41.9033V47.1469H47.1428V49.7646Z" fill="black"/>
<path d="M36.6639 49.7646H41.9033V52.3824H36.6639V49.7646Z" fill="black"/>
<path d="M55 34.0462V39.2856H52.3823V34.0462H55Z" fill="black"/>
<path d="M52.3784 44.5251H49.7607V39.2857H52.3784V44.5251Z" fill="black"/>
<path d="M7.85303 47.1429V44.5251H10.4707V47.1429H7.85303Z" fill="black"/>
<path d="M5.23535 44.5251V39.2856H7.85305V44.5251H5.23535Z" fill="black"/>
<path d="M5.23535 34.0502V39.2897H2.61765L2.61765 34.0502H5.23535Z" fill="black"/>
<path d="M20.9499 52.3823H15.7104V49.7646H20.9499V52.3823Z" fill="black"/>
<path d="M10.4749 49.7605V47.1428H15.7143V49.7605H10.4749Z" fill="black"/>
<path d="M33.9053 15.7143V23.5714H31.2876V15.7143H33.9053Z" fill="black"/>
<path d="M41.7583 15.7142L33.9011 15.7142V13.0965H41.7583V15.7142Z" fill="black"/>
<path d="M33.9012 15.7142H41.7583V23.5714H33.9012V15.7142Z" fill="white"/>
<path d="M44.3799 15.7143V23.5714H41.7622V15.7143H44.3799Z" fill="black"/>
<path d="M41.7583 26.1932H33.9011V23.5755H41.7583V26.1932Z" fill="black"/>
<path d="M15.5693 15.7143V23.5714H12.9516V15.7143H15.5693Z" fill="black"/>
<path d="M23.4221 15.7142L15.5649 15.7142V13.0965H23.4221V15.7142Z" fill="black"/>
<path d="M15.5691 15.7142H23.4263V23.5714H15.5691V15.7142Z" fill="white"/>
<path d="M26.0439 15.7143V23.5714H23.4262V15.7143H26.0439Z" fill="black"/>
<path d="M23.4221 26.1932H15.5649V23.5755H23.4221V26.1932Z" fill="black"/>
<path d="M39.8424 21.0223H33.9011V15.7143H39.8424V21.0223Z" fill="black"/>
<path d="M21.5062 21.0223H15.5649V15.7143H21.5062V21.0223Z" fill="black"/>
</svg>
