<svg width="103" height="98" viewBox="0 0 103 98" fill="none" xmlns="http://www.w3.org/2000/svg">
<path d="M62.9729 2.33496L67.6429 6.99777H72.3057L76.9757 11.6606H81.6385L90.9713 20.9934V25.6562L95.6341 30.3262V34.989L100.297 39.659V58.3174L95.6341 62.9802V67.6502L90.9713 72.313V76.9758L81.6385 86.3086H76.9757L72.3057 90.9714H67.6429L62.9729 95.6414H39.6517L34.9817 90.9714H30.3189L25.6561 86.3086H20.9861L11.6605 76.9758V72.313L6.99053 67.6502V62.9802L2.32772 58.3174V39.659L6.99053 34.989V30.3262L11.6605 25.6562V20.9934L20.9861 11.6606H25.6561L30.3189 6.99777H34.9817L39.6517 2.33496H62.9729Z" fill="#FE3344"/>
<path d="M88.6365 18.6582H83.9737V13.9954H88.6365V18.6582Z" fill="black"/>
<path d="M83.9735 13.9956L74.6407 13.9956V9.3328H83.9735V13.9956Z" fill="black"/>
<path d="M102.632 60.645H97.9693V37.3166H102.632V60.645Z" fill="black"/>
<path d="M65.3082 4.6626L37.317 4.6626V-0.000207901L65.3082 -0.000207901V4.6626Z" fill="black"/>
<path d="M65.3079 4.6626H74.6407V9.3254H65.3079V4.6626Z" fill="black"/>
<path d="M93.3062 37.324V27.9912H97.969V37.324H93.3062Z" fill="black"/>
<path d="M93.2991 27.9985H88.6363V18.6657H93.2991V27.9985Z" fill="black"/>
<path d="M-0.000151157 37.3242H4.66266V60.6526H-0.000151157V37.3242Z" fill="black"/>
<path d="M37.317 93.3066H65.3082V97.9695H37.317V93.3066Z" fill="black"/>
<path d="M25.6561 69.978H30.3189V74.6408H25.6561V69.978Z" fill="black"/>
<path d="M30.3191 74.6479H39.6519V79.3108H30.3191V74.6479Z" fill="black"/>
<path d="M20.9859 51.3195V60.6523H16.3231V51.3195H20.9859Z" fill="black"/>
<path d="M20.9935 60.6523H25.6563V69.9851H20.9935V60.6523Z" fill="black"/>
<path d="M72.3128 79.311H62.98V74.6482H72.3128V79.311Z" fill="black"/>
<path d="M76.9685 74.6479H72.3057V69.9851H76.9685V74.6479Z" fill="black"/>
<path d="M39.6516 79.311H62.98V83.9738H39.6516V79.311Z" fill="black"/>
<path d="M86.3013 51.3195V60.6523H81.6385V51.3195H86.3013Z" fill="black"/>
<path d="M81.6316 69.978H76.9688V60.6452H81.6316V69.978Z" fill="black"/>
<path d="M13.9955 13.9956H18.6583V18.6584H13.9955V13.9956Z" fill="black"/>
<path d="M18.6512 9.33301H27.9839V13.9958H18.6512V9.33301Z" fill="black"/>
<path d="M37.3167 9.33301L27.9839 9.33301V4.6702L37.3167 4.6702V9.33301Z" fill="black"/>
<path d="M4.66266 37.324L4.66266 27.9912H9.32547V37.324H4.66266Z" fill="black"/>
<path d="M9.32554 18.6582H13.9883V27.991H9.32554V18.6582Z" fill="black"/>
<path d="M88.6365 83.9736H83.9737V79.3108H88.6365V83.9736Z" fill="black"/>
<path d="M83.9735 88.6436H74.6407V83.9807H83.9735V88.6436Z" fill="black"/>
<path d="M65.3079 88.6436H74.6407V93.3064H65.3079V88.6436Z" fill="black"/>
<path d="M97.9693 60.6452V69.978H93.3065V60.6452H97.9693Z" fill="black"/>
<path d="M93.2991 79.311H88.6363V69.9782H93.2991V79.311Z" fill="black"/>
<path d="M13.9883 83.9738V79.311H18.6511V83.9738H13.9883Z" fill="black"/>
<path d="M9.32574 79.3108V69.978H13.9885V79.3108H9.32574Z" fill="black"/>
<path d="M9.32574 60.6526V69.9854H4.66294L4.66294 60.6526H9.32574Z" fill="black"/>
<path d="M37.3167 93.3066H27.9839V88.6438H37.3167V93.3066Z" fill="black"/>
<path d="M18.6583 88.6364V83.9736H27.9911V88.6364H18.6583Z" fill="black"/>
<path d="M60.3936 27.9912V41.9868H55.7308V27.9912H60.3936Z" fill="black"/>
<path d="M74.3819 27.9912H60.3863V23.3284H74.3819V27.9912Z" fill="black"/>
<path d="M60.3863 27.9912H74.3819V41.9868H60.3863V27.9912Z" fill="white"/>
<path d="M79.0523 27.9912V41.9868H74.3895V27.9912H79.0523Z" fill="black"/>
<path d="M74.3819 46.6567H60.3863V41.9939H74.3819V46.6567Z" fill="black"/>
<path d="M27.7325 27.9912V41.9868H23.0697V27.9912H27.7325Z" fill="black"/>
<path d="M41.7208 27.9912H27.7252V23.3284H41.7208V27.9912Z" fill="black"/>
<path d="M27.7325 27.9912H41.7281V41.9868H27.7325V27.9912Z" fill="white"/>
<path d="M46.3907 27.9912V41.9868H41.7279V27.9912H46.3907Z" fill="black"/>
<path d="M41.7208 46.6567H27.7252V41.9939H41.7208V46.6567Z" fill="black"/>
<path d="M70.9692 37.4463H60.3863V27.9914H70.9692V37.4463Z" fill="black"/>
<path d="M38.3081 37.4463H27.7252V27.9914H38.3081V37.4463Z" fill="black"/>
</svg>
