<svg width="1050" height="648" fill="none" xmlns="http://www.w3.org/2000/svg"><path fill="#000" d="M17 0h1021v4H17z"/><path fill="#BBA5EF" d="M17 4h1021v4H17z"/><path fill="#000" d="M5 8h4v4H5zM.383 12H5v620H.383z"/><path fill="#BBA5EF" d="M5 12h4.617v620H5z"/><path fill="#000" d="M1050 12h-4v620h4z"/><path fill="#663EC6" d="M1046 17h-4v615h4z"/><path fill="#000" d="M9 4h4v4H9zm4-4h4v4h-4z"/><path fill="#BBA5EF" d="M13 4h4v4h-4zM9 8h4v4H9zm-4 4h4v4H5z"/><path fill="#000" d="M1046 8h-4v4h4zm-4-4h-4v4h4z"/><path fill="#663EC6" d="M1038 4h-4v4h4zm4 4h-4v4h4zm4 4h-4v4h4zm-12 624h4v4h-4zm4-4h4v4h-4z"/><path fill="#000" d="M1042 632h4v4h-4zm-4 4h4v4h-4zm-4 4h4v4h-4z"/><path fill="#BBA5EF" d="M17 636h-4v4h4zm-4-4H9v4h4z"/><path fill="#000" d="M9 632H5v4h4zm4 4H9v4h4zm4 4h-4v4h4zm0 4h1021v4H17z"/><path fill="#663EC6" d="M17 640h1021v4H17z"/></svg>