<svg width="328" height="1171" fill="none" xmlns="http://www.w3.org/2000/svg"><path fill="#000" d="M328 9v1153h-3V9z"/><path fill="#663EC6" d="M325 9v1153h-3V9z"/><path fill="#000" d="M320 0v3H9V0z"/><path fill="#BBA5EF" d="M320 3v3H9V3z"/><path fill="#000" d="M319 1171v-3H9v3z"/><path fill="#663EC6" d="M319 1168v-3H9v3z"/><path fill="#000" d="M322 1168v-3h-3v3zm3-3v-3h-3v3z"/><path fill="#663EC6" d="M322 1165v-3h-3v3zm-3 3v-3h-3v3z"/><path fill="#000" d="M6 1168v-3h3v3zm-3-3v-3h3v3z"/><path fill="#BBA5EF" d="M6 1165v-3h3v3zm3 3v-3h3v3z"/><path fill="#000" d="M323 3v3h-3V3zm3 3v3h-3V6z"/><path fill="#663EC6" d="M323 6v3h-3V6zm-3-3v3h-3V3z"/><path fill="#000" d="M6 3v3h3V3zM3 6v3h3V6z"/><path fill="#BBA5EF" d="M6 6v3h3V6zm3-3v3h3V3z"/><path fill="#000" d="M3 9.057v1152.94H0V9.057z"/><path fill="#BBA5EF" d="M6.066 9.057v1152.94h-3V9.057z"/></svg>