<svg width="223" height="57" fill="none" xmlns="http://www.w3.org/2000/svg"><rect x="8" y="6" width="208" height="46" rx="9" fill="#C4C4C4"/><path fill="#000" d="M211 45h4v4h-4zM12 0h199v4H12z"/><path fill="#fff" d="M12 4h199v4H12z"/><path fill="#000" d="M12 53h199v4H12z"/><path fill="#737373" d="M12 49h199v4H12z"/><path fill="#000" d="M219 12h4v33h-4zm-4-4h4v4h-4zm-4-4h4v4h-4z"/><path fill="#fff" d="M211 8h4v4h-4z"/><path fill="#000" d="M211 49h4v4h-4zm4-4h4v4h-4z"/><path fill="#737373" d="M211 45h4v4h-4zm4-33h4v33h-4z"/><path fill="#000" d="M4 12H0v33h4zm4-4H4v4h4zm4-4H8v4h4z"/><path fill="#fff" d="M12 8H8v4h4zm-4 4H4v29h4z"/><path fill="#000" d="M12 49H8v4h4zm-4-4H4v4h4z"/><path fill="#737373" d="M12 45H8v4h4z"/><path fill="#fff" d="M8 41H4v4h4z"/></svg>