<svg width="1921" height="864" viewBox="0 0 1921 864" fill="none" xmlns="http://www.w3.org/2000/svg">
<mask id="mask0_1865_66" style="mask-type:alpha" maskUnits="userSpaceOnUse" x="0" y="0" width="1921" height="864">
<rect width="1921" height="864" fill="#C4C4C4"/>
</mask>
<g mask="url(#mask0_1865_66)">
<path d="M43 -521L42.9999 713" stroke="#BBA5EF" stroke-width="4" stroke-miterlimit="10"/>
<path d="M103 -521L103 713" stroke="#BBA5EF" stroke-width="4" stroke-miterlimit="10"/>
<path d="M162 -521L162 713" stroke="#BBA5EF" stroke-width="4" stroke-miterlimit="10"/>
<path d="M221 -521L221 714" stroke="#BBA5EF" stroke-width="4" stroke-miterlimit="10"/>
<path d="M281 -521L281 832" stroke="#BBA5EF" stroke-width="4" stroke-miterlimit="10"/>
<path d="M340 -521L340 832" stroke="#BBA5EF" stroke-width="4" stroke-miterlimit="10"/>
<path d="M399.291 483V357.092V297.756V238.419V179.082V119.745V60.4083V1.07147V-58.2588V-117.596V-176.932V-236.269V-295.606V-354.943V-414.28V-473.61V-511.84" stroke="#BBA5EF" stroke-width="4" stroke-miterlimit="10"/>
<path d="M459.026 483L459 419.415L458.974 355.822L458.948 292.229L458.922 228.637L458.896 165.044L458.871 101.451L458.845 37.8588L458.819 -25.7268L458.793 -89.3194L458.767 -152.912L458.741 -216.505L458.715 -280.097L458.69 -343.69L458.664 -407.283L458.638 -470.868L458.621 -511.84" stroke="#BBA5EF" stroke-width="4" stroke-miterlimit="10"/>
<path d="M517.951 485V357.092V297.756V238.419V179.082V119.745V60.4083V1.07147V-58.2588V-117.596V-176.932V-236.269V-295.606V-354.943V-414.28V-473.61V-511.84" stroke="#BBA5EF" stroke-width="4" stroke-miterlimit="10"/>
<path d="M399.291 772.443V713.107V653.77V594.433V535.096V475.759" stroke="#BBA5EF" stroke-width="4" stroke-miterlimit="10"/>
<path d="M459 832L459 785.165L459 733.642L459 682.114L459 630.585L459 579.057L459 527.528L459 476" stroke="#BBA5EF" stroke-width="4" stroke-miterlimit="10"/>
<path d="M517.951 831.774V772.443V713.107V653.77V594.433V535.096V475.759" stroke="#BBA5EF" stroke-width="4" stroke-miterlimit="10"/>
<path d="M577 -521L577 833" stroke="#BBA5EF" stroke-width="4" stroke-miterlimit="10"/>
<path d="M637 -521L637 713" stroke="#BBA5EF" stroke-width="4" stroke-miterlimit="10"/>
<path d="M696 -521V713" stroke="#BBA5EF" stroke-width="4" stroke-miterlimit="10"/>
<path d="M755 -521V713" stroke="#BBA5EF" stroke-width="4" stroke-miterlimit="10"/>
<path d="M815 -521V713" stroke="#BBA5EF" stroke-width="4" stroke-miterlimit="10"/>
<path d="M874 -521V713" stroke="#BBA5EF" stroke-width="4" stroke-miterlimit="10"/>
<path d="M933 -521V772" stroke="#BBA5EF" stroke-width="4" stroke-miterlimit="10"/>
<path d="M993 -521V833" stroke="#BBA5EF" stroke-width="4" stroke-miterlimit="10"/>
<path d="M1052 -521V833" stroke="#BBA5EF" stroke-width="4" stroke-miterlimit="10"/>
<path d="M1111 -521V833" stroke="#BBA5EF" stroke-width="4" stroke-miterlimit="10"/>
<path d="M1161.24 1.07129H-244" stroke="#BBA5EF" stroke-width="4" stroke-miterlimit="10"/>
<path d="M1161.24 60.4082H-244" stroke="#BBA5EF" stroke-width="4" stroke-miterlimit="10"/>
<path d="M1161.24 119.745H-244" stroke="#BBA5EF" stroke-width="4" stroke-miterlimit="10"/>
<path d="M1161.24 179.082H-244" stroke="#BBA5EF" stroke-width="4" stroke-miterlimit="10"/>
<path d="M1161.24 238.418H-244" stroke="#BBA5EF" stroke-width="4" stroke-miterlimit="10"/>
<path d="M1161.24 297.755H-244" stroke="#BBA5EF" stroke-width="4" stroke-miterlimit="10"/>
<path d="M1161.24 357.092H-244" stroke="#BBA5EF" stroke-width="4" stroke-miterlimit="10"/>
<path d="M1161.24 416.422H-244" stroke="#BBA5EF" stroke-width="4" stroke-miterlimit="10"/>
<path d="M1161.24 475.759H-244" stroke="#BBA5EF" stroke-width="4" stroke-miterlimit="10"/>
<path d="M1161.24 535.096H-244" stroke="#BBA5EF" stroke-width="4" stroke-miterlimit="10"/>
<path d="M1161.24 594.433H-244" stroke="#BBA5EF" stroke-width="4" stroke-miterlimit="10"/>
<path d="M1161.24 653.77H-244" stroke="#BBA5EF" stroke-width="4" stroke-miterlimit="10"/>
<path d="M1161.24 713.106H-244" stroke="#BBA5EF" stroke-width="4" stroke-miterlimit="10"/>
<path d="M577 772H340.193H280" stroke="#BBA5EF" stroke-width="4" stroke-miterlimit="10"/>
<path d="M340.5 831.774H281" stroke="#BBA5EF" stroke-width="4" stroke-miterlimit="10"/>
<path d="M578 832H458" stroke="#BBA5EF" stroke-width="4" stroke-miterlimit="10"/>
<path d="M1170 -521V831" stroke="#BBA5EF" stroke-width="4" stroke-miterlimit="10"/>
<path d="M1230 -521V831" stroke="#BBA5EF" stroke-width="4" stroke-miterlimit="10"/>
<path d="M1289 -521V831" stroke="#BBA5EF" stroke-width="4" stroke-miterlimit="10"/>
<path d="M1348 -521V831" stroke="#BBA5EF" stroke-width="4" stroke-miterlimit="10"/>
<path d="M1408 -521V831" stroke="#BBA5EF" stroke-width="4" stroke-miterlimit="10"/>
<path d="M1467 -521V831" stroke="#BBA5EF" stroke-width="4" stroke-miterlimit="10"/>
<path d="M1526.29 484.5V386.758V357.092V297.756V238.419V179.082V119.745V60.4083V1.07147V-58.2588V-117.596V-176.932V-236.269V-295.606V-354.943V-414.28V-473.61V-511.84" stroke="#BBA5EF" stroke-width="4" stroke-miterlimit="10"/>
<path d="M1585.62 416.423V482V357.092V297.756V238.419V179.082V119.745V60.4083V1.07147V-58.2588V-117.596V-176.932V-236.269V-295.606V-354.943V-414.28V-473.61V-511.84" stroke="#BBA5EF" stroke-width="4" stroke-miterlimit="10"/>
<path d="M1644.95 416.423V491.5V357.092V297.756V238.419V179.082V119.745V60.4083V1.07147V-58.2588V-117.596V-176.932V-236.269V-295.606V-354.943V-414.28V-473.61V-511.84" stroke="#BBA5EF" stroke-width="4" stroke-miterlimit="10"/>
<path d="M1526 832V780.166V723.143V666.115V609.086V552.057V495.029V438" stroke="#BBA5EF" stroke-width="4" stroke-miterlimit="10"/>
<path d="M1586 832V780.166V723.143V666.115V609.086V552.057V495.029V438" stroke="#BBA5EF" stroke-width="4" stroke-miterlimit="10"/>
<path d="M1645 832V780.166V723.143V666.115V609.086V552.057V495.029V438" stroke="#BBA5EF" stroke-width="4" stroke-miterlimit="10"/>
<path d="M1704 -521V714" stroke="#BBA5EF" stroke-width="4" stroke-miterlimit="10"/>
<path d="M1764 -521V713" stroke="#BBA5EF" stroke-width="4" stroke-miterlimit="10"/>
<path d="M1823 -521V713" stroke="#BBA5EF" stroke-width="4" stroke-miterlimit="10"/>
<path d="M1882 -521V713" stroke="#BBA5EF" stroke-width="4" stroke-miterlimit="10"/>
<path d="M2288.24 1.07129H883" stroke="#BBA5EF" stroke-width="4" stroke-miterlimit="10"/>
<path d="M2288.24 60.4082H883" stroke="#BBA5EF" stroke-width="4" stroke-miterlimit="10"/>
<path d="M2288.24 119.745H883" stroke="#BBA5EF" stroke-width="4" stroke-miterlimit="10"/>
<path d="M2288.24 179.082H883" stroke="#BBA5EF" stroke-width="4" stroke-miterlimit="10"/>
<path d="M2288.24 238.418H883" stroke="#BBA5EF" stroke-width="4" stroke-miterlimit="10"/>
<path d="M2288.24 297.755H883" stroke="#BBA5EF" stroke-width="4" stroke-miterlimit="10"/>
<path d="M2288.24 357.092H883" stroke="#BBA5EF" stroke-width="4" stroke-miterlimit="10"/>
<path d="M2288.24 416.422H883" stroke="#BBA5EF" stroke-width="4" stroke-miterlimit="10"/>
<path d="M2288.24 475.759H883" stroke="#BBA5EF" stroke-width="4" stroke-miterlimit="10"/>
<path d="M2288.24 535.096H883" stroke="#BBA5EF" stroke-width="4" stroke-miterlimit="10"/>
<path d="M2288.24 594.433H883" stroke="#BBA5EF" stroke-width="4" stroke-miterlimit="10"/>
<path d="M2288.24 653.77H883" stroke="#BBA5EF" stroke-width="4" stroke-miterlimit="10"/>
<path d="M2288.24 713.106H883" stroke="#BBA5EF" stroke-width="4" stroke-miterlimit="10"/>
<path d="M1645 772L932 772" stroke="#BBA5EF" stroke-width="4" stroke-miterlimit="10"/>
<path d="M1646 832L993 832" stroke="#BBA5EF" stroke-width="4" stroke-miterlimit="10"/>
</g>
<rect x="639" y="62" width="648" height="175" fill="#8353E3"/>
</svg>
