<svg width="1102" height="547" viewBox="0 0 1102 547" fill="none" xmlns="http://www.w3.org/2000/svg">
<mask id="mask0_1801_2" style="mask-type:alpha" maskUnits="userSpaceOnUse" x="4" y="0" width="1094" height="539">
<rect width="1094" height="539" transform="matrix(1 0 0 -1 4 539)" fill="#C4C4C4"/>
</mask>
<g mask="url(#mask0_1801_2)">
<path d="M40.3125 936.211L40.3125 87.8359" stroke="#BBA5EF" stroke-width="3" stroke-miterlimit="10"/>
<path d="M81.5625 936.211L81.5625 87.8359" stroke="#BBA5EF" stroke-width="3" stroke-miterlimit="10"/>
<path d="M122.125 936.211L122.125 87.8359" stroke="#BBA5EF" stroke-width="3" stroke-miterlimit="10"/>
<path d="M162.688 936.211L162.687 87.1485" stroke="#BBA5EF" stroke-width="3" stroke-miterlimit="10"/>
<path d="M203.938 936.211L203.937 6.02336" stroke="#BBA5EF" stroke-width="3" stroke-miterlimit="10"/>
<path d="M244.5 936.211L244.5 6.02337" stroke="#BBA5EF" stroke-width="3" stroke-miterlimit="10"/>
<path d="M285.263 245.961V332.523V373.317V414.111V454.905V495.699V536.493V577.287V618.077V658.871V699.665V740.459V781.253V822.047V862.841V903.631V929.914" stroke="#BBA5EF" stroke-width="3" stroke-miterlimit="10"/>
<path d="M326.33 245.961L326.312 289.676L326.295 333.396L326.277 377.116L326.259 420.836L326.241 464.556L326.224 508.276L326.206 551.996L326.188 595.711L326.17 639.431L326.153 683.151L326.135 726.871L326.117 770.591L326.099 814.311L326.081 858.03L326.064 901.746L326.052 929.914" stroke="#BBA5EF" stroke-width="3" stroke-miterlimit="10"/>
<path d="M366.842 244.586V332.523V373.317V414.111V454.905V495.699V536.493V577.287V618.077V658.871V699.665V740.459V781.253V822.047V862.841V903.631V929.914" stroke="#BBA5EF" stroke-width="3" stroke-miterlimit="10"/>
<path d="M285.263 46.9686V87.7627V128.557V169.351V210.145V250.939" stroke="#BBA5EF" stroke-width="3" stroke-miterlimit="10"/>
<path d="M326.75 5.02318L326.692 37.354L326.629 72.9206L326.566 108.491L326.502 144.062L326.439 179.632L326.376 215.203L326.312 250.773" stroke="#BBA5EF" stroke-width="3" stroke-miterlimit="10"/>
<path d="M366.842 6.179V46.9686V87.7627V128.557V169.351V210.145V250.939" stroke="#BBA5EF" stroke-width="3" stroke-miterlimit="10"/>
<path d="M407.75 936.023L407.75 5.02342" stroke="#BBA5EF" stroke-width="3" stroke-miterlimit="10"/>
<path d="M448.687 936.211L448.687 87.8359" stroke="#BBA5EF" stroke-width="3" stroke-miterlimit="10"/>
<path d="M489.25 936.211V87.8359" stroke="#BBA5EF" stroke-width="3" stroke-miterlimit="10"/>
<path d="M529.812 936.211V87.8359" stroke="#BBA5EF" stroke-width="3" stroke-miterlimit="10"/>
<path d="M571.062 936.211V87.8359" stroke="#BBA5EF" stroke-width="3" stroke-miterlimit="10"/>
<path d="M611.625 936.211V87.8359" stroke="#BBA5EF" stroke-width="3" stroke-miterlimit="10"/>
<path d="M652.188 936.211V47.2735" stroke="#BBA5EF" stroke-width="3" stroke-miterlimit="10"/>
<path d="M693.437 936.211V5.33597" stroke="#BBA5EF" stroke-width="3" stroke-miterlimit="10"/>
<path d="M734 936.211V5.33597" stroke="#BBA5EF" stroke-width="3" stroke-miterlimit="10"/>
<path d="M774.562 936.211V5.33597" stroke="#BBA5EF" stroke-width="3" stroke-miterlimit="10"/>
<path d="M809.104 536.493H-157" stroke="#BBA5EF" stroke-width="3" stroke-miterlimit="10"/>
<path d="M809.104 495.699H-157" stroke="#BBA5EF" stroke-width="3" stroke-miterlimit="10"/>
<path d="M809.104 454.905H-157" stroke="#BBA5EF" stroke-width="3" stroke-miterlimit="10"/>
<path d="M809.104 414.111H-157" stroke="#BBA5EF" stroke-width="3" stroke-miterlimit="10"/>
<path d="M809.104 373.317H-157" stroke="#BBA5EF" stroke-width="3" stroke-miterlimit="10"/>
<path d="M809.104 332.522H-157" stroke="#BBA5EF" stroke-width="3" stroke-miterlimit="10"/>
<path d="M809.104 291.733H-157" stroke="#BBA5EF" stroke-width="3" stroke-miterlimit="10"/>
<path d="M809.104 250.939H-157" stroke="#BBA5EF" stroke-width="3" stroke-miterlimit="10"/>
<path d="M809.104 210.145H-157" stroke="#BBA5EF" stroke-width="3" stroke-miterlimit="10"/>
<path d="M809.104 169.351H-157" stroke="#BBA5EF" stroke-width="3" stroke-miterlimit="10"/>
<path d="M809.104 128.557H-157" stroke="#BBA5EF" stroke-width="3" stroke-miterlimit="10"/>
<path d="M809.104 87.7627H-157" stroke="#BBA5EF" stroke-width="3" stroke-miterlimit="10"/>
<path d="M407.438 47.2734H244.633H203.25" stroke="#BBA5EF" stroke-width="3" stroke-miterlimit="10"/>
<path d="M245.75 6.17871H202.75" stroke="#BBA5EF" stroke-width="3" stroke-miterlimit="10"/>
<path d="M408.125 6.02344H325.625" stroke="#BBA5EF" stroke-width="3" stroke-miterlimit="10"/>
<path d="M815.125 936.211V6.71095" stroke="#BBA5EF" stroke-width="2" stroke-miterlimit="10"/>
<path d="M856.375 936.211V6.71095" stroke="#BBA5EF" stroke-width="2" stroke-miterlimit="10"/>
<path d="M896.937 936.211V6.71095" stroke="#BBA5EF" stroke-width="2" stroke-miterlimit="10"/>
<path d="M937.5 936.211V6.71095" stroke="#BBA5EF" stroke-width="2" stroke-miterlimit="10"/>
<path d="M978.75 936.211V6.71095" stroke="#BBA5EF" stroke-width="2" stroke-miterlimit="10"/>
<path d="M1019.31 936.211V6.71095" stroke="#BBA5EF" stroke-width="2" stroke-miterlimit="10"/>
<path d="M1060.07 244.93V312.128V332.523V373.317V414.111V454.905V495.699V536.493V577.287V618.077V658.871V699.665V740.459V781.253V822.047V862.841V903.631V929.914" stroke="#BBA5EF" stroke-width="2" stroke-miterlimit="10"/>
<path d="M1059.88 6.02343V41.6596V80.8625V120.07V159.277V198.484V237.691V276.898" stroke="#BBA5EF" stroke-width="2" stroke-miterlimit="10"/>
<path d="M1583.92 536.493H617.812" stroke="#BBA5EF" stroke-width="2" stroke-miterlimit="10"/>
<path d="M1583.92 495.699H617.812" stroke="#BBA5EF" stroke-width="2" stroke-miterlimit="10"/>
<path d="M1583.92 454.905H617.812" stroke="#BBA5EF" stroke-width="2" stroke-miterlimit="10"/>
<path d="M1583.92 414.111H617.812" stroke="#BBA5EF" stroke-width="2" stroke-miterlimit="10"/>
<path d="M1583.92 373.317H617.812" stroke="#BBA5EF" stroke-width="2" stroke-miterlimit="10"/>
<path d="M1583.92 332.522H617.812" stroke="#BBA5EF" stroke-width="2" stroke-miterlimit="10"/>
<path d="M1583.92 291.733H617.812" stroke="#BBA5EF" stroke-width="2" stroke-miterlimit="10"/>
<path d="M1583.92 250.939H617.812" stroke="#BBA5EF" stroke-width="2" stroke-miterlimit="10"/>
<path d="M1583.92 210.145H617.812" stroke="#BBA5EF" stroke-width="2" stroke-miterlimit="10"/>
<path d="M1583.92 169.351H617.812" stroke="#BBA5EF" stroke-width="2" stroke-miterlimit="10"/>
<path d="M1583.92 128.557H617.812" stroke="#BBA5EF" stroke-width="2" stroke-miterlimit="10"/>
<path d="M1583.92 87.7627H617.812" stroke="#BBA5EF" stroke-width="2" stroke-miterlimit="10"/>
<path d="M1141.69 47.2734L651.5 47.2734" stroke="#BBA5EF" stroke-width="2" stroke-miterlimit="10"/>
<path d="M1142.37 6.0234L693.438 6.02344" stroke="#BBA5EF" stroke-width="2" stroke-miterlimit="10"/>
</g>
<path d="M409 130H693V290H409V130Z" fill="#8353E3"/>
</svg>
