<svg width="15" height="13" viewBox="0 0 15 13" fill="none" xmlns="http://www.w3.org/2000/svg">
<g clip-path="url(#clip0_1672_11367)">
<path d="M8.57141 10.8353H10.7164V8.6665H8.57141V10.8353Z" fill="#FE3344"/>
<path d="M10.7164 8.66648H12.8572V6.50195H10.7164V8.66648Z" fill="#FE3344"/>
<path d="M12.8572 4.33347V6.50228H15.0021V4.33347V2.16895H12.8572V4.33347Z" fill="#FE3344"/>
<path d="M2.14497 2.16895H0V4.33347V6.50228H2.14497V4.33347V2.16895Z" fill="#FE3344"/>
<path d="M2.14502 6.50195V8.66648H4.28576V6.50195H2.14502Z" fill="#FE3344"/>
<path d="M4.28577 8.6665V10.8353H6.43074V8.6665H4.28577Z" fill="#FE3344"/>
<path d="M6.43066 13H8.57141V10.8354H6.43066V13Z" fill="#FE3344"/>
<path d="M12.8571 2.16881V0H10.7164H8.57141V2.16881H10.7164H12.8571Z" fill="#FE3344"/>
<path d="M6.43073 2.16881V0H4.28576H2.14502V2.16881H4.28576H6.43073Z" fill="#FE3344"/>
<path d="M8.57141 4.33347V2.16895H6.43066V4.33347H8.57141Z" fill="#FE3344"/>
</g>
<defs>
<clipPath id="clip0_1672_11367">
<rect width="15" height="13" fill="white"/>
</clipPath>
</defs>
</svg>
