<svg width="156" height="87" viewBox="0 0 156 87" fill="none" xmlns="http://www.w3.org/2000/svg">
<path d="M144.684 65.448H10.3342V68.891H144.684V65.448Z" fill="black"/>
<path d="M151.575 58.5569H155.018V10.3289H151.575V58.5569Z" fill="black"/>
<path d="M3.44296 6.88574H0V10.3287H3.44296V6.88574Z" fill="black"/>
<path d="M144.684 65.448H148.127V62.005H144.684V65.448Z" fill="black"/>
<path d="M148.127 62.0051H151.57V58.5622H148.127V62.0051Z" fill="black"/>
<path d="M36.1696 82.6736H32.7267V86.1165H36.1696V82.6736Z" fill="black"/>
<path d="M32.7214 82.6736H29.2784V86.1165H32.7214V82.6736Z" fill="black"/>
<path d="M43.0609 82.6736H39.6179V86.1165H43.0609V82.6736Z" fill="black"/>
<path d="M39.6126 82.6736H36.1697V86.1165H39.6126V82.6736Z" fill="black"/>
<path d="M8.61004 1.71875L1.72412 8.60997V56.838L8.61004 63.7239H37.8938V70.6151L34.4508 74.0634V80.9493H41.3367L51.6709 70.6151V63.7239H142.96L149.851 56.838V8.60997L142.96 1.71875H8.61004Z" fill="#BBA5EF"/>
<path d="M6.88595 6.88574H3.44299V58.5567H6.88595V6.88574Z" fill="white"/>
<path d="M148.127 58.5623H151.57V6.89132H148.127V58.5623Z" fill="#663EC6"/>
<path d="M10.3342 6.88574H6.89124V10.3287H10.3342V6.88574Z" fill="white"/>
<path d="M144.684 6.88574H148.127V3.44279L144.684 3.44279V6.88574Z" fill="#663EC6"/>
<path d="M144.684 3.44287H6.89124V6.88583H144.684V3.44287Z" fill="white"/>
<path d="M6.88599 3.44287L144.679 3.44287V-8.4877e-05L6.88599 -8.4877e-05V3.44287Z" fill="#663EC6"/>
<path d="M144.684 62.0051H148.127V58.5622H144.684V62.0051Z" fill="#663EC6"/>
<path d="M6.88599 65.448L144.679 65.448V62.005L6.88599 62.005V65.448Z" fill="#663EC6"/>
<path d="M3.44296 6.88574H0V58.5567H3.44296V6.88574Z" fill="#663EC6"/>
<path d="M6.88595 3.44287H3.44299V6.88583H6.88595V3.44287Z" fill="#663EC6"/>
<path d="M6.88595 58.5569H3.44299V61.9999H6.88595V58.5569Z" fill="#663EC6"/>
<path d="M39.6126 65.448H36.1697V68.891H39.6126V65.448Z" fill="#663EC6"/>
<path d="M39.6126 68.8911H36.1697V72.3341H39.6126V68.8911Z" fill="#663EC6"/>
<path d="M53.3951 65.448H49.9521V68.891H53.3951V65.448Z" fill="#663EC6"/>
<path d="M56.838 68.8911H53.395V72.3341H56.838V68.8911Z" fill="black"/>
<path d="M46.5039 79.2305H43.0609V82.6734H46.5039V79.2305Z" fill="black"/>
<path d="M49.9467 75.7822H46.5038V79.2252H49.9467V75.7822Z" fill="black"/>
<path d="M53.3951 72.3394H49.9521V75.7823H53.3951V72.3394Z" fill="black"/>
<path d="M53.3951 68.8911H49.9521V72.3341H53.3951V68.8911Z" fill="#663EC6"/>
<path d="M36.1696 72.3394H32.7267V75.7823H36.1696V72.3394Z" fill="#663EC6"/>
<path d="M36.1696 75.7822H32.7267V79.2252H36.1696V75.7822Z" fill="#663EC6"/>
<path d="M39.6126 79.2305H36.1697V82.6734H39.6126V79.2305Z" fill="#663EC6"/>
<path d="M36.1696 79.2305H32.7267V82.6734H36.1696V79.2305Z" fill="#663EC6"/>
<path d="M43.0609 79.2305H39.6179V82.6734H43.0609V79.2305Z" fill="#663EC6"/>
<path d="M46.5039 75.7822H43.0609V79.2252H46.5039V75.7822Z" fill="#663EC6"/>
<path d="M49.9467 72.3394H46.5038V75.7823H49.9467V72.3394Z" fill="#663EC6"/>
<path d="M49.9521 58.5569H39.6179V68.8911H49.9521V58.5569Z" fill="#BBA5EF"/>
<path d="M32.7214 79.2305H29.2784V82.6734H32.7214V79.2305Z" fill="#663EC6"/>
<path d="M116.254 27.3103H120.042V31.0981H116.254V27.3103ZM116.254 38.679H120.042V42.4668H116.254V38.679Z" fill="black"/>
<path d="M135.39 28.8275V39.4376H133.872V45.5171H130.843V48.5516H127.809V50.0635H124.78V47.0344H127.809V44.0052H130.843V39.4588H132.382V28.8488H130.843V24.297H127.809V21.2626H124.78V18.2334H127.809V19.7453H130.843V22.7798H133.872V28.8434L135.39 28.8275Z" fill="black"/>
<path d="M20.25 41.5864V25.8364H31.5V41.5864H29.25V28.0864H22.5V41.5864H20.25ZM42.75 39.3364V32.5864H45V39.3364H42.75ZM33.75 48.3364V30.3364H42.75V32.5864H36V39.3364H42.75V41.5864H36V48.3364H33.75ZM51.75 37.0864V34.8364H54V37.0864H51.75ZM47.25 41.5864V30.3364H49.5V37.0864H51.75V39.3364H49.5V41.5864H47.25ZM56.25 41.5864V34.8364H54V32.5864H56.25V30.3364H58.5V41.5864H56.25ZM69.75 39.3364V37.0864H72V39.3364H69.75ZM69.75 34.8364V32.5864H72V34.8364H69.75ZM60.75 41.5864V30.3364H69.75V32.5864H63V34.8364H69.75V37.0864H63V39.3364H69.75V41.5864H60.75ZM76.5 41.5864V39.3364H85.5V41.5864H76.5ZM74.25 39.3364V32.5864H76.5V34.8364H83.25V37.0864H76.5V39.3364H74.25ZM83.25 34.8364V32.5864H85.5V34.8364H83.25ZM76.5 32.5864V30.3364H83.25V32.5864H76.5ZM92.25 41.5864V32.5864H87.75V30.3364H99V32.5864H94.5V41.5864H92.25ZM101.25 41.5864V39.3364H103.5V41.5864H101.25ZM101.25 37.0864V25.8364H103.5V37.0864H101.25Z" fill="black"/>
</svg>
