<svg width="250" height="87" viewBox="0 0 250 87" fill="none" xmlns="http://www.w3.org/2000/svg">
<path d="M239.416 65.4534H10.3341V68.8963H239.416V65.4534Z" fill="black"/>
<path d="M246.307 58.562H249.75V10.334H246.307V58.562Z" fill="black"/>
<path d="M242.859 10.3342H246.302V6.89127H242.859V10.3342Z" fill="black"/>
<path d="M239.416 65.4534H242.859V62.0104H239.416V65.4534Z" fill="black"/>
<path d="M242.859 62.0051H246.302V58.5622H242.859V62.0051Z" fill="black"/>
<path d="M210.137 72.3394H213.58V68.8964H210.137V72.3394Z" fill="black"/>
<path d="M213.575 75.7876H217.018V72.3446H213.575V75.7876Z" fill="black"/>
<path d="M213.575 79.2307H217.018V75.7877H213.575V79.2307Z" fill="black"/>
<path d="M217.023 82.6736H220.466V79.2306H217.023V82.6736Z" fill="black"/>
<path d="M210.137 86.1218H213.58V82.6789H210.137V86.1218Z" fill="black"/>
<path d="M213.575 86.1218H217.018V82.6789H213.575V86.1218Z" fill="black"/>
<path d="M206.689 86.1218H210.132V82.6789H206.689V86.1218Z" fill="black"/>
<path d="M217.023 86.1218H220.466V82.6789H217.023V86.1218Z" fill="black"/>
<path d="M237.692 1.72412L244.583 8.61004V56.838L237.692 63.7292H208.413V70.6205L211.856 74.0634V80.9547H204.965L194.631 70.6205V63.7292H8.60998L1.71875 56.838V8.61004L8.60998 1.72412H237.692Z" fill="#BBA5EF"/>
<path d="M6.88584 6.89111H3.44287V58.5621H6.88584V6.89111Z" fill="white"/>
<path d="M3.44296 6.89111H0V58.5621H3.44296V6.89111Z" fill="#663EC6"/>
<path d="M10.3342 6.89111H6.89124V10.3341H10.3342V6.89111Z" fill="white"/>
<path d="M6.88584 3.44287H3.44287V6.88583H6.88584V3.44287Z" fill="#663EC6"/>
<path d="M239.416 3.44287H6.89124V6.88583H239.416V3.44287Z" fill="white"/>
<path d="M239.416 0H6.89124V3.44296H239.416V0Z" fill="#663EC6"/>
<path d="M6.88584 58.562H3.44287V62.005H6.88584V58.562Z" fill="#663EC6"/>
<path d="M239.416 62.0051H6.89124V65.4481H239.416V62.0051Z" fill="#663EC6"/>
<path d="M242.859 58.562H246.302V6.89107H242.859V58.562Z" fill="#663EC6"/>
<path d="M239.416 6.89111H242.859V3.44815L239.416 3.44815V6.89111Z" fill="#663EC6"/>
<path d="M239.416 62.0051H242.859V58.5622H239.416V62.0051Z" fill="#663EC6"/>
<path d="M206.689 68.8965H210.132V65.4535H206.689V68.8965Z" fill="#663EC6"/>
<path d="M206.689 72.3394H210.132V68.8964H206.689V72.3394Z" fill="#663EC6"/>
<path d="M192.912 68.8965H196.355V65.4535H192.912V68.8965Z" fill="#663EC6"/>
<path d="M192.912 72.3394H196.355V68.8964H192.912V72.3394Z" fill="#663EC6"/>
<path d="M210.137 75.7876H213.58V72.3446H210.137V75.7876Z" fill="#663EC6"/>
<path d="M210.137 79.2307H213.58V75.7877H210.137V79.2307Z" fill="#663EC6"/>
<path d="M206.689 82.6736H210.132V79.2306H206.689V82.6736Z" fill="#663EC6"/>
<path d="M210.137 82.6736H213.58V79.2306H210.137V82.6736Z" fill="#663EC6"/>
<path d="M203.241 82.6736H206.684V79.2306H203.241V82.6736Z" fill="#663EC6"/>
<path d="M199.803 79.2307H203.246V75.7877H199.803V79.2307Z" fill="#663EC6"/>
<path d="M196.355 75.7876H199.798V72.3446H196.355V75.7876Z" fill="#663EC6"/>
<path d="M196.355 68.8965H206.689V58.5623H196.355V68.8965Z" fill="#BBA5EF"/>
<path d="M213.575 82.6736H217.018V79.2306H213.575V82.6736Z" fill="#663EC6"/>
<path d="M81.1426 41V38.75H83.3926V41H81.1426ZM78.8926 38.75V36.5H81.1426V38.75H78.8926ZM76.6426 36.5V34.25H78.8926V36.5H76.6426ZM76.6426 32V29.75H78.8926V32H76.6426ZM78.8926 29.75V27.5H81.1426V29.75H78.8926ZM72.1426 41V25.25H74.3926V32H76.6426V34.25H74.3926V41H72.1426ZM81.1426 27.5V25.25H83.3926V27.5H81.1426ZM92.3926 41V38.75H94.6426V41H92.3926ZM85.6426 41V36.5H87.8926V38.75H90.1426V41H85.6426ZM90.1426 38.75V36.5H87.8926V34.25H90.1426V32H92.3926V38.75H90.1426ZM85.6426 32V29.75H90.1426V32H85.6426ZM103.643 41V38.75H108.143V41H103.643ZM101.393 38.75V36.5H103.643V38.75H101.393ZM101.393 34.25V32H103.643V34.25H101.393ZM96.8926 41V29.75H99.1426V34.25H101.393V36.5H99.1426V41H96.8926ZM103.643 32V29.75H108.143V32H103.643ZM126.107 36.5V32H128.357V36.5H126.107ZM123.857 43.25V36.5H126.107V38.75H132.857V32H128.357V29.75H135.107V43.25H132.857V41H126.107V43.25H123.857ZM139.607 41V38.75H148.607V41H139.607ZM137.357 38.75V32H139.607V34.25H146.357V36.5H139.607V38.75H137.357ZM146.357 34.25V32H148.607V34.25H146.357ZM139.607 32V29.75H146.357V32H139.607ZM150.857 41V38.75H153.107V41H150.857ZM153.107 38.75V34.25H155.357V38.75H153.107ZM159.857 41V32H157.607V34.25H155.357V29.75H162.107V41H159.857ZM171.107 41V38.75H173.357V41H171.107ZM164.357 41V36.5H166.607V38.75H168.857V41H164.357ZM168.857 38.75V36.5H166.607V34.25H168.857V32H171.107V38.75H168.857ZM164.357 32V29.75H168.857V32H164.357ZM175.607 43.25V41H177.857V43.25H175.607ZM175.607 38.75V34.25H177.857V38.75H175.607ZM177.857 34.25V32H180.107V34.25H177.857ZM180.107 32V29.75H182.357V32H180.107ZM182.357 29.75V27.5H184.607V29.75H182.357ZM175.607 27.5V25.25H182.357V27.5H175.607Z" fill="black"/>
</svg>
