<svg width="380" height="770" viewBox="0 0 380 770" fill="none" xmlns="http://www.w3.org/2000/svg">
<path d="M22.0817 729.952L-37.2551 729.952L-96.5919 729.952L-155.929 729.952L-215.259 729.952L-274.596 729.952L-333.933 729.952L-393.27 729.952L-452.606 729.952L-511.943 729.952L-571.28 729.952L-630.61 729.952L-668.84 729.952" stroke="#BBA5EF" stroke-width="4" stroke-miterlimit="10"/>
<path d="M328 611.291L200.092 611.291L140.755 611.291L81.4185 611.291L22.0817 611.291L-37.2551 611.291L-96.5919 611.291L-155.929 611.291L-215.259 611.291L-274.596 611.291L-333.933 611.291L-393.27 611.291L-452.606 611.291L-511.943 611.291L-571.28 611.291L-630.61 611.291L-668.84 611.291" stroke="#BBA5EF" stroke-width="4" stroke-miterlimit="10"/>
<path d="M379 670H355.188H328.992H302.794H276.595H250.397H224.198H198" stroke="#BBA5EF" stroke-width="4" stroke-miterlimit="10"/>
<path d="M378.096 611.291L318.759 611.291" stroke="#BBA5EF" stroke-width="4" stroke-miterlimit="10"/>
<path d="M-678 552.242L378 552.242" stroke="#BBA5EF" stroke-width="4" stroke-miterlimit="10"/>
<path d="M-678 492L377 492" stroke="#BBA5EF" stroke-width="4" stroke-miterlimit="10"/>
<path d="M-678 433L319.5 433" stroke="#BBA5EF" stroke-width="4" stroke-miterlimit="10"/>
<path d="M-678 374L377 374" stroke="#BBA5EF" stroke-width="4" stroke-miterlimit="10"/>
<path d="M-678 314L377 314" stroke="#BBA5EF" stroke-width="4" stroke-miterlimit="10"/>
<path d="M-678 255L377 255" stroke="#BBA5EF" stroke-width="4" stroke-miterlimit="10"/>
<path d="M-678 196L319 196" stroke="#BBA5EF" stroke-width="4" stroke-miterlimit="10"/>
<path d="M-678 136H319" stroke="#BBA5EF" stroke-width="4" stroke-miterlimit="10"/>
<path d="M-678 77L261 77" stroke="#BBA5EF" stroke-width="4" stroke-miterlimit="10"/>
<path d="M-678 18H202" stroke="#BBA5EF" stroke-width="4" stroke-miterlimit="10"/>
<path d="M22 18L22 610" stroke="#BBA5EF" stroke-width="4" stroke-miterlimit="10"/>
<path d="M80 18.5883L84 611" stroke="#BBA5EF" stroke-width="4" stroke-miterlimit="10"/>
<path d="M138 18L141 611" stroke="#BBA5EF" stroke-width="4" stroke-miterlimit="10"/>
<path d="M200 18V670" stroke="#BBA5EF" stroke-width="4" stroke-miterlimit="10"/>
<path d="M259 76L259 670" stroke="#BBA5EF" stroke-width="4" stroke-miterlimit="10"/>
<path d="M320 134L320 670" stroke="#BBA5EF" stroke-width="4" stroke-miterlimit="10"/>
<path d="M378 254L378 376" stroke="#BBA5EF" stroke-width="4" stroke-miterlimit="10"/>
<path d="M378 490L378 672" stroke="#BBA5EF" stroke-width="4" stroke-miterlimit="10"/>
</svg>
