<svg width="381" height="752" viewBox="0 0 381 752" fill="none" xmlns="http://www.w3.org/2000/svg">
<path d="M349 610.291L476.908 610.291L536.245 610.291L595.581 610.291L654.918 610.291L714.255 610.291L773.592 610.291L832.929 610.291L892.259 610.291L951.596 610.291L1010.93 610.291L1070.27 610.291L1129.61 610.291L1188.94 610.291L1248.28 610.291L1307.61 610.291L1345.84 610.291" stroke="#BBA5EF" stroke-width="4" stroke-miterlimit="10"/>
<path d="M62 729L109.4 729L156.8 729L204.2 729L251.6 729L299 729" stroke="#BBA5EF" stroke-width="4" stroke-miterlimit="10"/>
<path d="M2 669L64.7539 669L133.789 669L202.831 669L271.873 669L340.915 669L409.958 669L479 669" stroke="#BBA5EF" stroke-width="4" stroke-miterlimit="10"/>
<path d="M2.2261 610.291L61.5564 610.291L120.893 610.291L180.23 610.291L239.567 610.291L298.904 610.291L358.241 610.291" stroke="#BBA5EF" stroke-width="4" stroke-miterlimit="10"/>
<path d="M1355 551.242L1.00003 551.242" stroke="#BBA5EF" stroke-width="4" stroke-miterlimit="10"/>
<path d="M1355 491.242L121 491.242" stroke="#BBA5EF" stroke-width="4" stroke-miterlimit="10"/>
<path d="M1355 432.242L121 432.242" stroke="#BBA5EF" stroke-width="4" stroke-miterlimit="10"/>
<path d="M1355 373.242L121 373.242" stroke="#BBA5EF" stroke-width="4" stroke-miterlimit="10"/>
<path d="M1355 313.242L121 313.242" stroke="#BBA5EF" stroke-width="4" stroke-miterlimit="10"/>
<path d="M1355 254.242L121 254.242" stroke="#BBA5EF" stroke-width="4" stroke-miterlimit="10"/>
<path d="M1355 195.242L180.5 195.242" stroke="#BBA5EF" stroke-width="4" stroke-miterlimit="10"/>
<path d="M1355 135H180" stroke="#BBA5EF" stroke-width="4" stroke-miterlimit="10"/>
<path d="M1355 76.2422L241 76.2422" stroke="#BBA5EF" stroke-width="4" stroke-miterlimit="10"/>
<path d="M357 17L357 669" stroke="#BBA5EF" stroke-width="4" stroke-miterlimit="10"/>
<path d="M299 16L299 730" stroke="#BBA5EF" stroke-width="4" stroke-miterlimit="10"/>
<path d="M240 17L240 729" stroke="#BBA5EF" stroke-width="4" stroke-miterlimit="10"/>
<path d="M180 133L180 729" stroke="#BBA5EF" stroke-width="4" stroke-miterlimit="10"/>
<path d="M121 252L121 730" stroke="#BBA5EF" stroke-width="4" stroke-miterlimit="10"/>
<path d="M62 551L62 693.722L62 730" stroke="#BBA5EF" stroke-width="4" stroke-miterlimit="10"/>
<path d="M2 549V671" stroke="#BBA5EF" stroke-width="4" stroke-miterlimit="10"/>
<path d="M359 18L298.5 18L238 18" stroke="#BBA5EF" stroke-width="4" stroke-miterlimit="10"/>
</svg>
