<svg width="88" height="88" viewBox="0 0 88 88" fill="none" xmlns="http://www.w3.org/2000/svg">
<path d="M84.7403 48.889H87.9996V45.6299H84.7403V48.889Z" fill="black"/>
<path d="M84.7403 45.6299H87.9996V42.3706H84.7403V45.6299Z" fill="black"/>
<path d="M84.7403 42.3704H87.9996V39.1113H84.7403V42.3704Z" fill="black"/>
<path d="M84.7403 39.1118H87.9996V35.8525H84.7403V39.1118Z" fill="black"/>
<path d="M84.7403 35.8518H87.9996V32.5928H84.7403V35.8518Z" fill="black"/>
<path d="M84.7403 32.593H87.9996V29.334H84.7403V32.593Z" fill="black"/>
<path d="M84.7403 29.334H87.9996V26.0747H84.7403V29.334Z" fill="black"/>
<path d="M84.7403 26.0745H87.9996V22.8154H84.7403V26.0745Z" fill="black"/>
<path d="M84.7403 22.8154H87.9996V19.5562H84.7403V22.8154Z" fill="black"/>
<path d="M84.7403 19.5564H87.9996V16.2974H84.7403V19.5564Z" fill="black"/>
<path d="M84.7403 16.2974H87.9996V13.0381H84.7403V16.2974Z" fill="black"/>
<path d="M84.7403 13.0376H87.9996V9.77832H84.7403V13.0376Z" fill="black"/>
<path d="M84.7403 9.77924H87.9996V6.51953H84.7403V9.77924Z" fill="black"/>
<path d="M84.7403 6.51885H87.9996V3.25977H84.7403V6.51885Z" fill="black"/>
<path d="M84.7403 3.25929H87.9996V0H84.7403V3.25929Z" fill="black"/>
<path d="M81.4812 48.889H84.7402V45.6299H81.4812V48.889Z" fill="black"/>
<path d="M81.4812 45.6299H84.7402V42.3706H81.4812V45.6299Z" fill="#26A9F3"/>
<path d="M81.4812 42.3704H84.7402V39.1113H81.4812V42.3704Z" fill="#26A9F3"/>
<path d="M81.4812 39.1118H84.7402V35.8525H81.4812V39.1118Z" fill="#26A9F3"/>
<path d="M81.4812 35.8518H84.7402V32.5928H81.4812V35.8518Z" fill="#26A9F3"/>
<path d="M81.4812 32.593H84.7402V29.334H81.4812V32.593Z" fill="#26A9F3"/>
<path d="M81.4812 29.334H84.7402V26.0747H81.4812V29.334Z" fill="#26A9F3"/>
<path d="M81.4812 26.0745H84.7402V22.8154H81.4812V26.0745Z" fill="#26A9F3"/>
<path d="M81.4812 22.8154H84.7402V19.5562H81.4812V22.8154Z" fill="#26A9F3"/>
<path d="M81.4812 19.5564H84.7402V16.2974H81.4812V19.5564Z" fill="#26A9F3"/>
<path d="M81.4812 16.2974H84.7402V13.0381H81.4812V16.2974Z" fill="#26A9F3"/>
<path d="M81.4812 13.0376H84.7402V9.77832H81.4812V13.0376Z" fill="#26A9F3"/>
<path d="M81.4812 9.77924H84.7402V6.51953H81.4812V9.77924Z" fill="#26A9F3"/>
<path d="M81.4812 6.51885H84.7402V3.25977H81.4812V6.51885Z" fill="#26A9F3"/>
<path d="M81.4812 3.25929H84.7402V0H81.4812V3.25929Z" fill="#26A9F3"/>
<path d="M78.2209 48.889H81.4806V45.6299H78.2209V48.889Z" fill="black"/>
<path d="M78.2209 45.6299H81.4806V42.3706H78.2209V45.6299Z" fill="#26A9F3"/>
<path d="M78.2209 42.3704H81.4806V39.1113H78.2209V42.3704Z" fill="white"/>
<path d="M78.2209 39.1118H81.4806V35.8525H78.2209V39.1118Z" fill="#26A9F3"/>
<path d="M78.2209 35.8518H81.4806V32.5928H78.2209V35.8518Z" fill="#26A9F3"/>
<path d="M78.2209 32.593H81.4806V29.334H78.2209V32.593Z" fill="#26A9F3"/>
<path d="M78.2209 29.334H81.4806V26.0747H78.2209V29.334Z" fill="#26A9F3"/>
<path d="M78.2209 26.0745H81.4806V22.8154H78.2209V26.0745Z" fill="#26A9F3"/>
<path d="M78.2209 22.8154H81.4806V19.5562H78.2209V22.8154Z" fill="#26A9F3"/>
<path d="M78.2209 19.5564H81.4806V16.2974H78.2209V19.5564Z" fill="#26A9F3"/>
<path d="M78.2209 16.2974H81.4806V13.0381H78.2209V16.2974Z" fill="#26A9F3"/>
<path d="M78.2209 13.0376H81.4806V9.77832H78.2209V13.0376Z" fill="#26A9F3"/>
<path d="M78.2209 9.77924H81.4806V6.51953H78.2209V9.77924Z" fill="#26A9F3"/>
<path d="M78.2209 6.51885H81.4806V3.25977H78.2209V6.51885Z" fill="#26A9F3"/>
<path d="M78.2209 3.25929H81.4806V0H78.2209V3.25929Z" fill="#26A9F3"/>
<path d="M74.9618 48.889H78.2209V45.6299H74.9618V48.889Z" fill="black"/>
<path d="M74.9618 45.6299H78.2209V42.3706H74.9618V45.6299Z" fill="#26A9F3"/>
<path d="M74.9618 42.3704H78.2209V39.1113H74.9618V42.3704Z" fill="white"/>
<path d="M74.9618 39.1118H78.2209V35.8525H74.9618V39.1118Z" fill="white"/>
<path d="M74.9618 35.8518H78.2209V32.5928H74.9618V35.8518Z" fill="#26A9F3"/>
<path d="M74.9618 32.593H78.2209V29.334H74.9618V32.593Z" fill="#26A9F3"/>
<path d="M74.9618 29.334H78.2209V26.0747H74.9618V29.334Z" fill="#26A9F3"/>
<path d="M74.9618 26.0745H78.2209V22.8154H74.9618V26.0745Z" fill="#26A9F3"/>
<path d="M74.9618 22.8154H78.2209V19.5562H74.9618V22.8154Z" fill="#26A9F3"/>
<path d="M74.9618 19.5564H78.2209V16.2974H74.9618V19.5564Z" fill="#26A9F3"/>
<path d="M74.9618 16.2974H78.2209V13.0381H74.9618V16.2974Z" fill="#26A9F3"/>
<path d="M74.9618 13.0376H78.2209V9.77832H74.9618V13.0376Z" fill="#26A9F3"/>
<path d="M74.9618 9.77924H78.2209V6.51953H74.9618V9.77924Z" fill="#26A9F3"/>
<path d="M74.9618 6.51885H78.2209V3.25977H74.9618V6.51885Z" fill="white"/>
<path d="M74.9618 3.25929H78.2209V0H74.9618V3.25929Z" fill="#26A9F3"/>
<path d="M71.7037 48.889H74.963V45.6299H71.7037V48.889Z" fill="black"/>
<path d="M71.7037 45.6299H74.963V42.3706H71.7037V45.6299Z" fill="#26A9F3"/>
<path d="M71.7037 42.3704H74.963V39.1113H71.7037V42.3704Z" fill="#26A9F3"/>
<path d="M71.7037 39.1118H74.963V35.8525H71.7037V39.1118Z" fill="#26A9F3"/>
<path d="M71.7037 35.8518H74.963V32.5928H71.7037V35.8518Z" fill="#26A9F3"/>
<path d="M71.7037 32.593H74.963V29.334H71.7037V32.593Z" fill="#26A9F3"/>
<path d="M71.7037 29.334H74.963V26.0747H71.7037V29.334Z" fill="#26A9F3"/>
<path d="M71.7037 26.0745H74.963V22.8154H71.7037V26.0745Z" fill="#26A9F3"/>
<path d="M71.7037 22.8154H74.963V19.5562H71.7037V22.8154Z" fill="#26A9F3"/>
<path d="M71.7037 19.5564H74.963V16.2974H71.7037V19.5564Z" fill="#26A9F3"/>
<path d="M71.7037 16.2974H74.963V13.0381H71.7037V16.2974Z" fill="#26A9F3"/>
<path d="M71.7037 13.0376H74.963V9.77832H71.7037V13.0376Z" fill="#26A9F3"/>
<path d="M71.7037 9.77924H74.963V6.51953H71.7037V9.77924Z" fill="#26A9F3"/>
<path d="M71.7037 6.51885H74.963V3.25977H71.7037V6.51885Z" fill="white"/>
<path d="M71.7037 3.25929H74.963V0H71.7037V3.25929Z" fill="#26A9F3"/>
<path d="M68.4444 29.334H71.7035V26.0747H68.4444V29.334Z" fill="black"/>
<path d="M68.4444 26.0745H71.7035V22.8154H68.4444V26.0745Z" fill="black"/>
<path d="M68.4444 22.8154H71.7035V19.5562H68.4444V22.8154Z" fill="#26A9F3"/>
<path d="M68.4444 19.5564H71.7035V16.2974H68.4444V19.5564Z" fill="#26A9F3"/>
<path d="M68.4444 16.2974H71.7035V13.0381H68.4444V16.2974Z" fill="#26A9F3"/>
<path d="M68.4444 13.0376H71.7035V9.77832H68.4444V13.0376Z" fill="#26A9F3"/>
<path d="M68.4444 9.77924H71.7035V6.51953H68.4444V9.77924Z" fill="#26A9F3"/>
<path d="M68.4444 6.51885H71.7035V3.25977H68.4444V6.51885Z" fill="white"/>
<path d="M68.4444 3.25929H71.7035V0H68.4444V3.25929Z" fill="#26A9F3"/>
<path d="M65.1853 32.593H68.4444V29.334H65.1853V32.593Z" fill="black"/>
<path d="M65.1853 29.334H68.4444V26.0747H65.1853V29.334Z" fill="black"/>
<path d="M65.1853 26.0745H68.4444V22.8154H65.1853V26.0745Z" fill="#26A9F3"/>
<path d="M65.1853 22.8154H68.4444V19.5562H65.1853V22.8154Z" fill="#26A9F3"/>
<path d="M65.1853 19.5564H68.4444V16.2974H65.1853V19.5564Z" fill="#26A9F3"/>
<path d="M65.1853 16.2974H68.4444V13.0381H65.1853V16.2974Z" fill="#26A9F3"/>
<path d="M65.1853 13.0376H68.4444V9.77832H65.1853V13.0376Z" fill="#26A9F3"/>
<path d="M65.1853 9.77924H68.4444V6.51953H65.1853V9.77924Z" fill="#26A9F3"/>
<path d="M65.1853 6.51885H68.4444V3.25977H65.1853V6.51885Z" fill="white"/>
<path d="M65.1853 3.25929H68.4444V0H65.1853V3.25929Z" fill="#26A9F3"/>
<path d="M61.9252 71.7041H65.1845V68.4448H61.9252V71.7041Z" fill="black"/>
<path d="M61.9252 68.4446H65.1845V65.1855H61.9252V68.4446Z" fill="black"/>
<path d="M61.9252 65.1858H65.1845V61.9268H61.9252V65.1858Z" fill="black"/>
<path d="M61.9252 61.9263H65.1845V58.667H61.9252V61.9263Z" fill="black"/>
<path d="M61.9252 58.6673H65.1845V55.4082H61.9252V58.6673Z" fill="black"/>
<path d="M61.9252 55.4082H65.1845V52.1489H61.9252V55.4082Z" fill="black"/>
<path d="M61.9252 52.1489H65.1845V48.8892H61.9252V52.1489Z" fill="black"/>
<path d="M61.9252 48.889H65.1845V45.6299H61.9252V48.889Z" fill="black"/>
<path d="M61.9252 45.6299H65.1845V42.3706H61.9252V45.6299Z" fill="black"/>
<path d="M61.9252 35.8518H65.1845V32.5928H61.9252V35.8518Z" fill="black"/>
<path d="M61.9252 32.593H65.1845V29.334H61.9252V32.593Z" fill="black"/>
<path d="M61.9252 29.334H65.1845V26.0747H61.9252V29.334Z" fill="#26A9F3"/>
<path d="M61.9252 26.0745H65.1845V22.8154H61.9252V26.0745Z" fill="#26A9F3"/>
<path d="M61.9252 22.8154H65.1845V19.5562H61.9252V22.8154Z" fill="#26A9F3"/>
<path d="M61.9252 19.5564H65.1845V16.2974H61.9252V19.5564Z" fill="#26A9F3"/>
<path d="M61.9252 16.2974H65.1845V13.0381H61.9252V16.2974Z" fill="#26A9F3"/>
<path d="M61.9252 13.0376H65.1845V9.77832H61.9252V13.0376Z" fill="#26A9F3"/>
<path d="M61.9252 9.77924H65.1845V6.51953H61.9252V9.77924Z" fill="#26A9F3"/>
<path d="M61.9252 6.51885H65.1845V3.25977H61.9252V6.51885Z" fill="white"/>
<path d="M61.9252 3.25929H65.1845V0H61.9252V3.25929Z" fill="#26A9F3"/>
<path d="M58.666 74.9637H61.9252V71.7046H58.666V74.9637Z" fill="black"/>
<path d="M58.666 71.7041H61.9252V68.4448H58.666V71.7041Z" fill="black"/>
<path d="M58.666 68.4446H61.9252V65.1855H58.666V68.4446Z" fill="black"/>
<path d="M58.666 65.1858H61.9252V61.9268H58.666V65.1858Z" fill="black"/>
<path d="M58.666 61.9263H61.9252V58.667H58.666V61.9263Z" fill="black"/>
<path d="M58.666 58.6673H61.9252V55.4082H58.666V58.6673Z" fill="#26A9F3"/>
<path d="M58.666 55.4082H61.9252V52.1489H58.666V55.4082Z" fill="#26A9F3"/>
<path d="M58.666 52.1489H61.9252V48.8892H58.666V52.1489Z" fill="#26A9F3"/>
<path d="M58.666 48.889H61.9252V45.6299H58.666V48.889Z" fill="#26A9F3"/>
<path d="M58.666 45.6299H61.9252V42.3706H58.666V45.6299Z" fill="#26A9F3"/>
<path d="M58.666 42.3704H61.9252V39.1113H58.666V42.3704Z" fill="black"/>
<path d="M58.666 39.1118H61.9252V35.8525H58.666V39.1118Z" fill="black"/>
<path d="M58.666 35.8518H61.9252V32.5928H58.666V35.8518Z" fill="black"/>
<path d="M58.666 32.593H61.9252V29.334H58.666V32.593Z" fill="#26A9F3"/>
<path d="M58.666 29.334H61.9252V26.0747H58.666V29.334Z" fill="#26A9F3"/>
<path d="M58.666 26.0745H61.9252V22.8154H58.666V26.0745Z" fill="#26A9F3"/>
<path d="M58.666 22.8154H61.9252V19.5562H58.666V22.8154Z" fill="#26A9F3"/>
<path d="M58.666 19.5564H61.9252V16.2974H58.666V19.5564Z" fill="#26A9F3"/>
<path d="M58.666 16.2974H61.9252V13.0381H58.666V16.2974Z" fill="#26A9F3"/>
<path d="M58.666 13.0376H61.9252V9.77832H58.666V13.0376Z" fill="#26A9F3"/>
<path d="M58.666 9.77924H61.9252V6.51953H58.666V9.77924Z" fill="#26A9F3"/>
<path d="M58.666 6.51885H61.9252V3.25977H58.666V6.51885Z" fill="white"/>
<path d="M58.666 3.25929H61.9252V0H58.666V3.25929Z" fill="#26A9F3"/>
<path d="M55.4068 78.2227H58.6659V74.9634H55.4068V78.2227Z" fill="black"/>
<path d="M55.4068 74.9637H58.6659V71.7046H55.4068V74.9637Z" fill="black"/>
<path d="M55.4068 71.7041H58.6659V68.4448H55.4068V71.7041Z" fill="black"/>
<path d="M55.4068 68.4446H58.6659V65.1855H55.4068V68.4446Z" fill="#26A9F3"/>
<path d="M55.4068 65.1858H58.6659V61.9268H55.4068V65.1858Z" fill="white"/>
<path d="M55.4068 61.9263H58.6659V58.667H55.4068V61.9263Z" fill="#26A9F3"/>
<path d="M55.4068 58.6673H58.6659V55.4082H55.4068V58.6673Z" fill="#26A9F3"/>
<path d="M55.4068 55.4082H58.6659V52.1489H55.4068V55.4082Z" fill="#26A9F3"/>
<path d="M55.4068 52.1489H58.6659V48.8892H55.4068V52.1489Z" fill="#26A9F3"/>
<path d="M55.4068 48.889H58.6659V45.6299H55.4068V48.889Z" fill="#26A9F3"/>
<path d="M55.4068 45.6299H58.6659V42.3706H55.4068V45.6299Z" fill="#26A9F3"/>
<path d="M55.4068 42.3704H58.6659V39.1113H55.4068V42.3704Z" fill="#26A9F3"/>
<path d="M55.4068 39.1118H58.6659V35.8525H55.4068V39.1118Z" fill="#26A9F3"/>
<path d="M55.4068 35.8518H58.6659V32.5928H55.4068V35.8518Z" fill="#26A9F3"/>
<path d="M55.4068 32.593H58.6659V29.334H55.4068V32.593Z" fill="#26A9F3"/>
<path d="M55.4068 29.334H58.6659V26.0747H55.4068V29.334Z" fill="#26A9F3"/>
<path d="M55.4068 26.0745H58.6659V22.8154H55.4068V26.0745Z" fill="#26A9F3"/>
<path d="M55.4068 22.8154H58.6659V19.5562H55.4068V22.8154Z" fill="#26A9F3"/>
<path d="M55.4068 16.2974H58.6659V13.0381H55.4068V16.2974Z" fill="#26A9F3"/>
<path d="M55.4068 13.0376H58.6659V9.77832H55.4068V13.0376Z" fill="#26A9F3"/>
<path d="M55.4068 9.77924H58.6659V6.51953H55.4068V9.77924Z" fill="#26A9F3"/>
<path d="M55.4068 6.51885H58.6659V3.25977H55.4068V6.51885Z" fill="white"/>
<path d="M55.4068 3.25929H58.6659V0H55.4068V3.25929Z" fill="#26A9F3"/>
<path d="M52.1477 81.4812H55.4068V78.2222H52.1477V81.4812Z" fill="black"/>
<path d="M52.1477 78.2227H55.4068V74.9634H52.1477V78.2227Z" fill="black"/>
<path d="M52.1477 74.9637H55.4068V71.7046H52.1477V74.9637Z" fill="black"/>
<path d="M52.1477 71.7041H55.4068V68.4448H52.1477V71.7041Z" fill="#26A9F3"/>
<path d="M52.1477 68.4446H55.4068V65.1855H52.1477V68.4446Z" fill="white"/>
<path d="M52.1477 65.1858H55.4068V61.9268H52.1477V65.1858Z" fill="#26A9F3"/>
<path d="M52.1477 61.9263H55.4068V58.667H52.1477V61.9263Z" fill="#26A9F3"/>
<path d="M52.1477 58.6673H55.4068V55.4082H52.1477V58.6673Z" fill="#26A9F3"/>
<path d="M52.1477 55.4082H55.4068V52.1489H52.1477V55.4082Z" fill="#26A9F3"/>
<path d="M52.1477 52.1489H55.4068V48.8892H52.1477V52.1489Z" fill="#26A9F3"/>
<path d="M52.1477 48.889H55.4068V45.6299H52.1477V48.889Z" fill="#26A9F3"/>
<path d="M52.1477 45.6299H55.4068V42.3706H52.1477V45.6299Z" fill="#26A9F3"/>
<path d="M52.1477 42.3704H55.4068V39.1113H52.1477V42.3704Z" fill="#26A9F3"/>
<path d="M52.1477 39.1118H55.4068V35.8525H52.1477V39.1118Z" fill="#26A9F3"/>
<path d="M52.1477 35.8518H55.4068V32.5928H52.1477V35.8518Z" fill="#26A9F3"/>
<path d="M52.1477 32.593H55.4068V29.334H52.1477V32.593Z" fill="#26A9F3"/>
<path d="M52.1477 29.334H55.4068V26.0747H52.1477V29.334Z" fill="#26A9F3"/>
<path d="M52.1477 26.0745H55.4068V22.8154H52.1477V26.0745Z" fill="#26A9F3"/>
<path d="M52.1477 16.2974H55.4068V13.0381H52.1477V16.2974Z" fill="#26A9F3"/>
<path d="M52.1477 13.0376H55.4068V9.77832H52.1477V13.0376Z" fill="#26A9F3"/>
<path d="M52.1477 9.77924H55.4068V6.51953H52.1477V9.77924Z" fill="#26A9F3"/>
<path d="M52.1477 6.51885H55.4068V3.25977H52.1477V6.51885Z" fill="white"/>
<path d="M52.1477 3.25929H55.4068V0H52.1477V3.25929Z" fill="#26A9F3"/>
<path d="M48.8885 84.7405H52.1477V81.4814H48.8885V84.7405Z" fill="black"/>
<path d="M48.8885 81.4812H52.1477V78.2222H48.8885V81.4812Z" fill="black"/>
<path d="M48.8885 78.2227H52.1477V74.9634H48.8885V78.2227Z" fill="black"/>
<path d="M48.8885 74.9637H52.1477V71.7046H48.8885V74.9637Z" fill="#26A9F3"/>
<path d="M48.8885 71.7041H52.1477V68.4448H48.8885V71.7041Z" fill="white"/>
<path d="M48.8885 68.4446H52.1477V65.1855H48.8885V68.4446Z" fill="#26A9F3"/>
<path d="M48.8885 65.1858H52.1477V61.9268H48.8885V65.1858Z" fill="#26A9F3"/>
<path d="M48.8885 61.9263H52.1477V58.667H48.8885V61.9263Z" fill="#26A9F3"/>
<path d="M48.8885 52.1489H52.1477V48.8892H48.8885V52.1489Z" fill="#26A9F3"/>
<path d="M48.8885 48.889H52.1477V45.6299H48.8885V48.889Z" fill="#26A9F3"/>
<path d="M48.8885 45.6299H52.1477V42.3706H48.8885V45.6299Z" fill="#26A9F3"/>
<path d="M48.8885 42.3704H52.1477V39.1113H48.8885V42.3704Z" fill="#26A9F3"/>
<path d="M48.8885 39.1118H52.1477V35.8525H48.8885V39.1118Z" fill="#26A9F3"/>
<path d="M48.8885 35.8518H52.1477V32.5928H48.8885V35.8518Z" fill="#26A9F3"/>
<path d="M48.8885 32.593H52.1477V29.334H48.8885V32.593Z" fill="#26A9F3"/>
<path d="M48.8885 29.334H52.1477V26.0747H48.8885V29.334Z" fill="black"/>
<path d="M48.8885 16.2974H52.1477V13.0381H48.8885V16.2974Z" fill="#26A9F3"/>
<path d="M48.8885 13.0376H52.1477V9.77832H48.8885V13.0376Z" fill="#26A9F3"/>
<path d="M48.8885 9.77924H52.1477V6.51953H48.8885V9.77924Z" fill="#26A9F3"/>
<path d="M48.8885 6.51885H52.1477V3.25977H48.8885V6.51885Z" fill="white"/>
<path d="M48.8885 3.25929H52.1477V0H48.8885V3.25929Z" fill="#26A9F3"/>
<path d="M45.6283 88H48.8874V84.7407H45.6283V88Z" fill="black"/>
<path d="M45.6283 84.7405H48.8874V81.4814H45.6283V84.7405Z" fill="black"/>
<path d="M45.6283 81.4812H48.8874V78.2222H45.6283V81.4812Z" fill="black"/>
<path d="M45.6283 78.2227H48.8874V74.9634H45.6283V78.2227Z" fill="black"/>
<path d="M45.6283 74.9637H48.8874V71.7046H45.6283V74.9637Z" fill="white"/>
<path d="M45.6283 71.7041H48.8874V68.4448H45.6283V71.7041Z" fill="#26A9F3"/>
<path d="M45.6283 68.4446H48.8874V65.1855H45.6283V68.4446Z" fill="#26A9F3"/>
<path d="M45.6283 45.6299H48.8874V42.3706H45.6283V45.6299Z" fill="#26A9F3"/>
<path d="M45.6283 42.3704H48.8874V39.1113H45.6283V42.3704Z" fill="#26A9F3"/>
<path d="M45.6283 39.1118H48.8874V35.8525H45.6283V39.1118Z" fill="#26A9F3"/>
<path d="M45.6283 35.8518H48.8874V32.5928H45.6283V35.8518Z" fill="#26A9F3"/>
<path d="M45.6283 32.593H48.8874V29.334H45.6283V32.593Z" fill="#26A9F3"/>
<path d="M45.6283 29.334H48.8874V26.0747H45.6283V29.334Z" fill="black"/>
<path d="M45.6283 16.2974H48.8874V13.0381H45.6283V16.2974Z" fill="#26A9F3"/>
<path d="M45.6283 13.0376H48.8874V9.77832H45.6283V13.0376Z" fill="#26A9F3"/>
<path d="M45.6283 9.77924H48.8874V6.51953H45.6283V9.77924Z" fill="#26A9F3"/>
<path d="M45.6283 6.51885H48.8874V3.25977H45.6283V6.51885Z" fill="#26A9F3"/>
<path d="M45.6283 3.25929H48.8874V0H45.6283V3.25929Z" fill="#26A9F3"/>
<path d="M42.3712 88H45.6303V84.7407H42.3712V88Z" fill="black"/>
<path d="M42.3712 84.7405H45.6303V81.4814H42.3712V84.7405Z" fill="black"/>
<path d="M42.3712 81.4812H45.6303V78.2222H42.3712V81.4812Z" fill="black"/>
<path d="M42.3712 78.2227H45.6303V74.9634H42.3712V78.2227Z" fill="white"/>
<path d="M42.3712 74.9637H45.6303V71.7046H42.3712V74.9637Z" fill="#26A9F3"/>
<path d="M42.3712 71.7041H45.6303V68.4448H42.3712V71.7041Z" fill="#26A9F3"/>
<path d="M42.3712 42.3704H45.6303V39.1113H42.3712V42.3704Z" fill="#26A9F3"/>
<path d="M42.3712 39.1118H45.6303V35.8525H42.3712V39.1118Z" fill="#26A9F3"/>
<path d="M42.3712 35.8518H45.6303V32.5928H42.3712V35.8518Z" fill="#26A9F3"/>
<path d="M42.3712 32.593H45.6303V29.334H42.3712V32.593Z" fill="#26A9F3"/>
<path d="M42.3712 29.334H45.6303V26.0747H42.3712V29.334Z" fill="black"/>
<path d="M42.3712 26.0745H45.6303V22.8154H42.3712V26.0745Z" fill="black"/>
<path d="M42.3712 16.2974H45.6303V13.0381H42.3712V16.2974Z" fill="#26A9F3"/>
<path d="M42.3712 13.0376H45.6303V9.77832H42.3712V13.0376Z" fill="#26A9F3"/>
<path d="M42.3712 9.77924H45.6303V6.51953H42.3712V9.77924Z" fill="#26A9F3"/>
<path d="M42.3712 6.51885H45.6303V3.25977H42.3712V6.51885Z" fill="#26A9F3"/>
<path d="M42.3712 3.25929H45.6303V0H42.3712V3.25929Z" fill="#26A9F3"/>
<path d="M39.111 88H42.3702V84.7407H39.111V88Z" fill="black"/>
<path d="M39.111 84.7405H42.3702V81.4814H39.111V84.7405Z" fill="black"/>
<path d="M39.111 81.4812H42.3702V78.2222H39.111V81.4812Z" fill="black"/>
<path d="M39.111 78.2227H42.3702V74.9634H39.111V78.2227Z" fill="#26A9F3"/>
<path d="M39.111 74.9637H42.3702V71.7046H39.111V74.9637Z" fill="#26A9F3"/>
<path d="M39.111 39.1118H42.3702V35.8525H39.111V39.1118Z" fill="black"/>
<path d="M39.111 35.8518H42.3702V32.5928H39.111V35.8518Z" fill="#26A9F3"/>
<path d="M39.111 32.593H42.3702V29.334H39.111V32.593Z" fill="#26A9F3"/>
<path d="M39.111 29.334H42.3702V26.0747H39.111V29.334Z" fill="black"/>
<path d="M39.111 26.0745H42.3702V22.8154H39.111V26.0745Z" fill="black"/>
<path d="M39.111 13.0376H42.3702V9.77832H39.111V13.0376Z" fill="#26A9F3"/>
<path d="M39.111 9.77924H42.3702V6.51953H39.111V9.77924Z" fill="#26A9F3"/>
<path d="M39.111 6.51885H42.3702V3.25977H39.111V6.51885Z" fill="#26A9F3"/>
<path d="M35.8509 88H39.1106V84.7407H35.8509V88Z" fill="black"/>
<path d="M35.8509 84.7405H39.1106V81.4814H35.8509V84.7405Z" fill="black"/>
<path d="M35.8509 81.4812H39.1106V78.2222H35.8509V81.4812Z" fill="black"/>
<path d="M35.8509 78.2227H39.1106V74.9634H35.8509V78.2227Z" fill="#26A9F3"/>
<path d="M35.8509 74.9637H39.1106V71.7046H35.8509V74.9637Z" fill="#26A9F3"/>
<path d="M35.8509 39.1118H39.1106V35.8525H35.8509V39.1118Z" fill="black"/>
<path d="M35.8509 35.8518H39.1106V32.5928H35.8509V35.8518Z" fill="#26A9F3"/>
<path d="M35.8509 32.593H39.1106V29.334H35.8509V32.593Z" fill="#26A9F3"/>
<path d="M35.8509 29.334H39.1106V26.0747H35.8509V29.334Z" fill="#26A9F3"/>
<path d="M35.8509 26.0745H39.1106V22.8154H35.8509V26.0745Z" fill="black"/>
<path d="M32.5916 88H35.8509V84.7407H32.5916V88Z" fill="black"/>
<path d="M32.5916 84.7405H35.8509V81.4814H32.5916V84.7405Z" fill="black"/>
<path d="M32.5916 81.4812H35.8509V78.2222H32.5916V81.4812Z" fill="black"/>
<path d="M32.5916 78.2227H35.8509V74.9634H32.5916V78.2227Z" fill="#26A9F3"/>
<path d="M32.5916 74.9637H35.8509V71.7046H32.5916V74.9637Z" fill="#26A9F3"/>
<path d="M32.5916 39.1118H35.8509V35.8525H32.5916V39.1118Z" fill="black"/>
<path d="M32.5916 35.8518H35.8509V32.5928H32.5916V35.8518Z" fill="#26A9F3"/>
<path d="M32.5916 32.593H35.8509V29.334H32.5916V32.593Z" fill="#26A9F3"/>
<path d="M32.5916 29.334H35.8509V26.0747H32.5916V29.334Z" fill="#26A9F3"/>
<path d="M32.5916 26.0745H35.8509V22.8154H32.5916V26.0745Z" fill="black"/>
<path d="M29.3325 88H32.5916V84.7407H29.3325V88Z" fill="black"/>
<path d="M29.3325 84.7405H32.5916V81.4814H29.3325V84.7405Z" fill="black"/>
<path d="M29.3325 81.4812H32.5916V78.2222H29.3325V81.4812Z" fill="black"/>
<path d="M29.3325 78.2227H32.5916V74.9634H29.3325V78.2227Z" fill="#26A9F3"/>
<path d="M29.3325 74.9637H32.5916V71.7046H29.3325V74.9637Z" fill="#26A9F3"/>
<path d="M29.3325 39.1118H32.5916V35.8525H29.3325V39.1118Z" fill="black"/>
<path d="M29.3325 35.8518H32.5916V32.5928H29.3325V35.8518Z" fill="#26A9F3"/>
<path d="M29.3325 32.593H32.5916V29.334H29.3325V32.593Z" fill="#26A9F3"/>
<path d="M29.3325 29.334H32.5916V26.0747H29.3325V29.334Z" fill="white"/>
<path d="M29.3325 26.0745H32.5916V22.8154H29.3325V26.0745Z" fill="#26A9F3"/>
<path d="M26.0734 88H29.3326V84.7407H26.0734V88Z" fill="black"/>
<path d="M26.0734 84.7405H29.3326V81.4814H26.0734V84.7405Z" fill="black"/>
<path d="M26.0734 81.4812H29.3326V78.2222H26.0734V81.4812Z" fill="black"/>
<path d="M26.0734 78.2227H29.3326V74.9634H26.0734V78.2227Z" fill="#26A9F3"/>
<path d="M26.0734 74.9637H29.3326V71.7046H26.0734V74.9637Z" fill="#26A9F3"/>
<path d="M26.0734 39.1118H29.3326V35.8525H26.0734V39.1118Z" fill="black"/>
<path d="M26.0734 35.8518H29.3326V32.5928H26.0734V35.8518Z" fill="#26A9F3"/>
<path d="M26.0734 32.593H29.3326V29.334H26.0734V32.593Z" fill="#26A9F3"/>
<path d="M26.0734 29.334H29.3326V26.0747H26.0734V29.334Z" fill="white"/>
<path d="M26.0734 26.0745H29.3326V22.8154H26.0734V26.0745Z" fill="#26A9F3"/>
<path d="M22.8141 88H26.0732V84.7407H22.8141V88Z" fill="black"/>
<path d="M22.8141 84.7405H26.0732V81.4814H22.8141V84.7405Z" fill="black"/>
<path d="M22.8141 81.4812H26.0732V78.2222H22.8141V81.4812Z" fill="black"/>
<path d="M22.8141 78.2227H26.0732V74.9634H22.8141V78.2227Z" fill="#26A9F3"/>
<path d="M22.8141 74.9637H26.0732V71.7046H22.8141V74.9637Z" fill="#26A9F3"/>
<path d="M22.8141 71.7041H26.0732V68.4448H22.8141V71.7041Z" fill="#26A9F3"/>
<path d="M22.8141 42.3704H26.0732V39.1113H22.8141V42.3704Z" fill="black"/>
<path d="M22.8141 39.1118H26.0732V35.8525H22.8141V39.1118Z" fill="black"/>
<path d="M22.8141 35.8518H26.0732V32.5928H22.8141V35.8518Z" fill="#26A9F3"/>
<path d="M22.8141 32.593H26.0732V29.334H22.8141V32.593Z" fill="white"/>
<path d="M22.8141 29.334H26.0732V26.0747H22.8141V29.334Z" fill="#26A9F3"/>
<path d="M22.8141 26.0745H26.0732V22.8154H22.8141V26.0745Z" fill="#26A9F3"/>
<path d="M19.555 88H22.8141V84.7407H19.555V88Z" fill="black"/>
<path d="M19.555 84.7405H22.8141V81.4814H19.555V84.7405Z" fill="black"/>
<path d="M19.555 81.4812H22.8141V78.2222H19.555V81.4812Z" fill="black"/>
<path d="M19.555 78.2227H22.8141V74.9634H19.555V78.2227Z" fill="#26A9F3"/>
<path d="M19.555 74.9637H22.8141V71.7046H19.555V74.9637Z" fill="#26A9F3"/>
<path d="M19.555 71.7041H22.8141V68.4448H19.555V71.7041Z" fill="#26A9F3"/>
<path d="M19.555 68.4446H22.8141V65.1855H19.555V68.4446Z" fill="#26A9F3"/>
<path d="M19.555 45.6299H22.8141V42.3706H19.555V45.6299Z" fill="black"/>
<path d="M19.555 42.3704H22.8141V39.1113H19.555V42.3704Z" fill="black"/>
<path d="M19.555 39.1118H22.8141V35.8525H19.555V39.1118Z" fill="#26A9F3"/>
<path d="M19.555 35.8518H22.8141V32.5928H19.555V35.8518Z" fill="#26A9F3"/>
<path d="M19.555 32.593H22.8141V29.334H19.555V32.593Z" fill="white"/>
<path d="M19.555 29.334H22.8141V26.0747H19.555V29.334Z" fill="#26A9F3"/>
<path d="M16.2959 84.7405H19.5552V81.4814H16.2959V84.7405Z" fill="black"/>
<path d="M16.2959 81.4812H19.5552V78.2222H16.2959V81.4812Z" fill="black"/>
<path d="M16.2959 78.2227H19.5552V74.9634H16.2959V78.2227Z" fill="#26A9F3"/>
<path d="M16.2959 74.9637H19.5552V71.7046H16.2959V74.9637Z" fill="#26A9F3"/>
<path d="M16.2959 71.7041H19.5552V68.4448H16.2959V71.7041Z" fill="#26A9F3"/>
<path d="M16.2959 68.4446H19.5552V65.1855H16.2959V68.4446Z" fill="#26A9F3"/>
<path d="M16.2959 65.1858H19.5552V61.9268H16.2959V65.1858Z" fill="black"/>
<path d="M16.2959 61.9263H19.5552V58.667H16.2959V61.9263Z" fill="black"/>
<path d="M16.2959 52.1489H19.5552V48.8892H16.2959V52.1489Z" fill="black"/>
<path d="M16.2959 48.889H19.5552V45.6299H16.2959V48.889Z" fill="black"/>
<path d="M16.2959 45.6299H19.5552V42.3706H16.2959V45.6299Z" fill="black"/>
<path d="M16.2959 42.3704H19.5552V39.1113H16.2959V42.3704Z" fill="#26A9F3"/>
<path d="M16.2959 39.1118H19.5552V35.8525H16.2959V39.1118Z" fill="#26A9F3"/>
<path d="M16.2959 35.8518H19.5552V32.5928H16.2959V35.8518Z" fill="white"/>
<path d="M16.2959 32.593H19.5552V29.334H16.2959V32.593Z" fill="#26A9F3"/>
<path d="M16.2959 29.334H19.5552V26.0747H16.2959V29.334Z" fill="#26A9F3"/>
<path d="M13.0366 81.4812H16.2957V78.2222H13.0366V81.4812Z" fill="black"/>
<path d="M13.0366 78.2227H16.2957V74.9634H13.0366V78.2227Z" fill="black"/>
<path d="M13.0366 74.9637H16.2957V71.7046H13.0366V74.9637Z" fill="#26A9F3"/>
<path d="M13.0366 71.7041H16.2957V68.4448H13.0366V71.7041Z" fill="#26A9F3"/>
<path d="M13.0366 68.4446H16.2957V65.1855H13.0366V68.4446Z" fill="#26A9F3"/>
<path d="M13.0366 65.1858H16.2957V61.9268H13.0366V65.1858Z" fill="#26A9F3"/>
<path d="M13.0366 61.9263H16.2957V58.667H13.0366V61.9263Z" fill="black"/>
<path d="M13.0366 58.6673H16.2957V55.4082H13.0366V58.6673Z" fill="black"/>
<path d="M13.0366 55.4082H16.2957V52.1489H13.0366V55.4082Z" fill="black"/>
<path d="M13.0366 52.1489H16.2957V48.8892H13.0366V52.1489Z" fill="black"/>
<path d="M13.0366 48.889H16.2957V45.6299H13.0366V48.889Z" fill="black"/>
<path d="M13.0366 45.6299H16.2957V42.3706H13.0366V45.6299Z" fill="#26A9F3"/>
<path d="M13.0366 42.3704H16.2957V39.1113H13.0366V42.3704Z" fill="#26A9F3"/>
<path d="M13.0366 39.1118H16.2957V35.8525H13.0366V39.1118Z" fill="white"/>
<path d="M13.0366 35.8518H16.2957V32.5928H13.0366V35.8518Z" fill="#26A9F3"/>
<path d="M13.0366 32.593H16.2957V29.334H13.0366V32.593Z" fill="#26A9F3"/>
<path d="M9.77749 78.2227H13.0368V74.9634H9.77749V78.2227Z" fill="black"/>
<path d="M9.77749 74.9637H13.0368V71.7046H9.77749V74.9637Z" fill="black"/>
<path d="M9.77749 71.7041H13.0368V68.4448H9.77749V71.7041Z" fill="#26A9F3"/>
<path d="M9.77749 68.4446H13.0368V65.1855H9.77749V68.4446Z" fill="#26A9F3"/>
<path d="M9.77749 65.1858H13.0368V61.9268H9.77749V65.1858Z" fill="#26A9F3"/>
<path d="M9.77749 61.9263H13.0368V58.667H9.77749V61.9263Z" fill="#26A9F3"/>
<path d="M9.77749 58.6673H13.0368V55.4082H9.77749V58.6673Z" fill="#26A9F3"/>
<path d="M9.77749 55.4082H13.0368V52.1489H9.77749V55.4082Z" fill="#26A9F3"/>
<path d="M9.77749 52.1489H13.0368V48.8892H9.77749V52.1489Z" fill="#26A9F3"/>
<path d="M9.77749 48.889H13.0368V45.6299H9.77749V48.889Z" fill="#26A9F3"/>
<path d="M9.77749 45.6299H13.0368V42.3706H9.77749V45.6299Z" fill="#26A9F3"/>
<path d="M9.77749 42.3704H13.0368V39.1113H9.77749V42.3704Z" fill="white"/>
<path d="M9.77749 39.1118H13.0368V35.8525H9.77749V39.1118Z" fill="#26A9F3"/>
<path d="M9.77749 35.8518H13.0368V32.5928H9.77749V35.8518Z" fill="#26A9F3"/>
<path d="M6.51837 74.9637H9.77744V71.7046H6.51837V74.9637Z" fill="black"/>
<path d="M6.51837 71.7041H9.77744V68.4448H6.51837V71.7041Z" fill="black"/>
<path d="M6.51837 68.4446H9.77744V65.1855H6.51837V68.4446Z" fill="#26A9F3"/>
<path d="M6.51837 65.1858H9.77744V61.9268H6.51837V65.1858Z" fill="#26A9F3"/>
<path d="M6.51837 61.9263H9.77744V58.667H6.51837V61.9263Z" fill="#26A9F3"/>
<path d="M6.51837 58.6673H9.77744V55.4082H6.51837V58.6673Z" fill="#26A9F3"/>
<path d="M6.51837 55.4082H9.77744V52.1489H6.51837V55.4082Z" fill="#26A9F3"/>
<path d="M6.51837 52.1489H9.77744V48.8892H6.51837V52.1489Z" fill="#26A9F3"/>
<path d="M6.51837 48.889H9.77744V45.6299H6.51837V48.889Z" fill="#26A9F3"/>
<path d="M6.51837 45.6299H9.77744V42.3706H6.51837V45.6299Z" fill="white"/>
<path d="M6.51837 42.3704H9.77744V39.1113H6.51837V42.3704Z" fill="#26A9F3"/>
<path d="M6.51837 39.1118H9.77744V35.8525H6.51837V39.1118Z" fill="#26A9F3"/>
<path d="M3.25912 71.7041H6.5184V68.4448H3.25912V71.7041Z" fill="black"/>
<path d="M3.25912 68.4446H6.5184V65.1855H3.25912V68.4446Z" fill="black"/>
<path d="M3.25912 65.1858H6.5184V61.9268H3.25912V65.1858Z" fill="#26A9F3"/>
<path d="M3.25912 61.9263H6.5184V58.667H3.25912V61.9263Z" fill="#26A9F3"/>
<path d="M3.25912 58.6673H6.5184V55.4082H3.25912V58.6673Z" fill="#26A9F3"/>
<path d="M3.25912 55.4082H6.5184V52.1489H3.25912V55.4082Z" fill="#26A9F3"/>
<path d="M3.25912 52.1489H6.5184V48.8892H3.25912V52.1489Z" fill="#26A9F3"/>
<path d="M3.25912 48.889H6.5184V45.6299H3.25912V48.889Z" fill="#26A9F3"/>
<path d="M3.25912 45.6299H6.5184V42.3706H3.25912V45.6299Z" fill="#26A9F3"/>
<path d="M3.25912 42.3704H6.5184V39.1113H3.25912V42.3704Z" fill="#26A9F3"/>
<path d="M0 61.9263H3.25929V58.667H0V61.9263Z" fill="#26A9F3"/>
<path d="M0 58.6673H3.25929V55.4082H0V58.6673Z" fill="#26A9F3"/>
<path d="M0 55.4082H3.25929V52.1489H0V55.4082Z" fill="#26A9F3"/>
<path d="M0 52.1489H3.25929V48.8892H0V52.1489Z" fill="#26A9F3"/>
</svg>
