<svg width="116" height="120" viewBox="0 0 116 120" fill="none" xmlns="http://www.w3.org/2000/svg">
<path d="M38.8631 80.1746L36.4151 82.3166L38.557 84.7645L41.005 82.6226L38.8631 80.1746Z" fill="black"/>
<path d="M41.0051 82.6224L38.5572 84.7643L40.6991 87.2123L43.1471 85.0703L41.0051 82.6224Z" fill="black"/>
<path d="M43.1473 85.0709L40.6994 87.2129L42.8415 89.661L45.2894 87.519L43.1473 85.0709Z" fill="black"/>
<path d="M45.2896 87.5188L42.8416 89.6608L44.9836 92.1087L47.4315 89.9668L45.2896 87.5188Z" fill="black"/>
<path d="M47.4313 89.9669L44.9834 92.1089L47.1255 94.557L49.5734 92.415L47.4313 89.9669Z" fill="black"/>
<path d="M49.5736 92.4148L47.1256 94.5568L49.2675 97.0047L51.7155 94.8628L49.5736 92.4148Z" fill="black"/>
<path d="M51.7154 94.8629L49.2674 97.0049L51.4095 99.453L53.8575 97.311L51.7154 94.8629Z" fill="black"/>
<path d="M53.8574 97.3112L51.4094 99.4531L53.5515 101.901L55.9995 99.7593L53.8574 97.3112Z" fill="black"/>
<path d="M55.9991 99.7586L53.5511 101.901L55.6935 104.349L58.1415 102.207L55.9991 99.7586Z" fill="black"/>
<path d="M58.1422 102.208L55.6943 104.35L57.8362 106.798L60.2842 104.656L58.1422 102.208Z" fill="black"/>
<path d="M17.7485 51.1036L15.3004 53.2457L17.4425 55.6938L19.8906 53.5518L17.7485 51.1036Z" fill="black"/>
<path d="M19.8907 53.552L17.4426 55.6941L19.5845 58.1421L22.0327 56L19.8907 53.552Z" fill="black"/>
<path d="M22.0327 55.9998L19.5845 58.1419L21.7265 60.5898L24.1746 58.4478L22.0327 55.9998Z" fill="black"/>
<path d="M39.169 75.5841L36.7209 77.7262L38.863 80.1743L41.3111 78.0322L39.169 75.5841Z" fill="black"/>
<path d="M41.3111 78.0325L38.863 80.1746L41.0049 82.6226L43.4531 80.4805L41.3111 78.0325Z" fill="black"/>
<path d="M43.4531 80.4808L41.005 82.6228L43.147 85.0708L45.5951 82.9287L43.4531 80.4808Z" fill="black"/>
<path d="M45.5953 82.9288L43.1472 85.0709L45.2893 87.519L47.7374 85.377L45.5953 82.9288Z" fill="black"/>
<path d="M47.7376 85.3767L45.2894 87.5188L47.4314 89.9668L49.8795 87.8247L47.7376 85.3767Z" fill="black"/>
<path d="M49.8794 87.8248L47.4313 89.9669L49.5734 92.415L52.0215 90.2729L49.8794 87.8248Z" fill="black"/>
<path d="M52.0216 90.2732L49.5734 92.4153L51.7154 94.8633L54.1635 92.7212L52.0216 90.2732Z" fill="black"/>
<path d="M54.1634 92.7208L51.7153 94.8629L53.8574 97.311L56.3055 95.1689L54.1634 92.7208Z" fill="black"/>
<path d="M56.3055 95.1691L53.8574 97.3112L55.9994 99.7593L58.4476 97.6172L56.3055 95.1691Z" fill="black"/>
<path d="M58.4472 97.6165L55.999 99.7586L58.1414 102.207L60.5895 100.065L58.4472 97.6165Z" fill="black"/>
<path d="M60.5902 100.066L58.1421 102.208L60.2841 104.656L62.7322 102.514L60.5902 100.066Z" fill="black"/>
<path d="M62.7324 102.514L60.2843 104.656L62.4264 107.104L64.8745 104.962L62.7324 102.514Z" fill="black"/>
<path d="M18.0547 46.5139L15.6067 48.6559L17.7487 51.1039L20.1967 48.9619L18.0547 46.5139Z" fill="black"/>
<path d="M20.1965 48.9615L17.7486 51.1035L19.8906 53.5516L22.3386 51.4097L20.1965 48.9615Z" fill="black"/>
<path d="M22.3388 51.4099L19.8908 53.5519L22.0327 55.9999L24.4807 53.8579L22.3388 51.4099Z" fill="black"/>
<path d="M24.4807 53.8577L22.0327 55.9996L24.1746 58.4476L26.6226 56.3057L24.4807 53.8577Z" fill="black"/>
<path d="M26.6226 56.3058L24.1746 58.4477L26.3167 60.8959L28.7647 58.7539L26.6226 56.3058Z" fill="#FE75F0"/>
<path d="M39.4752 70.9944L37.0272 73.1364L39.1692 75.5843L41.6171 73.4424L39.4752 70.9944Z" fill="black"/>
<path d="M41.617 73.442L39.169 75.584L41.3111 78.0321L43.7591 75.8901L41.617 73.442Z" fill="black"/>
<path d="M43.7592 75.8904L41.3113 78.0324L43.4532 80.4803L45.9012 78.3384L43.7592 75.8904Z" fill="black"/>
<path d="M45.9012 78.3387L43.4532 80.4806L45.5952 82.9286L48.0432 80.7866L45.9012 78.3387Z" fill="white"/>
<path d="M48.0433 80.7867L45.5954 82.9287L47.7375 85.3768L50.1854 83.2349L48.0433 80.7867Z" fill="#FE75F0"/>
<path d="M50.1856 83.2351L47.7376 85.3771L49.8795 87.8251L52.3275 85.6831L50.1856 83.2351Z" fill="#FE75F0"/>
<path d="M52.3274 85.6827L49.8794 87.8247L52.0215 90.2728L54.4695 88.1309L52.3274 85.6827Z" fill="#FE75F0"/>
<path d="M54.4696 88.1311L52.0216 90.2731L54.1636 92.7211L56.6116 90.5791L54.4696 88.1311Z" fill="#FE75F0"/>
<path d="M56.6114 90.5787L54.1634 92.7207L56.3055 95.1688L58.7535 93.0269L56.6114 90.5787Z" fill="#FE75F0"/>
<path d="M58.7535 93.027L56.3055 95.1689L58.4476 97.6171L60.8956 95.4751L58.7535 93.027Z" fill="#FE75F0"/>
<path d="M60.8952 95.4744L58.4472 97.6164L60.5896 100.065L63.0375 97.9229L60.8952 95.4744Z" fill="#FE75F0"/>
<path d="M63.0382 97.9241L60.5902 100.066L62.7322 102.514L65.1802 100.372L63.0382 97.9241Z" fill="black"/>
<path d="M65.1804 100.372L62.7324 102.514L64.8745 104.962L67.3225 102.82L65.1804 100.372Z" fill="black"/>
<path d="M67.3217 102.819L64.8737 104.961L67.0156 107.409L69.4636 105.267L67.3217 102.819Z" fill="black"/>
<path d="M20.5027 44.3719L18.0546 46.5139L20.1965 48.9619L22.6447 46.8198L20.5027 44.3719Z" fill="black"/>
<path d="M22.6447 46.8195L20.1965 48.9615L22.3386 51.4097L24.7867 49.2676L22.6447 46.8195Z" fill="black"/>
<path d="M24.7868 49.2678L22.3386 51.4099L24.4806 53.8579L26.9287 51.7158L24.7868 49.2678Z" fill="#FE75F0"/>
<path d="M26.9288 51.7156L24.4807 53.8577L26.6226 56.3057L29.0707 54.1636L26.9288 51.7156Z" fill="#FE75F0"/>
<path d="M29.0706 54.1637L26.6225 56.3058L28.7646 58.7539L31.2127 56.6118L29.0706 54.1637Z" fill="#FE75F0"/>
<path d="M39.781 66.4044L37.3329 68.5465L39.475 70.9946L41.9231 68.8525L39.781 66.4044Z" fill="black"/>
<path d="M41.9232 68.8523L39.4751 70.9944L41.6171 73.4424L44.0652 71.3003L41.9232 68.8523Z" fill="black"/>
<path d="M44.065 71.3004L41.6169 73.4425L43.759 75.8906L46.2071 73.7485L44.065 71.3004Z" fill="black"/>
<path d="M46.2072 73.7483L43.7591 75.8904L45.9011 78.3384L48.3492 76.1963L46.2072 73.7483Z" fill="white"/>
<path d="M48.3492 76.1966L45.9011 78.3387L48.043 80.7866L50.4911 78.6445L48.3492 76.1966Z" fill="#FE75F0"/>
<path d="M50.4915 78.6446L48.0434 80.7867L50.1855 83.2349L52.6336 81.0928L50.4915 78.6446Z" fill="#FE75F0"/>
<path d="M52.6336 81.093L50.1854 83.2351L52.3274 85.6831L54.7755 83.541L52.6336 81.093Z" fill="#FE75F0"/>
<path d="M54.7755 83.5411L52.3274 85.6832L54.4695 88.1313L56.9176 85.9893L54.7755 83.5411Z" fill="#FE75F0"/>
<path d="M56.9176 85.989L54.4695 88.1311L56.6114 90.5791L59.0596 88.437L56.9176 85.989Z" fill="#FE75F0"/>
<path d="M59.0595 88.4371L56.6114 90.5792L58.7535 93.0273L61.2016 90.8853L59.0595 88.4371Z" fill="#FE75F0"/>
<path d="M61.2015 90.8849L58.7533 93.027L60.8954 95.4751L63.3436 93.333L61.2015 90.8849Z" fill="#FE75F0"/>
<path d="M63.3432 93.3328L60.895 95.4749L63.0374 97.9233L65.4855 95.7812L63.3432 93.3328Z" fill="#FE75F0"/>
<path d="M65.4863 95.782L63.0381 97.9241L65.1801 100.372L67.6282 98.23L65.4863 95.782Z" fill="#FE75F0"/>
<path d="M67.6286 98.2301L65.1805 100.372L67.3226 102.82L69.7707 100.678L67.6286 98.2301Z" fill="#FE75F0"/>
<path d="M69.7697 100.678L67.3215 102.82L69.4635 105.268L71.9116 103.125L69.7697 100.678Z" fill="black"/>
<path d="M71.9119 103.126L69.4637 105.268L71.6058 107.716L74.054 105.574L71.9119 103.126Z" fill="black"/>
<path d="M22.9508 42.2298L20.5026 44.3719L22.6446 46.8198L25.0927 44.6777L22.9508 42.2298Z" fill="black"/>
<path d="M25.0927 44.6774L22.6446 46.8195L24.7867 49.2676L27.2348 47.1255L25.0927 44.6774Z" fill="#FE75F0"/>
<path d="M27.2348 47.1258L24.7866 49.2678L26.9286 51.7158L29.3767 49.5737L27.2348 47.1258Z" fill="#FE75F0"/>
<path d="M29.3768 49.5735L26.9287 51.7156L29.0707 54.1636L31.5188 52.0215L29.3768 49.5735Z" fill="#FE75F0"/>
<path d="M31.5186 52.0216L29.0705 54.1637L31.2126 56.6118L33.6607 54.4697L31.5186 52.0216Z" fill="#FE75F0"/>
<path d="M40.0872 61.8142L37.6391 63.9563L39.7811 66.4043L42.2292 64.2622L40.0872 61.8142Z" fill="black"/>
<path d="M42.2291 64.2623L39.781 66.4044L41.9231 68.8525L44.3712 66.7104L42.2291 64.2623Z" fill="black"/>
<path d="M44.3712 66.7107L41.9231 68.8528L44.0651 71.3008L46.5132 69.1587L44.3712 66.7107Z" fill="black"/>
<path d="M46.5131 69.1583L44.0649 71.3004L46.207 73.7485L48.6552 71.6064L46.5131 69.1583Z" fill="white"/>
<path d="M48.6552 71.6067L46.2071 73.7488L48.3491 76.1968L50.7972 74.0547L48.6552 71.6067Z" fill="#FE75F0"/>
<path d="M50.7972 74.0545L48.3491 76.1966L50.491 78.6445L52.9391 76.5024L50.7972 74.0545Z" fill="#FE75F0"/>
<path d="M52.9395 76.5026L50.4914 78.6446L52.6335 81.0928L55.0816 78.9507L52.9395 76.5026Z" fill="#FE75F0"/>
<path d="M55.0816 78.951L52.6335 81.093L54.7754 83.541L57.2236 81.3989L55.0816 78.951Z" fill="#FE75F0"/>
<path d="M61.5076 86.295L59.0594 88.4371L61.2015 90.8853L63.6497 88.7432L61.5076 86.295Z" fill="#FE75F0"/>
<path d="M63.6495 88.7428L61.2014 90.8849L63.3435 93.333L65.7916 91.1909L63.6495 88.7428Z" fill="#FE75F0"/>
<path d="M65.7913 91.1907L63.3432 93.3328L65.4855 95.7813L67.9337 93.6392L65.7913 91.1907Z" fill="#FE75F0"/>
<path d="M67.9344 93.6399L65.4863 95.782L67.6282 98.23L70.0764 96.0879L67.9344 93.6399Z" fill="#FE75F0"/>
<path d="M70.0766 96.088L67.6285 98.2301L69.7706 100.678L72.2187 98.5361L70.0766 96.088Z" fill="#FE75F0"/>
<path d="M72.2177 98.5349L69.7696 100.677L71.9116 103.125L74.3597 100.983L72.2177 98.5349Z" fill="#FE75F0"/>
<path d="M74.3599 100.984L71.9117 103.126L74.0538 105.574L76.502 103.432L74.3599 100.984Z" fill="black"/>
<path d="M76.502 103.431L74.0538 105.573L76.1959 108.021L78.644 105.879L76.502 103.431Z" fill="black"/>
<path d="M25.3989 40.0877L22.9509 42.2296L25.0929 44.6776L27.5408 42.5356L25.3989 40.0877Z" fill="black"/>
<path d="M27.5406 42.5358L25.0927 44.6777L27.2348 47.1258L29.6827 44.9839L27.5406 42.5358Z" fill="#FE75F0"/>
<path d="M29.6828 44.9837L27.2348 47.1256L29.3768 49.5736L31.8248 47.4316L29.6828 44.9837Z" fill="#FE75F0"/>
<path d="M31.8248 47.4319L29.3769 49.5739L31.5188 52.0218L33.9668 49.8799L31.8248 47.4319Z" fill="#FE75F0"/>
<path d="M33.9667 49.8795L31.5187 52.0215L33.6608 54.4696L36.1088 52.3276L33.9667 49.8795Z" fill="#FE75F0"/>
<path d="M42.5352 59.6721L40.0873 61.8141L42.2292 64.2621L44.6772 62.1201L42.5352 59.6721Z" fill="black"/>
<path d="M44.6771 62.1202L42.2292 64.2622L44.3712 66.7103L46.8192 64.5684L44.6771 62.1202Z" fill="black"/>
<path d="M46.8192 64.5681L44.3713 66.7101L46.5132 69.1581L48.9612 67.0161L46.8192 64.5681Z" fill="white"/>
<path d="M48.9612 67.0162L46.5132 69.1582L48.6553 71.6063L51.1033 69.4644L48.9612 67.0162Z" fill="#FE75F0"/>
<path d="M51.1033 69.4646L48.6553 71.6066L50.7973 74.0545L53.2452 71.9126L51.1033 69.4646Z" fill="#FE75F0"/>
<path d="M53.2454 71.9124L50.7974 74.0543L52.9394 76.5023L55.3873 74.3604L53.2454 71.9124Z" fill="#FE75F0"/>
<path d="M68.2393 89.0486L65.7914 91.1906L67.9337 93.639L70.3817 91.4971L68.2393 89.0486Z" fill="#FE75F0"/>
<path d="M70.3824 91.4978L67.9344 93.6398L70.0764 96.0878L72.5244 93.9458L70.3824 91.4978Z" fill="#FE75F0"/>
<path d="M72.5246 93.9464L70.0766 96.0884L72.2187 98.5365L74.6667 96.3945L72.5246 93.9464Z" fill="#FE75F0"/>
<path d="M74.6657 96.3933L72.2178 98.5353L74.3597 100.983L76.8077 98.8413L74.6657 96.3933Z" fill="#FE75F0"/>
<path d="M76.808 98.8414L74.36 100.983L76.5021 103.432L78.9501 101.29L76.808 98.8414Z" fill="#FE75F0"/>
<path d="M78.9499 101.29L76.502 103.432L78.6441 105.88L81.092 103.738L78.9499 101.29Z" fill="black"/>
<path d="M27.8469 37.9456L25.3987 40.0877L27.5407 42.5356L29.9888 40.3936L27.8469 37.9456Z" fill="black"/>
<path d="M29.9887 40.3937L27.5406 42.5358L29.6827 44.9839L32.1308 42.8418L29.9887 40.3937Z" fill="#FE75F0"/>
<path d="M32.1309 42.8416L29.6827 44.9837L31.8247 47.4316L34.2728 45.2896L32.1309 42.8416Z" fill="#FE75F0"/>
<path d="M34.2728 45.2898L31.8247 47.4319L33.9667 49.8799L36.4148 47.7378L34.2728 45.2898Z" fill="#FE75F0"/>
<path d="M36.4148 47.7374L33.9667 49.8795L36.1088 52.3276L38.5569 50.1855L36.4148 47.7374Z" fill="#FE75F0"/>
<path d="M44.9832 57.5305L42.5351 59.6726L44.6771 62.1206L47.1252 59.9785L44.9832 57.5305Z" fill="black"/>
<path d="M47.1252 59.9781L44.6771 62.1202L46.8191 64.5684L49.2673 62.4263L47.1252 59.9781Z" fill="#FE75F0"/>
<path d="M49.2672 62.4265L46.8191 64.5686L48.9611 67.0166L51.4092 64.8745L49.2672 62.4265Z" fill="#FE75F0"/>
<path d="M51.4092 64.8741L48.9611 67.0162L51.1031 69.4644L53.5513 67.3223L51.4092 64.8741Z" fill="#FE75F0"/>
<path d="M53.5513 67.3225L51.1032 69.4646L53.2451 71.9126L55.6932 69.7705L53.5513 67.3225Z" fill="#FE75F0"/>
<path d="M72.8305 89.3557L70.3823 91.4978L72.5243 93.9458L74.9724 91.8037L72.8305 89.3557Z" fill="#FE75F0"/>
<path d="M74.9726 91.8043L72.5245 93.9464L74.6666 96.3945L77.1147 94.2524L74.9726 91.8043Z" fill="#FE75F0"/>
<path d="M77.1137 94.2512L74.6656 96.3933L76.8075 98.8413L79.2557 96.6992L77.1137 94.2512Z" fill="#FE75F0"/>
<path d="M79.256 96.6993L76.8079 98.8414L78.95 101.29L81.3981 99.1475L79.256 96.6993Z" fill="#FE75F0"/>
<path d="M81.3979 99.1476L78.9498 101.29L81.0919 103.738L83.54 101.596L81.3979 99.1476Z" fill="#FE75F0"/>
<path d="M83.5402 101.596L81.0921 103.738L83.234 106.186L85.6821 104.044L83.5402 101.596Z" fill="#FE75F0"/>
<path d="M19.5845 23.5628L17.1363 25.705L19.2782 28.153L21.7265 26.0107L19.5845 23.5628Z" fill="black"/>
<path d="M21.7264 26.0109L19.2781 28.1531L21.4202 30.6012L23.8685 28.459L21.7264 26.0109Z" fill="black"/>
<path d="M23.8686 28.4593L21.4203 30.6015L23.5623 33.0495L26.0106 30.9072L23.8686 28.4593Z" fill="black"/>
<path d="M26.0109 30.9075L23.5626 33.0497L25.7045 35.4977L28.1528 33.3555L26.0109 30.9075Z" fill="black"/>
<path d="M28.1526 33.3556L25.7044 35.4978L27.8465 37.9459L30.2947 35.8037L28.1526 33.3556Z" fill="black"/>
<path d="M30.2949 35.8035L27.8466 37.9457L29.9886 40.3937L32.4369 38.2515L30.2949 35.8035Z" fill="black"/>
<path d="M32.4367 38.2516L29.9884 40.3938L32.1305 42.8419L34.5788 40.6997L32.4367 38.2516Z" fill="#FE75F0"/>
<path d="M34.5789 40.6995L32.1306 42.8417L34.2726 45.2897L36.7209 43.1475L34.5789 40.6995Z" fill="#FE75F0"/>
<path d="M36.7209 43.1477L34.2726 45.29L36.4146 47.7379L38.8629 45.5957L36.7209 43.1477Z" fill="#FE75F0"/>
<path d="M38.8628 45.5958L36.4145 47.7381L38.5566 50.1862L41.0049 48.0439L38.8628 45.5958Z" fill="black"/>
<path d="M41.0049 48.0437L38.5566 50.186L40.6986 52.6339L43.1469 50.4917L41.0049 48.0437Z" fill="black"/>
<path d="M43.1468 50.4918L40.6986 52.634L42.8407 55.0822L45.2889 52.9399L43.1468 50.4918Z" fill="black"/>
<path d="M45.2889 52.9398L42.8406 55.082L44.9829 57.5304L47.4312 55.3882L45.2889 52.9398Z" fill="black"/>
<path d="M47.4313 55.3885L44.9831 57.5307L47.125 59.9787L49.5733 57.8364L47.4313 55.3885Z" fill="black"/>
<path d="M49.5732 57.8361L47.1249 59.9783L49.267 62.4264L51.7153 60.2842L49.5732 57.8361Z" fill="#FE75F0"/>
<path d="M51.7154 60.2844L49.2671 62.4267L51.4091 64.8747L53.8574 62.7324L51.7154 60.2844Z" fill="#FE75F0"/>
<path d="M53.8572 62.732L51.4089 64.8743L53.551 67.3224L55.9993 65.1802L53.8572 62.732Z" fill="#FE75F0"/>
<path d="M77.4207 89.6622L74.9724 91.8045L77.1145 94.2526L79.5627 92.1104L77.4207 89.6622Z" fill="#FE75F0"/>
<path d="M79.5618 92.1092L77.1136 94.2514L79.2555 96.6994L81.7038 94.5571L79.5618 92.1092Z" fill="#FE75F0"/>
<path d="M81.704 94.5572L79.2558 96.6995L81.3978 99.1476L83.8461 97.0054L81.704 94.5572Z" fill="#FE75F0"/>
<path d="M83.846 97.0055L81.3977 99.1477L83.5398 101.596L85.9881 99.4536L83.846 97.0055Z" fill="#FE75F0"/>
<path d="M85.9882 99.4539L83.5399 101.596L85.6819 104.044L88.1302 101.902L85.9882 99.4539Z" fill="#FE75F0"/>
<path d="M22.0333 21.4202L19.5851 23.5623L21.7271 26.0103L24.1752 23.8682L22.0333 21.4202Z" fill="black"/>
<path d="M24.1752 23.8683L21.7271 26.0104L23.8692 28.4585L26.3173 26.3164L24.1752 23.8683Z" fill="black"/>
<path d="M26.3173 26.3167L23.8692 28.4588L26.0111 30.9067L28.4592 28.7646L26.3173 26.3167Z" fill="#FE75F0"/>
<path d="M28.4596 28.7649L26.0115 30.907L28.1534 33.355L30.6016 31.2129L28.4596 28.7649Z" fill="#FE75F0"/>
<path d="M30.6016 31.2125L28.1534 33.3546L30.2955 35.8027L32.7437 33.6606L30.6016 31.2125Z" fill="#FE75F0"/>
<path d="M32.7437 33.6609L30.2955 35.803L32.4375 38.251L34.8856 36.1089L32.7437 33.6609Z" fill="#FE75F0"/>
<path d="M34.8856 36.1085L32.4375 38.2506L34.5796 40.6987L37.0277 38.5566L34.8856 36.1085Z" fill="#FE75F0"/>
<path d="M37.0277 38.5569L34.5795 40.699L36.7215 43.147L39.1696 41.0049L37.0277 38.5569Z" fill="#FE75F0"/>
<path d="M39.1697 41.0047L36.7216 43.1468L38.8636 45.5947L41.3117 43.4526L39.1697 41.0047Z" fill="#FE75F0"/>
<path d="M41.3116 43.4532L38.8635 45.5953L41.0055 48.0435L43.4537 45.9014L41.3116 43.4532Z" fill="#FE75F0"/>
<path d="M43.4537 45.9011L41.0056 48.0432L43.1476 50.4912L45.5957 48.3491L43.4537 45.9011Z" fill="#FE75F0"/>
<path d="M45.5956 48.3487L43.1475 50.4908L45.2896 52.939L47.7377 50.7969L45.5956 48.3487Z" fill="#FE75F0"/>
<path d="M47.7376 50.7972L45.2895 52.9393L47.4319 55.3877L49.88 53.2456L47.7376 50.7972Z" fill="#FE75F0"/>
<path d="M49.8801 53.2459L47.432 55.388L49.574 57.8359L52.0221 55.6938L49.8801 53.2459Z" fill="#FE75F0"/>
<path d="M52.0219 55.6935L49.5738 57.8356L51.7159 60.2837L54.164 58.1416L52.0219 55.6935Z" fill="#FE75F0"/>
<path d="M54.1641 58.1419L51.716 60.284L53.858 62.7319L56.3061 60.5898L54.1641 58.1419Z" fill="#FE75F0"/>
<path d="M56.306 60.5895L53.8578 62.7316L55.9999 65.1797L58.4481 63.0376L56.306 60.5895Z" fill="#FE75F0"/>
<path d="M79.8695 87.5196L77.4214 89.6617L79.5635 92.1099L82.0116 89.9678L79.8695 87.5196Z" fill="black"/>
<path d="M82.0106 89.9666L79.5625 92.1087L81.7045 94.5566L84.1526 92.4146L82.0106 89.9666Z" fill="#FE75F0"/>
<path d="M84.1528 92.4147L81.7046 94.5568L83.8467 97.0049L86.2949 94.8628L84.1528 92.4147Z" fill="#FE75F0"/>
<path d="M86.2949 94.8629L83.8467 97.005L85.9888 99.4531L88.437 97.311L86.2949 94.8629Z" fill="#FE75F0"/>
<path d="M88.437 97.3108L85.9888 99.4529L88.1308 101.901L90.5789 99.7588L88.437 97.3108Z" fill="#FE75F0"/>
<path d="M24.4813 19.2781L22.0331 21.4202L24.1751 23.8682L26.6232 21.7261L24.4813 19.2781Z" fill="black"/>
<path d="M26.6232 21.7262L24.1751 23.8683L26.3172 26.3164L28.7653 24.1743L26.6232 21.7262Z" fill="#FE75F0"/>
<path d="M28.7653 24.1746L26.3172 26.3167L28.4592 28.7647L30.9073 26.6226L28.7653 24.1746Z" fill="#FE75F0"/>
<path d="M30.9076 26.6228L28.4595 28.7649L30.6014 31.2129L33.0496 29.0708L30.9076 26.6228Z" fill="#FE75F0"/>
<path d="M33.0496 29.0709L30.6014 31.213L32.7435 33.6611L35.1917 31.519L33.0496 29.0709Z" fill="#FE75F0"/>
<path d="M35.1917 31.5188L32.7435 33.6609L34.8855 36.1089L37.3336 33.9668L35.1917 31.5188Z" fill="#FE75F0"/>
<path d="M37.3336 33.9669L34.8855 36.109L37.0276 38.5571L39.4757 36.415L37.3336 33.9669Z" fill="#FE75F0"/>
<path d="M39.4757 36.4148L37.0276 38.5569L39.1695 41.0049L41.6177 38.8628L39.4757 36.4148Z" fill="#FE75F0"/>
<path d="M41.6177 38.8631L39.1696 41.0052L41.3116 43.4531L43.7597 41.311L41.6177 38.8631Z" fill="#FE75F0"/>
<path d="M43.7596 41.3107L41.3115 43.4528L43.4535 45.9009L45.9017 43.7588L43.7596 41.3107Z" fill="#FE75F0"/>
<path d="M45.9018 43.7591L43.4537 45.9011L45.5956 48.3491L48.0438 46.207L45.9018 43.7591Z" fill="#FE75F0"/>
<path d="M48.0436 46.2071L45.5955 48.3492L47.7375 50.7974L50.1857 48.6553L48.0436 46.2071Z" fill="#FE75F0"/>
<path d="M50.1858 48.6551L47.7376 50.7972L49.88 53.2456L52.3281 51.1035L50.1858 48.6551Z" fill="#FE75F0"/>
<path d="M52.3281 51.1033L49.88 53.2454L52.022 55.6934L54.4701 53.5513L52.3281 51.1033Z" fill="#FE75F0"/>
<path d="M54.4701 53.5514L52.022 55.6935L54.1641 58.1416L56.6122 55.9995L54.4701 53.5514Z" fill="#FE75F0"/>
<path d="M56.6121 55.9998L54.164 58.1419L56.306 60.5898L58.7541 58.4478L56.6121 55.9998Z" fill="#FE75F0"/>
<path d="M58.7541 58.4474L56.306 60.5895L58.4481 63.0376L60.8962 60.8955L58.7541 58.4474Z" fill="#FE75F0"/>
<path d="M82.3175 85.3776L79.8694 87.5196L82.0115 89.9678L84.4596 87.8257L82.3175 85.3776Z" fill="black"/>
<path d="M84.4586 87.8245L82.0105 89.9666L84.1525 92.4146L86.6006 90.2725L84.4586 87.8245Z" fill="#FE75F0"/>
<path d="M86.6008 90.2726L84.1526 92.4147L86.2947 94.8628L88.7429 92.7207L86.6008 90.2726Z" fill="#FE75F0"/>
<path d="M88.7429 92.7208L86.2948 94.8629L88.4369 97.311L90.885 95.1689L88.7429 92.7208Z" fill="#FE75F0"/>
<path d="M90.885 95.1692L88.4368 97.3113L90.5788 99.7593L93.0269 97.6172L90.885 95.1692Z" fill="#FE75F0"/>
<path d="M26.9293 17.1365L24.4813 19.2785L26.6233 21.7264L29.0712 19.5845L26.9293 17.1365Z" fill="black"/>
<path d="M29.0712 19.5841L26.6233 21.7261L28.7654 24.1742L31.2133 22.0322L29.0712 19.5841Z" fill="#FE75F0"/>
<path d="M31.2133 22.0325L28.7654 24.1745L30.9073 26.6224L33.3553 24.4805L31.2133 22.0325Z" fill="white"/>
<path d="M33.3558 24.4808L30.9078 26.6227L33.0498 29.0707L35.4977 26.9287L33.3558 24.4808Z" fill="white"/>
<path d="M35.4976 26.9288L33.0497 29.0708L35.1917 31.5189L37.6397 29.377L35.4976 26.9288Z" fill="white"/>
<path d="M37.6398 29.3772L35.1918 31.5192L37.3338 33.9671L39.7817 31.8252L37.6398 29.3772Z" fill="#FE75F0"/>
<path d="M39.7816 31.8248L37.3336 33.9668L39.4757 36.4149L41.9237 34.2729L39.7816 31.8248Z" fill="#FE75F0"/>
<path d="M41.9238 34.2727L39.4759 36.4147L41.6178 38.8627L44.0658 36.7207L41.9238 34.2727Z" fill="#FE75F0"/>
<path d="M44.0657 36.721L41.6178 38.8629L43.7597 41.3109L46.2077 39.1689L44.0657 36.721Z" fill="#FE75F0"/>
<path d="M46.2077 39.1686L43.7597 41.3105L45.9018 43.7587L48.3498 41.6167L46.2077 39.1686Z" fill="#FE75F0"/>
<path d="M48.3498 41.617L45.9018 43.7589L48.0438 46.2069L50.4918 44.0649L48.3498 41.617Z" fill="#FE75F0"/>
<path d="M50.4918 44.0651L48.0438 46.207L50.1859 48.6551L52.6339 46.5132L50.4918 44.0651Z" fill="#FE75F0"/>
<path d="M52.6338 46.513L50.1859 48.6549L52.3282 51.1034L54.7762 48.9614L52.6338 46.513Z" fill="#FE75F0"/>
<path d="M54.7761 48.9617L52.3282 51.1036L54.4701 53.5516L56.9181 51.4097L54.7761 48.9617Z" fill="#FE75F0"/>
<path d="M56.9181 51.4093L54.4701 53.5512L56.6122 55.9994L59.0602 53.8574L56.9181 51.4093Z" fill="#FE75F0"/>
<path d="M59.0602 53.8577L56.6122 55.9996L58.7542 58.4476L61.2021 56.3057L59.0602 53.8577Z" fill="#FE75F0"/>
<path d="M61.2021 56.3058L58.7541 58.4477L60.8962 60.8959L63.3442 58.7539L61.2021 56.3058Z" fill="#FE75F0"/>
<path d="M84.7656 83.2355L82.3176 85.3774L84.4597 87.8255L86.9077 85.6836L84.7656 83.2355Z" fill="black"/>
<path d="M86.9066 85.6824L84.4587 87.8243L86.6006 90.2723L89.0486 88.1304L86.9066 85.6824Z" fill="#FE75F0"/>
<path d="M89.0489 88.131L86.601 90.2729L88.7431 92.7211L91.191 90.5791L89.0489 88.131Z" fill="#FE75F0"/>
<path d="M91.1909 90.5787L88.7429 92.7207L90.885 95.1688L93.333 93.0269L91.1909 90.5787Z" fill="#FE75F0"/>
<path d="M93.3331 93.0271L90.8851 95.1691L93.0271 97.617L95.475 95.4751L93.3331 93.0271Z" fill="#FE75F0"/>
<path d="M29.3775 14.9944L26.9293 17.1365L29.0713 19.5845L31.5194 17.4424L29.3775 14.9944Z" fill="#FE75F0"/>
<path d="M31.5193 17.442L29.0712 19.5841L31.2133 22.0322L33.6614 19.8901L31.5193 17.442Z" fill="#FE75F0"/>
<path d="M33.6615 19.8904L31.2133 22.0325L33.3553 24.4805L35.8034 22.3384L33.6615 19.8904Z" fill="#FE75F0"/>
<path d="M35.8038 22.3387L33.3557 24.4808L35.4976 26.9287L37.9457 24.7866L35.8038 22.3387Z" fill="#FE75F0"/>
<path d="M37.9456 24.7867L35.4975 26.9288L37.6396 29.377L40.0877 27.2349L37.9456 24.7867Z" fill="#FE75F0"/>
<path d="M40.0878 27.2346L37.6397 29.3767L39.7817 31.8247L42.2298 29.6826L40.0878 27.2346Z" fill="black"/>
<path d="M42.2296 29.6827L39.7815 31.8248L41.9236 34.273L44.3717 32.1309L42.2296 29.6827Z" fill="#FE75F0"/>
<path d="M44.3718 32.1311L41.9237 34.2732L44.0657 36.7212L46.5138 34.5791L44.3718 32.1311Z" fill="#FE75F0"/>
<path d="M46.5138 34.5789L44.0657 36.721L46.2076 39.1689L48.6558 37.0269L46.5138 34.5789Z" fill="#FE75F0"/>
<path d="M48.6557 37.027L46.2076 39.1691L48.3497 41.6172L50.7978 39.4751L48.6557 37.027Z" fill="#FE75F0"/>
<path d="M50.7978 39.4749L48.3497 41.617L50.4916 44.0649L52.9398 41.9229L50.7978 39.4749Z" fill="#FE75F0"/>
<path d="M52.9398 41.923L50.4916 44.0651L52.6337 46.5132L55.0818 44.3711L52.9398 41.923Z" fill="#FE75F0"/>
<path d="M55.0818 44.3709L52.6337 46.513L54.7761 48.9614L57.2242 46.8193L55.0818 44.3709Z" fill="black"/>
<path d="M57.2242 46.8196L54.7761 48.9617L56.918 51.4097L59.3661 49.2676L57.2242 46.8196Z" fill="#FE75F0"/>
<path d="M59.3661 49.2672L56.918 51.4093L59.0601 53.8574L61.5082 51.7153L59.3661 49.2672Z" fill="#FE75F0"/>
<path d="M61.5082 51.7156L59.0601 53.8577L61.202 56.3057L63.6501 54.1636L61.5082 51.7156Z" fill="#FE75F0"/>
<path d="M63.6501 54.1637L61.202 56.3058L63.3441 58.7539L65.7922 56.6118L63.6501 54.1637Z" fill="#FE75F0"/>
<path d="M87.2136 81.0934L84.7654 83.2355L86.9075 85.6836L89.3557 83.5415L87.2136 81.0934Z" fill="black"/>
<path d="M89.3548 83.5403L86.9067 85.6824L89.0486 88.1304L91.4968 85.9883L89.3548 83.5403Z" fill="#FE75F0"/>
<path d="M91.4969 85.9889L89.0488 88.131L91.1909 90.5791L93.639 88.437L91.4969 85.9889Z" fill="white"/>
<path d="M93.6389 88.4366L91.1908 90.5787L93.3329 93.0269L95.781 90.8848L93.6389 88.4366Z" fill="#FE75F0"/>
<path d="M95.7811 90.885L93.333 93.0271L95.475 95.4751L97.9231 93.333L95.7811 90.885Z" fill="#FE75F0"/>
<path d="M42.5358 25.093L40.0879 27.235L42.2298 29.683L44.6778 27.541L42.5358 25.093Z" fill="black"/>
<path d="M44.6776 27.5406L42.2296 29.6826L44.3717 32.1307L46.8197 29.9888L44.6776 27.5406Z" fill="#FE75F0"/>
<path d="M46.8198 29.989L44.3719 32.131L46.5138 34.579L48.9618 32.437L46.8198 29.989Z" fill="#FE75F0"/>
<path d="M48.9618 32.4373L46.5138 34.5792L48.6558 37.0272L51.1038 34.8853L48.9618 32.4373Z" fill="#FE75F0"/>
<path d="M51.1038 34.8849L48.6558 37.0268L50.7979 39.475L53.2458 37.333L51.1038 34.8849Z" fill="#FE75F0"/>
<path d="M57.5298 42.2293L55.0818 44.3713L57.2242 46.8197L59.6722 44.6777L57.5298 42.2293Z" fill="black"/>
<path d="M59.6723 44.6775L57.2243 46.8195L59.3663 49.2674L61.8143 47.1255L59.6723 44.6775Z" fill="#FE75F0"/>
<path d="M61.8141 47.1256L59.3662 49.2676L61.5083 51.7157L63.9562 49.5737L61.8141 47.1256Z" fill="#FE75F0"/>
<path d="M63.9563 49.5735L61.5083 51.7155L63.6503 54.1634L66.0983 52.0215L63.9563 49.5735Z" fill="#FE75F0"/>
<path d="M66.0981 52.0216L63.6502 54.1636L65.7923 56.6117L68.2402 54.4697L66.0981 52.0216Z" fill="black"/>
<path d="M68.2404 54.4695L65.7924 56.6115L67.9344 59.0594L70.3823 56.9175L68.2404 54.4695Z" fill="black"/>
<path d="M87.5194 76.5032L85.0714 78.6452L87.2133 81.0931L89.6613 78.9512L87.5194 76.5032Z" fill="black"/>
<path d="M89.6616 78.9513L87.2136 81.0932L89.3557 83.5414L91.8036 81.3994L89.6616 78.9513Z" fill="black"/>
<path d="M91.8028 81.3982L89.3548 83.5402L91.4968 85.9881L93.9448 83.8462L91.8028 81.3982Z" fill="#FE75F0"/>
<path d="M93.9449 83.8468L91.497 85.9888L93.6391 88.4369L96.087 86.2949L93.9449 83.8468Z" fill="#FE75F0"/>
<path d="M96.0869 86.2945L93.6389 88.4365L95.781 90.8846L98.229 88.7427L96.0869 86.2945Z" fill="#FE75F0"/>
<path d="M98.2291 88.743L95.7812 90.8849L97.9231 93.3329L100.371 91.1909L98.2291 88.743Z" fill="#FE75F0"/>
<path d="M44.9838 22.951L42.5357 25.093L44.6777 27.541L47.1258 25.3989L44.9838 22.951Z" fill="black"/>
<path d="M47.1258 25.3986L44.6777 27.5406L46.8198 29.9888L49.2679 27.8467L47.1258 25.3986Z" fill="#FE75F0"/>
<path d="M49.2678 27.8469L46.8197 29.989L48.9617 32.437L51.4098 30.2949L49.2678 27.8469Z" fill="#FE75F0"/>
<path d="M51.4099 30.2952L48.9618 32.4373L51.1038 34.8853L53.5519 32.7432L51.4099 30.2952Z" fill="#FE75F0"/>
<path d="M53.5518 32.7428L51.1036 34.8849L53.2457 37.333L55.6938 35.1909L53.5518 32.7428Z" fill="#FE75F0"/>
<path d="M62.1203 42.5354L59.6722 44.6775L61.8141 47.1255L64.2623 44.9834L62.1203 42.5354Z" fill="#FE75F0"/>
<path d="M64.2621 44.9835L61.814 47.1256L63.9561 49.5737L66.4042 47.4316L64.2621 44.9835Z" fill="#FE75F0"/>
<path d="M66.4043 47.4319L63.9562 49.574L66.0981 52.022L68.5463 49.8799L66.4043 47.4319Z" fill="#FE75F0"/>
<path d="M68.5461 49.8795L66.098 52.0216L68.2401 54.4697L70.6882 52.3276L68.5461 49.8795Z" fill="#FE75F0"/>
<path d="M70.6884 52.3274L68.2403 54.4695L70.3822 56.9175L72.8303 54.7754L70.6884 52.3274Z" fill="black"/>
<path d="M72.8303 54.7757L70.3822 56.9178L72.5241 59.3657L74.9722 57.2236L72.8303 54.7757Z" fill="black"/>
<path d="M87.8243 71.9119L85.3762 74.054L87.5185 76.5024L89.9667 74.3604L87.8243 71.9119Z" fill="black"/>
<path d="M89.9674 74.3611L87.5192 76.5032L89.6612 78.9512L92.1093 76.8091L89.9674 74.3611Z" fill="black"/>
<path d="M92.1097 76.8092L89.6616 78.9513L91.8036 81.3994L94.2518 79.2573L92.1097 76.8092Z" fill="#FE75F0"/>
<path d="M94.2508 79.2566L91.8027 81.3987L93.9446 83.8467L96.3928 81.7046L94.2508 79.2566Z" fill="white"/>
<path d="M96.393 81.7047L93.9449 83.8468L96.087 86.2949L98.5351 84.1528L96.393 81.7047Z" fill="#FE75F0"/>
<path d="M98.535 84.1529L96.0869 86.295L98.229 88.7432L100.677 86.6011L98.535 84.1529Z" fill="#FE75F0"/>
<path d="M47.4318 20.8089L44.9837 22.951L47.1257 25.3989L49.5738 23.2568L47.4318 20.8089Z" fill="black"/>
<path d="M49.5738 23.257L47.1257 25.399L49.2678 27.8472L51.7159 25.7051L49.5738 23.257Z" fill="#FE75F0"/>
<path d="M51.7159 25.7049L49.2678 27.8469L51.4097 30.2949L53.8578 28.1528L51.7159 25.7049Z" fill="#FE75F0"/>
<path d="M53.8579 28.1526L51.4098 30.2947L53.5518 32.7427L55.9999 30.6006L53.8579 28.1526Z" fill="white"/>
<path d="M55.9998 30.6007L53.5516 32.7428L55.6937 35.1909L58.1418 33.0488L55.9998 30.6007Z" fill="#FE75F0"/>
<path d="M64.5683 40.3938L62.1202 42.5359L64.2621 44.9839L66.7103 42.8418L64.5683 40.3938Z" fill="#FE75F0"/>
<path d="M66.7101 42.8414L64.262 44.9835L66.4041 47.4316L68.8522 45.2896L66.7101 42.8414Z" fill="#FE75F0"/>
<path d="M68.8524 45.2898L66.4042 47.4319L68.5462 49.8799L70.9943 47.7378L68.8524 45.2898Z" fill="#FE75F0"/>
<path d="M70.9941 47.7374L68.546 49.8795L70.6881 52.3276L73.1362 50.1855L70.9941 47.7374Z" fill="#FE75F0"/>
<path d="M73.1364 50.1858L70.6882 52.3279L72.8302 54.7759L75.2783 52.6338L73.1364 50.1858Z" fill="#FE75F0"/>
<path d="M75.2783 52.6336L72.8302 54.7757L74.9722 57.2236L77.4203 55.0815L75.2783 52.6336Z" fill="black"/>
<path d="M77.4207 55.0817L74.9725 57.2238L77.1146 59.6719L79.5627 57.5298L77.4207 55.0817Z" fill="black"/>
<path d="M79.5627 57.5301L77.1146 59.6721L79.2565 62.1201L81.7047 59.978L79.5627 57.5301Z" fill="black"/>
<path d="M85.9887 64.8741L83.5406 67.0162L85.6827 69.4644L88.1308 67.3223L85.9887 64.8741Z" fill="black"/>
<path d="M88.1306 67.3219L85.6825 69.464L87.8246 71.9121L90.2727 69.77L88.1306 67.3219Z" fill="black"/>
<path d="M90.2724 69.7698L87.8243 71.9119L89.9667 74.3604L92.4148 72.2183L90.2724 69.7698Z" fill="black"/>
<path d="M92.4155 72.219L89.9674 74.3611L92.1094 76.8091L94.5575 74.667L92.4155 72.219Z" fill="#FE75F0"/>
<path d="M94.5577 74.6676L92.1095 76.8097L94.2516 79.2578L96.6998 77.1157L94.5577 74.6676Z" fill="white"/>
<path d="M96.6988 77.1145L94.2507 79.2566L96.3926 81.7046L98.8408 79.5625L96.6988 77.1145Z" fill="#FE75F0"/>
<path d="M98.841 79.5626L96.3929 81.7047L98.535 84.1528L100.983 82.0107L98.841 79.5626Z" fill="#FE75F0"/>
<path d="M100.983 82.0109L98.535 84.1529L100.677 86.6011L103.125 84.459L100.983 82.0109Z" fill="#FE75F0"/>
<path d="M49.8799 18.6668L47.4319 20.8087L49.5739 23.2567L52.0219 21.1147L49.8799 18.6668Z" fill="black"/>
<path d="M52.0218 21.1149L49.5738 23.2568L51.7159 25.7049L54.1639 23.563L52.0218 21.1149Z" fill="#FE75F0"/>
<path d="M54.1639 23.5628L51.7159 25.7047L53.8579 28.1527L56.3058 26.0107L54.1639 23.5628Z" fill="white"/>
<path d="M56.306 26.011L53.858 28.153L56 30.6009L58.4479 28.459L56.306 26.011Z" fill="#FE75F0"/>
<path d="M58.4478 28.4586L55.9998 30.6006L58.1419 33.0487L60.5899 30.9067L58.4478 28.4586Z" fill="#FE75F0"/>
<path d="M69.1583 40.6993L66.7103 42.8413L68.8524 45.2894L71.3004 43.1475L69.1583 40.6993Z" fill="#FE75F0"/>
<path d="M71.3004 43.1477L68.8524 45.2897L70.9944 47.7377L73.4423 45.5957L71.3004 43.1477Z" fill="#FE75F0"/>
<path d="M73.4423 45.5953L70.9943 47.7373L73.1364 50.1854L75.5844 48.0435L73.4423 45.5953Z" fill="#FE75F0"/>
<path d="M75.5844 48.0437L73.1364 50.1857L75.2783 52.6337L77.7263 50.4917L75.5844 48.0437Z" fill="#FE75F0"/>
<path d="M77.7265 50.492L75.2785 52.6339L77.4204 55.0819L79.8684 52.9399L77.7265 50.492Z" fill="#FE75F0"/>
<path d="M79.8687 52.9401L77.4207 55.082L79.5628 57.5301L82.0107 55.3882L79.8687 52.9401Z" fill="#FE75F0"/>
<path d="M82.0108 55.388L79.5628 57.5299L81.7047 59.9779L84.1527 57.8359L82.0108 55.388Z" fill="black"/>
<path d="M84.1526 57.8361L81.7047 59.978L83.8468 62.4261L86.2947 60.2842L84.1526 57.8361Z" fill="black"/>
<path d="M86.2947 60.2844L83.8468 62.4264L85.9887 64.8744L88.4367 62.7324L86.2947 60.2844Z" fill="black"/>
<path d="M88.4367 62.732L85.9887 64.874L88.1308 67.3221L90.5788 65.1802L88.4367 62.732Z" fill="black"/>
<path d="M90.5786 65.1803L88.1306 67.3222L90.2727 69.7704L92.7207 67.6284L90.5786 65.1803Z" fill="black"/>
<path d="M92.7204 67.6277L90.2724 69.7697L92.4148 72.2181L94.8628 70.0762L92.7204 67.6277Z" fill="#FE75F0"/>
<path d="M94.8635 70.0769L92.4156 72.2189L94.5575 74.6669L97.0055 72.5249L94.8635 70.0769Z" fill="white"/>
<path d="M97.0057 72.5255L94.5578 74.6675L96.6999 77.1156L99.1478 74.9736L97.0057 72.5255Z" fill="#FE75F0"/>
<path d="M99.1469 74.9724L96.6989 77.1144L98.8408 79.5624L101.289 77.4204L99.1469 74.9724Z" fill="#FE75F0"/>
<path d="M101.289 77.4205L98.8412 79.5625L100.983 82.0106L103.431 79.8687L101.289 77.4205Z" fill="#FE75F0"/>
<path d="M52.328 16.5247L49.8799 18.6668L52.0218 21.1147L54.47 18.9727L52.328 16.5247Z" fill="black"/>
<path d="M54.4698 18.9728L52.0217 21.1149L54.1638 23.563L56.6119 21.4209L54.4698 18.9728Z" fill="black"/>
<path d="M56.612 21.4212L54.1639 23.5633L56.3058 26.0112L58.754 23.8691L56.612 21.4212Z" fill="#FE75F0"/>
<path d="M58.754 23.8689L56.3059 26.011L58.4478 28.459L60.8959 26.3169L58.754 23.8689Z" fill="#FE75F0"/>
<path d="M60.8959 26.317L58.4478 28.4591L60.5899 30.9072L63.038 28.7651L60.8959 26.317Z" fill="#FE75F0"/>
<path d="M71.6063 38.5572L69.1582 40.6993L71.3003 43.1475L73.7484 41.0054L71.6063 38.5572Z" fill="#FE75F0"/>
<path d="M73.7484 41.0056L71.3002 43.1477L73.4422 45.5957L75.8903 43.4536L73.7484 41.0056Z" fill="#FE75F0"/>
<path d="M75.8903 43.4537L73.4422 45.5958L75.5843 48.0439L78.0324 45.9019L75.8903 43.4537Z" fill="#FE75F0"/>
<path d="M78.0324 45.9017L75.5843 48.0437L77.7263 50.4917L80.1744 48.3496L78.0324 45.9017Z" fill="#FE75F0"/>
<path d="M80.1745 48.3499L77.7263 50.492L79.8683 52.9399L82.3164 50.7979L80.1745 48.3499Z" fill="#FE75F0"/>
<path d="M82.3166 50.798L79.8685 52.9401L82.0106 55.3882L84.4587 53.2461L82.3166 50.798Z" fill="#FE75F0"/>
<path d="M84.4589 53.2459L82.0107 55.388L84.1527 57.8359L86.6008 55.6938L84.4589 53.2459Z" fill="#FE75F0"/>
<path d="M86.6007 55.694L84.1526 57.8361L86.2947 60.2842L88.7428 58.1421L86.6007 55.694Z" fill="#FE75F0"/>
<path d="M88.7427 58.1419L86.2946 60.284L88.4366 62.7319L90.8847 60.5898L88.7427 58.1419Z" fill="#FE75F0"/>
<path d="M90.8847 60.5904L88.4366 62.7325L90.5787 65.1807L93.0268 63.0386L90.8847 60.5904Z" fill="#FE75F0"/>
<path d="M93.0267 63.0382L90.5785 65.1803L92.7206 67.6284L95.1688 65.4863L93.0267 63.0382Z" fill="#FE75F0"/>
<path d="M95.1685 65.4861L92.7204 67.6282L94.8627 70.0767L97.3109 67.9346L95.1685 65.4861Z" fill="white"/>
<path d="M97.3115 67.9348L94.8634 70.0769L97.0054 72.5249L99.4535 70.3828L97.3115 67.9348Z" fill="#FE75F0"/>
<path d="M99.4537 70.3834L97.0056 72.5255L99.1477 74.9736L101.596 72.8315L99.4537 70.3834Z" fill="#FE75F0"/>
<path d="M101.595 72.8303L99.1467 74.9724L101.289 77.4204L103.737 75.2783L101.595 72.8303Z" fill="#FE75F0"/>
<path d="M56.9178 16.8307L54.4699 18.9726L56.612 21.4208L59.0599 19.2788L56.9178 16.8307Z" fill="black"/>
<path d="M59.0601 19.2791L56.6121 21.421L58.7541 23.869L61.202 21.7271L59.0601 19.2791Z" fill="#FE75F0"/>
<path d="M61.202 21.7268L58.754 23.8688L60.896 26.3168L63.3439 24.1748L61.202 21.7268Z" fill="#FE75F0"/>
<path d="M78.3383 41.3116L75.8903 43.4536L78.0324 45.9017L80.4804 43.7598L78.3383 41.3116Z" fill="#FE75F0"/>
<path d="M80.4804 43.7596L78.0325 45.9015L80.1744 48.3495L82.6224 46.2075L80.4804 43.7596Z" fill="#FE75F0"/>
<path d="M82.6225 46.2078L80.1745 48.3498L82.3165 50.7977L84.7645 48.6558L82.6225 46.2078Z" fill="#FE75F0"/>
<path d="M84.7646 48.6559L82.3167 50.7978L84.4588 53.246L86.9067 51.104L84.7646 48.6559Z" fill="#FE75F0"/>
<path d="M86.9069 51.1043L84.4589 53.2462L86.6009 55.6942L89.0488 53.5522L86.9069 51.1043Z" fill="#FE75F0"/>
<path d="M89.0487 53.5519L86.6007 55.6938L88.7428 58.142L91.1908 56L89.0487 53.5519Z" fill="#FE75F0"/>
<path d="M91.1909 56.0003L88.743 58.1422L90.8849 60.5902L93.3329 58.4482L91.1909 56.0003Z" fill="#FE75F0"/>
<path d="M93.3327 58.4479L90.8847 60.5898L93.0268 63.038L95.4748 60.896L93.3327 58.4479Z" fill="#FE75F0"/>
<path d="M95.4748 60.8961L93.0268 63.0381L95.1689 65.4862L97.6169 63.3442L95.4748 60.8961Z" fill="white"/>
<path d="M97.6165 63.344L95.1685 65.486L97.3109 67.9344L99.7589 65.7925L97.6165 63.344Z" fill="#FE75F0"/>
<path d="M99.7596 65.7932L97.3116 67.9352L99.4536 70.3832L101.902 68.2412L99.7596 65.7932Z" fill="#FE75F0"/>
<path d="M101.902 68.2413L99.4538 70.3833L101.596 72.8314L104.044 70.6895L101.902 68.2413Z" fill="#FE75F0"/>
<path d="M82.9286 41.6175L80.4804 43.7596L82.6224 46.2075L85.0705 44.0654L82.9286 41.6175Z" fill="#FE75F0"/>
<path d="M85.0705 44.0657L82.6224 46.2078L84.7643 48.6558L87.2125 46.5137L85.0705 44.0657Z" fill="#FE75F0"/>
<path d="M87.2127 46.5138L84.7646 48.6559L86.9067 51.104L89.3548 48.9619L87.2127 46.5138Z" fill="#FE75F0"/>
<path d="M89.3549 48.9622L86.9067 51.1043L89.0487 53.5522L91.4968 51.4102L89.3549 48.9622Z" fill="#FE75F0"/>
<path d="M91.4967 51.4103L89.0486 53.5524L91.1907 56.0005L93.6388 53.8584L91.4967 51.4103Z" fill="#FE75F0"/>
<path d="M93.6389 53.8582L91.1908 56.0003L93.3328 58.4482L95.7809 56.3062L93.6389 53.8582Z" fill="#FE75F0"/>
<path d="M95.7808 56.3058L93.3326 58.4479L95.4747 60.896L97.9229 58.7539L95.7808 56.3058Z" fill="#FE75F0"/>
<path d="M97.9228 58.754L95.4747 60.8961L97.6168 63.3442L100.065 61.2021L97.9228 58.754Z" fill="#FE75F0"/>
<path d="M100.064 61.2015L97.6163 63.3435L99.7587 65.792L102.207 63.6499L100.064 61.2015Z" fill="#FE75F0"/>
<path d="M102.208 63.6511L99.7595 65.7932L101.901 68.2412L104.35 66.0991L102.208 63.6511Z" fill="#FE75F0"/>
</svg>
