<svg width="1921" height="864" fill="none" xmlns="http://www.w3.org/2000/svg"><mask id="a" style="mask-type:alpha" maskUnits="userSpaceOnUse" x="0" y="0" width="1921" height="864"><path fill="#C4C4C4" d="M0 0h1921v864H0z"/></mask><g mask="url(#a)" stroke="#BBA5EF" stroke-width="4" stroke-miterlimit="10"><path d="M43-521V713m60-1234V713m59-1234V713m59-1234V714m60-1235V832m59-1353V832m59.291-349v-994.84M459.026 483 459 419.415l-.026-63.593-.026-63.593-.026-63.592-.026-63.593-.025-63.593-.026-63.592-.026-63.586-.026-63.592-.026-63.593-.026-63.593-.026-63.592-.025-63.593-.026-63.593-.026-63.585-.017-40.972M517.951 485v-996.84M399.291 772.443V475.759M459 832V476m58.951 355.774V475.759M577-521V833m60-1354V713m59-1234V713m59-1234V713m60-1234V713m59-1234V713m59-1234V772m60-1293V833m59-1354V833m59-1354V833m50.24-831.929H-244m1405.24 59.337H-244m1405.24 59.337H-244m1405.24 59.337H-244m1405.24 59.336H-244m1405.24 59.337H-244m1405.24 59.337H-244m1405.24 59.33H-244m1405.24 59.337H-244m1405.24 59.337H-244m1405.24 59.337H-244m1405.24 59.337H-244m1405.24 59.336H-244M577 772H280m60.5 59.774H281M578 832H458m712-1353V831m60-1352V831m59-1352V831m59-1352V831m60-1352V831m59-1352V831m59.29-346.5v-996.34m59.33 928.263V482v-993.84m59.33 928.263V491.5-511.84M1526 832V438m60 394V438m59 394V438m59-959V714m60-1235V713m59-1234V713m59-1234V713M2288.24 1.071H883m1405.24 59.337H883m1405.24 59.337H883m1405.24 59.337H883m1405.24 59.336H883m1405.24 59.337H883m1405.24 59.337H883m1405.24 59.33H883m1405.24 59.337H883m1405.24 59.337H883m1405.24 59.337H883m1405.24 59.337H883m1405.24 59.336H883M1645 772H932m714 60H993"/></g><path fill="#8353E3" d="M639 62h648v175H639z"/></svg>