<svg width="1102" height="547" fill="none" xmlns="http://www.w3.org/2000/svg"><mask id="a" style="mask-type:alpha" maskUnits="userSpaceOnUse" x="4" y="0" width="1094" height="539"><path transform="matrix(1 0 0 -1 4 539)" fill="#C4C4C4" d="M0 0h1094v539H0z"/></mask><g mask="url(#a)" stroke="#BBA5EF" stroke-miterlimit="10"><path d="M40.313 936.211V87.836m41.25 848.375V87.836m40.562 848.375V87.836m40.563 848.375-.001-849.063m41.251 849.063-.001-930.188M244.5 936.211V6.023m40.763 239.938v683.953m41.067-683.953-.018 43.715-.017 43.72-.018 43.72-.018 43.72-.018 43.72-.017 43.72-.018 43.72-.018 43.715-.018 43.72-.017 43.72-.018 43.72-.018 43.72-.018 43.72-.018 43.719-.017 43.716-.012 28.168m40.79-685.328v685.328M285.263 46.969v203.97M326.75 5.023l-.058 32.331-.063 35.567-.063 35.57-.064 35.571-.063 35.57-.063 35.571-.064 35.57m40.53-244.594v244.76m40.908 685.084v-931m40.937 931.188V87.836m40.563 848.375V87.836m40.562 848.375V87.836m41.25 848.375V87.836m40.563 848.375V87.836m40.563 848.375V47.273m41.249 888.938V5.336M734 936.211V5.336m40.562 930.875V5.336m34.542 531.157H-157m966.104-40.794H-157m966.104-40.794H-157m966.104-40.794H-157m966.104-40.794H-157m966.104-40.795H-157m966.104-40.789H-157m966.104-40.794H-157m966.104-40.794H-157m966.104-40.794H-157m966.104-40.794H-157m966.104-40.794H-157m564.438-40.49H203.25m42.5-41.094h-43m205.375-.156h-82.5" stroke-width="3"/><path d="M815.125 936.211V6.711m41.25 929.5V6.711m40.562 929.5V6.711m40.563 929.5V6.711m41.25 929.5V6.711m40.56 929.5V6.711m40.76 238.219v684.984m-.19-923.891v270.875m524.04 259.595H617.812m966.108-40.794H617.812m966.108-40.794H617.812m966.108-40.794H617.812m966.108-40.794H617.812m966.108-40.795H617.812m966.108-40.789H617.812m966.108-40.794H617.812m966.108-40.794H617.812m966.108-40.794H617.812m966.108-40.794H617.812m966.108-40.794H617.812m523.878-40.49H651.5m490.87-41.25H693.438" stroke-width="2"/></g><path d="M409 130h284v160H409V130Z" fill="#8353E3"/></svg>