<svg width="15" height="13" fill="none" xmlns="http://www.w3.org/2000/svg"><g clip-path="url(#a)" fill="#FE3344"><path d="M8.571 10.835h2.145V8.666H8.571v2.17Zm2.145-2.169h2.141V6.502h-2.14v2.164Zm2.141-4.333v2.17h2.145V2.168h-2.145v2.164ZM2.145 2.169H0v4.334h2.145V2.168Zm0 4.333v2.164h2.14V6.502h-2.14Zm2.141 2.164v2.17H6.43v-2.17H4.286ZM6.43 13h2.141v-2.165h-2.14V13Zm6.427-10.831V0H8.571v2.169h4.286Zm-6.427 0V0H2.146v2.169h4.286Zm2.141 2.164V2.17h-2.14v2.164h2.14Z"/></g><defs><clipPath id="a"><path fill="#fff" d="M0 0h15v13H0z"/></clipPath></defs></svg>